;Layer: Drill PTH
;EasyEDA v6.3.53, 2020-07-07T17:09:39+02:00
;a5cadded52d348ca89a3f83f906f7d41,10
;Gerber Generator version 0.2
M48
METRIC,LZ,000.000
;Holesize 1 = 0.305 METRIC
T01C0.305
;Holesize 2 = 0.889 METRIC
T02C0.889
;Holesize 3 = 0.915 METRIC
T03C0.915
;Holesize 4 = 1.000 METRIC
T04C1.000
;Holesize 5 = 1.101 METRIC
T05C1.101
%
G05
G90
T01
X+013716Y+018034
X+025019Y+025654
X+063500Y+046101
X+051511Y+047625
X+051510Y+050800
X+051308Y+056769
X+051279Y+059563
X+028829Y+017780
X+028575Y+014986
X+089916Y+035052
X+075946Y+033782
X+084582Y+036449
X+053594Y+043561
X+063627Y+048133
X+065405Y+044069
X+030734Y+047879
X+061217Y+043748
X+078232Y+044323
X+062865Y+051435
X+058331Y+047625
X+058416Y+043748
X+056731Y+047625
X+053594Y+041452
X+061214Y+042799
X+067310Y+036322
X+017399Y+023368
X+015748Y+025221
X+011176Y+025019
X+010160Y+024892
X+009271Y+024892
X+029972Y+056007
X+018669Y+054737
X+003556Y+042672
X+021590Y+053721
X+024130Y+053340
X+029718Y+054991
X+030861Y+054229
X+028702Y+053340
X+002921Y+043434
X+002413Y+044323
X+001651Y+045085
X+010668Y+028321
X+009525Y+028575
X+008636Y+028575
X+007493Y+028194
X+044436Y+010922
X+004445Y+036499
X+012065Y+036499
X+004445Y+046151
X+012065Y+046151
X+020574Y+030607
X+017272Y+041158
X+006985Y+040208
X+016510Y+034925
X+003683Y+039497
X+015621Y+034798
X+005715Y+040208
X+015113Y+035560
X+010795Y+030556
X+017526Y+029083
X+045212Y+029337
X+049276Y+036322
X+054356Y+036233
X+019431Y+028067
X+014097Y+027559
X+005715Y+046151
X+018161Y+039497
X+059436Y+036233
X+052517Y+032618
X+020066Y+028575
X+019685Y+033147
X+025339Y+032745
X+048006Y+037211
X+031816Y+032618
X+044831Y+028448
X+077978Y+020828
X+036896Y+032618
X+045339Y+036576
X+045339Y+036576
X+063881Y+038100
X+038354Y+039370
X+047437Y+032618
X+049657Y+029464
X+057597Y+032618
X+009525Y+046151
X+009525Y+036499
X+010795Y+046151
X+010795Y+036499
X+016764Y+052578
X+013335Y+046151
X+012319Y+042164
X+007112Y+042164
X+006985Y+036576
X+001143Y+029464
X+053594Y+002540
X+061087Y+002667
X+068707Y+003198
X+005334Y+022987
X+006223Y+026670
X+011430Y+034925
X+010795Y+040259
X+005588Y+025019
X+026924Y+003937
X+028321Y+028448
X+029464Y+028448
X+030734Y+028321
X+028829Y+035779
X+029845Y+035687
X+030988Y+035687
X+024765Y+037846
X+026162Y+038608
X+029845Y+038354
X+053848Y+039751
X+068072Y+026797
X+068072Y+029591
X+062103Y+032893
X+039878Y+044958
X+017463Y+047337
X+035306Y+047371
X+046101Y+028702
X+046101Y+030861
X+039878Y+038989
X+043053Y+040005
X+042975Y+043257
X+048006Y+059182
X+051816Y+038989
X+055880Y+031369
X+046609Y+038608
X+044831Y+041021
X+044704Y+042672
X+049403Y+056642
X+051689Y+026289
X+047371Y+028829
X+047625Y+040386
X+042926Y+038608
X+046228Y+040894
X+045720Y+042418
X+047371Y+044069
X+044196Y+059309
X+014224Y+031750
X+014351Y+032639
X+014859Y+033274
X+015113Y+028829
X+015748Y+029337
X+016510Y+029337
X+015113Y+027559
X+016002Y+027559
X+017018Y+027686
X+015621Y+033909
X+017907Y+027813
X+091694Y+027432
X+093091Y+026924
X+081915Y+018542
X+038100Y+017780
X+035052Y+019558
X+027686Y+019558
X+023622Y+019304
X+039243Y+005207
X+084582Y+017272
X+025527Y+014097
X+029591Y+015875
X+104394Y+020701
X+089154Y+012827
X+045466Y+011811
X+029718Y+013208
X+107442Y+019349
X+095250Y+013208
X+041148Y+009906
X+028702Y+011303
X+025146Y+011557
X+021971Y+017780
X+094524Y+010007
X+088519Y+020828
X+086614Y+030607
X+084074Y+041783
X+073914Y+057150
X+098171Y+014097
X+095250Y+018034
X+097790Y+034925
X+093218Y+043688
X+087503Y+055880
X+089916Y+036576
X+103124Y+025908
X+104394Y+036576
X+085725Y+032639
X+076200Y+044323
X+069850Y+041402
X+008255Y+046151
X+008255Y+036499
X+002794Y+022236
X+013169Y+060452
X+023876Y+056007
X+016002Y+032385
X+017018Y+030099
X+023114Y+029464
X+036195Y+021209
X+033782Y+018415
X+048006Y+019304
X+027432Y+020941
X+009144Y+015555
X+041402Y+042799
X+020955Y+048006
X+032004Y+038735
X+019939Y+054102
T02
X+032893Y+011303
X+035433Y+011303
X+032893Y+008763
X+035433Y+008763
X+032893Y+006223
X+035433Y+006223
X+064897Y+016510
X+062357Y+016510
X+059817Y+016510
X+057277Y+016510
X+054737Y+016510
X+052197Y+016510
X+087884Y+024130
X+085344Y+024130
X+082804Y+024130
X+074930Y+024130
X+072390Y+024130
X+069850Y+024130
X+076454Y+016510
X+073914Y+016510
X+071374Y+016510
X+105664Y+024130
X+103124Y+024130
X+100584Y+024130
X+098044Y+024130
X+095504Y+024130
X+062357Y+024130
X+059817Y+024130
X+057277Y+024130
X+054737Y+024130
X+052197Y+024130
X+044577Y+016510
X+042037Y+016510
X+039497Y+016510
X+036957Y+016510
X+034417Y+016510
X+044577Y+024130
X+042037Y+024130
X+039497Y+024130
X+036957Y+024130
X+034417Y+024130
X+100203Y+014859
X+102743Y+014859
X+086487Y+014986
X+089027Y+014986
T03
X+105283Y+014859
X+091567Y+014986
T04
X+009652Y+057785
X+012192Y+057785
X+014732Y+057785
X+017272Y+057785
X+019812Y+057785
X+022352Y+057785
X+024892Y+057785
X+027432Y+057785
X+029972Y+057785
X+032512Y+057785
X+035052Y+057785
X+037592Y+057785
X+040132Y+057785
X+042672Y+057785
X+042672Y+050165
X+040132Y+050165
X+037592Y+050165
X+035052Y+050165
X+032512Y+050165
X+029972Y+050165
X+027432Y+050165
X+024892Y+050165
X+022352Y+050165
X+019812Y+050165
X+014732Y+050165
X+017272Y+050165
X+012192Y+050165
X+009652Y+050165
T05
X+088900Y+032639
X+091440Y+032639
X+099060Y+032639
X+101600Y+032639
X+093980Y+032639
X+096520Y+032639
X+104140Y+032639
X+106680Y+032639
X+106680Y+040259
X+104140Y+040259
X+101600Y+040259
X+099060Y+040259
X+096520Y+040259
X+093980Y+040259
X+091440Y+040259
X+088900Y+040259
M30
