G04 Layer: TopSolderMaskLayer*
G04 EasyEDA v6.3.53, 2020-07-07T17:09:39+02:00*
G04 a5cadded52d348ca89a3f83f906f7d41,10*
G04 Gerber Generator version 0.2*
G04 Scale: 100 percent, Rotated: No, Reflected: No *
G04 Dimensions in millimeters *
G04 leading zeros omitted , absolute positions ,3 integer and 3 decimal *
%FSLAX33Y33*%
%MOMM*%
G90*
G71D02*

%ADD54C,0.803199*%
%ADD68C,2.003196*%
%ADD74C,1.778000*%
%ADD75R,1.778000X1.778000*%
%ADD76R,0.603199X1.903197*%
%ADD84C,1.727200*%

%LPD*%
G54D54*
G01X53473Y59944D02*
G01X52553Y59944D01*
G01X53473Y58674D02*
G01X52553Y58674D01*
G01X53473Y57404D02*
G01X52553Y57404D01*
G01X53473Y56134D02*
G01X52553Y56134D01*
G01X58952Y59944D02*
G01X58032Y59944D01*
G01X58952Y58674D02*
G01X58032Y58674D01*
G01X58952Y57404D02*
G01X58032Y57404D01*
G01X58952Y56134D02*
G01X58032Y56134D01*
G01X13335Y35899D02*
G01X13335Y37099D01*
G01X12065Y35899D02*
G01X12065Y37099D01*
G01X10795Y35899D02*
G01X10795Y37099D01*
G01X9525Y35899D02*
G01X9525Y37099D01*
G01X8255Y35899D02*
G01X8255Y37099D01*
G01X6985Y35899D02*
G01X6985Y37099D01*
G01X5715Y35899D02*
G01X5715Y37099D01*
G01X4445Y35899D02*
G01X4445Y37099D01*
G01X13335Y29956D02*
G01X13335Y31156D01*
G01X12065Y29956D02*
G01X12065Y31156D01*
G01X10795Y29956D02*
G01X10795Y31156D01*
G01X9525Y29956D02*
G01X9525Y31156D01*
G01X8255Y29956D02*
G01X8255Y31156D01*
G01X6985Y29956D02*
G01X6985Y31156D01*
G01X5715Y29956D02*
G01X5715Y31156D01*
G01X4445Y29956D02*
G01X4445Y31156D01*
G01X13335Y45551D02*
G01X13335Y46751D01*
G01X12065Y45551D02*
G01X12065Y46751D01*
G01X10795Y45551D02*
G01X10795Y46751D01*
G01X9525Y45551D02*
G01X9525Y46751D01*
G01X8255Y45551D02*
G01X8255Y46751D01*
G01X6985Y45551D02*
G01X6985Y46751D01*
G01X5715Y45551D02*
G01X5715Y46751D01*
G01X4445Y45551D02*
G01X4445Y46751D01*
G01X13335Y39608D02*
G01X13335Y40808D01*
G01X12065Y39608D02*
G01X12065Y40808D01*
G01X10795Y39608D02*
G01X10795Y40808D01*
G01X9525Y39608D02*
G01X9525Y40808D01*
G01X8255Y39608D02*
G01X8255Y40808D01*
G01X6985Y39608D02*
G01X6985Y40808D01*
G01X5715Y39608D02*
G01X5715Y40808D01*
G01X4445Y39608D02*
G01X4445Y40808D01*
G36*
G01X70921Y49570D02*
G01X70921Y51775D01*
G01X73124Y51775D01*
G01X73124Y49570D01*
G01X70921Y49570D01*
G37*
G36*
G01X66321Y49570D02*
G01X66321Y51775D01*
G01X68524Y51775D01*
G01X68524Y49570D01*
G01X66321Y49570D01*
G37*
G36*
G01X9423Y4658D02*
G01X9423Y7147D01*
G01X10896Y7147D01*
G01X10896Y4658D01*
G01X9423Y4658D01*
G37*
G36*
G01X24917Y4658D02*
G01X24917Y7147D01*
G01X26390Y7147D01*
G01X26390Y4658D01*
G01X24917Y4658D01*
G37*
G36*
G01X23901Y14754D02*
G01X23901Y16355D01*
G01X25882Y16355D01*
G01X25882Y14754D01*
G01X23901Y14754D01*
G37*
G36*
G01X9423Y14754D02*
G01X9423Y16355D01*
G01X10896Y16355D01*
G01X10896Y14754D01*
G01X9423Y14754D01*
G37*
G36*
G01X10955Y15092D02*
G01X10955Y17294D01*
G01X11859Y17294D01*
G01X11859Y15092D01*
G01X10955Y15092D01*
G37*
G36*
G01X12059Y15092D02*
G01X12059Y17294D01*
G01X12964Y17294D01*
G01X12964Y15092D01*
G01X12059Y15092D01*
G37*
G36*
G01X13157Y15092D02*
G01X13157Y17294D01*
G01X14061Y17294D01*
G01X14061Y15092D01*
G01X13157Y15092D01*
G37*
G36*
G01X14254Y15092D02*
G01X14254Y17294D01*
G01X15158Y17294D01*
G01X15158Y15092D01*
G01X14254Y15092D01*
G37*
G36*
G01X15351Y15092D02*
G01X15351Y17294D01*
G01X16256Y17294D01*
G01X16256Y15092D01*
G01X15351Y15092D01*
G37*
G36*
G01X16451Y15092D02*
G01X16451Y17294D01*
G01X17355Y17294D01*
G01X17355Y15092D01*
G01X16451Y15092D01*
G37*
G36*
G01X17551Y15092D02*
G01X17551Y17294D01*
G01X18453Y17294D01*
G01X18453Y15092D01*
G01X17551Y15092D01*
G37*
G36*
G01X18646Y15090D02*
G01X18646Y17294D01*
G01X19550Y17294D01*
G01X19550Y15090D01*
G01X18646Y15090D01*
G37*
G36*
G01X19745Y15092D02*
G01X19745Y17294D01*
G01X20650Y17294D01*
G01X20650Y15092D01*
G01X19745Y15092D01*
G37*
G36*
G01X75603Y3708D02*
G01X75603Y5003D01*
G01X76796Y5003D01*
G01X76796Y3708D01*
G01X75603Y3708D01*
G37*
G36*
G01X75603Y5410D02*
G01X75603Y6705D01*
G01X76796Y6705D01*
G01X76796Y5410D01*
G01X75603Y5410D01*
G37*
G36*
G01X52717Y42943D02*
G01X52717Y44147D01*
G01X54470Y44147D01*
G01X54470Y42943D01*
G01X52717Y42943D01*
G37*
G36*
G01X52717Y40942D02*
G01X52717Y42146D01*
G01X54470Y42146D01*
G01X54470Y40942D01*
G01X52717Y40942D01*
G37*
G36*
G01X75613Y43446D02*
G01X75613Y45199D01*
G01X76817Y45199D01*
G01X76817Y43446D01*
G01X75613Y43446D01*
G37*
G36*
G01X77614Y43446D02*
G01X77614Y45199D01*
G01X78818Y45199D01*
G01X78818Y43446D01*
G01X77614Y43446D01*
G37*
G36*
G01X50810Y49748D02*
G01X50810Y51851D01*
G01X52212Y51851D01*
G01X52212Y49748D01*
G01X50810Y49748D01*
G37*
G36*
G01X47609Y49748D02*
G01X47609Y51851D01*
G01X49011Y51851D01*
G01X49011Y49748D01*
G01X47609Y49748D01*
G37*
G36*
G01X47609Y46573D02*
G01X47609Y48676D01*
G01X49011Y48676D01*
G01X49011Y46573D01*
G01X47609Y46573D01*
G37*
G36*
G01X50810Y46573D02*
G01X50810Y48676D01*
G01X52212Y48676D01*
G01X52212Y46573D01*
G01X50810Y46573D01*
G37*
G36*
G01X62120Y50558D02*
G01X62120Y52311D01*
G01X63324Y52311D01*
G01X63324Y50558D01*
G01X62120Y50558D01*
G37*
G36*
G01X60119Y50558D02*
G01X60119Y52311D01*
G01X61323Y52311D01*
G01X61323Y50558D01*
G01X60119Y50558D01*
G37*
G36*
G01X60284Y3251D02*
G01X60284Y4455D01*
G01X61889Y4455D01*
G01X61889Y3251D01*
G01X60284Y3251D01*
G37*
G36*
G01X60284Y5450D02*
G01X60284Y6654D01*
G01X61889Y6654D01*
G01X61889Y5450D01*
G01X60284Y5450D01*
G37*
G36*
G01X68110Y3708D02*
G01X68110Y5003D01*
G01X69303Y5003D01*
G01X69303Y3708D01*
G01X68110Y3708D01*
G37*
G36*
G01X68110Y5410D02*
G01X68110Y6705D01*
G01X69303Y6705D01*
G01X69303Y5410D01*
G01X68110Y5410D01*
G37*
G36*
G01X28831Y43101D02*
G01X28831Y44452D01*
G01X30436Y44452D01*
G01X30436Y43101D01*
G01X28831Y43101D01*
G37*
G36*
G01X31452Y44701D02*
G01X31033Y45140D01*
G01X31033Y46052D01*
G01X32636Y46052D01*
G01X32636Y44701D01*
G01X31452Y44701D01*
G37*
G36*
G01X31033Y43101D02*
G01X31033Y44452D01*
G01X32636Y44452D01*
G01X32636Y43101D01*
G01X31033Y43101D01*
G37*
G36*
G01X28831Y44701D02*
G01X28831Y46052D01*
G01X30436Y46052D01*
G01X30436Y44701D01*
G01X28831Y44701D01*
G37*
G36*
G01X43365Y8765D02*
G01X43365Y9667D01*
G01X44869Y9667D01*
G01X44869Y8765D01*
G01X43365Y8765D01*
G37*
G36*
G01X49364Y8765D02*
G01X49364Y9667D01*
G01X50868Y9667D01*
G01X50868Y8765D01*
G01X49364Y8765D01*
G37*
G36*
G01X43365Y5064D02*
G01X43365Y5966D01*
G01X44869Y5966D01*
G01X44869Y5064D01*
G01X43365Y5064D01*
G37*
G36*
G01X49364Y5064D02*
G01X49364Y5966D01*
G01X50868Y5966D01*
G01X50868Y5064D01*
G01X49364Y5064D01*
G37*
G36*
G01X52743Y3708D02*
G01X52743Y5003D01*
G01X53936Y5003D01*
G01X53936Y3708D01*
G01X52743Y3708D01*
G37*
G36*
G01X52743Y5410D02*
G01X52743Y6705D01*
G01X53936Y6705D01*
G01X53936Y5410D01*
G01X52743Y5410D01*
G37*
G36*
G01X79910Y33088D02*
G01X79910Y38793D01*
G01X83964Y38793D01*
G01X83964Y33088D01*
G01X79910Y33088D01*
G37*
G36*
G01X69959Y33088D02*
G01X69959Y38793D01*
G01X74013Y38793D01*
G01X74013Y33088D01*
G01X69959Y33088D01*
G37*
G36*
G01X62750Y45514D02*
G01X62750Y46718D01*
G01X64503Y46718D01*
G01X64503Y45514D01*
G01X62750Y45514D01*
G37*
G36*
G01X62750Y47515D02*
G01X62750Y48719D01*
G01X64503Y48719D01*
G01X64503Y47515D01*
G01X62750Y47515D01*
G37*
G54D68*
G01X9652Y57785D03*
G01X12192Y57785D03*
G01X14732Y57785D03*
G01X17272Y57785D03*
G01X19812Y57785D03*
G01X22352Y57785D03*
G01X24892Y57785D03*
G01X27432Y57785D03*
G01X29972Y57785D03*
G01X32512Y57785D03*
G01X35052Y57785D03*
G01X37592Y57785D03*
G01X40132Y57785D03*
G01X42672Y57785D03*
G01X42672Y50165D03*
G01X40132Y50165D03*
G01X37592Y50165D03*
G01X35052Y50165D03*
G01X32512Y50165D03*
G01X29972Y50165D03*
G01X27432Y50165D03*
G01X24892Y50165D03*
G01X22352Y50165D03*
G01X19812Y50165D03*
G01X14732Y50165D03*
G01X17272Y50165D03*
G01X12192Y50165D03*
G36*
G01X8651Y49301D02*
G01X8651Y51028D01*
G01X10652Y51028D01*
G01X10652Y49301D01*
G01X8651Y49301D01*
G37*
G36*
G01X14696Y21320D02*
G01X14696Y22722D01*
G01X16799Y22722D01*
G01X16799Y21320D01*
G01X14696Y21320D01*
G37*
G36*
G01X14696Y24521D02*
G01X14696Y25923D01*
G01X16799Y25923D01*
G01X16799Y24521D01*
G01X14696Y24521D01*
G37*
G36*
G01X7630Y8219D02*
G01X7630Y10322D01*
G01X9032Y10322D01*
G01X9032Y8219D01*
G01X7630Y8219D01*
G37*
G36*
G01X4429Y8219D02*
G01X4429Y10322D01*
G01X5831Y10322D01*
G01X5831Y8219D01*
G01X4429Y8219D01*
G37*
G36*
G01X5313Y16515D02*
G01X3591Y17721D01*
G01X4396Y18872D01*
G01X6118Y17665D01*
G01X5313Y16515D01*
G37*
G36*
G01X3477Y13893D02*
G01X1755Y15100D01*
G01X2560Y16250D01*
G01X4282Y15044D01*
G01X3477Y13893D01*
G37*
G36*
G01X26786Y32019D02*
G01X26786Y33472D01*
G01X27691Y33472D01*
G01X27691Y32019D01*
G01X26786Y32019D01*
G37*
G36*
G01X24886Y32019D02*
G01X24886Y33472D01*
G01X25791Y33472D01*
G01X25791Y32019D01*
G01X24886Y32019D01*
G37*
G36*
G01X25836Y29519D02*
G01X25836Y30972D01*
G01X26741Y30972D01*
G01X26741Y29519D01*
G01X25836Y29519D01*
G37*
G36*
G01X33263Y31892D02*
G01X33263Y33345D01*
G01X34168Y33345D01*
G01X34168Y31892D01*
G01X33263Y31892D01*
G37*
G36*
G01X31363Y31892D02*
G01X31363Y33345D01*
G01X32268Y33345D01*
G01X32268Y31892D01*
G01X31363Y31892D01*
G37*
G36*
G01X32313Y29392D02*
G01X32313Y30845D01*
G01X33218Y30845D01*
G01X33218Y29392D01*
G01X32313Y29392D01*
G37*
G36*
G01X38343Y31892D02*
G01X38343Y33345D01*
G01X39248Y33345D01*
G01X39248Y31892D01*
G01X38343Y31892D01*
G37*
G36*
G01X36443Y31892D02*
G01X36443Y33345D01*
G01X37348Y33345D01*
G01X37348Y31892D01*
G01X36443Y31892D01*
G37*
G36*
G01X37393Y29392D02*
G01X37393Y30845D01*
G01X38298Y30845D01*
G01X38298Y29392D01*
G01X37393Y29392D01*
G37*
G36*
G01X43423Y31892D02*
G01X43423Y33345D01*
G01X44328Y33345D01*
G01X44328Y31892D01*
G01X43423Y31892D01*
G37*
G36*
G01X41523Y31892D02*
G01X41523Y33345D01*
G01X42428Y33345D01*
G01X42428Y31892D01*
G01X41523Y31892D01*
G37*
G36*
G01X42473Y29392D02*
G01X42473Y30845D01*
G01X43378Y30845D01*
G01X43378Y29392D01*
G01X42473Y29392D01*
G37*
G36*
G01X48884Y31892D02*
G01X48884Y33345D01*
G01X49789Y33345D01*
G01X49789Y31892D01*
G01X48884Y31892D01*
G37*
G36*
G01X46984Y31892D02*
G01X46984Y33345D01*
G01X47889Y33345D01*
G01X47889Y31892D01*
G01X46984Y31892D01*
G37*
G36*
G01X47934Y29392D02*
G01X47934Y30845D01*
G01X48839Y30845D01*
G01X48839Y29392D01*
G01X47934Y29392D01*
G37*
G36*
G01X53964Y31892D02*
G01X53964Y33345D01*
G01X54869Y33345D01*
G01X54869Y31892D01*
G01X53964Y31892D01*
G37*
G36*
G01X52064Y31892D02*
G01X52064Y33345D01*
G01X52969Y33345D01*
G01X52969Y31892D01*
G01X52064Y31892D01*
G37*
G36*
G01X53014Y29392D02*
G01X53014Y30845D01*
G01X53919Y30845D01*
G01X53919Y29392D01*
G01X53014Y29392D01*
G37*
G36*
G01X59044Y31892D02*
G01X59044Y33345D01*
G01X59949Y33345D01*
G01X59949Y31892D01*
G01X59044Y31892D01*
G37*
G36*
G01X57144Y31892D02*
G01X57144Y33345D01*
G01X58049Y33345D01*
G01X58049Y31892D01*
G01X57144Y31892D01*
G37*
G36*
G01X58094Y29392D02*
G01X58094Y30845D01*
G01X58999Y30845D01*
G01X58999Y29392D01*
G01X58094Y29392D01*
G37*
G36*
G01X21071Y32527D02*
G01X21071Y33980D01*
G01X21976Y33980D01*
G01X21976Y32527D01*
G01X21071Y32527D01*
G37*
G36*
G01X19171Y32527D02*
G01X19171Y33980D01*
G01X20076Y33980D01*
G01X20076Y32527D01*
G01X19171Y32527D01*
G37*
G36*
G01X20121Y30027D02*
G01X20121Y31480D01*
G01X21026Y31480D01*
G01X21026Y30027D01*
G01X20121Y30027D01*
G37*
G36*
G01X20215Y41003D02*
G01X20215Y42308D01*
G01X21419Y42308D01*
G01X21419Y41003D01*
G01X20215Y41003D01*
G37*
G36*
G01X22016Y41003D02*
G01X22016Y42308D01*
G01X23218Y42308D01*
G01X23218Y41003D01*
G01X22016Y41003D01*
G37*
G36*
G01X41572Y41003D02*
G01X41572Y42308D01*
G01X42776Y42308D01*
G01X42776Y41003D01*
G01X41572Y41003D01*
G37*
G36*
G01X39773Y41003D02*
G01X39773Y42308D01*
G01X40975Y42308D01*
G01X40975Y41003D01*
G01X39773Y41003D01*
G37*
G36*
G01X33002Y33903D02*
G01X33002Y35107D01*
G01X34307Y35107D01*
G01X34307Y33903D01*
G01X33002Y33903D01*
G37*
G36*
G01X33002Y35504D02*
G01X33002Y36708D01*
G01X34307Y36708D01*
G01X34307Y35504D01*
G01X33002Y35504D01*
G37*
G36*
G01X26652Y35758D02*
G01X26652Y36962D01*
G01X27957Y36962D01*
G01X27957Y35758D01*
G01X26652Y35758D01*
G37*
G36*
G01X26652Y34157D02*
G01X26652Y35361D01*
G01X27957Y35361D01*
G01X27957Y34157D01*
G01X26652Y34157D01*
G37*
G36*
G01X38082Y33903D02*
G01X38082Y35107D01*
G01X39387Y35107D01*
G01X39387Y33903D01*
G01X38082Y33903D01*
G37*
G36*
G01X38082Y35504D02*
G01X38082Y36708D01*
G01X39387Y36708D01*
G01X39387Y35504D01*
G01X38082Y35504D01*
G37*
G36*
G01X43289Y34157D02*
G01X43289Y35361D01*
G01X44594Y35361D01*
G01X44594Y34157D01*
G01X43289Y34157D01*
G37*
G36*
G01X43289Y35758D02*
G01X43289Y36962D01*
G01X44594Y36962D01*
G01X44594Y35758D01*
G01X43289Y35758D01*
G37*
G36*
G01X48623Y34030D02*
G01X48623Y35234D01*
G01X49928Y35234D01*
G01X49928Y34030D01*
G01X48623Y34030D01*
G37*
G36*
G01X48623Y35631D02*
G01X48623Y36835D01*
G01X49928Y36835D01*
G01X49928Y35631D01*
G01X48623Y35631D01*
G37*
G36*
G01X53703Y34030D02*
G01X53703Y35234D01*
G01X55008Y35234D01*
G01X55008Y34030D01*
G01X53703Y34030D01*
G37*
G36*
G01X53703Y35631D02*
G01X53703Y36835D01*
G01X55008Y36835D01*
G01X55008Y35631D01*
G01X53703Y35631D01*
G37*
G36*
G01X58783Y34030D02*
G01X58783Y35234D01*
G01X60088Y35234D01*
G01X60088Y34030D01*
G01X58783Y34030D01*
G37*
G36*
G01X58783Y35631D02*
G01X58783Y36835D01*
G01X60088Y36835D01*
G01X60088Y35631D01*
G01X58783Y35631D01*
G37*
G36*
G01X20556Y34411D02*
G01X20556Y35615D01*
G01X21861Y35615D01*
G01X21861Y34411D01*
G01X20556Y34411D01*
G37*
G36*
G01X20556Y36012D02*
G01X20556Y37216D01*
G01X21861Y37216D01*
G01X21861Y36012D01*
G01X20556Y36012D01*
G37*
G36*
G01X53665Y9126D02*
G01X53665Y10431D01*
G01X54869Y10431D01*
G01X54869Y9126D01*
G01X53665Y9126D01*
G37*
G36*
G01X52064Y9126D02*
G01X52064Y10431D01*
G01X53268Y10431D01*
G01X53268Y9126D01*
G01X52064Y9126D01*
G37*
G36*
G01X61031Y8999D02*
G01X61031Y10304D01*
G01X62235Y10304D01*
G01X62235Y8999D01*
G01X61031Y8999D01*
G37*
G36*
G01X59430Y8999D02*
G01X59430Y10304D01*
G01X60634Y10304D01*
G01X60634Y8999D01*
G01X59430Y8999D01*
G37*
G36*
G01X69032Y9507D02*
G01X69032Y10812D01*
G01X70236Y10812D01*
G01X70236Y9507D01*
G01X69032Y9507D01*
G37*
G36*
G01X67431Y9507D02*
G01X67431Y10812D01*
G01X68635Y10812D01*
G01X68635Y9507D01*
G01X67431Y9507D01*
G37*
G36*
G01X76144Y9380D02*
G01X76144Y10685D01*
G01X77348Y10685D01*
G01X77348Y9380D01*
G01X76144Y9380D01*
G37*
G36*
G01X74543Y9380D02*
G01X74543Y10685D01*
G01X75747Y10685D01*
G01X75747Y9380D01*
G01X74543Y9380D01*
G37*
G54D74*
G01X32893Y11303D03*
G01X35433Y11303D03*
G01X32893Y8763D03*
G01X35433Y8763D03*
G01X32893Y6223D03*
G54D75*
G01X35433Y6223D03*
G36*
G01X7655Y20124D02*
G01X7655Y22026D01*
G01X8257Y22026D01*
G01X8257Y20124D01*
G01X7655Y20124D01*
G37*
G36*
G01X8303Y20124D02*
G01X8303Y22026D01*
G01X8907Y22026D01*
G01X8907Y20124D01*
G01X8303Y20124D01*
G37*
G36*
G01X8953Y20124D02*
G01X8953Y22026D01*
G01X9558Y22026D01*
G01X9558Y20124D01*
G01X8953Y20124D01*
G37*
G36*
G01X9603Y20124D02*
G01X9603Y22026D01*
G01X10208Y22026D01*
G01X10208Y20124D01*
G01X9603Y20124D01*
G37*
G36*
G01X10253Y20124D02*
G01X10253Y22026D01*
G01X10858Y22026D01*
G01X10858Y20124D01*
G01X10253Y20124D01*
G37*
G36*
G01X10904Y20124D02*
G01X10904Y22026D01*
G01X11508Y22026D01*
G01X11508Y20124D01*
G01X10904Y20124D01*
G37*
G36*
G01X11554Y20124D02*
G01X11554Y22026D01*
G01X12156Y22026D01*
G01X12156Y20124D01*
G01X11554Y20124D01*
G37*
G54D76*
G01X11855Y26676D03*
G01X11205Y26676D03*
G36*
G01X10253Y25725D02*
G01X10253Y27627D01*
G01X10858Y27627D01*
G01X10858Y25725D01*
G01X10253Y25725D01*
G37*
G36*
G01X9603Y25725D02*
G01X9603Y27627D01*
G01X10208Y27627D01*
G01X10208Y25725D01*
G01X9603Y25725D01*
G37*
G36*
G01X8953Y25725D02*
G01X8953Y27627D01*
G01X9558Y27627D01*
G01X9558Y25725D01*
G01X8953Y25725D01*
G37*
G36*
G01X8303Y25725D02*
G01X8303Y27627D01*
G01X8907Y27627D01*
G01X8907Y25725D01*
G01X8303Y25725D01*
G37*
G36*
G01X7655Y25725D02*
G01X7655Y27627D01*
G01X8257Y27627D01*
G01X8257Y25725D01*
G01X7655Y25725D01*
G37*
G36*
G01X73964Y50756D02*
G01X73964Y55161D01*
G01X77668Y55161D01*
G01X77668Y50756D01*
G01X73964Y50756D01*
G37*
G36*
G01X103941Y50756D02*
G01X103941Y55161D01*
G01X107645Y55161D01*
G01X107645Y50756D01*
G01X103941Y50756D01*
G37*
G36*
G01X27729Y59672D02*
G01X27729Y60977D01*
G01X28933Y60977D01*
G01X28933Y59672D01*
G01X27729Y59672D01*
G37*
G36*
G01X25930Y59672D02*
G01X25930Y60977D01*
G01X27132Y60977D01*
G01X27132Y59672D01*
G01X25930Y59672D01*
G37*
G36*
G01X24427Y46464D02*
G01X24427Y47769D01*
G01X25631Y47769D01*
G01X25631Y46464D01*
G01X24427Y46464D01*
G37*
G36*
G01X22628Y46464D02*
G01X22628Y47769D01*
G01X23830Y47769D01*
G01X23830Y46464D01*
G01X22628Y46464D01*
G37*
G36*
G01X54251Y52560D02*
G01X54251Y53865D01*
G01X55455Y53865D01*
G01X55455Y52560D01*
G01X54251Y52560D01*
G37*
G36*
G01X56052Y52560D02*
G01X56052Y53865D01*
G01X57254Y53865D01*
G01X57254Y52560D01*
G01X56052Y52560D01*
G37*
G54D74*
G01X64897Y16510D03*
G01X62357Y16510D03*
G01X59817Y16510D03*
G01X57277Y16510D03*
G01X54737Y16510D03*
G36*
G01X51308Y15621D02*
G01X51308Y17399D01*
G01X53086Y17399D01*
G01X53086Y15621D01*
G01X51308Y15621D01*
G37*
G36*
G01X60614Y43373D02*
G01X60614Y44124D01*
G01X61818Y44124D01*
G01X61818Y43373D01*
G01X60614Y43373D01*
G37*
G36*
G01X60614Y42423D02*
G01X60614Y43174D01*
G01X61818Y43174D01*
G01X61818Y42423D01*
G01X60614Y42423D01*
G37*
G36*
G01X60614Y41473D02*
G01X60614Y42224D01*
G01X61818Y42224D01*
G01X61818Y41473D01*
G01X60614Y41473D01*
G37*
G36*
G01X57815Y41473D02*
G01X57815Y42224D01*
G01X59019Y42224D01*
G01X59019Y41473D01*
G01X57815Y41473D01*
G37*
G36*
G01X57815Y42423D02*
G01X57815Y43174D01*
G01X59019Y43174D01*
G01X59019Y42423D01*
G01X57815Y42423D01*
G37*
G36*
G01X57815Y43373D02*
G01X57815Y44124D01*
G01X59019Y44124D01*
G01X59019Y43373D01*
G01X57815Y43373D01*
G37*
G36*
G01X82212Y6154D02*
G01X82212Y7358D01*
G01X83416Y7358D01*
G01X83416Y6154D01*
G01X82212Y6154D01*
G37*
G36*
G01X89811Y6154D02*
G01X89811Y7358D01*
G01X91015Y7358D01*
G01X91015Y6154D01*
G01X89811Y6154D01*
G37*
G36*
G01X82212Y8356D02*
G01X82212Y9558D01*
G01X83416Y9558D01*
G01X83416Y8356D01*
G01X82212Y8356D01*
G37*
G36*
G01X89811Y8356D02*
G01X89811Y9558D01*
G01X91015Y9558D01*
G01X91015Y8356D01*
G01X89811Y8356D01*
G37*
G36*
G01X83761Y9204D02*
G01X83761Y10807D01*
G01X84965Y10807D01*
G01X84965Y9204D01*
G01X83761Y9204D01*
G37*
G36*
G01X86761Y9204D02*
G01X86761Y10807D01*
G01X87965Y10807D01*
G01X87965Y9204D01*
G01X86761Y9204D01*
G37*
G36*
G01X88262Y9204D02*
G01X88262Y10807D01*
G01X89466Y10807D01*
G01X89466Y9204D01*
G01X88262Y9204D01*
G37*
G36*
G01X92372Y6154D02*
G01X92372Y7358D01*
G01X93576Y7358D01*
G01X93576Y6154D01*
G01X92372Y6154D01*
G37*
G36*
G01X99971Y6154D02*
G01X99971Y7358D01*
G01X101175Y7358D01*
G01X101175Y6154D01*
G01X99971Y6154D01*
G37*
G36*
G01X92372Y8356D02*
G01X92372Y9558D01*
G01X93576Y9558D01*
G01X93576Y8356D01*
G01X92372Y8356D01*
G37*
G36*
G01X99971Y8356D02*
G01X99971Y9558D01*
G01X101175Y9558D01*
G01X101175Y8356D01*
G01X99971Y8356D01*
G37*
G36*
G01X93921Y9204D02*
G01X93921Y10807D01*
G01X95125Y10807D01*
G01X95125Y9204D01*
G01X93921Y9204D01*
G37*
G36*
G01X96921Y9204D02*
G01X96921Y10807D01*
G01X98125Y10807D01*
G01X98125Y9204D01*
G01X96921Y9204D01*
G37*
G36*
G01X98422Y9204D02*
G01X98422Y10807D01*
G01X99626Y10807D01*
G01X99626Y9204D01*
G01X98422Y9204D01*
G37*
G36*
G01X12567Y59799D02*
G01X12567Y61104D01*
G01X13771Y61104D01*
G01X13771Y59799D01*
G01X12567Y59799D01*
G37*
G36*
G01X14168Y59799D02*
G01X14168Y61104D01*
G01X15372Y61104D01*
G01X15372Y59799D01*
G01X14168Y59799D01*
G37*
G36*
G01X18232Y59799D02*
G01X18232Y61104D01*
G01X19436Y61104D01*
G01X19436Y59799D01*
G01X18232Y59799D01*
G37*
G36*
G01X16631Y59799D02*
G01X16631Y61104D01*
G01X17835Y61104D01*
G01X17835Y59799D01*
G01X16631Y59799D01*
G37*
G36*
G01X16123Y44559D02*
G01X16123Y45864D01*
G01X17327Y45864D01*
G01X17327Y44559D01*
G01X16123Y44559D01*
G37*
G36*
G01X17724Y44559D02*
G01X17724Y45864D01*
G01X18928Y45864D01*
G01X18928Y44559D01*
G01X17724Y44559D01*
G37*
G36*
G01X41854Y2014D02*
G01X41854Y3319D01*
G01X43058Y3319D01*
G01X43058Y2014D01*
G01X41854Y2014D01*
G37*
G36*
G01X40253Y2014D02*
G01X40253Y3319D01*
G01X41457Y3319D01*
G01X41457Y2014D01*
G01X40253Y2014D01*
G37*
G36*
G01X57729Y46972D02*
G01X57729Y48277D01*
G01X58933Y48277D01*
G01X58933Y46972D01*
G01X57729Y46972D01*
G37*
G36*
G01X56128Y46972D02*
G01X56128Y48277D01*
G01X57332Y48277D01*
G01X57332Y46972D01*
G01X56128Y46972D01*
G37*
G36*
G01X87899Y31638D02*
G01X87899Y33639D01*
G01X89900Y33639D01*
G01X89900Y31638D01*
G01X87899Y31638D01*
G37*
G36*
G01X90439Y31638D02*
G01X90439Y33639D01*
G01X92440Y33639D01*
G01X92440Y31638D01*
G01X90439Y31638D01*
G37*
G36*
G01X98059Y31638D02*
G01X98059Y33639D01*
G01X100060Y33639D01*
G01X100060Y31638D01*
G01X98059Y31638D01*
G37*
G36*
G01X100599Y31638D02*
G01X100599Y33639D01*
G01X102600Y33639D01*
G01X102600Y31638D01*
G01X100599Y31638D01*
G37*
G36*
G01X92979Y31638D02*
G01X92979Y33639D01*
G01X94980Y33639D01*
G01X94980Y31638D01*
G01X92979Y31638D01*
G37*
G36*
G01X95519Y31638D02*
G01X95519Y33639D01*
G01X97520Y33639D01*
G01X97520Y31638D01*
G01X95519Y31638D01*
G37*
G36*
G01X103139Y31638D02*
G01X103139Y33639D01*
G01X105140Y33639D01*
G01X105140Y31638D01*
G01X103139Y31638D01*
G37*
G36*
G01X105679Y31638D02*
G01X105679Y33639D01*
G01X107680Y33639D01*
G01X107680Y31638D01*
G01X105679Y31638D01*
G37*
G36*
G01X105679Y39258D02*
G01X105679Y41259D01*
G01X107680Y41259D01*
G01X107680Y39258D01*
G01X105679Y39258D01*
G37*
G36*
G01X103139Y39258D02*
G01X103139Y41259D01*
G01X105140Y41259D01*
G01X105140Y39258D01*
G01X103139Y39258D01*
G37*
G36*
G01X100599Y39258D02*
G01X100599Y41259D01*
G01X102600Y41259D01*
G01X102600Y39258D01*
G01X100599Y39258D01*
G37*
G36*
G01X98059Y39258D02*
G01X98059Y41259D01*
G01X100060Y41259D01*
G01X100060Y39258D01*
G01X98059Y39258D01*
G37*
G36*
G01X95519Y39258D02*
G01X95519Y41259D01*
G01X97520Y41259D01*
G01X97520Y39258D01*
G01X95519Y39258D01*
G37*
G36*
G01X92979Y39258D02*
G01X92979Y41259D01*
G01X94980Y41259D01*
G01X94980Y39258D01*
G01X92979Y39258D01*
G37*
G36*
G01X90439Y39258D02*
G01X90439Y41259D01*
G01X92440Y41259D01*
G01X92440Y39258D01*
G01X90439Y39258D01*
G37*
G36*
G01X87899Y39258D02*
G01X87899Y41259D01*
G01X89900Y41259D01*
G01X89900Y39258D01*
G01X87899Y39258D01*
G37*
G01X87884Y24130D03*
G01X85344Y24130D03*
G36*
G01X81915Y23241D02*
G01X81915Y25019D01*
G01X83693Y25019D01*
G01X83693Y23241D01*
G01X81915Y23241D01*
G37*
G01X74930Y24130D03*
G01X72390Y24130D03*
G36*
G01X68961Y23241D02*
G01X68961Y25019D01*
G01X70739Y25019D01*
G01X70739Y23241D01*
G01X68961Y23241D01*
G37*
G01X76454Y16510D03*
G01X73914Y16510D03*
G36*
G01X70485Y15621D02*
G01X70485Y17399D01*
G01X72263Y17399D01*
G01X72263Y15621D01*
G01X70485Y15621D01*
G37*
G01X105664Y24130D03*
G01X103124Y24130D03*
G01X100584Y24130D03*
G01X98044Y24130D03*
G36*
G01X94615Y23241D02*
G01X94615Y25019D01*
G01X96393Y25019D01*
G01X96393Y23241D01*
G01X94615Y23241D01*
G37*
G01X62357Y24130D03*
G01X59817Y24130D03*
G01X57277Y24130D03*
G01X54737Y24130D03*
G36*
G01X51308Y23241D02*
G01X51308Y25019D01*
G01X53086Y25019D01*
G01X53086Y23241D01*
G01X51308Y23241D01*
G37*
G01X44577Y16510D03*
G01X42037Y16510D03*
G01X39497Y16510D03*
G01X36957Y16510D03*
G36*
G01X33528Y15621D02*
G01X33528Y17399D01*
G01X35306Y17399D01*
G01X35306Y15621D01*
G01X33528Y15621D01*
G37*
G01X44577Y24130D03*
G01X42037Y24130D03*
G01X39497Y24130D03*
G01X36957Y24130D03*
G36*
G01X33528Y23241D02*
G01X33528Y25019D01*
G01X35306Y25019D01*
G01X35306Y23241D01*
G01X33528Y23241D01*
G37*
G36*
G01X59656Y56675D02*
G01X59656Y57878D01*
G01X62359Y57878D01*
G01X62359Y56675D01*
G01X59656Y56675D01*
G37*
G36*
G01X59656Y54135D02*
G01X59656Y55338D01*
G01X62359Y55338D01*
G01X62359Y54135D01*
G01X59656Y54135D01*
G37*
G36*
G01X63906Y54655D02*
G01X63906Y57358D01*
G01X70109Y57358D01*
G01X70109Y54655D01*
G01X63906Y54655D01*
G37*
G36*
G01X99314Y13970D02*
G01X99314Y15748D01*
G01X101092Y15748D01*
G01X101092Y13970D01*
G01X99314Y13970D01*
G37*
G01X102743Y14859D03*
G54D84*
G01X105283Y14859D03*
G36*
G01X85598Y14097D02*
G01X85598Y15875D01*
G01X87376Y15875D01*
G01X87376Y14097D01*
G01X85598Y14097D01*
G37*
G54D74*
G01X89027Y14986D03*
G54D84*
G01X91567Y14986D03*
G36*
G01X19829Y21239D02*
G01X19829Y25242D01*
G01X22334Y25242D01*
G01X22334Y21239D01*
G01X19829Y21239D01*
G37*
G36*
G01X26329Y22539D02*
G01X26329Y23942D01*
G01X28534Y23942D01*
G01X28534Y22539D01*
G01X26329Y22539D01*
G37*
G36*
G01X26329Y24838D02*
G01X26329Y26243D01*
G01X28534Y26243D01*
G01X28534Y24838D01*
G01X26329Y24838D01*
G37*
G36*
G01X26329Y20238D02*
G01X26329Y21643D01*
G01X28534Y21643D01*
G01X28534Y20238D01*
G01X26329Y20238D01*
G37*
G36*
G01X2141Y19834D02*
G01X2141Y21038D01*
G01X3446Y21038D01*
G01X3446Y19834D01*
G01X2141Y19834D01*
G37*
G36*
G01X2141Y21635D02*
G01X2141Y22837D01*
G01X3446Y22837D01*
G01X3446Y21635D01*
G01X2141Y21635D01*
G37*
G36*
G01X2268Y24279D02*
G01X2268Y25483D01*
G01X3573Y25483D01*
G01X3573Y24279D01*
G01X2268Y24279D01*
G37*
G36*
G01X2268Y26080D02*
G01X2268Y27282D01*
G01X3573Y27282D01*
G01X3573Y26080D01*
G01X2268Y26080D01*
G37*
M00*
M02*
