G04 Layer: BottomSilkLayer*
G04 EasyEDA v6.3.53, 2020-07-07T17:09:39+02:00*
G04 a5cadded52d348ca89a3f83f906f7d41,10*
G04 Gerber Generator version 0.2*
G04 Scale: 100 percent, Rotated: No, Reflected: No *
G04 Dimensions in millimeters *
G04 leading zeros omitted , absolute positions ,3 integer and 3 decimal *
%FSLAX33Y33*%
%MOMM*%
G90*
G71D02*


%LPD*%

%LPD*%
G36*
G01X94003Y60601D02*
G01X93265Y60603D01*
G01X92786Y60504D01*
G01X92745Y60495D01*
G01X92703Y60486D01*
G01X92577Y60456D01*
G01X92492Y60435D01*
G01X92406Y60411D01*
G01X92362Y60399D01*
G01X92318Y60386D01*
G01X92275Y60373D01*
G01X92230Y60360D01*
G01X92186Y60346D01*
G01X92141Y60332D01*
G01X92096Y60316D01*
G01X92050Y60301D01*
G01X91958Y60269D01*
G01X91911Y60253D01*
G01X91865Y60236D01*
G01X91769Y60200D01*
G01X91721Y60181D01*
G01X91623Y60143D01*
G01X91574Y60123D01*
G01X91524Y60102D01*
G01X91473Y60081D01*
G01X91422Y60059D01*
G01X91319Y60015D01*
G01X91213Y59968D01*
G01X91159Y59944D01*
G01X91105Y59919D01*
G01X90995Y59867D01*
G01X90939Y59841D01*
G01X90825Y59786D01*
G01X90767Y59758D01*
G01X90709Y59729D01*
G01X90650Y59699D01*
G01X90530Y59639D01*
G01X90407Y59576D01*
G01X90281Y59510D01*
G01X90217Y59476D01*
G01X90152Y59442D01*
G01X90086Y59407D01*
G01X90020Y59371D01*
G01X89953Y59335D01*
G01X89885Y59298D01*
G01X89747Y59222D01*
G01X89676Y59183D01*
G01X89605Y59143D01*
G01X89533Y59103D01*
G01X89460Y59062D01*
G01X89386Y59020D01*
G01X89236Y58934D01*
G01X89160Y58890D01*
G01X89082Y58846D01*
G01X89004Y58801D01*
G01X88924Y58754D01*
G01X88844Y58708D01*
G01X88763Y58660D01*
G01X88681Y58612D01*
G01X88559Y58540D01*
G01X88439Y58470D01*
G01X88322Y58401D01*
G01X88207Y58334D01*
G01X88094Y58268D01*
G01X87984Y58203D01*
G01X87876Y58139D01*
G01X87770Y58077D01*
G01X87666Y58016D01*
G01X87564Y57956D01*
G01X87464Y57898D01*
G01X87367Y57841D01*
G01X87271Y57785D01*
G01X87177Y57730D01*
G01X87085Y57676D01*
G01X86996Y57624D01*
G01X86908Y57573D01*
G01X86822Y57523D01*
G01X86737Y57474D01*
G01X86655Y57426D01*
G01X86574Y57379D01*
G01X86495Y57333D01*
G01X86418Y57289D01*
G01X86343Y57245D01*
G01X86269Y57202D01*
G01X86196Y57161D01*
G01X86126Y57121D01*
G01X86057Y57081D01*
G01X85989Y57042D01*
G01X85923Y57005D01*
G01X85859Y56968D01*
G01X85796Y56932D01*
G01X85734Y56897D01*
G01X85674Y56863D01*
G01X85615Y56830D01*
G01X85557Y56797D01*
G01X85501Y56766D01*
G01X85446Y56735D01*
G01X85392Y56706D01*
G01X85339Y56676D01*
G01X85288Y56648D01*
G01X85238Y56620D01*
G01X85189Y56594D01*
G01X85140Y56567D01*
G01X85094Y56542D01*
G01X85047Y56518D01*
G01X85003Y56493D01*
G01X84958Y56470D01*
G01X84915Y56447D01*
G01X84873Y56425D01*
G01X84832Y56404D01*
G01X84792Y56382D01*
G01X84752Y56363D01*
G01X84713Y56343D01*
G01X84675Y56323D01*
G01X84638Y56305D01*
G01X84601Y56286D01*
G01X84565Y56269D01*
G01X84495Y56235D01*
G01X84461Y56219D01*
G01X84395Y56187D01*
G01X84362Y56173D01*
G01X84330Y56158D01*
G01X84299Y56144D01*
G01X84267Y56130D01*
G01X84236Y56116D01*
G01X84206Y56103D01*
G01X84146Y56078D01*
G01X84116Y56065D01*
G01X84087Y56053D01*
G01X84057Y56041D01*
G01X84028Y56029D01*
G01X83941Y55996D01*
G01X83913Y55985D01*
G01X83884Y55974D01*
G01X83856Y55964D01*
G01X83827Y55953D01*
G01X83711Y55913D01*
G01X83681Y55902D01*
G01X83561Y55862D01*
G01X83530Y55852D01*
G01X82925Y55652D01*
G01X82257Y55572D01*
G01X81589Y55491D01*
G01X80880Y55574D01*
G01X80834Y55579D01*
G01X80788Y55585D01*
G01X80741Y55591D01*
G01X80692Y55598D01*
G01X80642Y55605D01*
G01X80540Y55621D01*
G01X80487Y55629D01*
G01X80379Y55647D01*
G01X80267Y55667D01*
G01X80210Y55677D01*
G01X80152Y55688D01*
G01X80093Y55699D01*
G01X80033Y55710D01*
G01X79973Y55722D01*
G01X79912Y55734D01*
G01X79788Y55760D01*
G01X79662Y55786D01*
G01X79467Y55828D01*
G01X79402Y55843D01*
G01X79335Y55858D01*
G01X79269Y55873D01*
G01X79135Y55904D01*
G01X79067Y55920D01*
G01X78999Y55937D01*
G01X78931Y55953D01*
G01X78724Y56004D01*
G01X78655Y56022D01*
G01X78446Y56075D01*
G01X78377Y56093D01*
G01X78307Y56112D01*
G01X78238Y56130D01*
G01X78167Y56149D01*
G01X77889Y56226D01*
G01X77613Y56306D01*
G01X77477Y56346D01*
G01X77341Y56387D01*
G01X77250Y56415D01*
G01X77161Y56441D01*
G01X77075Y56467D01*
G01X76992Y56492D01*
G01X76914Y56515D01*
G01X76839Y56536D01*
G01X76769Y56556D01*
G01X76704Y56574D01*
G01X76645Y56591D01*
G01X76592Y56605D01*
G01X76545Y56618D01*
G01X76506Y56627D01*
G01X76474Y56635D01*
G01X76450Y56640D01*
G01X76435Y56643D01*
G01X76429Y56642D01*
G01X76429Y56640D01*
G01X76432Y56637D01*
G01X76439Y56632D01*
G01X76448Y56626D01*
G01X76461Y56619D01*
G01X76476Y56609D01*
G01X76495Y56599D01*
G01X76515Y56588D01*
G01X76539Y56575D01*
G01X76566Y56561D01*
G01X76594Y56546D01*
G01X76626Y56530D01*
G01X76660Y56512D01*
G01X76696Y56494D01*
G01X76734Y56474D01*
G01X76775Y56453D01*
G01X76818Y56432D01*
G01X76863Y56409D01*
G01X76911Y56385D01*
G01X76960Y56361D01*
G01X77011Y56335D01*
G01X77119Y56281D01*
G01X77176Y56253D01*
G01X77235Y56224D01*
G01X77295Y56194D01*
G01X77357Y56164D01*
G01X77420Y56133D01*
G01X77485Y56101D01*
G01X77551Y56069D01*
G01X77618Y56036D01*
G01X77687Y56002D01*
G01X77758Y55968D01*
G01X77829Y55933D01*
G01X77901Y55898D01*
G01X77975Y55863D01*
G01X78049Y55827D01*
G01X78201Y55753D01*
G01X78278Y55716D01*
G01X78356Y55678D01*
G01X78514Y55602D01*
G01X78594Y55564D01*
G01X78754Y55486D01*
G01X78836Y55448D01*
G01X78917Y55409D01*
G01X78999Y55369D01*
G01X79163Y55291D01*
G01X79327Y55212D01*
G01X79655Y55056D01*
G01X79817Y54979D01*
G01X79978Y54903D01*
G01X80058Y54865D01*
G01X80137Y54827D01*
G01X80216Y54790D01*
G01X80293Y54754D01*
G01X80370Y54717D01*
G01X80446Y54681D01*
G01X80522Y54646D01*
G01X80596Y54611D01*
G01X80669Y54576D01*
G01X80742Y54542D01*
G01X80813Y54509D01*
G01X80883Y54476D01*
G01X80952Y54444D01*
G01X81019Y54413D01*
G01X81085Y54382D01*
G01X81150Y54352D01*
G01X81213Y54323D01*
G01X81275Y54295D01*
G01X81335Y54267D01*
G01X81393Y54240D01*
G01X81450Y54214D01*
G01X81505Y54189D01*
G01X81557Y54164D01*
G01X81609Y54141D01*
G01X81705Y54097D01*
G01X81749Y54078D01*
G01X81793Y54058D01*
G01X81833Y54040D01*
G01X81871Y54023D01*
G01X81907Y54008D01*
G01X81941Y53993D01*
G01X81972Y53980D01*
G01X82000Y53967D01*
G01X82027Y53956D01*
G01X82050Y53947D01*
G01X82088Y53931D01*
G01X82103Y53926D01*
G01X82172Y53902D01*
G01X82240Y53878D01*
G01X82307Y53856D01*
G01X82374Y53833D01*
G01X82440Y53811D01*
G01X82505Y53790D01*
G01X82571Y53769D01*
G01X82636Y53749D01*
G01X82700Y53729D01*
G01X82828Y53691D01*
G01X82955Y53654D01*
G01X83081Y53620D01*
G01X83206Y53587D01*
G01X83268Y53572D01*
G01X83393Y53541D01*
G01X83456Y53526D01*
G01X83518Y53513D01*
G01X83581Y53499D01*
G01X83643Y53485D01*
G01X83769Y53459D01*
G01X83832Y53447D01*
G01X83896Y53435D01*
G01X84382Y53344D01*
G01X85315Y53369D01*
G01X86247Y53396D01*
G01X86903Y53565D01*
G01X86944Y53575D01*
G01X87108Y53619D01*
G01X87313Y53679D01*
G01X87395Y53705D01*
G01X87561Y53759D01*
G01X87603Y53773D01*
G01X87729Y53818D01*
G01X87772Y53833D01*
G01X87814Y53849D01*
G01X87901Y53881D01*
G01X87944Y53898D01*
G01X88032Y53932D01*
G01X88121Y53967D01*
G01X88166Y53986D01*
G01X88212Y54004D01*
G01X88257Y54024D01*
G01X88304Y54043D01*
G01X88350Y54063D01*
G01X88397Y54083D01*
G01X88444Y54104D01*
G01X88492Y54125D01*
G01X88540Y54147D01*
G01X88638Y54191D01*
G01X88738Y54237D01*
G01X88840Y54285D01*
G01X88892Y54310D01*
G01X88998Y54360D01*
G01X89051Y54386D01*
G01X89105Y54413D01*
G01X89160Y54440D01*
G01X89215Y54468D01*
G01X89328Y54524D01*
G01X89386Y54553D01*
G01X89502Y54613D01*
G01X89622Y54675D01*
G01X89683Y54707D01*
G01X89745Y54740D01*
G01X89871Y54806D01*
G01X89935Y54841D01*
G01X90000Y54875D01*
G01X90066Y54911D01*
G01X90200Y54983D01*
G01X90269Y55020D01*
G01X90339Y55059D01*
G01X90409Y55097D01*
G01X90480Y55136D01*
G01X90552Y55176D01*
G01X90625Y55216D01*
G01X90699Y55257D01*
G01X90775Y55299D01*
G01X90850Y55342D01*
G01X90927Y55385D01*
G01X91006Y55429D01*
G01X91084Y55474D01*
G01X91165Y55519D01*
G01X91246Y55565D01*
G01X91328Y55611D01*
G01X91496Y55707D01*
G01X91582Y55756D01*
G01X91669Y55805D01*
G01X91756Y55856D01*
G01X91846Y55907D01*
G01X91936Y55959D01*
G01X92120Y56065D01*
G01X92214Y56120D01*
G01X92299Y56169D01*
G01X92382Y56217D01*
G01X92464Y56264D01*
G01X92545Y56310D01*
G01X92625Y56355D01*
G01X92703Y56400D01*
G01X92781Y56444D01*
G01X92857Y56487D01*
G01X92933Y56529D01*
G01X93007Y56571D01*
G01X93080Y56612D01*
G01X93151Y56651D01*
G01X93223Y56690D01*
G01X93293Y56729D01*
G01X93362Y56766D01*
G01X93430Y56804D01*
G01X93497Y56840D01*
G01X93629Y56910D01*
G01X93693Y56944D01*
G01X93758Y56977D01*
G01X93820Y57010D01*
G01X93883Y57042D01*
G01X94005Y57104D01*
G01X94065Y57134D01*
G01X94124Y57164D01*
G01X94183Y57193D01*
G01X94299Y57249D01*
G01X94355Y57276D01*
G01X94412Y57303D01*
G01X94468Y57329D01*
G01X94523Y57354D01*
G01X94577Y57379D01*
G01X94632Y57404D01*
G01X94686Y57428D01*
G01X94792Y57474D01*
G01X94896Y57518D01*
G01X95000Y57561D01*
G01X95051Y57581D01*
G01X95102Y57602D01*
G01X95153Y57621D01*
G01X95254Y57660D01*
G01X95304Y57678D01*
G01X95403Y57713D01*
G01X95503Y57748D01*
G01X95552Y57765D01*
G01X95602Y57781D01*
G01X95651Y57797D01*
G01X95701Y57812D01*
G01X95751Y57828D01*
G01X95800Y57843D01*
G01X95850Y57858D01*
G01X96050Y57914D01*
G01X96100Y57927D01*
G01X96151Y57940D01*
G01X96202Y57954D01*
G01X96253Y57966D01*
G01X96304Y57979D01*
G01X96356Y57991D01*
G01X96461Y58016D01*
G01X96513Y58027D01*
G01X96566Y58040D01*
G01X96674Y58062D01*
G01X97226Y58179D01*
G01X99022Y58185D01*
G01X99625Y58068D01*
G01X99678Y58058D01*
G01X99731Y58047D01*
G01X99786Y58035D01*
G01X99842Y58022D01*
G01X99899Y58009D01*
G01X99957Y57995D01*
G01X100016Y57981D01*
G01X100136Y57949D01*
G01X100197Y57932D01*
G01X100260Y57916D01*
G01X100322Y57898D01*
G01X100386Y57879D01*
G01X100450Y57861D01*
G01X100515Y57841D01*
G01X100580Y57822D01*
G01X100645Y57801D01*
G01X100777Y57759D01*
G01X100910Y57715D01*
G01X100977Y57693D01*
G01X101043Y57670D01*
G01X101110Y57647D01*
G01X101177Y57623D01*
G01X101310Y57576D01*
G01X101442Y57526D01*
G01X101508Y57502D01*
G01X101573Y57477D01*
G01X101638Y57451D01*
G01X101702Y57426D01*
G01X101829Y57374D01*
G01X101953Y57322D01*
G01X102014Y57296D01*
G01X102073Y57270D01*
G01X102133Y57243D01*
G01X102185Y57220D01*
G01X102234Y57198D01*
G01X102281Y57178D01*
G01X102324Y57159D01*
G01X102366Y57141D01*
G01X102404Y57124D01*
G01X102440Y57109D01*
G01X102473Y57096D01*
G01X102503Y57083D01*
G01X102531Y57072D01*
G01X102556Y57063D01*
G01X102577Y57054D01*
G01X102597Y57047D01*
G01X102613Y57042D01*
G01X102627Y57038D01*
G01X102638Y57035D01*
G01X102646Y57034D01*
G01X102651Y57034D01*
G01X102654Y57035D01*
G01X102654Y57038D01*
G01X102651Y57042D01*
G01X102645Y57048D01*
G01X102636Y57055D01*
G01X102625Y57064D01*
G01X102610Y57073D01*
G01X102594Y57085D01*
G01X102574Y57098D01*
G01X102551Y57112D01*
G01X102526Y57127D01*
G01X102497Y57144D01*
G01X102466Y57163D01*
G01X102432Y57183D01*
G01X102395Y57204D01*
G01X102355Y57227D01*
G01X102312Y57251D01*
G01X102267Y57277D01*
G01X102218Y57304D01*
G01X102167Y57333D01*
G01X102113Y57363D01*
G01X102056Y57394D01*
G01X101996Y57427D01*
G01X101933Y57462D01*
G01X101867Y57498D01*
G01X101799Y57536D01*
G01X101727Y57575D01*
G01X101652Y57615D01*
G01X101575Y57657D01*
G01X101494Y57700D01*
G01X101411Y57745D01*
G01X101325Y57792D01*
G01X101236Y57839D01*
G01X101144Y57889D01*
G01X101040Y57945D01*
G01X100937Y57999D01*
G01X100836Y58053D01*
G01X100737Y58107D01*
G01X100639Y58159D01*
G01X100542Y58210D01*
G01X100447Y58261D01*
G01X100353Y58311D01*
G01X100261Y58360D01*
G01X100170Y58408D01*
G01X100081Y58455D01*
G01X99993Y58502D01*
G01X99906Y58548D01*
G01X99820Y58592D01*
G01X99736Y58637D01*
G01X99653Y58680D01*
G01X99572Y58723D01*
G01X99491Y58765D01*
G01X99412Y58806D01*
G01X99334Y58847D01*
G01X99257Y58886D01*
G01X99181Y58925D01*
G01X99107Y58964D01*
G01X99033Y59002D01*
G01X98961Y59039D01*
G01X98819Y59111D01*
G01X98750Y59146D01*
G01X98682Y59180D01*
G01X98420Y59312D01*
G01X98294Y59374D01*
G01X98233Y59403D01*
G01X98173Y59433D01*
G01X98113Y59462D01*
G01X98054Y59490D01*
G01X97996Y59518D01*
G01X97939Y59545D01*
G01X97883Y59572D01*
G01X97827Y59598D01*
G01X97718Y59649D01*
G01X97665Y59673D01*
G01X97560Y59721D01*
G01X97509Y59744D01*
G01X97459Y59767D01*
G01X97409Y59789D01*
G01X97359Y59810D01*
G01X97310Y59832D01*
G01X97262Y59853D01*
G01X97214Y59873D01*
G01X97167Y59893D01*
G01X97029Y59950D01*
G01X96939Y59986D01*
G01X96851Y60021D01*
G01X96807Y60037D01*
G01X96764Y60054D01*
G01X96721Y60070D01*
G01X96679Y60086D01*
G01X96553Y60131D01*
G01X96512Y60146D01*
G01X96430Y60174D01*
G01X96389Y60187D01*
G01X96349Y60201D01*
G01X96308Y60214D01*
G01X96228Y60239D01*
G01X96188Y60251D01*
G01X96148Y60264D01*
G01X96069Y60287D01*
G01X95910Y60332D01*
G01X95870Y60342D01*
G01X95831Y60352D01*
G01X95791Y60363D01*
G01X95631Y60403D01*
G01X95549Y60423D01*
G01X95509Y60432D01*
G01X95467Y60441D01*
G01X95342Y60469D01*
G01X94740Y60600D01*
G01X94003Y60601D01*
G37*

%LPD*%
G36*
G01X99041Y57820D02*
G01X97276Y57820D01*
G01X96712Y57714D01*
G01X96666Y57706D01*
G01X96621Y57697D01*
G01X96532Y57680D01*
G01X96403Y57653D01*
G01X96319Y57635D01*
G01X96277Y57625D01*
G01X96236Y57616D01*
G01X96155Y57597D01*
G01X96114Y57586D01*
G01X96034Y57566D01*
G01X95913Y57532D01*
G01X95874Y57520D01*
G01X95794Y57496D01*
G01X95713Y57471D01*
G01X95632Y57443D01*
G01X95550Y57415D01*
G01X95467Y57384D01*
G01X95383Y57352D01*
G01X95339Y57335D01*
G01X95296Y57318D01*
G01X95252Y57300D01*
G01X95208Y57281D01*
G01X95163Y57262D01*
G01X95117Y57243D01*
G01X95071Y57223D01*
G01X95024Y57202D01*
G01X94976Y57180D01*
G01X94928Y57159D01*
G01X94879Y57136D01*
G01X94829Y57113D01*
G01X94779Y57089D01*
G01X94727Y57065D01*
G01X94621Y57013D01*
G01X94567Y56986D01*
G01X94511Y56959D01*
G01X94397Y56902D01*
G01X94339Y56872D01*
G01X94279Y56842D01*
G01X94218Y56810D01*
G01X94156Y56778D01*
G01X94093Y56745D01*
G01X94028Y56711D01*
G01X93962Y56676D01*
G01X93895Y56640D01*
G01X93827Y56604D01*
G01X93685Y56528D01*
G01X93612Y56489D01*
G01X93538Y56448D01*
G01X93462Y56407D01*
G01X93385Y56365D01*
G01X93306Y56321D01*
G01X93225Y56277D01*
G01X93143Y56232D01*
G01X92973Y56138D01*
G01X92885Y56089D01*
G01X92796Y56039D01*
G01X92704Y55988D01*
G01X92611Y55936D01*
G01X92516Y55883D01*
G01X92419Y55829D01*
G01X92321Y55774D01*
G01X92220Y55717D01*
G01X92118Y55660D01*
G01X92017Y55603D01*
G01X91918Y55548D01*
G01X91820Y55493D01*
G01X91723Y55439D01*
G01X91628Y55386D01*
G01X91535Y55334D01*
G01X91443Y55283D01*
G01X91352Y55232D01*
G01X91262Y55183D01*
G01X91173Y55134D01*
G01X91086Y55085D01*
G01X91001Y55038D01*
G01X90916Y54992D01*
G01X90833Y54946D01*
G01X90751Y54902D01*
G01X90670Y54857D01*
G01X90590Y54814D01*
G01X90512Y54772D01*
G01X90434Y54729D01*
G01X90358Y54688D01*
G01X90283Y54648D01*
G01X90209Y54608D01*
G01X90136Y54569D01*
G01X90064Y54531D01*
G01X89993Y54494D01*
G01X89924Y54457D01*
G01X89855Y54421D01*
G01X89787Y54385D01*
G01X89720Y54350D01*
G01X89654Y54316D01*
G01X89589Y54282D01*
G01X89525Y54249D01*
G01X89462Y54217D01*
G01X89400Y54186D01*
G01X89278Y54124D01*
G01X89219Y54094D01*
G01X89160Y54065D01*
G01X89102Y54036D01*
G01X89045Y54009D01*
G01X88988Y53981D01*
G01X88933Y53954D01*
G01X88823Y53902D01*
G01X88717Y53852D01*
G01X88613Y53804D01*
G01X88562Y53781D01*
G01X88512Y53758D01*
G01X88462Y53736D01*
G01X88413Y53714D01*
G01X88365Y53693D01*
G01X88316Y53672D01*
G01X88222Y53632D01*
G01X88176Y53613D01*
G01X88129Y53594D01*
G01X88084Y53575D01*
G01X88038Y53557D01*
G01X87994Y53540D01*
G01X87950Y53522D01*
G01X87862Y53489D01*
G01X87776Y53457D01*
G01X87734Y53442D01*
G01X87649Y53412D01*
G01X87566Y53384D01*
G01X87525Y53370D01*
G01X87402Y53331D01*
G01X87362Y53319D01*
G01X87322Y53306D01*
G01X87241Y53283D01*
G01X87201Y53272D01*
G01X87162Y53261D01*
G01X87082Y53239D01*
G01X86922Y53199D01*
G01X86883Y53190D01*
G01X86763Y53163D01*
G01X86722Y53154D01*
G01X86682Y53145D01*
G01X86641Y53137D01*
G01X86601Y53129D01*
G01X86519Y53113D01*
G01X86477Y53105D01*
G01X85833Y52985D01*
G01X84866Y53019D01*
G01X83899Y53052D01*
G01X83229Y53229D01*
G01X83189Y53240D01*
G01X83108Y53261D01*
G01X83069Y53272D01*
G01X82990Y53294D01*
G01X82951Y53305D01*
G01X82797Y53350D01*
G01X82759Y53361D01*
G01X82644Y53396D01*
G01X82530Y53432D01*
G01X82492Y53445D01*
G01X82453Y53457D01*
G01X82415Y53471D01*
G01X82376Y53483D01*
G01X82338Y53496D01*
G01X82260Y53524D01*
G01X82141Y53567D01*
G01X82101Y53581D01*
G01X82061Y53597D01*
G01X82020Y53612D01*
G01X81979Y53628D01*
G01X81896Y53660D01*
G01X81854Y53677D01*
G01X81768Y53711D01*
G01X81680Y53747D01*
G01X81635Y53765D01*
G01X81590Y53785D01*
G01X81498Y53823D01*
G01X81451Y53843D01*
G01X81355Y53885D01*
G01X81306Y53906D01*
G01X81256Y53929D01*
G01X81206Y53951D01*
G01X81155Y53974D01*
G01X81103Y53997D01*
G01X81050Y54021D01*
G01X80997Y54046D01*
G01X80887Y54096D01*
G01X80831Y54122D01*
G01X80774Y54149D01*
G01X80716Y54176D01*
G01X80657Y54204D01*
G01X80597Y54232D01*
G01X80536Y54261D01*
G01X80474Y54290D01*
G01X80411Y54320D01*
G01X80347Y54351D01*
G01X80282Y54382D01*
G01X80216Y54414D01*
G01X80149Y54447D01*
G01X80081Y54480D01*
G01X80011Y54515D01*
G01X79940Y54549D01*
G01X79868Y54585D01*
G01X79795Y54621D01*
G01X79720Y54657D01*
G01X79645Y54695D01*
G01X79568Y54733D01*
G01X79489Y54772D01*
G01X79409Y54812D01*
G01X79328Y54852D01*
G01X79245Y54893D01*
G01X79162Y54936D01*
G01X79076Y54978D01*
G01X78989Y55022D01*
G01X78811Y55111D01*
G01X78720Y55158D01*
G01X78627Y55204D01*
G01X78532Y55252D01*
G01X78436Y55301D01*
G01X78339Y55351D01*
G01X78239Y55401D01*
G01X78138Y55452D01*
G01X78035Y55504D01*
G01X77931Y55557D01*
G01X77825Y55611D01*
G01X77717Y55666D01*
G01X77608Y55722D01*
G01X77517Y55768D01*
G01X77428Y55813D01*
G01X77341Y55857D01*
G01X77256Y55900D01*
G01X77173Y55942D01*
G01X77092Y55983D01*
G01X77013Y56023D01*
G01X76863Y56097D01*
G01X76793Y56132D01*
G01X76726Y56166D01*
G01X76662Y56197D01*
G01X76602Y56226D01*
G01X76546Y56254D01*
G01X76495Y56279D01*
G01X76447Y56302D01*
G01X76403Y56323D01*
G01X76365Y56341D01*
G01X76331Y56357D01*
G01X76303Y56370D01*
G01X76279Y56381D01*
G01X76261Y56389D01*
G01X76250Y56393D01*
G01X76244Y56395D01*
G01X76241Y56392D01*
G01X76239Y56384D01*
G01X76237Y56372D01*
G01X76235Y56355D01*
G01X76233Y56333D01*
G01X76230Y56307D01*
G01X76228Y56277D01*
G01X76226Y56242D01*
G01X76224Y56203D01*
G01X76223Y56160D01*
G01X76221Y56114D01*
G01X76219Y56063D01*
G01X76217Y56009D01*
G01X76216Y55951D01*
G01X76214Y55891D01*
G01X76213Y55826D01*
G01X76211Y55759D01*
G01X76210Y55688D01*
G01X76208Y55616D01*
G01X76207Y55540D01*
G01X76206Y55461D01*
G01X76205Y55380D01*
G01X76204Y55297D01*
G01X76203Y55211D01*
G01X76202Y55124D01*
G01X76202Y55034D01*
G01X76201Y54942D01*
G01X76201Y54849D01*
G01X76200Y54754D01*
G01X76200Y52526D01*
G01X103200Y52526D01*
G01X103200Y56404D01*
G01X102353Y56799D01*
G01X102225Y56859D01*
G01X102160Y56888D01*
G01X102096Y56917D01*
G01X101968Y56973D01*
G01X101903Y57001D01*
G01X101840Y57028D01*
G01X101776Y57055D01*
G01X101712Y57080D01*
G01X101584Y57132D01*
G01X101521Y57157D01*
G01X101458Y57181D01*
G01X101394Y57205D01*
G01X101331Y57229D01*
G01X101205Y57275D01*
G01X101079Y57319D01*
G01X100954Y57362D01*
G01X100829Y57402D01*
G01X100705Y57442D01*
G01X100644Y57460D01*
G01X100582Y57479D01*
G01X100521Y57497D01*
G01X100459Y57514D01*
G01X100398Y57532D01*
G01X100215Y57580D01*
G01X100094Y57610D01*
G01X99914Y57652D01*
G01X99796Y57677D01*
G01X99736Y57690D01*
G01X99618Y57712D01*
G01X99041Y57820D01*
G37*

%LPD*%
G36*
G01X88190Y52186D02*
G01X85245Y52186D01*
G01X85245Y45671D01*
G01X86851Y45673D01*
G01X88457Y45676D01*
G01X88716Y45767D01*
G01X88781Y45792D01*
G01X88844Y45817D01*
G01X88905Y45845D01*
G01X88964Y45874D01*
G01X89020Y45905D01*
G01X89074Y45938D01*
G01X89126Y45972D01*
G01X89176Y46009D01*
G01X89224Y46047D01*
G01X89269Y46086D01*
G01X89313Y46127D01*
G01X89354Y46171D01*
G01X89393Y46215D01*
G01X89430Y46262D01*
G01X89465Y46310D01*
G01X89497Y46361D01*
G01X89528Y46412D01*
G01X89556Y46466D01*
G01X89582Y46521D01*
G01X89606Y46578D01*
G01X89628Y46637D01*
G01X89647Y46697D01*
G01X89665Y46759D01*
G01X89680Y46823D01*
G01X89693Y46889D01*
G01X89704Y46956D01*
G01X89713Y47026D01*
G01X89719Y47097D01*
G01X89748Y47471D01*
G01X89670Y47755D01*
G01X89651Y47817D01*
G01X89625Y47883D01*
G01X89595Y47951D01*
G01X89560Y48020D01*
G01X89523Y48087D01*
G01X89485Y48150D01*
G01X89446Y48208D01*
G01X89406Y48257D01*
G01X89221Y48474D01*
G01X88881Y48622D01*
G01X88540Y48769D01*
G01X88933Y48925D01*
G01X89324Y49082D01*
G01X89561Y49353D01*
G01X89797Y49625D01*
G01X89878Y49981D01*
G01X89959Y50336D01*
G01X89878Y50668D01*
G01X89861Y50734D01*
G01X89842Y50800D01*
G01X89822Y50864D01*
G01X89799Y50926D01*
G01X89775Y50987D01*
G01X89749Y51047D01*
G01X89722Y51105D01*
G01X89693Y51162D01*
G01X89663Y51218D01*
G01X89631Y51272D01*
G01X89596Y51325D01*
G01X89561Y51377D01*
G01X89524Y51427D01*
G01X89486Y51476D01*
G01X89446Y51522D01*
G01X89404Y51568D01*
G01X89361Y51612D01*
G01X89317Y51655D01*
G01X89271Y51696D01*
G01X89224Y51735D01*
G01X89174Y51773D01*
G01X89124Y51809D01*
G01X89072Y51844D01*
G01X89019Y51877D01*
G01X88965Y51909D01*
G01X88909Y51939D01*
G01X88851Y51967D01*
G01X88793Y51994D01*
G01X88732Y52019D01*
G01X88671Y52042D01*
G01X88608Y52063D01*
G01X88544Y52083D01*
G01X88190Y52186D01*
G37*

%LPC*%
G36*
G01X87766Y48317D02*
G01X86558Y48317D01*
G01X86558Y46553D01*
G01X87071Y46553D01*
G01X87142Y46554D01*
G01X87214Y46556D01*
G01X87286Y46559D01*
G01X87356Y46563D01*
G01X87425Y46568D01*
G01X87491Y46574D01*
G01X87553Y46581D01*
G01X87611Y46589D01*
G01X87663Y46597D01*
G01X87709Y46606D01*
G01X87748Y46615D01*
G01X87779Y46625D01*
G01X87822Y46643D01*
G01X87869Y46667D01*
G01X87919Y46695D01*
G01X87970Y46727D01*
G01X88022Y46761D01*
G01X88071Y46798D01*
G01X88117Y46835D01*
G01X88158Y46871D01*
G01X88344Y47045D01*
G01X88431Y47554D01*
G01X88327Y47798D01*
G01X88223Y48043D01*
G01X87995Y48180D01*
G01X87766Y48317D01*
G37*
G36*
G01X87213Y51129D02*
G01X86592Y51134D01*
G01X86554Y49268D01*
G01X87757Y49268D01*
G01X88333Y49542D01*
G01X88457Y49768D01*
G01X88580Y49994D01*
G01X88544Y50312D01*
G01X88507Y50631D01*
G01X88379Y50771D01*
G01X88348Y50801D01*
G01X88312Y50834D01*
G01X88271Y50867D01*
G01X88226Y50901D01*
G01X88180Y50934D01*
G01X88133Y50965D01*
G01X88087Y50993D01*
G01X88043Y51017D01*
G01X87835Y51124D01*
G01X87213Y51129D01*
G37*

%LPD*%
G36*
G01X84279Y52186D02*
G01X81667Y52186D01*
G01X81127Y52085D01*
G01X81060Y52072D01*
G01X80995Y52058D01*
G01X80929Y52043D01*
G01X80865Y52027D01*
G01X80739Y51993D01*
G01X80678Y51974D01*
G01X80618Y51955D01*
G01X80558Y51934D01*
G01X80499Y51913D01*
G01X80441Y51891D01*
G01X80384Y51868D01*
G01X80328Y51844D01*
G01X80273Y51819D01*
G01X80218Y51793D01*
G01X80164Y51766D01*
G01X80112Y51739D01*
G01X80060Y51710D01*
G01X80009Y51681D01*
G01X79909Y51619D01*
G01X79861Y51587D01*
G01X79814Y51554D01*
G01X79767Y51520D01*
G01X79721Y51485D01*
G01X79633Y51413D01*
G01X79590Y51375D01*
G01X79506Y51297D01*
G01X79466Y51257D01*
G01X79426Y51216D01*
G01X79350Y51130D01*
G01X79313Y51087D01*
G01X79277Y51042D01*
G01X79242Y50996D01*
G01X79174Y50902D01*
G01X79110Y50804D01*
G01X79079Y50754D01*
G01X79050Y50703D01*
G01X79021Y50651D01*
G01X78993Y50598D01*
G01X78966Y50544D01*
G01X78939Y50489D01*
G01X78914Y50434D01*
G01X78889Y50377D01*
G01X78866Y50320D01*
G01X78843Y50262D01*
G01X78821Y50202D01*
G01X78800Y50142D01*
G01X78780Y50081D01*
G01X78761Y50019D01*
G01X78743Y49956D01*
G01X78617Y49508D01*
G01X78617Y48313D01*
G01X78760Y47891D01*
G01X78780Y47835D01*
G01X78800Y47778D01*
G01X78822Y47723D01*
G01X78845Y47668D01*
G01X78869Y47613D01*
G01X78894Y47558D01*
G01X78946Y47452D01*
G01X78974Y47399D01*
G01X79003Y47347D01*
G01X79032Y47296D01*
G01X79094Y47194D01*
G01X79126Y47144D01*
G01X79159Y47096D01*
G01X79193Y47047D01*
G01X79263Y46951D01*
G01X79337Y46859D01*
G01X79376Y46813D01*
G01X79454Y46725D01*
G01X79495Y46681D01*
G01X79536Y46638D01*
G01X79578Y46596D01*
G01X79621Y46555D01*
G01X79709Y46475D01*
G01X79754Y46436D01*
G01X79800Y46397D01*
G01X79846Y46360D01*
G01X79894Y46322D01*
G01X79941Y46286D01*
G01X80039Y46216D01*
G01X80089Y46183D01*
G01X80140Y46150D01*
G01X80191Y46118D01*
G01X80243Y46086D01*
G01X80296Y46056D01*
G01X80348Y46026D01*
G01X80402Y45997D01*
G01X80457Y45969D01*
G01X80511Y45943D01*
G01X80567Y45916D01*
G01X80679Y45866D01*
G01X80736Y45843D01*
G01X80852Y45799D01*
G01X80911Y45778D01*
G01X80970Y45758D01*
G01X81030Y45739D01*
G01X81090Y45722D01*
G01X81150Y45704D01*
G01X81482Y45615D01*
G01X82173Y45610D01*
G01X82330Y45610D01*
G01X82404Y45611D01*
G01X82474Y45612D01*
G01X82542Y45614D01*
G01X82608Y45616D01*
G01X82672Y45619D01*
G01X82734Y45623D01*
G01X82796Y45628D01*
G01X82856Y45633D01*
G01X82915Y45639D01*
G01X82974Y45646D01*
G01X83034Y45654D01*
G01X83093Y45664D01*
G01X83154Y45673D01*
G01X83214Y45684D01*
G01X83277Y45697D01*
G01X83341Y45710D01*
G01X83407Y45724D01*
G01X83476Y45740D01*
G01X83546Y45757D01*
G01X83620Y45775D01*
G01X83698Y45794D01*
G01X83778Y45815D01*
G01X84071Y45892D01*
G01X84071Y46552D01*
G01X84070Y46621D01*
G01X84068Y46682D01*
G01X84064Y46734D01*
G01X84057Y46780D01*
G01X84048Y46817D01*
G01X84035Y46848D01*
G01X84019Y46871D01*
G01X83999Y46888D01*
G01X83973Y46899D01*
G01X83943Y46904D01*
G01X83906Y46904D01*
G01X83864Y46898D01*
G01X83815Y46887D01*
G01X83758Y46872D01*
G01X83694Y46852D01*
G01X83621Y46828D01*
G01X83540Y46800D01*
G01X83450Y46769D01*
G01X82932Y46591D01*
G01X81620Y46587D01*
G01X81303Y46731D01*
G01X81252Y46755D01*
G01X81201Y46781D01*
G01X81150Y46809D01*
G01X81101Y46838D01*
G01X81005Y46900D01*
G01X80958Y46934D01*
G01X80913Y46968D01*
G01X80868Y47005D01*
G01X80824Y47042D01*
G01X80782Y47081D01*
G01X80739Y47121D01*
G01X80659Y47205D01*
G01X80620Y47250D01*
G01X80582Y47295D01*
G01X80545Y47342D01*
G01X80509Y47389D01*
G01X80441Y47489D01*
G01X80408Y47540D01*
G01X80346Y47646D01*
G01X80317Y47701D01*
G01X80289Y47758D01*
G01X80262Y47814D01*
G01X80236Y47872D01*
G01X80188Y47992D01*
G01X80166Y48053D01*
G01X80145Y48116D01*
G01X80125Y48179D01*
G01X80106Y48243D01*
G01X80089Y48308D01*
G01X80072Y48374D01*
G01X80058Y48441D01*
G01X79969Y48862D01*
G01X80053Y49338D01*
G01X80136Y49816D01*
G01X80344Y50220D01*
G01X80552Y50625D01*
G01X80879Y50860D01*
G01X81206Y51096D01*
G01X81896Y51246D01*
G01X82449Y51224D01*
G01X83001Y51202D01*
G01X83001Y49438D01*
G01X82429Y49418D01*
G01X81856Y49398D01*
G01X81876Y48977D01*
G01X81896Y48555D01*
G01X83087Y48536D01*
G01X84279Y48518D01*
G01X84279Y52186D01*
G37*

%LPD*%
G36*
G01X77581Y52186D02*
G01X76200Y52186D01*
G01X76200Y45603D01*
G01X77581Y45603D01*
G01X77581Y52186D01*
G37*

%LPD*%
G36*
G01X69772Y62385D02*
G01X68891Y62394D01*
G01X68369Y62202D01*
G01X68269Y62164D01*
G01X68171Y62128D01*
G01X68076Y62093D01*
G01X67985Y62059D01*
G01X67896Y62026D01*
G01X67810Y61994D01*
G01X67727Y61963D01*
G01X67646Y61933D01*
G01X67569Y61903D01*
G01X67493Y61874D01*
G01X67421Y61846D01*
G01X67351Y61820D01*
G01X67283Y61793D01*
G01X67218Y61768D01*
G01X67155Y61743D01*
G01X67095Y61718D01*
G01X67036Y61695D01*
G01X66980Y61672D01*
G01X66926Y61650D01*
G01X66874Y61629D01*
G01X66824Y61607D01*
G01X66776Y61587D01*
G01X66729Y61567D01*
G01X66685Y61548D01*
G01X66642Y61529D01*
G01X66602Y61511D01*
G01X66563Y61492D01*
G01X66525Y61475D01*
G01X66490Y61458D01*
G01X66455Y61442D01*
G01X66422Y61425D01*
G01X66391Y61409D01*
G01X66361Y61393D01*
G01X66332Y61378D01*
G01X66304Y61363D01*
G01X66278Y61348D01*
G01X66250Y61333D01*
G01X66219Y61317D01*
G01X66185Y61300D01*
G01X66147Y61282D01*
G01X66107Y61263D01*
G01X66063Y61244D01*
G01X66017Y61224D01*
G01X65967Y61203D01*
G01X65916Y61181D01*
G01X65862Y61160D01*
G01X65805Y61137D01*
G01X65747Y61114D01*
G01X65686Y61091D01*
G01X65624Y61067D01*
G01X65560Y61042D01*
G01X65495Y61018D01*
G01X65428Y60993D01*
G01X65290Y60943D01*
G01X65220Y60917D01*
G01X65076Y60867D01*
G01X65003Y60842D01*
G01X64930Y60816D01*
G01X64782Y60766D01*
G01X64709Y60741D01*
G01X64634Y60717D01*
G01X64561Y60692D01*
G01X64488Y60668D01*
G01X64414Y60645D01*
G01X64342Y60622D01*
G01X64271Y60599D01*
G01X64200Y60577D01*
G01X64130Y60556D01*
G01X64062Y60534D01*
G01X63995Y60514D01*
G01X63929Y60495D01*
G01X63865Y60476D01*
G01X63802Y60458D01*
G01X63741Y60441D01*
G01X63683Y60425D01*
G01X63626Y60409D01*
G01X63572Y60395D01*
G01X63519Y60381D01*
G01X63470Y60369D01*
G01X63423Y60359D01*
G01X63379Y60348D01*
G01X63338Y60340D01*
G01X63300Y60332D01*
G01X63265Y60326D01*
G01X63233Y60321D01*
G01X62815Y60264D01*
G01X61676Y60419D01*
G01X61597Y60431D01*
G01X61518Y60441D01*
G01X61438Y60453D01*
G01X61198Y60486D01*
G01X61040Y60508D01*
G01X60963Y60520D01*
G01X60886Y60531D01*
G01X60811Y60541D01*
G01X60738Y60552D01*
G01X60667Y60563D01*
G01X60598Y60573D01*
G01X60531Y60583D01*
G01X60467Y60592D01*
G01X60406Y60601D01*
G01X60349Y60610D01*
G01X60295Y60618D01*
G01X60244Y60626D01*
G01X60197Y60633D01*
G01X60154Y60640D01*
G01X60116Y60647D01*
G01X60083Y60652D01*
G01X59628Y60729D01*
G01X59575Y60642D01*
G01X59556Y60607D01*
G01X59546Y60576D01*
G01X59546Y60552D01*
G01X59554Y60538D01*
G01X59619Y60504D01*
G01X59686Y60471D01*
G01X59753Y60439D01*
G01X59821Y60407D01*
G01X59889Y60376D01*
G01X59957Y60346D01*
G01X60024Y60318D01*
G01X60090Y60291D01*
G01X60154Y60265D01*
G01X60217Y60241D01*
G01X60278Y60219D01*
G01X60337Y60199D01*
G01X60392Y60181D01*
G01X60444Y60165D01*
G01X60492Y60152D01*
G01X60537Y60142D01*
G01X60563Y60136D01*
G01X60596Y60126D01*
G01X60634Y60115D01*
G01X60678Y60102D01*
G01X60726Y60087D01*
G01X60779Y60069D01*
G01X60837Y60050D01*
G01X60898Y60029D01*
G01X60963Y60006D01*
G01X61031Y59983D01*
G01X61102Y59957D01*
G01X61175Y59931D01*
G01X61252Y59903D01*
G01X61329Y59874D01*
G01X61409Y59844D01*
G01X61490Y59814D01*
G01X61571Y59783D01*
G01X61653Y59752D01*
G01X61736Y59720D01*
G01X61819Y59687D01*
G01X61878Y59665D01*
G01X61939Y59641D01*
G01X62001Y59617D01*
G01X62065Y59594D01*
G01X62130Y59570D01*
G01X62195Y59547D01*
G01X62262Y59523D01*
G01X62396Y59476D01*
G01X62531Y59430D01*
G01X62665Y59386D01*
G01X62731Y59364D01*
G01X62863Y59322D01*
G01X62927Y59302D01*
G01X62990Y59283D01*
G01X63052Y59264D01*
G01X63113Y59247D01*
G01X63172Y59229D01*
G01X63229Y59213D01*
G01X63285Y59198D01*
G01X63338Y59183D01*
G01X63389Y59170D01*
G01X63438Y59158D01*
G01X63484Y59146D01*
G01X63527Y59136D01*
G01X63587Y59123D01*
G01X63649Y59110D01*
G01X63713Y59098D01*
G01X63779Y59085D01*
G01X63845Y59073D01*
G01X63914Y59062D01*
G01X63982Y59050D01*
G01X64186Y59020D01*
G01X64253Y59011D01*
G01X64319Y59003D01*
G01X64384Y58995D01*
G01X64447Y58988D01*
G01X64508Y58982D01*
G01X64566Y58977D01*
G01X64622Y58973D01*
G01X64675Y58969D01*
G01X64724Y58967D01*
G01X64770Y58965D01*
G01X65301Y58954D01*
G01X66007Y59135D01*
G01X66046Y59145D01*
G01X66085Y59156D01*
G01X66124Y59166D01*
G01X66206Y59190D01*
G01X66248Y59202D01*
G01X66290Y59216D01*
G01X66334Y59229D01*
G01X66378Y59243D01*
G01X66423Y59258D01*
G01X66469Y59273D01*
G01X66515Y59289D01*
G01X66563Y59304D01*
G01X66610Y59321D01*
G01X66659Y59338D01*
G01X66709Y59356D01*
G01X66759Y59375D01*
G01X66810Y59393D01*
G01X66861Y59413D01*
G01X66914Y59432D01*
G01X66967Y59453D01*
G01X67075Y59495D01*
G01X67187Y59539D01*
G01X67301Y59585D01*
G01X67360Y59609D01*
G01X67419Y59634D01*
G01X67539Y59684D01*
G01X67663Y59736D01*
G01X67725Y59763D01*
G01X67853Y59819D01*
G01X67918Y59847D01*
G01X67983Y59876D01*
G01X68184Y59966D01*
G01X68253Y59997D01*
G01X68322Y60029D01*
G01X68392Y60061D01*
G01X68463Y60093D01*
G01X68534Y60126D01*
G01X68606Y60160D01*
G01X68679Y60194D01*
G01X68827Y60264D01*
G01X68902Y60300D01*
G01X69054Y60372D01*
G01X69131Y60409D01*
G01X69287Y60485D01*
G01X69349Y60514D01*
G01X69410Y60543D01*
G01X69469Y60571D01*
G01X69528Y60598D01*
G01X69586Y60624D01*
G01X69643Y60649D01*
G01X69700Y60672D01*
G01X69757Y60696D01*
G01X69812Y60718D01*
G01X69868Y60740D01*
G01X69924Y60761D01*
G01X69979Y60781D01*
G01X70033Y60800D01*
G01X70089Y60819D01*
G01X70144Y60837D01*
G01X70199Y60854D01*
G01X70254Y60870D01*
G01X70310Y60886D01*
G01X70422Y60916D01*
G01X70479Y60930D01*
G01X70536Y60943D01*
G01X70594Y60956D01*
G01X70653Y60968D01*
G01X70713Y60980D01*
G01X70774Y60992D01*
G01X70835Y61002D01*
G01X70961Y61022D01*
G01X71026Y61032D01*
G01X71092Y61041D01*
G01X71160Y61049D01*
G01X71228Y61058D01*
G01X71299Y61066D01*
G01X71370Y61073D01*
G01X71444Y61080D01*
G01X71520Y61088D01*
G01X71597Y61094D01*
G01X71676Y61101D01*
G01X71757Y61107D01*
G01X72439Y61158D01*
G01X72492Y61295D01*
G01X72499Y61327D01*
G01X72501Y61366D01*
G01X72496Y61410D01*
G01X72486Y61457D01*
G01X72471Y61507D01*
G01X72451Y61557D01*
G01X72428Y61606D01*
G01X72400Y61653D01*
G01X72255Y61874D01*
G01X71855Y62022D01*
G01X71785Y62048D01*
G01X71718Y62072D01*
G01X71652Y62095D01*
G01X71587Y62117D01*
G01X71523Y62138D01*
G01X71461Y62158D01*
G01X71399Y62177D01*
G01X71338Y62194D01*
G01X71279Y62212D01*
G01X71219Y62227D01*
G01X71159Y62243D01*
G01X71100Y62257D01*
G01X71041Y62270D01*
G01X70923Y62294D01*
G01X70864Y62305D01*
G01X70805Y62315D01*
G01X70745Y62324D01*
G01X70684Y62333D01*
G01X70622Y62340D01*
G01X70559Y62347D01*
G01X70496Y62353D01*
G01X70431Y62360D01*
G01X70365Y62365D01*
G01X70297Y62369D01*
G01X70227Y62373D01*
G01X70157Y62376D01*
G01X70084Y62379D01*
G01X70009Y62381D01*
G01X69932Y62383D01*
G01X69853Y62385D01*
G01X69772Y62385D01*
G37*

%LPD*%
G36*
G01X68844Y58764D02*
G01X66091Y58764D01*
G01X66091Y53353D01*
G01X68844Y53353D01*
G01X68844Y58764D01*
G37*

%LPD*%
G36*
G01X60584Y58384D02*
G01X57546Y58384D01*
G01X57546Y52783D01*
G01X60584Y52783D01*
G01X60584Y58384D01*
G37*

%LPD*%
G36*
G01X62673Y59144D02*
G01X60774Y59144D01*
G01X60774Y52214D01*
G01X62673Y52214D01*
G01X62673Y59144D01*
G37*

%LPD*%
G36*
G01X65711Y58384D02*
G01X62957Y58384D01*
G01X62957Y49365D01*
G01X65711Y49365D01*
G01X65711Y58384D01*
G37*

%LPD*%

%LPD*%
G36*
G01X99203Y6036D02*
G01X99151Y6040D01*
G01X99101Y6036D01*
G01X99053Y6026D01*
G01X99008Y6010D01*
G01X98965Y5988D01*
G01X98926Y5961D01*
G01X98891Y5930D01*
G01X98859Y5895D01*
G01X98833Y5856D01*
G01X98812Y5814D01*
G01X98796Y5769D01*
G01X98786Y5722D01*
G01X98783Y5674D01*
G01X98786Y5622D01*
G01X98796Y5572D01*
G01X98812Y5526D01*
G01X98833Y5481D01*
G01X98859Y5441D01*
G01X98891Y5404D01*
G01X98926Y5372D01*
G01X98965Y5345D01*
G01X99008Y5323D01*
G01X99053Y5307D01*
G01X99101Y5296D01*
G01X99151Y5293D01*
G01X99203Y5296D01*
G01X99252Y5307D01*
G01X99299Y5323D01*
G01X99342Y5345D01*
G01X99382Y5372D01*
G01X99418Y5404D01*
G01X99450Y5441D01*
G01X99476Y5481D01*
G01X99498Y5526D01*
G01X99514Y5572D01*
G01X99523Y5622D01*
G01X99527Y5674D01*
G01X99523Y5722D01*
G01X99514Y5769D01*
G01X99498Y5814D01*
G01X99476Y5856D01*
G01X99450Y5895D01*
G01X99418Y5930D01*
G01X99382Y5961D01*
G01X99342Y5988D01*
G01X99299Y6010D01*
G01X99252Y6026D01*
G01X99203Y6036D01*
G37*

%LPD*%
G36*
G01X94333Y6004D02*
G01X94107Y6004D01*
G01X93121Y3599D01*
G01X92811Y3553D01*
G01X92811Y3373D01*
G01X94122Y3373D01*
G01X94122Y3553D01*
G01X93647Y3609D01*
G01X94343Y5453D01*
G01X94978Y3624D01*
G01X94526Y3553D01*
G01X94526Y3373D01*
G01X95537Y3373D01*
G01X95537Y3553D01*
G01X95227Y3624D01*
G01X94333Y6004D01*
G37*

%LPD*%
G36*
G01X48298Y5969D02*
G01X47038Y5969D01*
G01X47038Y5798D01*
G01X47457Y5737D01*
G01X47458Y5684D01*
G01X47459Y5628D01*
G01X47460Y5571D01*
G01X47460Y5512D01*
G01X47461Y5452D01*
G01X47464Y5269D01*
G01X47464Y5208D01*
G01X47465Y5148D01*
G01X47465Y5089D01*
G01X47466Y5031D01*
G01X47467Y4974D01*
G01X47467Y4386D01*
G01X47466Y4320D01*
G01X47465Y4258D01*
G01X47464Y4199D01*
G01X47463Y4142D01*
G01X47462Y4086D01*
G01X47460Y4030D01*
G01X47458Y3976D01*
G01X47456Y3920D01*
G01X47454Y3863D01*
G01X47452Y3804D01*
G01X47007Y3764D01*
G01X47007Y3599D01*
G01X47845Y3304D01*
G01X47922Y3352D01*
G01X47912Y4084D01*
G01X47912Y4974D01*
G01X47913Y5031D01*
G01X47913Y5089D01*
G01X47914Y5148D01*
G01X47914Y5208D01*
G01X47916Y5330D01*
G01X47916Y5391D01*
G01X47917Y5452D01*
G01X47918Y5512D01*
G01X47919Y5571D01*
G01X47920Y5628D01*
G01X47921Y5684D01*
G01X47922Y5737D01*
G01X48298Y5798D01*
G01X48298Y5969D01*
G37*

%LPD*%
G36*
G01X90782Y5969D02*
G01X89451Y5969D01*
G01X89451Y5798D01*
G01X89852Y5737D01*
G01X89853Y5685D01*
G01X89854Y5630D01*
G01X89855Y5573D01*
G01X89856Y5514D01*
G01X89857Y5454D01*
G01X89858Y5393D01*
G01X89858Y5332D01*
G01X89860Y5210D01*
G01X89860Y5149D01*
G01X89861Y5090D01*
G01X89861Y5031D01*
G01X89862Y4974D01*
G01X89862Y4388D01*
G01X89861Y4321D01*
G01X89861Y4258D01*
G01X89860Y4198D01*
G01X89859Y4140D01*
G01X89857Y4084D01*
G01X89856Y4029D01*
G01X89849Y3869D01*
G01X89847Y3815D01*
G01X89413Y3769D01*
G01X89413Y3604D01*
G01X90182Y3304D01*
G01X90256Y3352D01*
G01X90312Y4013D01*
G01X90340Y3947D01*
G01X90370Y3884D01*
G01X90402Y3823D01*
G01X90435Y3766D01*
G01X90470Y3711D01*
G01X90506Y3660D01*
G01X90544Y3612D01*
G01X90584Y3567D01*
G01X90624Y3526D01*
G01X90665Y3487D01*
G01X90707Y3452D01*
G01X90751Y3421D01*
G01X90794Y3392D01*
G01X90839Y3368D01*
G01X90884Y3347D01*
G01X90929Y3330D01*
G01X90975Y3317D01*
G01X91020Y3307D01*
G01X91066Y3301D01*
G01X91112Y3299D01*
G01X91175Y3303D01*
G01X91236Y3313D01*
G01X91294Y3329D01*
G01X91349Y3352D01*
G01X91398Y3382D01*
G01X91441Y3417D01*
G01X91478Y3458D01*
G01X91506Y3505D01*
G01X91501Y3586D01*
G01X91488Y3660D01*
G01X91466Y3723D01*
G01X91433Y3777D01*
G01X91391Y3820D01*
G01X91337Y3852D01*
G01X91272Y3871D01*
G01X91196Y3878D01*
G01X91148Y3876D01*
G01X91103Y3867D01*
G01X91059Y3855D01*
G01X91017Y3837D01*
G01X90976Y3815D01*
G01X90935Y3788D01*
G01X90895Y3758D01*
G01X90855Y3723D01*
G01X90792Y3665D01*
G01X90750Y3696D01*
G01X90711Y3729D01*
G01X90673Y3763D01*
G01X90637Y3799D01*
G01X90602Y3837D01*
G01X90570Y3877D01*
G01X90538Y3918D01*
G01X90509Y3962D01*
G01X90480Y4008D01*
G01X90453Y4055D01*
G01X90428Y4105D01*
G01X90403Y4157D01*
G01X90380Y4211D01*
G01X90358Y4268D01*
G01X90337Y4327D01*
G01X90317Y4389D01*
G01X90317Y4974D01*
G01X90318Y5030D01*
G01X90318Y5087D01*
G01X90319Y5146D01*
G01X90319Y5206D01*
G01X90320Y5266D01*
G01X90321Y5327D01*
G01X90321Y5388D01*
G01X90323Y5508D01*
G01X90324Y5566D01*
G01X90325Y5623D01*
G01X90326Y5679D01*
G01X90327Y5732D01*
G01X90782Y5798D01*
G01X90782Y5969D01*
G37*

%LPD*%
G36*
G01X87998Y6038D02*
G01X87927Y6040D01*
G01X87866Y6039D01*
G01X87807Y6035D01*
G01X87748Y6029D01*
G01X87691Y6021D01*
G01X87635Y6011D01*
G01X87580Y5999D01*
G01X87527Y5984D01*
G01X87475Y5967D01*
G01X87424Y5949D01*
G01X87375Y5928D01*
G01X87327Y5904D01*
G01X87281Y5880D01*
G01X87235Y5852D01*
G01X87192Y5823D01*
G01X87150Y5791D01*
G01X87110Y5758D01*
G01X87071Y5723D01*
G01X87034Y5685D01*
G01X86999Y5645D01*
G01X86966Y5604D01*
G01X86934Y5561D01*
G01X86904Y5515D01*
G01X86876Y5468D01*
G01X86849Y5419D01*
G01X86825Y5368D01*
G01X86802Y5315D01*
G01X86782Y5260D01*
G01X86763Y5204D01*
G01X86747Y5146D01*
G01X86733Y5086D01*
G01X86721Y5024D01*
G01X86711Y4960D01*
G01X86702Y4895D01*
G01X86697Y4828D01*
G01X86693Y4759D01*
G01X86692Y4688D01*
G01X86694Y4619D01*
G01X86697Y4550D01*
G01X86704Y4483D01*
G01X86713Y4418D01*
G01X86724Y4354D01*
G01X86738Y4292D01*
G01X86754Y4231D01*
G01X86773Y4172D01*
G01X86793Y4114D01*
G01X86816Y4058D01*
G01X86841Y4005D01*
G01X86868Y3952D01*
G01X86896Y3901D01*
G01X86926Y3853D01*
G01X86959Y3806D01*
G01X86993Y3761D01*
G01X87029Y3718D01*
G01X87066Y3676D01*
G01X87105Y3637D01*
G01X87146Y3600D01*
G01X87188Y3565D01*
G01X87231Y3532D01*
G01X87275Y3500D01*
G01X87322Y3471D01*
G01X87368Y3444D01*
G01X87417Y3420D01*
G01X87466Y3397D01*
G01X87516Y3377D01*
G01X87568Y3359D01*
G01X87619Y3343D01*
G01X87672Y3330D01*
G01X87726Y3319D01*
G01X87780Y3310D01*
G01X87835Y3304D01*
G01X87891Y3300D01*
G01X87947Y3299D01*
G01X88009Y3300D01*
G01X88071Y3305D01*
G01X88131Y3313D01*
G01X88189Y3323D01*
G01X88246Y3336D01*
G01X88302Y3352D01*
G01X88355Y3371D01*
G01X88408Y3393D01*
G01X88458Y3417D01*
G01X88506Y3445D01*
G01X88553Y3474D01*
G01X88597Y3507D01*
G01X88639Y3542D01*
G01X88680Y3579D01*
G01X88718Y3619D01*
G01X88753Y3661D01*
G01X88786Y3706D01*
G01X88817Y3753D01*
G01X88845Y3802D01*
G01X88871Y3854D01*
G01X88893Y3908D01*
G01X88914Y3963D01*
G01X88930Y4022D01*
G01X88945Y4082D01*
G01X88956Y4144D01*
G01X88964Y4208D01*
G01X88969Y4275D01*
G01X88971Y4343D01*
G01X88968Y4433D01*
G01X88960Y4514D01*
G01X88948Y4587D01*
G01X88933Y4648D01*
G01X87172Y4643D01*
G01X87175Y4719D01*
G01X87180Y4792D01*
G01X87188Y4864D01*
G01X87198Y4932D01*
G01X87210Y4997D01*
G01X87226Y5060D01*
G01X87243Y5119D01*
G01X87263Y5177D01*
G01X87286Y5230D01*
G01X87310Y5282D01*
G01X87337Y5330D01*
G01X87366Y5377D01*
G01X87397Y5419D01*
G01X87430Y5460D01*
G01X87465Y5498D01*
G01X87502Y5532D01*
G01X87541Y5564D01*
G01X87582Y5593D01*
G01X87624Y5620D01*
G01X87669Y5643D01*
G01X87715Y5664D01*
G01X87763Y5682D01*
G01X87812Y5698D01*
G01X87863Y5710D01*
G01X87916Y5720D01*
G01X87969Y5727D01*
G01X88025Y5731D01*
G01X88082Y5732D01*
G01X88148Y5730D01*
G01X88210Y5725D01*
G01X88270Y5716D01*
G01X88326Y5704D01*
G01X88380Y5688D01*
G01X88432Y5669D01*
G01X88481Y5647D01*
G01X88528Y5623D01*
G01X88573Y5596D01*
G01X88617Y5566D01*
G01X88659Y5534D01*
G01X88699Y5499D01*
G01X88738Y5462D01*
G01X88777Y5422D01*
G01X88814Y5382D01*
G01X88851Y5339D01*
G01X88960Y5412D01*
G01X88929Y5469D01*
G01X88896Y5523D01*
G01X88861Y5576D01*
G01X88823Y5626D01*
G01X88784Y5673D01*
G01X88742Y5718D01*
G01X88697Y5760D01*
G01X88651Y5800D01*
G01X88602Y5837D01*
G01X88551Y5871D01*
G01X88498Y5902D01*
G01X88443Y5930D01*
G01X88386Y5955D01*
G01X88326Y5977D01*
G01X88265Y5996D01*
G01X88202Y6012D01*
G01X88136Y6024D01*
G01X88068Y6033D01*
G01X87998Y6038D01*
G37*

%LPC*%
G36*
G01X88313Y4444D02*
G01X88231Y4450D01*
G01X87177Y4439D01*
G01X87186Y4360D01*
G01X87197Y4284D01*
G01X87211Y4213D01*
G01X87228Y4145D01*
G01X87247Y4080D01*
G01X87269Y4019D01*
G01X87293Y3962D01*
G01X87320Y3909D01*
G01X87348Y3859D01*
G01X87378Y3812D01*
G01X87410Y3769D01*
G01X87444Y3729D01*
G01X87479Y3693D01*
G01X87515Y3660D01*
G01X87553Y3631D01*
G01X87591Y3604D01*
G01X87631Y3581D01*
G01X87671Y3562D01*
G01X87712Y3545D01*
G01X87754Y3531D01*
G01X87796Y3520D01*
G01X87838Y3513D01*
G01X87879Y3509D01*
G01X87922Y3507D01*
G01X87987Y3511D01*
G01X88050Y3520D01*
G01X88110Y3537D01*
G01X88166Y3559D01*
G01X88219Y3586D01*
G01X88269Y3619D01*
G01X88315Y3657D01*
G01X88357Y3698D01*
G01X88395Y3743D01*
G01X88429Y3793D01*
G01X88458Y3845D01*
G01X88482Y3900D01*
G01X88501Y3958D01*
G01X88515Y4018D01*
G01X88523Y4079D01*
G01X88526Y4142D01*
G01X88523Y4207D01*
G01X88513Y4266D01*
G01X88496Y4319D01*
G01X88468Y4364D01*
G01X88430Y4400D01*
G01X88378Y4427D01*
G01X88313Y4444D01*
G37*

%LPD*%
G36*
G01X79827Y5969D02*
G01X78567Y5969D01*
G01X78567Y5798D01*
G01X78971Y5737D01*
G01X78972Y5684D01*
G01X78973Y5628D01*
G01X78974Y5571D01*
G01X78974Y5512D01*
G01X78975Y5452D01*
G01X78978Y5269D01*
G01X78978Y5208D01*
G01X78979Y5148D01*
G01X78979Y5089D01*
G01X78980Y5031D01*
G01X78980Y4974D01*
G01X78981Y4919D01*
G01X78981Y4321D01*
G01X78980Y4258D01*
G01X78980Y4198D01*
G01X78979Y4140D01*
G01X78978Y4084D01*
G01X78976Y4029D01*
G01X78972Y3922D01*
G01X78969Y3869D01*
G01X78966Y3815D01*
G01X78531Y3769D01*
G01X78531Y3604D01*
G01X79301Y3304D01*
G01X79377Y3352D01*
G01X79423Y3799D01*
G01X79474Y3743D01*
G01X79527Y3690D01*
G01X79582Y3640D01*
G01X79638Y3593D01*
G01X79696Y3548D01*
G01X79754Y3507D01*
G01X79814Y3469D01*
G01X79875Y3435D01*
G01X79937Y3404D01*
G01X79999Y3377D01*
G01X80061Y3354D01*
G01X80124Y3335D01*
G01X80187Y3319D01*
G01X80250Y3308D01*
G01X80313Y3301D01*
G01X80375Y3299D01*
G01X80438Y3301D01*
G01X80497Y3306D01*
G01X80554Y3316D01*
G01X80607Y3329D01*
G01X80658Y3346D01*
G01X80706Y3367D01*
G01X80751Y3392D01*
G01X80793Y3421D01*
G01X80832Y3455D01*
G01X80868Y3493D01*
G01X80902Y3535D01*
G01X80932Y3582D01*
G01X80960Y3633D01*
G01X80984Y3689D01*
G01X81006Y3750D01*
G01X81026Y3815D01*
G01X81070Y3763D01*
G01X81115Y3715D01*
G01X81161Y3669D01*
G01X81207Y3626D01*
G01X81254Y3586D01*
G01X81302Y3548D01*
G01X81351Y3514D01*
G01X81399Y3482D01*
G01X81449Y3452D01*
G01X81499Y3425D01*
G01X81549Y3401D01*
G01X81600Y3380D01*
G01X81651Y3360D01*
G01X81703Y3344D01*
G01X81754Y3330D01*
G01X81806Y3319D01*
G01X81859Y3310D01*
G01X81911Y3304D01*
G01X81964Y3300D01*
G01X82016Y3299D01*
G01X82070Y3300D01*
G01X82123Y3305D01*
G01X82174Y3312D01*
G01X82222Y3322D01*
G01X82269Y3336D01*
G01X82313Y3352D01*
G01X82355Y3372D01*
G01X82396Y3395D01*
G01X82433Y3421D01*
G01X82469Y3451D01*
G01X82502Y3484D01*
G01X82533Y3520D01*
G01X82562Y3561D01*
G01X82589Y3604D01*
G01X82612Y3652D01*
G01X82634Y3702D01*
G01X82653Y3757D01*
G01X82670Y3816D01*
G01X82684Y3878D01*
G01X82696Y3944D01*
G01X82705Y4014D01*
G01X82712Y4088D01*
G01X82716Y4167D01*
G01X82717Y4249D01*
G01X82717Y4923D01*
G01X82718Y4978D01*
G01X82718Y5035D01*
G01X82719Y5094D01*
G01X82719Y5154D01*
G01X82720Y5275D01*
G01X82721Y5336D01*
G01X82723Y5456D01*
G01X82724Y5515D01*
G01X82724Y5573D01*
G01X82725Y5630D01*
G01X82726Y5685D01*
G01X82727Y5737D01*
G01X83111Y5798D01*
G01X83111Y5969D01*
G01X81856Y5969D01*
G01X81856Y5798D01*
G01X82262Y5737D01*
G01X82263Y5685D01*
G01X82265Y5630D01*
G01X82266Y5573D01*
G01X82266Y5515D01*
G01X82267Y5456D01*
G01X82269Y5336D01*
G01X82270Y5275D01*
G01X82271Y5154D01*
G01X82271Y5094D01*
G01X82272Y5035D01*
G01X82272Y4978D01*
G01X82273Y4923D01*
G01X82273Y4302D01*
G01X82271Y4211D01*
G01X82266Y4129D01*
G01X82257Y4053D01*
G01X82245Y3986D01*
G01X82229Y3926D01*
G01X82210Y3872D01*
G01X82186Y3826D01*
G01X82160Y3785D01*
G01X82129Y3751D01*
G01X82095Y3722D01*
G01X82057Y3699D01*
G01X82016Y3680D01*
G01X81970Y3666D01*
G01X81921Y3657D01*
G01X81867Y3651D01*
G01X81810Y3649D01*
G01X81753Y3652D01*
G01X81696Y3658D01*
G01X81638Y3669D01*
G01X81579Y3685D01*
G01X81519Y3706D01*
G01X81459Y3732D01*
G01X81397Y3764D01*
G01X81333Y3801D01*
G01X81268Y3845D01*
G01X81201Y3894D01*
G01X81132Y3950D01*
G01X81061Y4013D01*
G01X81068Y4078D01*
G01X81073Y4146D01*
G01X81075Y4218D01*
G01X81076Y4295D01*
G01X81076Y4923D01*
G01X81077Y4978D01*
G01X81077Y5035D01*
G01X81078Y5094D01*
G01X81078Y5154D01*
G01X81079Y5214D01*
G01X81081Y5336D01*
G01X81083Y5456D01*
G01X81085Y5515D01*
G01X81086Y5573D01*
G01X81088Y5630D01*
G01X81090Y5685D01*
G01X81092Y5737D01*
G01X81467Y5798D01*
G01X81467Y5969D01*
G01X80208Y5969D01*
G01X80208Y5798D01*
G01X80622Y5737D01*
G01X80623Y5685D01*
G01X80624Y5630D01*
G01X80625Y5573D01*
G01X80625Y5515D01*
G01X80626Y5456D01*
G01X80628Y5336D01*
G01X80629Y5275D01*
G01X80630Y5154D01*
G01X80630Y5094D01*
G01X80631Y5035D01*
G01X80631Y4978D01*
G01X80632Y4923D01*
G01X80632Y4312D01*
G01X80630Y4223D01*
G01X80625Y4141D01*
G01X80617Y4067D01*
G01X80605Y3999D01*
G01X80590Y3938D01*
G01X80571Y3884D01*
G01X80549Y3836D01*
G01X80523Y3794D01*
G01X80494Y3758D01*
G01X80461Y3728D01*
G01X80424Y3703D01*
G01X80383Y3683D01*
G01X80339Y3668D01*
G01X80290Y3658D01*
G01X80238Y3652D01*
G01X80182Y3649D01*
G01X80120Y3652D01*
G01X80059Y3658D01*
G01X79999Y3670D01*
G01X79939Y3686D01*
G01X79880Y3707D01*
G01X79821Y3733D01*
G01X79760Y3765D01*
G01X79699Y3802D01*
G01X79636Y3845D01*
G01X79571Y3893D01*
G01X79505Y3947D01*
G01X79435Y4008D01*
G01X79435Y4919D01*
G01X79436Y4974D01*
G01X79436Y5031D01*
G01X79437Y5089D01*
G01X79437Y5148D01*
G01X79438Y5208D01*
G01X79440Y5330D01*
G01X79440Y5391D01*
G01X79441Y5452D01*
G01X79442Y5512D01*
G01X79443Y5571D01*
G01X79444Y5628D01*
G01X79445Y5684D01*
G01X79446Y5737D01*
G01X79827Y5798D01*
G01X79827Y5969D01*
G37*

%LPD*%
G36*
G01X76613Y6038D02*
G01X76553Y6040D01*
G01X76493Y6038D01*
G01X76435Y6033D01*
G01X76378Y6024D01*
G01X76323Y6012D01*
G01X76270Y5996D01*
G01X76219Y5978D01*
G01X76170Y5956D01*
G01X76123Y5930D01*
G01X76080Y5901D01*
G01X76039Y5869D01*
G01X76001Y5834D01*
G01X75966Y5795D01*
G01X75935Y5753D01*
G01X75907Y5708D01*
G01X75883Y5659D01*
G01X75863Y5607D01*
G01X75847Y5552D01*
G01X75836Y5495D01*
G01X75829Y5434D01*
G01X75826Y5369D01*
G01X75827Y5327D01*
G01X75830Y5287D01*
G01X75836Y5248D01*
G01X75843Y5209D01*
G01X75854Y5171D01*
G01X75867Y5133D01*
G01X75883Y5097D01*
G01X75902Y5061D01*
G01X75924Y5026D01*
G01X75950Y4991D01*
G01X75978Y4957D01*
G01X76011Y4923D01*
G01X76047Y4890D01*
G01X76087Y4857D01*
G01X76130Y4824D01*
G01X76179Y4792D01*
G01X76231Y4760D01*
G01X76288Y4728D01*
G01X76349Y4696D01*
G01X76415Y4665D01*
G01X76487Y4633D01*
G01X76563Y4602D01*
G01X76644Y4570D01*
G01X76730Y4538D01*
G01X76776Y4522D01*
G01X76823Y4506D01*
G01X76872Y4490D01*
G01X76923Y4473D01*
G01X76976Y4458D01*
G01X77029Y4442D01*
G01X77083Y4428D01*
G01X77194Y4398D01*
G01X77250Y4385D01*
G01X77305Y4371D01*
G01X77360Y4358D01*
G01X77360Y4188D01*
G01X77358Y4091D01*
G01X77353Y4004D01*
G01X77344Y3925D01*
G01X77330Y3854D01*
G01X77313Y3792D01*
G01X77292Y3736D01*
G01X77266Y3688D01*
G01X77237Y3645D01*
G01X77203Y3610D01*
G01X77165Y3580D01*
G01X77122Y3557D01*
G01X77074Y3538D01*
G01X77022Y3524D01*
G01X76965Y3514D01*
G01X76904Y3509D01*
G01X76837Y3507D01*
G01X76764Y3510D01*
G01X76689Y3518D01*
G01X76610Y3533D01*
G01X76527Y3553D01*
G01X76420Y3929D01*
G01X76402Y3989D01*
G01X76379Y4040D01*
G01X76351Y4084D01*
G01X76319Y4120D01*
G01X76283Y4147D01*
G01X76242Y4167D01*
G01X76196Y4179D01*
G01X76146Y4183D01*
G01X76093Y4179D01*
G01X76047Y4169D01*
G01X76007Y4152D01*
G01X75974Y4129D01*
G01X75947Y4100D01*
G01X75926Y4064D01*
G01X75911Y4022D01*
G01X75902Y3975D01*
G01X75916Y3923D01*
G01X75932Y3872D01*
G01X75952Y3825D01*
G01X75974Y3778D01*
G01X76000Y3734D01*
G01X76028Y3691D01*
G01X76059Y3650D01*
G01X76093Y3612D01*
G01X76130Y3575D01*
G01X76170Y3541D01*
G01X76211Y3509D01*
G01X76256Y3479D01*
G01X76303Y3451D01*
G01X76352Y3425D01*
G01X76403Y3402D01*
G01X76457Y3380D01*
G01X76513Y3361D01*
G01X76571Y3345D01*
G01X76631Y3331D01*
G01X76694Y3320D01*
G01X76758Y3311D01*
G01X76824Y3304D01*
G01X76892Y3300D01*
G01X76962Y3299D01*
G01X77032Y3300D01*
G01X77099Y3305D01*
G01X77163Y3312D01*
G01X77224Y3321D01*
G01X77282Y3334D01*
G01X77336Y3350D01*
G01X77388Y3369D01*
G01X77437Y3391D01*
G01X77483Y3417D01*
G01X77526Y3446D01*
G01X77566Y3478D01*
G01X77602Y3513D01*
G01X77636Y3553D01*
G01X77667Y3596D01*
G01X77695Y3642D01*
G01X77719Y3693D01*
G01X77741Y3747D01*
G01X77760Y3805D01*
G01X77776Y3867D01*
G01X77789Y3933D01*
G01X77799Y4003D01*
G01X77807Y4077D01*
G01X77811Y4156D01*
G01X77812Y4239D01*
G01X77812Y5427D01*
G01X77816Y5518D01*
G01X77826Y5593D01*
G01X77842Y5654D01*
G01X77865Y5701D01*
G01X77893Y5736D01*
G01X77927Y5760D01*
G01X77966Y5773D01*
G01X78011Y5778D01*
G01X78074Y5769D01*
G01X78128Y5743D01*
G01X78180Y5701D01*
G01X78232Y5643D01*
G01X78331Y5748D01*
G01X78282Y5819D01*
G01X78232Y5879D01*
G01X78178Y5927D01*
G01X78120Y5965D01*
G01X78060Y5994D01*
G01X77997Y6014D01*
G01X77930Y6026D01*
G01X77861Y6029D01*
G01X77795Y6026D01*
G01X77734Y6016D01*
G01X77677Y5999D01*
G01X77624Y5977D01*
G01X77576Y5948D01*
G01X77532Y5914D01*
G01X77492Y5874D01*
G01X77458Y5828D01*
G01X77428Y5777D01*
G01X77404Y5722D01*
G01X77385Y5662D01*
G01X77370Y5598D01*
G01X77316Y5651D01*
G01X77263Y5701D01*
G01X77212Y5748D01*
G01X77163Y5791D01*
G01X77114Y5831D01*
G01X77067Y5867D01*
G01X77020Y5900D01*
G01X76973Y5929D01*
G01X76925Y5955D01*
G01X76877Y5978D01*
G01X76828Y5996D01*
G01X76778Y6012D01*
G01X76725Y6024D01*
G01X76670Y6033D01*
G01X76613Y6038D01*
G37*

%LPC*%
G36*
G01X76783Y5718D02*
G01X76735Y5720D01*
G01X76673Y5717D01*
G01X76615Y5708D01*
G01X76559Y5694D01*
G01X76507Y5674D01*
G01X76460Y5648D01*
G01X76418Y5617D01*
G01X76381Y5579D01*
G01X76350Y5535D01*
G01X76324Y5484D01*
G01X76306Y5427D01*
G01X76295Y5363D01*
G01X76291Y5293D01*
G01X76292Y5255D01*
G01X76296Y5218D01*
G01X76302Y5180D01*
G01X76312Y5141D01*
G01X76325Y5103D01*
G01X76344Y5065D01*
G01X76366Y5027D01*
G01X76394Y4989D01*
G01X76428Y4950D01*
G01X76467Y4912D01*
G01X76513Y4875D01*
G01X76566Y4838D01*
G01X76627Y4801D01*
G01X76695Y4765D01*
G01X76772Y4728D01*
G01X76857Y4693D01*
G01X76905Y4676D01*
G01X76959Y4656D01*
G01X77018Y4636D01*
G01X77081Y4615D01*
G01X77148Y4593D01*
G01X77217Y4572D01*
G01X77288Y4550D01*
G01X77360Y4528D01*
G01X77360Y5400D01*
G01X77288Y5456D01*
G01X77222Y5506D01*
G01X77162Y5550D01*
G01X77106Y5589D01*
G01X77055Y5622D01*
G01X77007Y5649D01*
G01X76961Y5672D01*
G01X76917Y5690D01*
G01X76873Y5703D01*
G01X76828Y5712D01*
G01X76783Y5718D01*
G37*

%LPD*%
G36*
G01X53224Y7278D02*
G01X53141Y7279D01*
G01X53044Y7278D01*
G01X52952Y7274D01*
G01X52864Y7266D01*
G01X52781Y7257D01*
G01X52702Y7244D01*
G01X52628Y7229D01*
G01X52558Y7212D01*
G01X52492Y7192D01*
G01X52431Y7170D01*
G01X52374Y7146D01*
G01X52321Y7119D01*
G01X52273Y7090D01*
G01X52229Y7059D01*
G01X52188Y7026D01*
G01X52152Y6992D01*
G01X52120Y6955D01*
G01X52092Y6916D01*
G01X52067Y6876D01*
G01X52047Y6835D01*
G01X52030Y6791D01*
G01X52017Y6746D01*
G01X52008Y6700D01*
G01X52003Y6652D01*
G01X52001Y6604D01*
G01X52002Y6560D01*
G01X52008Y6517D01*
G01X52017Y6476D01*
G01X52029Y6435D01*
G01X52046Y6396D01*
G01X52067Y6357D01*
G01X52092Y6320D01*
G01X52122Y6282D01*
G01X52155Y6245D01*
G01X52194Y6209D01*
G01X52238Y6174D01*
G01X52286Y6139D01*
G01X52339Y6104D01*
G01X52398Y6069D01*
G01X52462Y6034D01*
G01X52532Y5999D01*
G01X52477Y5980D01*
G01X52427Y5958D01*
G01X52381Y5932D01*
G01X52339Y5904D01*
G01X52302Y5874D01*
G01X52269Y5840D01*
G01X52241Y5803D01*
G01X52218Y5763D01*
G01X52200Y5720D01*
G01X52187Y5674D01*
G01X52179Y5625D01*
G01X52176Y5572D01*
G01X52178Y5529D01*
G01X52185Y5485D01*
G01X52196Y5441D01*
G01X52212Y5396D01*
G01X52234Y5349D01*
G01X52261Y5301D01*
G01X52293Y5252D01*
G01X52332Y5200D01*
G01X52376Y5146D01*
G01X52428Y5090D01*
G01X52487Y5030D01*
G01X52552Y4968D01*
G01X52504Y4939D01*
G01X52459Y4908D01*
G01X52416Y4874D01*
G01X52376Y4838D01*
G01X52338Y4799D01*
G01X52304Y4757D01*
G01X52272Y4712D01*
G01X52243Y4665D01*
G01X52217Y4615D01*
G01X52195Y4563D01*
G01X52176Y4508D01*
G01X52159Y4450D01*
G01X52147Y4390D01*
G01X52138Y4327D01*
G01X52132Y4261D01*
G01X52130Y4193D01*
G01X52132Y4133D01*
G01X52137Y4075D01*
G01X52145Y4019D01*
G01X52155Y3964D01*
G01X52169Y3912D01*
G01X52185Y3862D01*
G01X52205Y3814D01*
G01X52226Y3767D01*
G01X52251Y3723D01*
G01X52278Y3680D01*
G01X52308Y3640D01*
G01X52340Y3602D01*
G01X52374Y3566D01*
G01X52410Y3533D01*
G01X52449Y3501D01*
G01X52490Y3472D01*
G01X52533Y3445D01*
G01X52578Y3420D01*
G01X52625Y3397D01*
G01X52674Y3377D01*
G01X52724Y3358D01*
G01X52776Y3343D01*
G01X52830Y3329D01*
G01X52885Y3319D01*
G01X52942Y3310D01*
G01X53001Y3304D01*
G01X53060Y3300D01*
G01X53121Y3299D01*
G01X53190Y3300D01*
G01X53257Y3305D01*
G01X53323Y3312D01*
G01X53387Y3322D01*
G01X53448Y3335D01*
G01X53508Y3351D01*
G01X53565Y3371D01*
G01X53619Y3392D01*
G01X53672Y3418D01*
G01X53721Y3446D01*
G01X53768Y3478D01*
G01X53812Y3512D01*
G01X54437Y3304D01*
G01X54516Y3357D01*
G01X54516Y3683D01*
G01X53962Y3667D01*
G01X53993Y3722D01*
G01X54022Y3780D01*
G01X54047Y3841D01*
G01X54067Y3906D01*
G01X54084Y3973D01*
G01X54096Y4043D01*
G01X54104Y4116D01*
G01X54107Y4193D01*
G01X54105Y4254D01*
G01X54100Y4313D01*
G01X54093Y4370D01*
G01X54082Y4425D01*
G01X54068Y4478D01*
G01X54052Y4529D01*
G01X54033Y4578D01*
G01X54011Y4624D01*
G01X53987Y4669D01*
G01X53960Y4712D01*
G01X53930Y4752D01*
G01X53899Y4791D01*
G01X53864Y4828D01*
G01X53828Y4862D01*
G01X53790Y4893D01*
G01X53749Y4923D01*
G01X53706Y4950D01*
G01X53662Y4975D01*
G01X53615Y4998D01*
G01X53567Y5019D01*
G01X53516Y5037D01*
G01X53464Y5053D01*
G01X53411Y5066D01*
G01X53356Y5077D01*
G01X53299Y5086D01*
G01X53241Y5092D01*
G01X53182Y5096D01*
G01X53121Y5097D01*
G01X53062Y5096D01*
G01X53004Y5093D01*
G01X52947Y5088D01*
G01X52892Y5080D01*
G01X52839Y5070D01*
G01X52787Y5059D01*
G01X52736Y5045D01*
G01X52687Y5029D01*
G01X52652Y5074D01*
G01X52622Y5119D01*
G01X52596Y5163D01*
G01X52574Y5206D01*
G01X52558Y5250D01*
G01X52547Y5295D01*
G01X52539Y5341D01*
G01X52537Y5389D01*
G01X52540Y5446D01*
G01X52553Y5497D01*
G01X52575Y5540D01*
G01X52608Y5576D01*
G01X52655Y5605D01*
G01X52716Y5626D01*
G01X52793Y5639D01*
G01X52887Y5643D01*
G01X53611Y5643D01*
G01X53684Y5645D01*
G01X53755Y5649D01*
G01X53821Y5656D01*
G01X53885Y5665D01*
G01X53945Y5676D01*
G01X54002Y5691D01*
G01X54056Y5707D01*
G01X54106Y5727D01*
G01X54154Y5749D01*
G01X54198Y5772D01*
G01X54239Y5799D01*
G01X54277Y5827D01*
G01X54311Y5858D01*
G01X54343Y5892D01*
G01X54372Y5927D01*
G01X54397Y5965D01*
G01X54420Y6005D01*
G01X54439Y6046D01*
G01X54456Y6090D01*
G01X54469Y6136D01*
G01X54479Y6184D01*
G01X54487Y6234D01*
G01X54491Y6285D01*
G01X54493Y6339D01*
G01X54491Y6384D01*
G01X54487Y6428D01*
G01X54480Y6472D01*
G01X54471Y6516D01*
G01X54459Y6559D01*
G01X54444Y6602D01*
G01X54427Y6645D01*
G01X54407Y6687D01*
G01X54384Y6727D01*
G01X54360Y6768D01*
G01X54332Y6807D01*
G01X54301Y6845D01*
G01X54268Y6883D01*
G01X54232Y6919D01*
G01X54193Y6954D01*
G01X54152Y6988D01*
G01X54109Y7020D01*
G01X54062Y7051D01*
G01X54014Y7079D01*
G01X53962Y7107D01*
G01X53908Y7133D01*
G01X53851Y7157D01*
G01X53792Y7179D01*
G01X53730Y7199D01*
G01X53665Y7217D01*
G01X53598Y7233D01*
G01X53528Y7247D01*
G01X53456Y7258D01*
G01X53381Y7267D01*
G01X53304Y7274D01*
G01X53224Y7278D01*
G37*

%LPC*%
G36*
G01X53158Y4912D02*
G01X53106Y4914D01*
G01X53044Y4911D01*
G01X52985Y4901D01*
G01X52929Y4885D01*
G01X52877Y4863D01*
G01X52829Y4835D01*
G01X52784Y4801D01*
G01X52744Y4761D01*
G01X52707Y4717D01*
G01X52674Y4668D01*
G01X52645Y4613D01*
G01X52620Y4554D01*
G01X52599Y4491D01*
G01X52583Y4424D01*
G01X52571Y4352D01*
G01X52565Y4277D01*
G01X52562Y4198D01*
G01X52565Y4121D01*
G01X52572Y4047D01*
G01X52584Y3977D01*
G01X52601Y3911D01*
G01X52622Y3848D01*
G01X52648Y3790D01*
G01X52679Y3736D01*
G01X52713Y3687D01*
G01X52751Y3642D01*
G01X52794Y3603D01*
G01X52840Y3569D01*
G01X52890Y3541D01*
G01X52944Y3519D01*
G01X53001Y3503D01*
G01X53062Y3493D01*
G01X53126Y3489D01*
G01X53189Y3493D01*
G01X53249Y3503D01*
G01X53305Y3518D01*
G01X53357Y3540D01*
G01X53406Y3568D01*
G01X53451Y3601D01*
G01X53492Y3639D01*
G01X53529Y3683D01*
G01X53561Y3731D01*
G01X53590Y3784D01*
G01X53615Y3841D01*
G01X53636Y3902D01*
G01X53651Y3967D01*
G01X53663Y4036D01*
G01X53670Y4108D01*
G01X53672Y4183D01*
G01X53671Y4246D01*
G01X53666Y4307D01*
G01X53658Y4366D01*
G01X53647Y4423D01*
G01X53634Y4477D01*
G01X53617Y4529D01*
G01X53598Y4578D01*
G01X53575Y4625D01*
G01X53550Y4668D01*
G01X53522Y4709D01*
G01X53492Y4746D01*
G01X53459Y4780D01*
G01X53423Y4810D01*
G01X53385Y4837D01*
G01X53345Y4860D01*
G01X53301Y4879D01*
G01X53256Y4895D01*
G01X53208Y4905D01*
G01X53158Y4912D01*
G37*
G36*
G01X53233Y7056D02*
G01X53141Y7058D01*
G01X53063Y7056D01*
G01X52987Y7051D01*
G01X52916Y7040D01*
G01X52849Y7027D01*
G01X52786Y7009D01*
G01X52727Y6987D01*
G01X52673Y6961D01*
G01X52624Y6930D01*
G01X52580Y6895D01*
G01X52540Y6856D01*
G01X52507Y6812D01*
G01X52479Y6765D01*
G01X52457Y6712D01*
G01X52441Y6655D01*
G01X52431Y6593D01*
G01X52428Y6527D01*
G01X52431Y6459D01*
G01X52440Y6394D01*
G01X52456Y6331D01*
G01X52479Y6270D01*
G01X52510Y6211D01*
G01X52549Y6152D01*
G01X52596Y6094D01*
G01X52651Y6035D01*
G01X52710Y6038D01*
G01X52774Y6042D01*
G01X52843Y6044D01*
G01X52920Y6045D01*
G01X53550Y6045D01*
G01X53644Y6049D01*
G01X53728Y6060D01*
G01X53802Y6079D01*
G01X53867Y6104D01*
G01X53922Y6135D01*
G01X53969Y6172D01*
G01X54008Y6214D01*
G01X54039Y6261D01*
G01X54062Y6311D01*
G01X54079Y6366D01*
G01X54088Y6424D01*
G01X54091Y6484D01*
G01X54089Y6532D01*
G01X54082Y6579D01*
G01X54069Y6625D01*
G01X54053Y6669D01*
G01X54031Y6711D01*
G01X54004Y6751D01*
G01X53973Y6790D01*
G01X53937Y6827D01*
G01X53896Y6861D01*
G01X53851Y6893D01*
G01X53801Y6923D01*
G01X53746Y6950D01*
G01X53686Y6974D01*
G01X53622Y6996D01*
G01X53553Y7014D01*
G01X53480Y7030D01*
G01X53402Y7042D01*
G01X53320Y7051D01*
G01X53233Y7056D01*
G37*

%LPD*%
G36*
G01X49966Y5969D02*
G01X48707Y5969D01*
G01X48707Y5798D01*
G01X49110Y5737D01*
G01X49111Y5684D01*
G01X49112Y5628D01*
G01X49113Y5571D01*
G01X49114Y5512D01*
G01X49115Y5452D01*
G01X49116Y5391D01*
G01X49116Y5330D01*
G01X49118Y5269D01*
G01X49118Y5208D01*
G01X49119Y5148D01*
G01X49119Y5089D01*
G01X49120Y5031D01*
G01X49120Y4974D01*
G01X49121Y4919D01*
G01X49121Y4458D01*
G01X49120Y4388D01*
G01X49120Y4321D01*
G01X49119Y4258D01*
G01X49118Y4198D01*
G01X49117Y4140D01*
G01X49115Y4084D01*
G01X49114Y4029D01*
G01X49108Y3869D01*
G01X49105Y3815D01*
G01X48671Y3769D01*
G01X48671Y3604D01*
G01X49441Y3304D01*
G01X49517Y3352D01*
G01X49563Y3804D01*
G01X49605Y3759D01*
G01X49649Y3715D01*
G01X49694Y3673D01*
G01X49740Y3633D01*
G01X49787Y3595D01*
G01X49834Y3559D01*
G01X49883Y3525D01*
G01X49932Y3493D01*
G01X49982Y3463D01*
G01X50032Y3436D01*
G01X50083Y3410D01*
G01X50134Y3388D01*
G01X50185Y3368D01*
G01X50237Y3350D01*
G01X50288Y3335D01*
G01X50340Y3322D01*
G01X50392Y3312D01*
G01X50443Y3305D01*
G01X50495Y3300D01*
G01X50546Y3299D01*
G01X50602Y3300D01*
G01X50657Y3305D01*
G01X50709Y3313D01*
G01X50759Y3324D01*
G01X50806Y3338D01*
G01X50851Y3355D01*
G01X50893Y3376D01*
G01X50934Y3400D01*
G01X50972Y3428D01*
G01X51007Y3459D01*
G01X51040Y3494D01*
G01X51070Y3532D01*
G01X51098Y3574D01*
G01X51124Y3620D01*
G01X51147Y3669D01*
G01X51168Y3723D01*
G01X51187Y3780D01*
G01X51202Y3841D01*
G01X51216Y3907D01*
G01X51227Y3976D01*
G01X51235Y4049D01*
G01X51241Y4126D01*
G01X51246Y4209D01*
G01X51247Y4295D01*
G01X51247Y4978D01*
G01X51248Y5035D01*
G01X51248Y5094D01*
G01X51249Y5154D01*
G01X51250Y5275D01*
G01X51251Y5336D01*
G01X51251Y5396D01*
G01X51252Y5456D01*
G01X51253Y5515D01*
G01X51254Y5573D01*
G01X51255Y5630D01*
G01X51256Y5685D01*
G01X51257Y5737D01*
G01X51640Y5798D01*
G01X51640Y5969D01*
G01X50380Y5969D01*
G01X50380Y5798D01*
G01X50787Y5737D01*
G01X50788Y5685D01*
G01X50789Y5630D01*
G01X50790Y5573D01*
G01X50790Y5515D01*
G01X50791Y5456D01*
G01X50793Y5336D01*
G01X50794Y5275D01*
G01X50795Y5154D01*
G01X50795Y5094D01*
G01X50796Y5035D01*
G01X50796Y4978D01*
G01X50797Y4923D01*
G01X50797Y4307D01*
G01X50795Y4218D01*
G01X50790Y4137D01*
G01X50782Y4063D01*
G01X50771Y3996D01*
G01X50756Y3935D01*
G01X50738Y3881D01*
G01X50715Y3833D01*
G01X50690Y3791D01*
G01X50660Y3755D01*
G01X50627Y3724D01*
G01X50590Y3699D01*
G01X50549Y3678D01*
G01X50503Y3663D01*
G01X50454Y3653D01*
G01X50400Y3646D01*
G01X50342Y3644D01*
G01X50281Y3646D01*
G01X50220Y3654D01*
G01X50159Y3665D01*
G01X50098Y3681D01*
G01X50036Y3702D01*
G01X49975Y3729D01*
G01X49912Y3761D01*
G01X49848Y3798D01*
G01X49782Y3842D01*
G01X49716Y3891D01*
G01X49648Y3946D01*
G01X49578Y4008D01*
G01X49578Y5089D01*
G01X49579Y5148D01*
G01X49579Y5208D01*
G01X49580Y5269D01*
G01X49580Y5330D01*
G01X49581Y5391D01*
G01X49581Y5452D01*
G01X49582Y5512D01*
G01X49583Y5571D01*
G01X49583Y5628D01*
G01X49584Y5684D01*
G01X49585Y5737D01*
G01X49966Y5798D01*
G01X49966Y5969D01*
G37*

%LPD*%
G36*
G01X43228Y5969D02*
G01X41965Y5969D01*
G01X41965Y5798D01*
G01X42372Y5737D01*
G01X42373Y5684D01*
G01X42374Y5628D01*
G01X42375Y5571D01*
G01X42375Y5512D01*
G01X42376Y5452D01*
G01X42379Y5269D01*
G01X42379Y5208D01*
G01X42380Y5148D01*
G01X42380Y5089D01*
G01X42381Y5031D01*
G01X42381Y4974D01*
G01X42382Y4919D01*
G01X42382Y4458D01*
G01X42381Y4388D01*
G01X42381Y4321D01*
G01X42380Y4258D01*
G01X42379Y4198D01*
G01X42378Y4140D01*
G01X42377Y4084D01*
G01X42375Y4029D01*
G01X42369Y3869D01*
G01X42367Y3815D01*
G01X41932Y3769D01*
G01X41932Y3604D01*
G01X42702Y3304D01*
G01X42776Y3352D01*
G01X42821Y3804D01*
G01X42864Y3759D01*
G01X42908Y3715D01*
G01X42952Y3673D01*
G01X42999Y3633D01*
G01X43045Y3595D01*
G01X43093Y3559D01*
G01X43142Y3525D01*
G01X43191Y3493D01*
G01X43241Y3463D01*
G01X43291Y3436D01*
G01X43342Y3410D01*
G01X43393Y3388D01*
G01X43445Y3368D01*
G01X43496Y3350D01*
G01X43549Y3335D01*
G01X43601Y3322D01*
G01X43652Y3312D01*
G01X43704Y3305D01*
G01X43756Y3300D01*
G01X43807Y3299D01*
G01X43864Y3300D01*
G01X43918Y3305D01*
G01X43970Y3313D01*
G01X44020Y3324D01*
G01X44067Y3338D01*
G01X44112Y3355D01*
G01X44154Y3376D01*
G01X44194Y3400D01*
G01X44232Y3428D01*
G01X44267Y3459D01*
G01X44300Y3494D01*
G01X44331Y3532D01*
G01X44359Y3574D01*
G01X44384Y3620D01*
G01X44407Y3669D01*
G01X44428Y3723D01*
G01X44446Y3780D01*
G01X44462Y3841D01*
G01X44475Y3907D01*
G01X44486Y3976D01*
G01X44494Y4049D01*
G01X44500Y4126D01*
G01X44504Y4209D01*
G01X44505Y4295D01*
G01X44505Y4923D01*
G01X44506Y4978D01*
G01X44506Y5035D01*
G01X44507Y5094D01*
G01X44507Y5154D01*
G01X44508Y5275D01*
G01X44509Y5336D01*
G01X44511Y5456D01*
G01X44512Y5515D01*
G01X44512Y5573D01*
G01X44514Y5630D01*
G01X44515Y5685D01*
G01X44516Y5737D01*
G01X44902Y5798D01*
G01X44902Y5969D01*
G01X43642Y5969D01*
G01X43642Y5798D01*
G01X44046Y5737D01*
G01X44047Y5685D01*
G01X44048Y5630D01*
G01X44049Y5573D01*
G01X44049Y5515D01*
G01X44050Y5456D01*
G01X44052Y5336D01*
G01X44053Y5275D01*
G01X44054Y5154D01*
G01X44054Y5094D01*
G01X44055Y5035D01*
G01X44055Y4978D01*
G01X44056Y4923D01*
G01X44056Y4307D01*
G01X44054Y4218D01*
G01X44049Y4137D01*
G01X44041Y4063D01*
G01X44030Y3996D01*
G01X44015Y3935D01*
G01X43996Y3881D01*
G01X43974Y3833D01*
G01X43949Y3791D01*
G01X43919Y3755D01*
G01X43886Y3724D01*
G01X43849Y3699D01*
G01X43807Y3678D01*
G01X43762Y3663D01*
G01X43712Y3653D01*
G01X43659Y3646D01*
G01X43601Y3644D01*
G01X43540Y3646D01*
G01X43480Y3654D01*
G01X43419Y3665D01*
G01X43358Y3681D01*
G01X43296Y3702D01*
G01X43234Y3729D01*
G01X43171Y3761D01*
G01X43107Y3798D01*
G01X43042Y3842D01*
G01X42975Y3891D01*
G01X42907Y3946D01*
G01X42837Y4008D01*
G01X42837Y4974D01*
G01X42838Y5031D01*
G01X42838Y5089D01*
G01X42839Y5148D01*
G01X42839Y5208D01*
G01X42841Y5330D01*
G01X42841Y5391D01*
G01X42842Y5452D01*
G01X42843Y5512D01*
G01X42844Y5571D01*
G01X42845Y5628D01*
G01X42846Y5684D01*
G01X42847Y5737D01*
G01X43228Y5798D01*
G01X43228Y5969D01*
G37*

%LPD*%
G36*
G01X40518Y6038D02*
G01X40446Y6040D01*
G01X40386Y6039D01*
G01X40327Y6035D01*
G01X40268Y6029D01*
G01X40211Y6021D01*
G01X40155Y6011D01*
G01X40100Y5999D01*
G01X40047Y5984D01*
G01X39995Y5967D01*
G01X39944Y5949D01*
G01X39895Y5928D01*
G01X39847Y5904D01*
G01X39800Y5880D01*
G01X39755Y5852D01*
G01X39712Y5823D01*
G01X39670Y5791D01*
G01X39630Y5758D01*
G01X39591Y5723D01*
G01X39554Y5685D01*
G01X39519Y5645D01*
G01X39485Y5604D01*
G01X39453Y5561D01*
G01X39423Y5515D01*
G01X39395Y5468D01*
G01X39369Y5419D01*
G01X39345Y5368D01*
G01X39322Y5315D01*
G01X39301Y5260D01*
G01X39283Y5204D01*
G01X39267Y5146D01*
G01X39253Y5086D01*
G01X39240Y5024D01*
G01X39230Y4960D01*
G01X39222Y4895D01*
G01X39217Y4828D01*
G01X39213Y4759D01*
G01X39212Y4688D01*
G01X39214Y4619D01*
G01X39217Y4550D01*
G01X39224Y4483D01*
G01X39233Y4418D01*
G01X39244Y4354D01*
G01X39258Y4292D01*
G01X39274Y4231D01*
G01X39292Y4172D01*
G01X39313Y4114D01*
G01X39336Y4058D01*
G01X39360Y4005D01*
G01X39387Y3952D01*
G01X39416Y3901D01*
G01X39446Y3853D01*
G01X39479Y3806D01*
G01X39513Y3761D01*
G01X39549Y3718D01*
G01X39586Y3676D01*
G01X39625Y3637D01*
G01X39666Y3600D01*
G01X39707Y3565D01*
G01X39751Y3532D01*
G01X39795Y3500D01*
G01X39841Y3471D01*
G01X39888Y3444D01*
G01X39936Y3420D01*
G01X39986Y3397D01*
G01X40036Y3377D01*
G01X40087Y3359D01*
G01X40139Y3343D01*
G01X40192Y3330D01*
G01X40246Y3319D01*
G01X40300Y3310D01*
G01X40355Y3304D01*
G01X40411Y3300D01*
G01X40467Y3299D01*
G01X40529Y3300D01*
G01X40591Y3305D01*
G01X40651Y3313D01*
G01X40709Y3323D01*
G01X40766Y3336D01*
G01X40821Y3352D01*
G01X40875Y3371D01*
G01X40928Y3393D01*
G01X40978Y3417D01*
G01X41026Y3445D01*
G01X41073Y3474D01*
G01X41117Y3507D01*
G01X41159Y3542D01*
G01X41200Y3579D01*
G01X41237Y3619D01*
G01X41273Y3661D01*
G01X41306Y3706D01*
G01X41337Y3753D01*
G01X41365Y3802D01*
G01X41390Y3854D01*
G01X41413Y3908D01*
G01X41434Y3963D01*
G01X41450Y4022D01*
G01X41464Y4082D01*
G01X41476Y4144D01*
G01X41484Y4208D01*
G01X41489Y4275D01*
G01X41490Y4343D01*
G01X41488Y4433D01*
G01X41481Y4514D01*
G01X41469Y4587D01*
G01X41452Y4648D01*
G01X39692Y4643D01*
G01X39695Y4719D01*
G01X39700Y4792D01*
G01X39707Y4864D01*
G01X39717Y4932D01*
G01X39730Y4997D01*
G01X39745Y5060D01*
G01X39763Y5119D01*
G01X39783Y5177D01*
G01X39805Y5230D01*
G01X39830Y5282D01*
G01X39857Y5330D01*
G01X39886Y5377D01*
G01X39917Y5419D01*
G01X39950Y5460D01*
G01X39985Y5498D01*
G01X40022Y5532D01*
G01X40061Y5564D01*
G01X40102Y5593D01*
G01X40144Y5620D01*
G01X40188Y5643D01*
G01X40235Y5664D01*
G01X40282Y5682D01*
G01X40332Y5698D01*
G01X40383Y5710D01*
G01X40435Y5720D01*
G01X40489Y5727D01*
G01X40545Y5731D01*
G01X40601Y5732D01*
G01X40667Y5730D01*
G01X40730Y5725D01*
G01X40789Y5716D01*
G01X40846Y5704D01*
G01X40900Y5688D01*
G01X40952Y5669D01*
G01X41001Y5647D01*
G01X41048Y5623D01*
G01X41093Y5596D01*
G01X41137Y5566D01*
G01X41178Y5534D01*
G01X41219Y5499D01*
G01X41258Y5462D01*
G01X41334Y5382D01*
G01X41371Y5339D01*
G01X41480Y5412D01*
G01X41449Y5469D01*
G01X41416Y5523D01*
G01X41381Y5576D01*
G01X41343Y5626D01*
G01X41303Y5673D01*
G01X41261Y5718D01*
G01X41217Y5760D01*
G01X41170Y5800D01*
G01X41122Y5837D01*
G01X41071Y5871D01*
G01X41018Y5902D01*
G01X40963Y5930D01*
G01X40906Y5955D01*
G01X40846Y5977D01*
G01X40785Y5996D01*
G01X40721Y6012D01*
G01X40656Y6024D01*
G01X40588Y6033D01*
G01X40518Y6038D01*
G37*

%LPC*%
G36*
G01X40833Y4444D02*
G01X40751Y4450D01*
G01X39697Y4439D01*
G01X39705Y4360D01*
G01X39716Y4284D01*
G01X39731Y4213D01*
G01X39747Y4145D01*
G01X39767Y4080D01*
G01X39789Y4019D01*
G01X39813Y3962D01*
G01X39839Y3909D01*
G01X39868Y3859D01*
G01X39898Y3812D01*
G01X39930Y3769D01*
G01X39963Y3729D01*
G01X39998Y3693D01*
G01X40035Y3660D01*
G01X40073Y3631D01*
G01X40111Y3604D01*
G01X40151Y3581D01*
G01X40191Y3562D01*
G01X40232Y3545D01*
G01X40274Y3531D01*
G01X40315Y3520D01*
G01X40358Y3513D01*
G01X40399Y3509D01*
G01X40441Y3507D01*
G01X40507Y3511D01*
G01X40569Y3520D01*
G01X40629Y3537D01*
G01X40686Y3559D01*
G01X40739Y3586D01*
G01X40789Y3619D01*
G01X40835Y3657D01*
G01X40877Y3698D01*
G01X40915Y3743D01*
G01X40948Y3793D01*
G01X40977Y3845D01*
G01X41002Y3900D01*
G01X41021Y3958D01*
G01X41035Y4018D01*
G01X41043Y4079D01*
G01X41046Y4142D01*
G01X41043Y4207D01*
G01X41034Y4266D01*
G01X41016Y4319D01*
G01X40989Y4364D01*
G01X40950Y4400D01*
G01X40899Y4427D01*
G01X40833Y4444D01*
G37*

%LPD*%
G36*
G01X46250Y6038D02*
G01X46182Y6040D01*
G01X46110Y6037D01*
G01X46043Y6030D01*
G01X45979Y6018D01*
G01X45920Y6002D01*
G01X45865Y5980D01*
G01X45814Y5953D01*
G01X45767Y5921D01*
G01X45725Y5884D01*
G01X45688Y5843D01*
G01X45655Y5795D01*
G01X45627Y5743D01*
G01X45604Y5685D01*
G01X45586Y5622D01*
G01X45573Y5553D01*
G01X45565Y5479D01*
G01X45562Y5400D01*
G01X45562Y5350D01*
G01X45563Y5301D01*
G01X45564Y5251D01*
G01X45565Y5198D01*
G01X45566Y5142D01*
G01X45566Y5082D01*
G01X45567Y5015D01*
G01X45567Y3614D01*
G01X45102Y3614D01*
G01X45102Y3418D01*
G01X45593Y3357D01*
G01X45737Y2618D01*
G01X46052Y2618D01*
G01X46022Y3373D01*
G01X46756Y3373D01*
G01X46756Y3614D01*
G01X46017Y3614D01*
G01X46017Y5379D01*
G01X46019Y5448D01*
G01X46026Y5510D01*
G01X46039Y5565D01*
G01X46055Y5614D01*
G01X46076Y5656D01*
G01X46101Y5692D01*
G01X46130Y5722D01*
G01X46163Y5747D01*
G01X46200Y5765D01*
G01X46240Y5778D01*
G01X46284Y5786D01*
G01X46332Y5788D01*
G01X46379Y5786D01*
G01X46424Y5779D01*
G01X46469Y5767D01*
G01X46513Y5750D01*
G01X46558Y5728D01*
G01X46605Y5701D01*
G01X46654Y5670D01*
G01X46708Y5633D01*
G01X46817Y5758D01*
G01X46780Y5800D01*
G01X46741Y5839D01*
G01X46698Y5876D01*
G01X46652Y5909D01*
G01X46603Y5939D01*
G01X46552Y5964D01*
G01X46497Y5987D01*
G01X46439Y6006D01*
G01X46379Y6020D01*
G01X46316Y6031D01*
G01X46250Y6038D01*
G37*

%LPD*%
G36*
G01X61391Y5969D02*
G01X59857Y5969D01*
G01X59857Y5778D01*
G01X60368Y5725D01*
G01X60369Y5665D01*
G01X60369Y5605D01*
G01X60370Y5545D01*
G01X60371Y5484D01*
G01X60372Y5424D01*
G01X60373Y5305D01*
G01X60373Y5184D01*
G01X60374Y5124D01*
G01X60374Y5003D01*
G01X60375Y4943D01*
G01X60375Y3333D01*
G01X60374Y3272D01*
G01X60374Y3152D01*
G01X60373Y3091D01*
G01X60373Y2970D01*
G01X60372Y2910D01*
G01X60372Y2850D01*
G01X60369Y2670D01*
G01X60369Y2610D01*
G01X60368Y2550D01*
G01X59857Y2494D01*
G01X59857Y2303D01*
G01X61391Y2303D01*
G01X61391Y2494D01*
G01X60886Y2550D01*
G01X60885Y2609D01*
G01X60883Y2668D01*
G01X60882Y2726D01*
G01X60882Y2785D01*
G01X60881Y2845D01*
G01X60880Y2904D01*
G01X60879Y3023D01*
G01X60878Y3083D01*
G01X60878Y3142D01*
G01X60877Y3202D01*
G01X60877Y3261D01*
G01X60876Y3381D01*
G01X60876Y3985D01*
G01X62661Y3985D01*
G01X62661Y3385D01*
G01X62660Y3325D01*
G01X62660Y3265D01*
G01X62659Y3146D01*
G01X62659Y3086D01*
G01X62658Y2966D01*
G01X62657Y2907D01*
G01X62655Y2787D01*
G01X62655Y2728D01*
G01X62654Y2669D01*
G01X62652Y2609D01*
G01X62651Y2550D01*
G01X62146Y2494D01*
G01X62146Y2303D01*
G01X63682Y2303D01*
G01X63682Y2494D01*
G01X63172Y2550D01*
G01X63171Y2609D01*
G01X63169Y2669D01*
G01X63168Y2728D01*
G01X63168Y2788D01*
G01X63165Y2968D01*
G01X63165Y3029D01*
G01X63164Y3089D01*
G01X63163Y3210D01*
G01X63163Y3331D01*
G01X63162Y3392D01*
G01X63162Y4877D01*
G01X63163Y4998D01*
G01X63163Y5058D01*
G01X63165Y5240D01*
G01X63165Y5300D01*
G01X63166Y5361D01*
G01X63167Y5421D01*
G01X63168Y5482D01*
G01X63168Y5543D01*
G01X63169Y5603D01*
G01X63171Y5664D01*
G01X63172Y5725D01*
G01X63682Y5778D01*
G01X63682Y5969D01*
G01X62146Y5969D01*
G01X62146Y5778D01*
G01X62651Y5725D01*
G01X62652Y5666D01*
G01X62654Y5607D01*
G01X62655Y5547D01*
G01X62655Y5488D01*
G01X62657Y5368D01*
G01X62658Y5247D01*
G01X62659Y5124D01*
G01X62660Y5062D01*
G01X62660Y4936D01*
G01X62661Y4873D01*
G01X62661Y4198D01*
G01X60876Y4198D01*
G01X60876Y4867D01*
G01X60877Y4931D01*
G01X60877Y5057D01*
G01X60878Y5119D01*
G01X60878Y5181D01*
G01X60879Y5243D01*
G01X60880Y5364D01*
G01X60881Y5425D01*
G01X60882Y5485D01*
G01X60882Y5546D01*
G01X60883Y5606D01*
G01X60885Y5665D01*
G01X60886Y5725D01*
G01X61391Y5778D01*
G01X61391Y5969D01*
G37*

%LPD*%
G36*
G01X37680Y6004D02*
G01X37452Y6004D01*
G01X36172Y2540D01*
G01X35758Y2494D01*
G01X35758Y2303D01*
G01X37241Y2303D01*
G01X37241Y2514D01*
G01X36708Y2557D01*
G01X37668Y5313D01*
G01X38557Y2562D01*
G01X38051Y2514D01*
G01X38051Y2303D01*
G01X39306Y2303D01*
G01X39306Y2489D01*
G01X38831Y2555D01*
G01X37680Y6004D01*
G37*

%LPD*%
G36*
G01X98016Y5969D02*
G01X95996Y5969D01*
G01X95996Y5798D01*
G01X96776Y5689D01*
G01X96777Y5616D01*
G01X96779Y5544D01*
G01X96781Y5398D01*
G01X96782Y5324D01*
G01X96784Y5178D01*
G01X96786Y4958D01*
G01X96786Y2664D01*
G01X96057Y2733D01*
G01X96057Y2545D01*
G01X97182Y2247D01*
G01X97256Y2303D01*
G01X97236Y3093D01*
G01X97236Y4958D01*
G01X97238Y5178D01*
G01X97240Y5324D01*
G01X97241Y5398D01*
G01X97243Y5544D01*
G01X97245Y5616D01*
G01X97246Y5689D01*
G01X98016Y5798D01*
G01X98016Y5969D01*
G37*

%LPD*%
G36*
G01X101395Y6039D02*
G01X101356Y6040D01*
G01X101316Y6039D01*
G01X101275Y6037D01*
G01X101236Y6033D01*
G01X101196Y6026D01*
G01X101157Y6019D01*
G01X101117Y6010D01*
G01X101078Y5999D01*
G01X101040Y5986D01*
G01X101002Y5972D01*
G01X100964Y5955D01*
G01X100927Y5937D01*
G01X100890Y5917D01*
G01X100854Y5895D01*
G01X100818Y5870D01*
G01X100783Y5845D01*
G01X100749Y5817D01*
G01X100715Y5787D01*
G01X100682Y5755D01*
G01X100650Y5720D01*
G01X100619Y5684D01*
G01X100588Y5645D01*
G01X100558Y5605D01*
G01X100529Y5562D01*
G01X100501Y5517D01*
G01X100475Y5470D01*
G01X100449Y5420D01*
G01X100424Y5369D01*
G01X100400Y5314D01*
G01X100378Y5258D01*
G01X100356Y5199D01*
G01X100336Y5137D01*
G01X100317Y5074D01*
G01X100300Y5008D01*
G01X100284Y4939D01*
G01X100269Y4868D01*
G01X100255Y4794D01*
G01X100243Y4718D01*
G01X100232Y4639D01*
G01X100223Y4557D01*
G01X100216Y4473D01*
G01X100210Y4386D01*
G01X100206Y4297D01*
G01X100204Y4204D01*
G01X100203Y4109D01*
G01X100204Y4017D01*
G01X100206Y3927D01*
G01X100210Y3840D01*
G01X100216Y3756D01*
G01X100223Y3674D01*
G01X100232Y3596D01*
G01X100243Y3519D01*
G01X100255Y3445D01*
G01X100269Y3373D01*
G01X100284Y3304D01*
G01X100300Y3237D01*
G01X100317Y3172D01*
G01X100336Y3110D01*
G01X100356Y3051D01*
G01X100378Y2994D01*
G01X100400Y2938D01*
G01X100424Y2885D01*
G01X100449Y2835D01*
G01X100475Y2787D01*
G01X100501Y2741D01*
G01X100529Y2697D01*
G01X100558Y2655D01*
G01X100588Y2615D01*
G01X100619Y2578D01*
G01X100650Y2543D01*
G01X100682Y2509D01*
G01X100715Y2478D01*
G01X100749Y2448D01*
G01X100783Y2421D01*
G01X100818Y2395D01*
G01X100854Y2372D01*
G01X100890Y2350D01*
G01X100927Y2330D01*
G01X100964Y2312D01*
G01X101040Y2282D01*
G01X101078Y2270D01*
G01X101117Y2259D01*
G01X101157Y2250D01*
G01X101196Y2242D01*
G01X101236Y2237D01*
G01X101275Y2233D01*
G01X101316Y2231D01*
G01X101356Y2230D01*
G01X101395Y2231D01*
G01X101434Y2233D01*
G01X101473Y2237D01*
G01X101512Y2242D01*
G01X101551Y2250D01*
G01X101589Y2259D01*
G01X101627Y2270D01*
G01X101666Y2282D01*
G01X101740Y2312D01*
G01X101777Y2330D01*
G01X101813Y2350D01*
G01X101849Y2372D01*
G01X101884Y2395D01*
G01X101919Y2421D01*
G01X101953Y2448D01*
G01X101987Y2478D01*
G01X102019Y2509D01*
G01X102051Y2543D01*
G01X102082Y2578D01*
G01X102113Y2615D01*
G01X102142Y2655D01*
G01X102170Y2697D01*
G01X102198Y2741D01*
G01X102225Y2787D01*
G01X102251Y2835D01*
G01X102275Y2885D01*
G01X102299Y2938D01*
G01X102321Y2994D01*
G01X102343Y3051D01*
G01X102363Y3110D01*
G01X102381Y3172D01*
G01X102399Y3237D01*
G01X102415Y3304D01*
G01X102430Y3373D01*
G01X102443Y3445D01*
G01X102455Y3519D01*
G01X102466Y3596D01*
G01X102475Y3674D01*
G01X102482Y3756D01*
G01X102489Y3840D01*
G01X102493Y3927D01*
G01X102495Y4017D01*
G01X102496Y4109D01*
G01X102495Y4204D01*
G01X102493Y4297D01*
G01X102489Y4386D01*
G01X102482Y4473D01*
G01X102475Y4557D01*
G01X102466Y4639D01*
G01X102455Y4718D01*
G01X102443Y4794D01*
G01X102430Y4868D01*
G01X102415Y4939D01*
G01X102399Y5008D01*
G01X102381Y5074D01*
G01X102363Y5137D01*
G01X102343Y5199D01*
G01X102321Y5258D01*
G01X102299Y5314D01*
G01X102275Y5369D01*
G01X102251Y5420D01*
G01X102225Y5470D01*
G01X102198Y5517D01*
G01X102170Y5562D01*
G01X102142Y5605D01*
G01X102113Y5645D01*
G01X102082Y5684D01*
G01X102051Y5720D01*
G01X102019Y5755D01*
G01X101987Y5787D01*
G01X101953Y5817D01*
G01X101919Y5845D01*
G01X101849Y5895D01*
G01X101813Y5917D01*
G01X101777Y5937D01*
G01X101740Y5955D01*
G01X101703Y5972D01*
G01X101666Y5986D01*
G01X101627Y5999D01*
G01X101589Y6010D01*
G01X101551Y6019D01*
G01X101473Y6033D01*
G01X101434Y6037D01*
G01X101395Y6039D01*
G37*

%LPC*%
G36*
G01X101384Y5828D02*
G01X101356Y5829D01*
G01X101327Y5828D01*
G01X101298Y5825D01*
G01X101269Y5821D01*
G01X101241Y5815D01*
G01X101213Y5806D01*
G01X101185Y5796D01*
G01X101158Y5784D01*
G01X101131Y5769D01*
G01X101105Y5752D01*
G01X101078Y5732D01*
G01X101053Y5710D01*
G01X101028Y5686D01*
G01X101004Y5659D01*
G01X100980Y5629D01*
G01X100956Y5596D01*
G01X100934Y5561D01*
G01X100912Y5522D01*
G01X100891Y5480D01*
G01X100871Y5436D01*
G01X100852Y5388D01*
G01X100833Y5336D01*
G01X100816Y5281D01*
G01X100799Y5223D01*
G01X100784Y5161D01*
G01X100769Y5096D01*
G01X100756Y5027D01*
G01X100743Y4954D01*
G01X100732Y4876D01*
G01X100722Y4796D01*
G01X100713Y4710D01*
G01X100705Y4621D01*
G01X100699Y4527D01*
G01X100694Y4430D01*
G01X100691Y4327D01*
G01X100688Y4220D01*
G01X100688Y4109D01*
G01X100689Y3989D01*
G01X100691Y3874D01*
G01X100696Y3764D01*
G01X100702Y3660D01*
G01X100710Y3561D01*
G01X100720Y3467D01*
G01X100730Y3379D01*
G01X100743Y3294D01*
G01X100757Y3216D01*
G01X100772Y3141D01*
G01X100789Y3071D01*
G01X100807Y3005D01*
G01X100826Y2944D01*
G01X100847Y2887D01*
G01X100868Y2834D01*
G01X100891Y2785D01*
G01X100915Y2740D01*
G01X100940Y2699D01*
G01X100965Y2661D01*
G01X100991Y2627D01*
G01X101018Y2596D01*
G01X101046Y2568D01*
G01X101075Y2544D01*
G01X101105Y2523D01*
G01X101134Y2504D01*
G01X101165Y2489D01*
G01X101196Y2475D01*
G01X101227Y2465D01*
G01X101259Y2458D01*
G01X101291Y2452D01*
G01X101323Y2449D01*
G01X101356Y2448D01*
G01X101387Y2449D01*
G01X101418Y2452D01*
G01X101449Y2458D01*
G01X101480Y2465D01*
G01X101510Y2475D01*
G01X101540Y2489D01*
G01X101570Y2504D01*
G01X101598Y2523D01*
G01X101627Y2544D01*
G01X101655Y2568D01*
G01X101682Y2596D01*
G01X101709Y2627D01*
G01X101735Y2661D01*
G01X101760Y2699D01*
G01X101783Y2740D01*
G01X101807Y2785D01*
G01X101829Y2834D01*
G01X101850Y2887D01*
G01X101870Y2944D01*
G01X101889Y3005D01*
G01X101906Y3071D01*
G01X101923Y3141D01*
G01X101938Y3216D01*
G01X101952Y3294D01*
G01X101964Y3379D01*
G01X101974Y3467D01*
G01X101984Y3561D01*
G01X101992Y3660D01*
G01X101998Y3764D01*
G01X102002Y3874D01*
G01X102005Y3989D01*
G01X102006Y4109D01*
G01X102005Y4220D01*
G01X102003Y4327D01*
G01X101999Y4429D01*
G01X101995Y4526D01*
G01X101989Y4619D01*
G01X101981Y4709D01*
G01X101972Y4793D01*
G01X101963Y4874D01*
G01X101952Y4951D01*
G01X101939Y5024D01*
G01X101926Y5094D01*
G01X101912Y5159D01*
G01X101897Y5221D01*
G01X101880Y5279D01*
G01X101863Y5334D01*
G01X101845Y5385D01*
G01X101826Y5434D01*
G01X101807Y5479D01*
G01X101786Y5520D01*
G01X101765Y5559D01*
G01X101743Y5595D01*
G01X101720Y5628D01*
G01X101697Y5658D01*
G01X101673Y5685D01*
G01X101649Y5709D01*
G01X101624Y5732D01*
G01X101598Y5751D01*
G01X101573Y5768D01*
G01X101547Y5783D01*
G01X101520Y5796D01*
G01X101493Y5806D01*
G01X101466Y5815D01*
G01X101439Y5821D01*
G01X101412Y5825D01*
G01X101384Y5828D01*
G37*

%LPD*%
G36*
G01X71000Y6047D02*
G01X70942Y6047D01*
G01X70878Y6046D01*
G01X70816Y6044D01*
G01X70754Y6040D01*
G01X70693Y6034D01*
G01X70633Y6026D01*
G01X70574Y6017D01*
G01X70515Y6006D01*
G01X70458Y5994D01*
G01X70402Y5980D01*
G01X70346Y5964D01*
G01X70291Y5947D01*
G01X70185Y5909D01*
G01X70133Y5887D01*
G01X70083Y5864D01*
G01X70033Y5839D01*
G01X69985Y5813D01*
G01X69937Y5786D01*
G01X69891Y5757D01*
G01X69845Y5727D01*
G01X69801Y5695D01*
G01X69758Y5662D01*
G01X69716Y5628D01*
G01X69676Y5593D01*
G01X69636Y5556D01*
G01X69598Y5518D01*
G01X69560Y5478D01*
G01X69525Y5438D01*
G01X69490Y5396D01*
G01X69457Y5353D01*
G01X69425Y5309D01*
G01X69394Y5263D01*
G01X69365Y5217D01*
G01X69337Y5169D01*
G01X69310Y5120D01*
G01X69285Y5070D01*
G01X69261Y5019D01*
G01X69238Y4967D01*
G01X69218Y4913D01*
G01X69198Y4860D01*
G01X69180Y4804D01*
G01X69163Y4748D01*
G01X69148Y4691D01*
G01X69135Y4632D01*
G01X69123Y4574D01*
G01X69112Y4514D01*
G01X69103Y4453D01*
G01X69096Y4391D01*
G01X69090Y4328D01*
G01X69086Y4264D01*
G01X69083Y4200D01*
G01X69082Y4135D01*
G01X69083Y4071D01*
G01X69086Y4007D01*
G01X69090Y3944D01*
G01X69096Y3882D01*
G01X69104Y3821D01*
G01X69113Y3761D01*
G01X69124Y3701D01*
G01X69137Y3642D01*
G01X69151Y3584D01*
G01X69166Y3528D01*
G01X69184Y3472D01*
G01X69202Y3417D01*
G01X69223Y3363D01*
G01X69244Y3310D01*
G01X69267Y3258D01*
G01X69292Y3207D01*
G01X69318Y3157D01*
G01X69345Y3108D01*
G01X69374Y3060D01*
G01X69404Y3013D01*
G01X69435Y2968D01*
G01X69468Y2923D01*
G01X69502Y2880D01*
G01X69537Y2838D01*
G01X69574Y2797D01*
G01X69611Y2757D01*
G01X69650Y2718D01*
G01X69690Y2681D01*
G01X69731Y2645D01*
G01X69773Y2611D01*
G01X69816Y2578D01*
G01X69861Y2546D01*
G01X69906Y2515D01*
G01X69953Y2486D01*
G01X70000Y2458D01*
G01X70098Y2406D01*
G01X70149Y2383D01*
G01X70200Y2361D01*
G01X70252Y2341D01*
G01X70305Y2322D01*
G01X70360Y2304D01*
G01X70414Y2289D01*
G01X70470Y2274D01*
G01X70526Y2262D01*
G01X70584Y2250D01*
G01X70641Y2241D01*
G01X70700Y2233D01*
G01X70759Y2227D01*
G01X70820Y2223D01*
G01X70880Y2220D01*
G01X70942Y2219D01*
G01X71002Y2220D01*
G01X71062Y2223D01*
G01X71124Y2226D01*
G01X71188Y2232D01*
G01X71251Y2239D01*
G01X71316Y2249D01*
G01X71382Y2261D01*
G01X71448Y2275D01*
G01X71514Y2292D01*
G01X71581Y2311D01*
G01X71648Y2333D01*
G01X71716Y2358D01*
G01X71783Y2386D01*
G01X71851Y2417D01*
G01X71919Y2451D01*
G01X71986Y2489D01*
G01X71996Y3294D01*
G01X71696Y3294D01*
G01X71561Y2593D01*
G01X71490Y2560D01*
G01X71420Y2532D01*
G01X71349Y2509D01*
G01X71279Y2490D01*
G01X71209Y2476D01*
G01X71140Y2466D01*
G01X71071Y2460D01*
G01X71003Y2458D01*
G01X70951Y2459D01*
G01X70901Y2462D01*
G01X70850Y2466D01*
G01X70800Y2472D01*
G01X70751Y2481D01*
G01X70703Y2491D01*
G01X70655Y2502D01*
G01X70608Y2516D01*
G01X70562Y2531D01*
G01X70516Y2548D01*
G01X70471Y2566D01*
G01X70428Y2587D01*
G01X70384Y2609D01*
G01X70342Y2633D01*
G01X70301Y2659D01*
G01X70260Y2686D01*
G01X70221Y2715D01*
G01X70183Y2746D01*
G01X70146Y2779D01*
G01X70110Y2813D01*
G01X70075Y2849D01*
G01X70041Y2887D01*
G01X70008Y2926D01*
G01X69977Y2967D01*
G01X69946Y3010D01*
G01X69917Y3055D01*
G01X69889Y3100D01*
G01X69863Y3148D01*
G01X69838Y3198D01*
G01X69814Y3249D01*
G01X69792Y3302D01*
G01X69771Y3356D01*
G01X69752Y3412D01*
G01X69734Y3470D01*
G01X69718Y3529D01*
G01X69703Y3590D01*
G01X69690Y3652D01*
G01X69679Y3717D01*
G01X69669Y3782D01*
G01X69661Y3850D01*
G01X69654Y3918D01*
G01X69650Y3989D01*
G01X69647Y4061D01*
G01X69646Y4135D01*
G01X69647Y4208D01*
G01X69650Y4281D01*
G01X69654Y4352D01*
G01X69660Y4420D01*
G01X69667Y4488D01*
G01X69676Y4554D01*
G01X69687Y4618D01*
G01X69699Y4680D01*
G01X69713Y4741D01*
G01X69728Y4801D01*
G01X69745Y4858D01*
G01X69763Y4914D01*
G01X69782Y4968D01*
G01X69803Y5021D01*
G01X69826Y5072D01*
G01X69850Y5121D01*
G01X69875Y5169D01*
G01X69901Y5215D01*
G01X69929Y5259D01*
G01X69958Y5302D01*
G01X69989Y5343D01*
G01X70020Y5382D01*
G01X70053Y5420D01*
G01X70087Y5455D01*
G01X70122Y5489D01*
G01X70158Y5522D01*
G01X70195Y5553D01*
G01X70234Y5582D01*
G01X70274Y5609D01*
G01X70314Y5635D01*
G01X70356Y5659D01*
G01X70442Y5701D01*
G01X70487Y5720D01*
G01X70579Y5752D01*
G01X70627Y5765D01*
G01X70675Y5776D01*
G01X70724Y5786D01*
G01X70775Y5794D01*
G01X70825Y5800D01*
G01X70877Y5805D01*
G01X70929Y5807D01*
G01X70982Y5808D01*
G01X71034Y5808D01*
G01X71085Y5805D01*
G01X71137Y5801D01*
G01X71189Y5796D01*
G01X71241Y5788D01*
G01X71294Y5779D01*
G01X71348Y5767D01*
G01X71400Y5753D01*
G01X71453Y5737D01*
G01X71507Y5718D01*
G01X71559Y5697D01*
G01X71612Y5674D01*
G01X71747Y4978D01*
G01X72047Y4978D01*
G01X72036Y5783D01*
G01X71985Y5810D01*
G01X71934Y5835D01*
G01X71882Y5859D01*
G01X71829Y5882D01*
G01X71776Y5902D01*
G01X71724Y5922D01*
G01X71670Y5940D01*
G01X71616Y5956D01*
G01X71562Y5971D01*
G01X71507Y5985D01*
G01X71452Y5997D01*
G01X71397Y6008D01*
G01X71341Y6017D01*
G01X71285Y6025D01*
G01X71229Y6032D01*
G01X71172Y6038D01*
G01X71115Y6042D01*
G01X71058Y6045D01*
G01X71000Y6047D01*
G37*

%LPD*%
G36*
G01X65984Y6046D02*
G01X65918Y6047D01*
G01X65855Y6046D01*
G01X65792Y6044D01*
G01X65731Y6040D01*
G01X65670Y6034D01*
G01X65610Y6026D01*
G01X65551Y6016D01*
G01X65493Y6005D01*
G01X65436Y5993D01*
G01X65380Y5979D01*
G01X65270Y5945D01*
G01X65217Y5926D01*
G01X65164Y5906D01*
G01X65113Y5884D01*
G01X65063Y5861D01*
G01X65013Y5836D01*
G01X64917Y5782D01*
G01X64871Y5753D01*
G01X64826Y5722D01*
G01X64782Y5690D01*
G01X64739Y5657D01*
G01X64697Y5623D01*
G01X64657Y5586D01*
G01X64618Y5549D01*
G01X64580Y5511D01*
G01X64542Y5471D01*
G01X64507Y5431D01*
G01X64472Y5388D01*
G01X64439Y5345D01*
G01X64407Y5301D01*
G01X64347Y5209D01*
G01X64319Y5161D01*
G01X64293Y5112D01*
G01X64268Y5062D01*
G01X64244Y5011D01*
G01X64221Y4959D01*
G01X64201Y4906D01*
G01X64181Y4852D01*
G01X64163Y4797D01*
G01X64147Y4741D01*
G01X64131Y4684D01*
G01X64118Y4627D01*
G01X64106Y4568D01*
G01X64095Y4509D01*
G01X64086Y4448D01*
G01X64079Y4387D01*
G01X64069Y4263D01*
G01X64067Y4199D01*
G01X64066Y4135D01*
G01X64067Y4071D01*
G01X64069Y4008D01*
G01X64079Y3884D01*
G01X64087Y3823D01*
G01X64096Y3763D01*
G01X64107Y3704D01*
G01X64119Y3646D01*
G01X64132Y3589D01*
G01X64148Y3532D01*
G01X64164Y3476D01*
G01X64183Y3421D01*
G01X64203Y3367D01*
G01X64224Y3314D01*
G01X64246Y3262D01*
G01X64271Y3211D01*
G01X64296Y3161D01*
G01X64323Y3112D01*
G01X64351Y3064D01*
G01X64381Y3018D01*
G01X64412Y2972D01*
G01X64444Y2928D01*
G01X64477Y2884D01*
G01X64512Y2842D01*
G01X64549Y2801D01*
G01X64586Y2761D01*
G01X64624Y2722D01*
G01X64664Y2685D01*
G01X64705Y2649D01*
G01X64747Y2614D01*
G01X64790Y2581D01*
G01X64835Y2548D01*
G01X64880Y2518D01*
G01X64926Y2488D01*
G01X64974Y2460D01*
G01X65023Y2433D01*
G01X65072Y2408D01*
G01X65123Y2385D01*
G01X65175Y2363D01*
G01X65228Y2342D01*
G01X65282Y2323D01*
G01X65336Y2305D01*
G01X65392Y2289D01*
G01X65448Y2275D01*
G01X65506Y2262D01*
G01X65564Y2251D01*
G01X65623Y2241D01*
G01X65682Y2234D01*
G01X65743Y2228D01*
G01X65805Y2223D01*
G01X65867Y2220D01*
G01X65930Y2219D01*
G01X65999Y2220D01*
G01X66065Y2222D01*
G01X66130Y2225D01*
G01X66193Y2230D01*
G01X66254Y2235D01*
G01X66314Y2242D01*
G01X66372Y2251D01*
G01X66429Y2261D01*
G01X66485Y2272D01*
G01X66539Y2284D01*
G01X66592Y2299D01*
G01X66644Y2314D01*
G01X66695Y2331D01*
G01X66745Y2349D01*
G01X66793Y2368D01*
G01X66842Y2390D01*
G01X66889Y2412D01*
G01X66936Y2436D01*
G01X66982Y2462D01*
G01X67028Y2489D01*
G01X67038Y3299D01*
G01X66741Y3299D01*
G01X66606Y2618D01*
G01X66558Y2592D01*
G01X66510Y2568D01*
G01X66461Y2547D01*
G01X66412Y2528D01*
G01X66362Y2512D01*
G01X66311Y2497D01*
G01X66260Y2485D01*
G01X66207Y2475D01*
G01X66154Y2468D01*
G01X66099Y2462D01*
G01X66043Y2459D01*
G01X65986Y2458D01*
G01X65933Y2459D01*
G01X65880Y2462D01*
G01X65829Y2467D01*
G01X65778Y2473D01*
G01X65728Y2482D01*
G01X65678Y2492D01*
G01X65630Y2504D01*
G01X65582Y2518D01*
G01X65535Y2533D01*
G01X65489Y2551D01*
G01X65444Y2570D01*
G01X65399Y2591D01*
G01X65356Y2614D01*
G01X65314Y2639D01*
G01X65273Y2665D01*
G01X65233Y2693D01*
G01X65194Y2722D01*
G01X65156Y2754D01*
G01X65118Y2787D01*
G01X65083Y2822D01*
G01X65048Y2858D01*
G01X65015Y2896D01*
G01X64983Y2936D01*
G01X64952Y2977D01*
G01X64922Y3021D01*
G01X64894Y3065D01*
G01X64867Y3112D01*
G01X64841Y3160D01*
G01X64817Y3209D01*
G01X64794Y3260D01*
G01X64772Y3313D01*
G01X64752Y3367D01*
G01X64733Y3422D01*
G01X64716Y3480D01*
G01X64701Y3539D01*
G01X64687Y3599D01*
G01X64674Y3661D01*
G01X64663Y3724D01*
G01X64654Y3789D01*
G01X64646Y3855D01*
G01X64640Y3923D01*
G01X64636Y3992D01*
G01X64633Y4062D01*
G01X64632Y4135D01*
G01X64633Y4205D01*
G01X64635Y4275D01*
G01X64639Y4343D01*
G01X64645Y4410D01*
G01X64653Y4475D01*
G01X64661Y4539D01*
G01X64671Y4602D01*
G01X64684Y4663D01*
G01X64697Y4723D01*
G01X64712Y4782D01*
G01X64728Y4839D01*
G01X64746Y4894D01*
G01X64765Y4948D01*
G01X64786Y5001D01*
G01X64808Y5052D01*
G01X64831Y5101D01*
G01X64856Y5149D01*
G01X64883Y5195D01*
G01X64911Y5240D01*
G01X64940Y5283D01*
G01X64970Y5325D01*
G01X65002Y5365D01*
G01X65035Y5403D01*
G01X65069Y5440D01*
G01X65104Y5475D01*
G01X65141Y5509D01*
G01X65179Y5540D01*
G01X65219Y5570D01*
G01X65259Y5599D01*
G01X65301Y5625D01*
G01X65344Y5650D01*
G01X65388Y5673D01*
G01X65433Y5695D01*
G01X65479Y5714D01*
G01X65526Y5732D01*
G01X65575Y5748D01*
G01X65625Y5762D01*
G01X65675Y5774D01*
G01X65727Y5785D01*
G01X65780Y5793D01*
G01X65834Y5800D01*
G01X65889Y5804D01*
G01X65945Y5807D01*
G01X66001Y5808D01*
G01X66083Y5807D01*
G01X66162Y5802D01*
G01X66239Y5793D01*
G01X66314Y5782D01*
G01X66390Y5766D01*
G01X66464Y5748D01*
G01X66540Y5725D01*
G01X66616Y5699D01*
G01X66616Y5355D01*
G01X66615Y5163D01*
G01X66614Y5099D01*
G01X66613Y4971D01*
G01X66612Y4906D01*
G01X66612Y4842D01*
G01X66609Y4714D01*
G01X66609Y4650D01*
G01X66606Y4460D01*
G01X66027Y4414D01*
G01X66027Y4224D01*
G01X67452Y4224D01*
G01X67452Y4414D01*
G01X67122Y4445D01*
G01X67120Y4507D01*
G01X67116Y4633D01*
G01X67115Y4696D01*
G01X67113Y4760D01*
G01X67111Y4888D01*
G01X67110Y4954D01*
G01X67108Y5084D01*
G01X67108Y5150D01*
G01X67107Y5216D01*
G01X67106Y5349D01*
G01X67106Y5730D01*
G01X67049Y5759D01*
G01X66993Y5787D01*
G01X66936Y5814D01*
G01X66879Y5839D01*
G01X66822Y5863D01*
G01X66765Y5886D01*
G01X66709Y5907D01*
G01X66651Y5927D01*
G01X66594Y5946D01*
G01X66536Y5963D01*
G01X66477Y5979D01*
G01X66359Y6005D01*
G01X66299Y6016D01*
G01X66237Y6025D01*
G01X66175Y6033D01*
G01X66113Y6039D01*
G01X66049Y6044D01*
G01X65984Y6046D01*
G37*

%LPD*%
G36*
G01X58102Y6046D02*
G01X58036Y6047D01*
G01X57973Y6046D01*
G01X57910Y6044D01*
G01X57849Y6040D01*
G01X57789Y6034D01*
G01X57729Y6026D01*
G01X57670Y6016D01*
G01X57612Y6005D01*
G01X57555Y5993D01*
G01X57498Y5979D01*
G01X57443Y5962D01*
G01X57389Y5945D01*
G01X57335Y5926D01*
G01X57283Y5906D01*
G01X57232Y5884D01*
G01X57182Y5861D01*
G01X57132Y5836D01*
G01X57083Y5809D01*
G01X57036Y5782D01*
G01X56990Y5753D01*
G01X56945Y5722D01*
G01X56901Y5690D01*
G01X56858Y5657D01*
G01X56817Y5623D01*
G01X56776Y5586D01*
G01X56737Y5549D01*
G01X56699Y5511D01*
G01X56662Y5471D01*
G01X56626Y5431D01*
G01X56592Y5388D01*
G01X56559Y5345D01*
G01X56527Y5301D01*
G01X56467Y5209D01*
G01X56440Y5161D01*
G01X56413Y5112D01*
G01X56388Y5062D01*
G01X56364Y5011D01*
G01X56342Y4959D01*
G01X56321Y4906D01*
G01X56302Y4852D01*
G01X56284Y4797D01*
G01X56267Y4741D01*
G01X56252Y4684D01*
G01X56239Y4627D01*
G01X56226Y4568D01*
G01X56216Y4509D01*
G01X56207Y4448D01*
G01X56200Y4387D01*
G01X56194Y4325D01*
G01X56190Y4263D01*
G01X56188Y4199D01*
G01X56187Y4135D01*
G01X56188Y4071D01*
G01X56190Y4008D01*
G01X56194Y3946D01*
G01X56200Y3884D01*
G01X56208Y3823D01*
G01X56217Y3763D01*
G01X56227Y3704D01*
G01X56240Y3646D01*
G01X56253Y3589D01*
G01X56269Y3532D01*
G01X56285Y3476D01*
G01X56304Y3421D01*
G01X56323Y3367D01*
G01X56345Y3314D01*
G01X56367Y3262D01*
G01X56392Y3211D01*
G01X56417Y3161D01*
G01X56444Y3112D01*
G01X56472Y3064D01*
G01X56502Y3018D01*
G01X56533Y2972D01*
G01X56565Y2928D01*
G01X56598Y2884D01*
G01X56633Y2842D01*
G01X56669Y2801D01*
G01X56707Y2761D01*
G01X56745Y2722D01*
G01X56785Y2685D01*
G01X56826Y2649D01*
G01X56868Y2614D01*
G01X56911Y2581D01*
G01X56955Y2548D01*
G01X57047Y2488D01*
G01X57095Y2460D01*
G01X57144Y2433D01*
G01X57193Y2408D01*
G01X57244Y2385D01*
G01X57296Y2363D01*
G01X57349Y2342D01*
G01X57402Y2323D01*
G01X57457Y2305D01*
G01X57513Y2289D01*
G01X57569Y2275D01*
G01X57627Y2262D01*
G01X57684Y2251D01*
G01X57744Y2241D01*
G01X57803Y2234D01*
G01X57864Y2228D01*
G01X57926Y2223D01*
G01X57988Y2220D01*
G01X58051Y2219D01*
G01X58119Y2220D01*
G01X58185Y2222D01*
G01X58250Y2225D01*
G01X58313Y2230D01*
G01X58374Y2235D01*
G01X58434Y2242D01*
G01X58492Y2251D01*
G01X58549Y2261D01*
G01X58604Y2272D01*
G01X58659Y2284D01*
G01X58712Y2299D01*
G01X58763Y2314D01*
G01X58814Y2331D01*
G01X58864Y2349D01*
G01X58913Y2368D01*
G01X58961Y2390D01*
G01X59008Y2412D01*
G01X59055Y2436D01*
G01X59101Y2462D01*
G01X59146Y2489D01*
G01X59156Y3299D01*
G01X58861Y3299D01*
G01X58727Y2618D01*
G01X58679Y2592D01*
G01X58631Y2568D01*
G01X58582Y2547D01*
G01X58532Y2528D01*
G01X58482Y2512D01*
G01X58431Y2497D01*
G01X58379Y2485D01*
G01X58327Y2475D01*
G01X58274Y2468D01*
G01X58219Y2462D01*
G01X58163Y2459D01*
G01X58107Y2458D01*
G01X58054Y2459D01*
G01X58001Y2462D01*
G01X57950Y2467D01*
G01X57899Y2473D01*
G01X57849Y2482D01*
G01X57799Y2492D01*
G01X57750Y2504D01*
G01X57702Y2518D01*
G01X57655Y2533D01*
G01X57609Y2551D01*
G01X57564Y2570D01*
G01X57520Y2591D01*
G01X57477Y2614D01*
G01X57434Y2639D01*
G01X57393Y2665D01*
G01X57353Y2693D01*
G01X57314Y2722D01*
G01X57275Y2754D01*
G01X57238Y2787D01*
G01X57203Y2822D01*
G01X57168Y2858D01*
G01X57135Y2896D01*
G01X57102Y2936D01*
G01X57071Y2977D01*
G01X57013Y3065D01*
G01X56986Y3112D01*
G01X56960Y3160D01*
G01X56936Y3209D01*
G01X56913Y3260D01*
G01X56891Y3313D01*
G01X56871Y3367D01*
G01X56852Y3422D01*
G01X56835Y3480D01*
G01X56819Y3539D01*
G01X56805Y3599D01*
G01X56793Y3661D01*
G01X56782Y3724D01*
G01X56773Y3789D01*
G01X56764Y3855D01*
G01X56758Y3923D01*
G01X56754Y3992D01*
G01X56752Y4062D01*
G01X56751Y4135D01*
G01X56752Y4205D01*
G01X56754Y4275D01*
G01X56758Y4343D01*
G01X56764Y4410D01*
G01X56771Y4475D01*
G01X56780Y4539D01*
G01X56790Y4602D01*
G01X56802Y4663D01*
G01X56815Y4723D01*
G01X56830Y4782D01*
G01X56847Y4839D01*
G01X56865Y4894D01*
G01X56884Y4948D01*
G01X56905Y5001D01*
G01X56927Y5052D01*
G01X56951Y5101D01*
G01X56976Y5149D01*
G01X57002Y5195D01*
G01X57030Y5240D01*
G01X57059Y5283D01*
G01X57090Y5325D01*
G01X57121Y5365D01*
G01X57154Y5403D01*
G01X57189Y5440D01*
G01X57224Y5475D01*
G01X57261Y5509D01*
G01X57299Y5540D01*
G01X57338Y5570D01*
G01X57379Y5599D01*
G01X57421Y5625D01*
G01X57464Y5650D01*
G01X57508Y5673D01*
G01X57553Y5695D01*
G01X57600Y5714D01*
G01X57647Y5732D01*
G01X57696Y5748D01*
G01X57745Y5762D01*
G01X57796Y5774D01*
G01X57848Y5785D01*
G01X57901Y5793D01*
G01X57955Y5800D01*
G01X58010Y5804D01*
G01X58065Y5807D01*
G01X58122Y5808D01*
G01X58203Y5807D01*
G01X58282Y5802D01*
G01X58359Y5793D01*
G01X58434Y5782D01*
G01X58510Y5766D01*
G01X58585Y5748D01*
G01X58660Y5725D01*
G01X58737Y5699D01*
G01X58737Y5355D01*
G01X58735Y5163D01*
G01X58735Y5099D01*
G01X58734Y4971D01*
G01X58733Y4906D01*
G01X58730Y4714D01*
G01X58730Y4650D01*
G01X58727Y4460D01*
G01X58148Y4414D01*
G01X58148Y4224D01*
G01X59573Y4224D01*
G01X59573Y4414D01*
G01X59242Y4445D01*
G01X59240Y4507D01*
G01X59237Y4633D01*
G01X59236Y4696D01*
G01X59234Y4760D01*
G01X59232Y4888D01*
G01X59231Y4954D01*
G01X59229Y5084D01*
G01X59229Y5150D01*
G01X59228Y5216D01*
G01X59227Y5349D01*
G01X59227Y5730D01*
G01X59170Y5759D01*
G01X59113Y5787D01*
G01X59057Y5814D01*
G01X59000Y5839D01*
G01X58943Y5863D01*
G01X58886Y5886D01*
G01X58829Y5907D01*
G01X58772Y5927D01*
G01X58714Y5946D01*
G01X58655Y5963D01*
G01X58597Y5979D01*
G01X58537Y5992D01*
G01X58478Y6005D01*
G01X58417Y6016D01*
G01X58356Y6025D01*
G01X58294Y6033D01*
G01X58231Y6039D01*
G01X58167Y6044D01*
G01X58102Y6046D01*
G37*

%LPD*%
G36*
G01X47750Y2668D02*
G01X47680Y2674D01*
G01X47608Y2668D01*
G01X47542Y2648D01*
G01X47482Y2618D01*
G01X47429Y2577D01*
G01X47387Y2527D01*
G01X47355Y2469D01*
G01X47334Y2404D01*
G01X47327Y2334D01*
G01X47334Y2262D01*
G01X47355Y2197D01*
G01X47387Y2140D01*
G01X47429Y2091D01*
G01X47482Y2052D01*
G01X47542Y2023D01*
G01X47608Y2005D01*
G01X47680Y1998D01*
G01X47750Y2005D01*
G01X47816Y2023D01*
G01X47875Y2052D01*
G01X47927Y2091D01*
G01X47970Y2140D01*
G01X48003Y2197D01*
G01X48024Y2262D01*
G01X48031Y2334D01*
G01X48024Y2404D01*
G01X48003Y2469D01*
G01X47970Y2527D01*
G01X47927Y2577D01*
G01X47875Y2618D01*
G01X47816Y2648D01*
G01X47750Y2668D01*
G37*

%LPD*%
G36*
G01X85136Y6038D02*
G01X85082Y6040D01*
G01X85035Y6039D01*
G01X84986Y6036D01*
G01X84939Y6029D01*
G01X84890Y6021D01*
G01X84841Y6010D01*
G01X84792Y5996D01*
G01X84743Y5979D01*
G01X84694Y5958D01*
G01X84646Y5934D01*
G01X84597Y5906D01*
G01X84548Y5874D01*
G01X84500Y5838D01*
G01X84452Y5798D01*
G01X84405Y5753D01*
G01X84358Y5703D01*
G01X84312Y5648D01*
G01X84267Y6024D01*
G01X83451Y5969D01*
G01X83451Y5798D01*
G01X83863Y5737D01*
G01X83864Y5684D01*
G01X83865Y5628D01*
G01X83865Y5571D01*
G01X83866Y5512D01*
G01X83867Y5452D01*
G01X83867Y5391D01*
G01X83868Y5330D01*
G01X83868Y5269D01*
G01X83869Y5208D01*
G01X83869Y5148D01*
G01X83870Y5089D01*
G01X83870Y2359D01*
G01X83426Y2313D01*
G01X83426Y2148D01*
G01X84256Y1920D01*
G01X84328Y1958D01*
G01X84312Y2738D01*
G01X84312Y3708D01*
G01X84361Y3657D01*
G01X84411Y3609D01*
G01X84462Y3565D01*
G01X84512Y3524D01*
G01X84564Y3487D01*
G01X84617Y3453D01*
G01X84669Y3423D01*
G01X84723Y3396D01*
G01X84776Y3374D01*
G01X84830Y3353D01*
G01X84884Y3337D01*
G01X84938Y3323D01*
G01X84992Y3312D01*
G01X85047Y3305D01*
G01X85101Y3300D01*
G01X85156Y3299D01*
G01X85210Y3300D01*
G01X85265Y3305D01*
G01X85318Y3312D01*
G01X85370Y3322D01*
G01X85422Y3335D01*
G01X85472Y3351D01*
G01X85521Y3369D01*
G01X85569Y3390D01*
G01X85615Y3414D01*
G01X85660Y3441D01*
G01X85704Y3470D01*
G01X85747Y3502D01*
G01X85787Y3536D01*
G01X85827Y3573D01*
G01X85865Y3612D01*
G01X85901Y3655D01*
G01X85935Y3699D01*
G01X85967Y3746D01*
G01X85998Y3795D01*
G01X86027Y3847D01*
G01X86054Y3901D01*
G01X86079Y3957D01*
G01X86101Y4016D01*
G01X86122Y4077D01*
G01X86140Y4140D01*
G01X86156Y4205D01*
G01X86170Y4273D01*
G01X86181Y4343D01*
G01X86190Y4415D01*
G01X86197Y4489D01*
G01X86200Y4564D01*
G01X86202Y4643D01*
G01X86201Y4711D01*
G01X86198Y4778D01*
G01X86192Y4843D01*
G01X86185Y4908D01*
G01X86176Y4971D01*
G01X86165Y5033D01*
G01X86152Y5093D01*
G01X86137Y5152D01*
G01X86120Y5209D01*
G01X86101Y5265D01*
G01X86081Y5319D01*
G01X86058Y5372D01*
G01X86034Y5422D01*
G01X86008Y5472D01*
G01X85982Y5519D01*
G01X85952Y5565D01*
G01X85922Y5609D01*
G01X85890Y5650D01*
G01X85856Y5691D01*
G01X85821Y5729D01*
G01X85784Y5765D01*
G01X85746Y5799D01*
G01X85707Y5831D01*
G01X85666Y5861D01*
G01X85623Y5889D01*
G01X85580Y5914D01*
G01X85536Y5938D01*
G01X85490Y5958D01*
G01X85443Y5977D01*
G01X85394Y5993D01*
G01X85345Y6008D01*
G01X85294Y6019D01*
G01X85242Y6028D01*
G01X85190Y6035D01*
G01X85136Y6038D01*
G37*

%LPC*%
G36*
G01X85029Y5756D02*
G01X84980Y5758D01*
G01X84928Y5756D01*
G01X84875Y5751D01*
G01X84821Y5741D01*
G01X84767Y5728D01*
G01X84712Y5710D01*
G01X84657Y5689D01*
G01X84602Y5663D01*
G01X84546Y5632D01*
G01X84490Y5596D01*
G01X84434Y5555D01*
G01X84378Y5509D01*
G01X84322Y5458D01*
G01X84322Y3888D01*
G01X84396Y3824D01*
G01X84465Y3770D01*
G01X84531Y3723D01*
G01X84594Y3685D01*
G01X84653Y3653D01*
G01X84710Y3628D01*
G01X84764Y3608D01*
G01X84816Y3594D01*
G01X84865Y3584D01*
G01X84912Y3577D01*
G01X84957Y3574D01*
G01X85001Y3573D01*
G01X85052Y3575D01*
G01X85103Y3581D01*
G01X85152Y3591D01*
G01X85200Y3605D01*
G01X85246Y3622D01*
G01X85291Y3643D01*
G01X85334Y3669D01*
G01X85375Y3698D01*
G01X85414Y3731D01*
G01X85451Y3768D01*
G01X85486Y3808D01*
G01X85519Y3853D01*
G01X85550Y3901D01*
G01X85579Y3953D01*
G01X85605Y4010D01*
G01X85628Y4069D01*
G01X85650Y4133D01*
G01X85669Y4200D01*
G01X85684Y4271D01*
G01X85698Y4346D01*
G01X85708Y4425D01*
G01X85716Y4507D01*
G01X85720Y4593D01*
G01X85722Y4683D01*
G01X85720Y4776D01*
G01X85715Y4865D01*
G01X85706Y4949D01*
G01X85694Y5028D01*
G01X85679Y5103D01*
G01X85661Y5173D01*
G01X85640Y5240D01*
G01X85617Y5301D01*
G01X85590Y5359D01*
G01X85562Y5413D01*
G01X85531Y5462D01*
G01X85498Y5507D01*
G01X85463Y5548D01*
G01X85426Y5586D01*
G01X85387Y5620D01*
G01X85347Y5649D01*
G01X85304Y5675D01*
G01X85261Y5697D01*
G01X85217Y5716D01*
G01X85171Y5731D01*
G01X85125Y5743D01*
G01X85077Y5751D01*
G01X85029Y5756D01*
G37*

%LPD*%
G36*
G01X73710Y5969D02*
G01X72450Y5969D01*
G01X72450Y5798D01*
G01X72862Y5737D01*
G01X72863Y5684D01*
G01X72864Y5628D01*
G01X72865Y5571D01*
G01X72865Y5512D01*
G01X72867Y5452D01*
G01X72868Y5391D01*
G01X72868Y5330D01*
G01X72870Y5208D01*
G01X72870Y5148D01*
G01X72871Y5089D01*
G01X72871Y5031D01*
G01X72872Y4974D01*
G01X72872Y2354D01*
G01X72428Y2313D01*
G01X72428Y2148D01*
G01X73256Y1920D01*
G01X73327Y1958D01*
G01X73312Y2738D01*
G01X73312Y3815D01*
G01X73353Y3769D01*
G01X73396Y3725D01*
G01X73441Y3683D01*
G01X73487Y3642D01*
G01X73534Y3603D01*
G01X73581Y3567D01*
G01X73630Y3532D01*
G01X73680Y3499D01*
G01X73730Y3469D01*
G01X73781Y3441D01*
G01X73833Y3415D01*
G01X73886Y3391D01*
G01X73938Y3370D01*
G01X73991Y3352D01*
G01X74045Y3336D01*
G01X74098Y3323D01*
G01X74152Y3313D01*
G01X74205Y3305D01*
G01X74259Y3300D01*
G01X74312Y3299D01*
G01X74369Y3300D01*
G01X74424Y3305D01*
G01X74476Y3313D01*
G01X74526Y3323D01*
G01X74573Y3338D01*
G01X74618Y3355D01*
G01X74661Y3375D01*
G01X74701Y3399D01*
G01X74739Y3427D01*
G01X74775Y3458D01*
G01X74808Y3493D01*
G01X74839Y3531D01*
G01X74867Y3573D01*
G01X74892Y3618D01*
G01X74916Y3668D01*
G01X74937Y3722D01*
G01X74955Y3780D01*
G01X74971Y3841D01*
G01X74985Y3907D01*
G01X74996Y3977D01*
G01X75005Y4051D01*
G01X75011Y4130D01*
G01X75015Y4212D01*
G01X75016Y4300D01*
G01X75016Y4978D01*
G01X75017Y5035D01*
G01X75017Y5094D01*
G01X75018Y5154D01*
G01X75019Y5275D01*
G01X75020Y5336D01*
G01X75020Y5396D01*
G01X75021Y5456D01*
G01X75022Y5515D01*
G01X75023Y5573D01*
G01X75024Y5630D01*
G01X75025Y5685D01*
G01X75026Y5737D01*
G01X75407Y5798D01*
G01X75407Y5969D01*
G01X74147Y5969D01*
G01X74147Y5798D01*
G01X74556Y5737D01*
G01X74557Y5685D01*
G01X74558Y5630D01*
G01X74559Y5573D01*
G01X74560Y5515D01*
G01X74561Y5456D01*
G01X74562Y5396D01*
G01X74562Y5336D01*
G01X74563Y5275D01*
G01X74564Y5154D01*
G01X74565Y5094D01*
G01X74565Y5035D01*
G01X74566Y4978D01*
G01X74566Y4307D01*
G01X74565Y4217D01*
G01X74559Y4135D01*
G01X74551Y4059D01*
G01X74538Y3991D01*
G01X74522Y3931D01*
G01X74502Y3877D01*
G01X74479Y3829D01*
G01X74452Y3787D01*
G01X74422Y3752D01*
G01X74388Y3722D01*
G01X74350Y3697D01*
G01X74309Y3677D01*
G01X74264Y3663D01*
G01X74215Y3652D01*
G01X74163Y3646D01*
G01X74107Y3644D01*
G01X74060Y3645D01*
G01X74014Y3649D01*
G01X73967Y3655D01*
G01X73921Y3663D01*
G01X73874Y3673D01*
G01X73828Y3687D01*
G01X73781Y3703D01*
G01X73733Y3723D01*
G01X73685Y3746D01*
G01X73636Y3772D01*
G01X73586Y3802D01*
G01X73536Y3835D01*
G01X73484Y3872D01*
G01X73431Y3913D01*
G01X73377Y3958D01*
G01X73322Y4008D01*
G01X73322Y4974D01*
G01X73323Y5031D01*
G01X73323Y5089D01*
G01X73324Y5148D01*
G01X73324Y5208D01*
G01X73326Y5330D01*
G01X73326Y5391D01*
G01X73327Y5452D01*
G01X73328Y5512D01*
G01X73329Y5571D01*
G01X73330Y5628D01*
G01X73331Y5684D01*
G01X73332Y5737D01*
G01X73710Y5798D01*
G01X73710Y5969D01*
G37*

%LPD*%

%LPD*%
G36*
G01X6096Y40002D02*
G01X2435Y40002D01*
G01X2435Y38943D01*
G01X2436Y38874D01*
G01X2438Y38806D01*
G01X2442Y38740D01*
G01X2448Y38676D01*
G01X2455Y38613D01*
G01X2463Y38551D01*
G01X2474Y38492D01*
G01X2486Y38434D01*
G01X2499Y38377D01*
G01X2515Y38323D01*
G01X2532Y38271D01*
G01X2551Y38220D01*
G01X2572Y38172D01*
G01X2594Y38125D01*
G01X2618Y38081D01*
G01X2644Y38039D01*
G01X2672Y37999D01*
G01X2702Y37961D01*
G01X2734Y37925D01*
G01X2768Y37892D01*
G01X2803Y37861D01*
G01X2841Y37833D01*
G01X2880Y37807D01*
G01X2922Y37784D01*
G01X2966Y37763D01*
G01X3011Y37744D01*
G01X3059Y37729D01*
G01X3108Y37716D01*
G01X3161Y37706D01*
G01X3215Y37699D01*
G01X3271Y37695D01*
G01X3329Y37693D01*
G01X3398Y37695D01*
G01X3464Y37702D01*
G01X3529Y37713D01*
G01X3592Y37729D01*
G01X3653Y37749D01*
G01X3711Y37773D01*
G01X3768Y37802D01*
G01X3821Y37834D01*
G01X3872Y37871D01*
G01X3919Y37912D01*
G01X3963Y37956D01*
G01X4004Y38005D01*
G01X4040Y38057D01*
G01X4073Y38113D01*
G01X4101Y38173D01*
G01X4124Y38237D01*
G01X4145Y38237D01*
G01X4160Y38170D01*
G01X4177Y38106D01*
G01X4198Y38044D01*
G01X4221Y37985D01*
G01X4248Y37928D01*
G01X4279Y37874D01*
G01X4312Y37823D01*
G01X4348Y37775D01*
G01X4388Y37730D01*
G01X4430Y37689D01*
G01X4476Y37650D01*
G01X4525Y37615D01*
G01X4577Y37584D01*
G01X4631Y37556D01*
G01X4689Y37533D01*
G01X4751Y37513D01*
G01X4815Y37498D01*
G01X4882Y37486D01*
G01X4953Y37480D01*
G01X5026Y37477D01*
G01X5085Y37479D01*
G01X5142Y37482D01*
G01X5197Y37489D01*
G01X5251Y37498D01*
G01X5303Y37509D01*
G01X5353Y37523D01*
G01X5402Y37539D01*
G01X5449Y37557D01*
G01X5495Y37578D01*
G01X5538Y37602D01*
G01X5580Y37627D01*
G01X5621Y37654D01*
G01X5660Y37684D01*
G01X5697Y37715D01*
G01X5732Y37749D01*
G01X5766Y37785D01*
G01X5798Y37823D01*
G01X5828Y37863D01*
G01X5857Y37904D01*
G01X5885Y37948D01*
G01X5910Y37993D01*
G01X5934Y38040D01*
G01X5956Y38089D01*
G01X5977Y38139D01*
G01X5996Y38191D01*
G01X6013Y38245D01*
G01X6029Y38300D01*
G01X6043Y38357D01*
G01X6055Y38415D01*
G01X6066Y38475D01*
G01X6075Y38536D01*
G01X6082Y38599D01*
G01X6088Y38662D01*
G01X6092Y38727D01*
G01X6094Y38794D01*
G01X6096Y38862D01*
G01X6096Y40002D01*
G37*

%LPC*%
G36*
G01X5765Y39588D02*
G01X4325Y39588D01*
G01X4325Y38928D01*
G01X4326Y38846D01*
G01X4330Y38767D01*
G01X4335Y38692D01*
G01X4343Y38619D01*
G01X4354Y38550D01*
G01X4366Y38484D01*
G01X4381Y38421D01*
G01X4398Y38361D01*
G01X4418Y38305D01*
G01X4440Y38252D01*
G01X4465Y38202D01*
G01X4492Y38156D01*
G01X4521Y38113D01*
G01X4553Y38074D01*
G01X4587Y38039D01*
G01X4624Y38007D01*
G01X4663Y37978D01*
G01X4706Y37953D01*
G01X4750Y37932D01*
G01X4797Y37915D01*
G01X4846Y37901D01*
G01X4899Y37891D01*
G01X4954Y37886D01*
G01X5011Y37884D01*
G01X5074Y37886D01*
G01X5135Y37892D01*
G01X5193Y37902D01*
G01X5248Y37916D01*
G01X5299Y37933D01*
G01X5348Y37955D01*
G01X5394Y37981D01*
G01X5438Y38010D01*
G01X5478Y38043D01*
G01X5516Y38079D01*
G01X5551Y38118D01*
G01X5583Y38161D01*
G01X5613Y38208D01*
G01X5640Y38259D01*
G01X5664Y38311D01*
G01X5686Y38368D01*
G01X5704Y38428D01*
G01X5721Y38490D01*
G01X5734Y38556D01*
G01X5745Y38624D01*
G01X5754Y38696D01*
G01X5760Y38771D01*
G01X5764Y38848D01*
G01X5765Y38928D01*
G01X5765Y39588D01*
G37*
G36*
G01X4005Y39588D02*
G01X2766Y39588D01*
G01X2766Y39004D01*
G01X2767Y38916D01*
G01X2771Y38834D01*
G01X2777Y38755D01*
G01X2786Y38681D01*
G01X2799Y38611D01*
G01X2813Y38546D01*
G01X2832Y38485D01*
G01X2852Y38429D01*
G01X2877Y38376D01*
G01X2904Y38329D01*
G01X2935Y38286D01*
G01X2970Y38247D01*
G01X3007Y38213D01*
G01X3049Y38184D01*
G01X3095Y38159D01*
G01X3144Y38139D01*
G01X3197Y38122D01*
G01X3254Y38111D01*
G01X3315Y38104D01*
G01X3380Y38102D01*
G01X3427Y38104D01*
G01X3474Y38108D01*
G01X3518Y38115D01*
G01X3561Y38125D01*
G01X3602Y38138D01*
G01X3641Y38154D01*
G01X3678Y38173D01*
G01X3714Y38196D01*
G01X3748Y38221D01*
G01X3780Y38250D01*
G01X3810Y38282D01*
G01X3837Y38317D01*
G01X3863Y38357D01*
G01X3887Y38399D01*
G01X3909Y38445D01*
G01X3929Y38495D01*
G01X3947Y38548D01*
G01X3962Y38604D01*
G01X3975Y38665D01*
G01X3986Y38730D01*
G01X3994Y38798D01*
G01X4000Y38870D01*
G01X4004Y38946D01*
G01X4005Y39027D01*
G01X4005Y39588D01*
G37*

%LPD*%
G36*
G01X4820Y36985D02*
G01X4747Y36987D01*
G01X4675Y36985D01*
G01X4604Y36982D01*
G01X4535Y36975D01*
G01X4467Y36966D01*
G01X4401Y36954D01*
G01X4337Y36941D01*
G01X4275Y36924D01*
G01X4214Y36906D01*
G01X4155Y36886D01*
G01X4098Y36864D01*
G01X4042Y36839D01*
G01X3988Y36813D01*
G01X3937Y36784D01*
G01X3887Y36754D01*
G01X3839Y36722D01*
G01X3793Y36689D01*
G01X3749Y36654D01*
G01X3707Y36617D01*
G01X3667Y36580D01*
G01X3629Y36540D01*
G01X3593Y36499D01*
G01X3560Y36458D01*
G01X3528Y36414D01*
G01X3499Y36371D01*
G01X3471Y36326D01*
G01X3446Y36279D01*
G01X3423Y36233D01*
G01X3403Y36185D01*
G01X3385Y36137D01*
G01X3369Y36087D01*
G01X3355Y36038D01*
G01X3344Y35988D01*
G01X3336Y35937D01*
G01X3329Y35886D01*
G01X3325Y35834D01*
G01X3324Y35783D01*
G01X3326Y35721D01*
G01X3330Y35660D01*
G01X3337Y35601D01*
G01X3347Y35543D01*
G01X3359Y35488D01*
G01X3374Y35434D01*
G01X3392Y35382D01*
G01X3412Y35332D01*
G01X3435Y35283D01*
G01X3461Y35237D01*
G01X3488Y35192D01*
G01X3519Y35150D01*
G01X3552Y35108D01*
G01X3587Y35070D01*
G01X3625Y35033D01*
G01X3664Y34998D01*
G01X3706Y34965D01*
G01X3751Y34934D01*
G01X3798Y34904D01*
G01X3847Y34877D01*
G01X3897Y34852D01*
G01X3950Y34830D01*
G01X4006Y34809D01*
G01X4062Y34790D01*
G01X4122Y34774D01*
G01X4183Y34759D01*
G01X4246Y34747D01*
G01X4311Y34737D01*
G01X4378Y34729D01*
G01X4447Y34723D01*
G01X4517Y34720D01*
G01X4589Y34719D01*
G01X4657Y34719D01*
G01X4722Y34722D01*
G01X4782Y34727D01*
G01X4836Y34737D01*
G01X4836Y36583D01*
G01X4899Y36579D01*
G01X4961Y36572D01*
G01X5021Y36564D01*
G01X5080Y36552D01*
G01X5137Y36538D01*
G01X5192Y36522D01*
G01X5245Y36504D01*
G01X5296Y36483D01*
G01X5346Y36460D01*
G01X5393Y36435D01*
G01X5438Y36407D01*
G01X5481Y36378D01*
G01X5522Y36347D01*
G01X5561Y36313D01*
G01X5597Y36278D01*
G01X5631Y36241D01*
G01X5663Y36201D01*
G01X5692Y36160D01*
G01X5719Y36117D01*
G01X5743Y36073D01*
G01X5764Y36027D01*
G01X5783Y35979D01*
G01X5799Y35929D01*
G01X5813Y35878D01*
G01X5823Y35825D01*
G01X5830Y35771D01*
G01X5835Y35715D01*
G01X5836Y35659D01*
G01X5835Y35593D01*
G01X5829Y35529D01*
G01X5821Y35467D01*
G01X5809Y35407D01*
G01X5794Y35348D01*
G01X5776Y35291D01*
G01X5756Y35235D01*
G01X5733Y35181D01*
G01X5707Y35127D01*
G01X5678Y35075D01*
G01X5648Y35024D01*
G01X5615Y34973D01*
G01X5885Y34823D01*
G01X5913Y34867D01*
G01X5940Y34913D01*
G01X5966Y34959D01*
G01X5991Y35007D01*
G01X6015Y35056D01*
G01X6038Y35107D01*
G01X6059Y35159D01*
G01X6079Y35213D01*
G01X6098Y35268D01*
G01X6113Y35325D01*
G01X6128Y35383D01*
G01X6139Y35444D01*
G01X6149Y35507D01*
G01X6156Y35571D01*
G01X6160Y35638D01*
G01X6162Y35707D01*
G01X6161Y35766D01*
G01X6151Y35882D01*
G01X6142Y35938D01*
G01X6132Y35994D01*
G01X6118Y36049D01*
G01X6103Y36103D01*
G01X6085Y36155D01*
G01X6066Y36207D01*
G01X6043Y36257D01*
G01X6019Y36307D01*
G01X5992Y36355D01*
G01X5963Y36402D01*
G01X5932Y36447D01*
G01X5899Y36491D01*
G01X5864Y36533D01*
G01X5827Y36574D01*
G01X5788Y36614D01*
G01X5746Y36651D01*
G01X5703Y36687D01*
G01X5657Y36721D01*
G01X5609Y36754D01*
G01X5560Y36784D01*
G01X5509Y36813D01*
G01X5455Y36840D01*
G01X5400Y36865D01*
G01X5343Y36887D01*
G01X5284Y36907D01*
G01X5223Y36926D01*
G01X5160Y36942D01*
G01X5096Y36955D01*
G01X5029Y36967D01*
G01X4961Y36975D01*
G01X4892Y36982D01*
G01X4820Y36985D01*
G37*

%LPC*%
G36*
G01X4536Y35077D02*
G01X4536Y36588D01*
G01X4468Y36580D01*
G01X4402Y36568D01*
G01X4338Y36554D01*
G01X4277Y36536D01*
G01X4219Y36517D01*
G01X4164Y36494D01*
G01X4111Y36469D01*
G01X4060Y36442D01*
G01X4013Y36412D01*
G01X3968Y36381D01*
G01X3926Y36347D01*
G01X3887Y36312D01*
G01X3851Y36274D01*
G01X3817Y36235D01*
G01X3787Y36195D01*
G01X3759Y36153D01*
G01X3735Y36110D01*
G01X3714Y36065D01*
G01X3696Y36019D01*
G01X3681Y35973D01*
G01X3670Y35925D01*
G01X3661Y35876D01*
G01X3656Y35828D01*
G01X3655Y35778D01*
G01X3656Y35724D01*
G01X3661Y35672D01*
G01X3669Y35621D01*
G01X3680Y35573D01*
G01X3694Y35527D01*
G01X3711Y35483D01*
G01X3732Y35441D01*
G01X3755Y35401D01*
G01X3782Y35363D01*
G01X3811Y35327D01*
G01X3844Y35294D01*
G01X3879Y35263D01*
G01X3918Y35234D01*
G01X3959Y35207D01*
G01X4004Y35183D01*
G01X4051Y35161D01*
G01X4102Y35141D01*
G01X4155Y35125D01*
G01X4211Y35110D01*
G01X4270Y35098D01*
G01X4333Y35089D01*
G01X4397Y35082D01*
G01X4465Y35078D01*
G01X4536Y35077D01*
G37*

%LPD*%
G36*
G01X6096Y34033D02*
G01X3395Y34033D01*
G01X3395Y33703D01*
G01X3792Y33662D01*
G01X3792Y33647D01*
G01X3744Y33598D01*
G01X3698Y33549D01*
G01X3654Y33499D01*
G01X3610Y33448D01*
G01X3570Y33396D01*
G01X3531Y33343D01*
G01X3495Y33289D01*
G01X3462Y33234D01*
G01X3432Y33177D01*
G01X3405Y33120D01*
G01X3381Y33061D01*
G01X3361Y33000D01*
G01X3346Y32937D01*
G01X3334Y32873D01*
G01X3327Y32806D01*
G01X3324Y32738D01*
G01X3326Y32678D01*
G01X3330Y32621D01*
G01X3337Y32567D01*
G01X3347Y32514D01*
G01X3359Y32464D01*
G01X3374Y32417D01*
G01X3392Y32371D01*
G01X3413Y32327D01*
G01X3437Y32286D01*
G01X3463Y32247D01*
G01X3491Y32210D01*
G01X3522Y32176D01*
G01X3557Y32144D01*
G01X3594Y32113D01*
G01X3633Y32085D01*
G01X3675Y32059D01*
G01X3720Y32036D01*
G01X3767Y32014D01*
G01X3817Y31994D01*
G01X3869Y31977D01*
G01X3924Y31962D01*
G01X3982Y31949D01*
G01X4042Y31937D01*
G01X4105Y31928D01*
G01X4170Y31921D01*
G01X4238Y31916D01*
G01X4308Y31913D01*
G01X4381Y31912D01*
G01X6096Y31912D01*
G01X6096Y32324D01*
G01X4429Y32324D01*
G01X4354Y32325D01*
G01X4282Y32329D01*
G01X4215Y32335D01*
G01X4152Y32343D01*
G01X4093Y32355D01*
G01X4039Y32368D01*
G01X3988Y32385D01*
G01X3942Y32404D01*
G01X3899Y32426D01*
G01X3860Y32450D01*
G01X3825Y32477D01*
G01X3794Y32508D01*
G01X3767Y32541D01*
G01X3744Y32577D01*
G01X3724Y32616D01*
G01X3708Y32658D01*
G01X3696Y32703D01*
G01X3687Y32751D01*
G01X3681Y32803D01*
G01X3680Y32857D01*
G01X3681Y32909D01*
G01X3687Y32960D01*
G01X3696Y33010D01*
G01X3708Y33058D01*
G01X3724Y33105D01*
G01X3742Y33152D01*
G01X3765Y33198D01*
G01X3791Y33244D01*
G01X3820Y33289D01*
G01X3853Y33335D01*
G01X3889Y33382D01*
G01X3928Y33428D01*
G01X3972Y33476D01*
G01X4017Y33525D01*
G01X4119Y33627D01*
G01X6096Y33627D01*
G01X6096Y34033D01*
G37*

%LPD*%
G36*
G01X6096Y29928D02*
G01X6096Y30342D01*
G01X2435Y29093D01*
G01X2435Y28638D01*
G01X6096Y27383D01*
G01X6096Y27823D01*
G01X4940Y28188D01*
G01X4940Y29552D01*
G01X6096Y29928D01*
G37*

%LPC*%
G36*
G01X4615Y28293D02*
G01X4615Y29448D01*
G01X4020Y29258D01*
G01X3958Y29237D01*
G01X3897Y29218D01*
G01X3835Y29198D01*
G01X3774Y29179D01*
G01X3713Y29159D01*
G01X3591Y29121D01*
G01X3469Y29084D01*
G01X3347Y29046D01*
G01X3286Y29028D01*
G01X3162Y28992D01*
G01X3037Y28955D01*
G01X2910Y28918D01*
G01X2846Y28900D01*
G01X2781Y28882D01*
G01X2781Y28862D01*
G01X2909Y28824D01*
G01X3035Y28788D01*
G01X3160Y28751D01*
G01X3222Y28733D01*
G01X3406Y28678D01*
G01X3468Y28659D01*
G01X3529Y28641D01*
G01X3712Y28584D01*
G01X3773Y28564D01*
G01X3835Y28545D01*
G01X3896Y28524D01*
G01X3958Y28504D01*
G01X4020Y28483D01*
G01X4615Y28293D01*
G37*

%LPD*%
G36*
G01X6096Y26888D02*
G01X3395Y26888D01*
G01X3395Y26558D01*
G01X3891Y26517D01*
G01X3891Y26502D01*
G01X3828Y26466D01*
G01X3769Y26428D01*
G01X3712Y26389D01*
G01X3659Y26347D01*
G01X3609Y26304D01*
G01X3562Y26259D01*
G01X3519Y26212D01*
G01X3480Y26165D01*
G01X3445Y26115D01*
G01X3414Y26064D01*
G01X3387Y26012D01*
G01X3365Y25959D01*
G01X3347Y25905D01*
G01X3335Y25850D01*
G01X3327Y25794D01*
G01X3324Y25737D01*
G01X3327Y25657D01*
G01X3338Y25585D01*
G01X3356Y25519D01*
G01X3385Y25453D01*
G01X3741Y25532D01*
G01X3721Y25595D01*
G01X3707Y25654D01*
G01X3698Y25716D01*
G01X3695Y25788D01*
G01X3697Y25832D01*
G01X3703Y25876D01*
G01X3714Y25921D01*
G01X3729Y25967D01*
G01X3749Y26013D01*
G01X3774Y26060D01*
G01X3804Y26106D01*
G01X3839Y26152D01*
G01X3880Y26198D01*
G01X3926Y26242D01*
G01X3979Y26286D01*
G01X4037Y26328D01*
G01X4102Y26369D01*
G01X4173Y26408D01*
G01X4250Y26446D01*
G01X4335Y26482D01*
G01X6096Y26482D01*
G01X6096Y26888D01*
G37*

%LPD*%
G36*
G01X4820Y25256D02*
G01X4747Y25257D01*
G01X4673Y25256D01*
G01X4600Y25252D01*
G01X4529Y25245D01*
G01X4460Y25236D01*
G01X4394Y25224D01*
G01X4328Y25210D01*
G01X4265Y25193D01*
G01X4204Y25174D01*
G01X4144Y25153D01*
G01X4086Y25129D01*
G01X4031Y25104D01*
G01X3977Y25076D01*
G01X3925Y25047D01*
G01X3876Y25015D01*
G01X3828Y24982D01*
G01X3783Y24947D01*
G01X3739Y24910D01*
G01X3697Y24872D01*
G01X3658Y24832D01*
G01X3621Y24790D01*
G01X3585Y24747D01*
G01X3552Y24703D01*
G01X3521Y24657D01*
G01X3493Y24610D01*
G01X3466Y24562D01*
G01X3442Y24513D01*
G01X3420Y24462D01*
G01X3400Y24411D01*
G01X3382Y24359D01*
G01X3367Y24305D01*
G01X3354Y24251D01*
G01X3344Y24197D01*
G01X3335Y24141D01*
G01X3329Y24085D01*
G01X3325Y24029D01*
G01X3324Y23972D01*
G01X3326Y23906D01*
G01X3331Y23844D01*
G01X3340Y23784D01*
G01X3351Y23725D01*
G01X3365Y23670D01*
G01X3382Y23616D01*
G01X3401Y23565D01*
G01X3422Y23515D01*
G01X3445Y23468D01*
G01X3471Y23422D01*
G01X3498Y23378D01*
G01X3526Y23336D01*
G01X3556Y23295D01*
G01X3586Y23256D01*
G01X3617Y23219D01*
G01X3649Y23182D01*
G01X3916Y23398D01*
G01X3881Y23438D01*
G01X3848Y23479D01*
G01X3817Y23521D01*
G01X3788Y23564D01*
G01X3762Y23608D01*
G01X3739Y23654D01*
G01X3719Y23700D01*
G01X3701Y23748D01*
G01X3688Y23798D01*
G01X3678Y23849D01*
G01X3672Y23902D01*
G01X3670Y23957D01*
G01X3671Y24011D01*
G01X3676Y24063D01*
G01X3685Y24114D01*
G01X3696Y24165D01*
G01X3710Y24214D01*
G01X3728Y24262D01*
G01X3748Y24308D01*
G01X3771Y24353D01*
G01X3797Y24396D01*
G01X3826Y24437D01*
G01X3858Y24477D01*
G01X3892Y24516D01*
G01X3929Y24552D01*
G01X3969Y24587D01*
G01X4010Y24620D01*
G01X4054Y24650D01*
G01X4101Y24679D01*
G01X4149Y24706D01*
G01X4200Y24730D01*
G01X4253Y24752D01*
G01X4308Y24772D01*
G01X4366Y24789D01*
G01X4425Y24804D01*
G01X4486Y24816D01*
G01X4548Y24825D01*
G01X4613Y24833D01*
G01X4679Y24837D01*
G01X4747Y24838D01*
G01X4815Y24837D01*
G01X4881Y24833D01*
G01X4946Y24826D01*
G01X5008Y24817D01*
G01X5070Y24806D01*
G01X5129Y24791D01*
G01X5186Y24775D01*
G01X5241Y24756D01*
G01X5294Y24736D01*
G01X5345Y24712D01*
G01X5393Y24687D01*
G01X5440Y24659D01*
G01X5483Y24629D01*
G01X5525Y24598D01*
G01X5564Y24564D01*
G01X5601Y24528D01*
G01X5635Y24491D01*
G01X5666Y24452D01*
G01X5695Y24410D01*
G01X5721Y24367D01*
G01X5743Y24323D01*
G01X5764Y24276D01*
G01X5781Y24229D01*
G01X5795Y24179D01*
G01X5806Y24128D01*
G01X5815Y24076D01*
G01X5820Y24022D01*
G01X5821Y23967D01*
G01X5819Y23904D01*
G01X5811Y23842D01*
G01X5799Y23782D01*
G01X5783Y23722D01*
G01X5763Y23664D01*
G01X5740Y23608D01*
G01X5713Y23553D01*
G01X5684Y23501D01*
G01X5652Y23450D01*
G01X5618Y23402D01*
G01X5582Y23355D01*
G01X5544Y23312D01*
G01X5816Y23131D01*
G01X5855Y23177D01*
G01X5892Y23224D01*
G01X5927Y23273D01*
G01X5960Y23323D01*
G01X5991Y23374D01*
G01X6019Y23426D01*
G01X6045Y23479D01*
G01X6069Y23534D01*
G01X6090Y23589D01*
G01X6109Y23645D01*
G01X6124Y23703D01*
G01X6138Y23761D01*
G01X6148Y23820D01*
G01X6155Y23880D01*
G01X6160Y23941D01*
G01X6162Y24003D01*
G01X6161Y24061D01*
G01X6157Y24119D01*
G01X6151Y24177D01*
G01X6142Y24233D01*
G01X6132Y24288D01*
G01X6119Y24342D01*
G01X6104Y24396D01*
G01X6086Y24448D01*
G01X6066Y24499D01*
G01X6044Y24548D01*
G01X6020Y24597D01*
G01X5993Y24644D01*
G01X5965Y24690D01*
G01X5934Y24734D01*
G01X5901Y24777D01*
G01X5866Y24818D01*
G01X5829Y24858D01*
G01X5790Y24897D01*
G01X5748Y24933D01*
G01X5705Y24968D01*
G01X5659Y25001D01*
G01X5612Y25033D01*
G01X5562Y25062D01*
G01X5511Y25090D01*
G01X5457Y25116D01*
G01X5402Y25139D01*
G01X5345Y25161D01*
G01X5286Y25181D01*
G01X5225Y25198D01*
G01X5162Y25214D01*
G01X5097Y25227D01*
G01X5031Y25237D01*
G01X4963Y25246D01*
G01X4892Y25252D01*
G01X4820Y25256D01*
G37*

%LPD*%
G36*
G01X6096Y22517D02*
G01X2115Y22517D01*
G01X2115Y22113D01*
G01X3220Y22113D01*
G01X3787Y22128D01*
G01X3740Y22079D01*
G01X3650Y21979D01*
G01X3608Y21928D01*
G01X3568Y21877D01*
G01X3530Y21824D01*
G01X3494Y21770D01*
G01X3461Y21716D01*
G01X3431Y21660D01*
G01X3404Y21603D01*
G01X3381Y21544D01*
G01X3361Y21484D01*
G01X3346Y21421D01*
G01X3334Y21358D01*
G01X3327Y21292D01*
G01X3324Y21224D01*
G01X3326Y21164D01*
G01X3330Y21107D01*
G01X3337Y21052D01*
G01X3347Y21000D01*
G01X3359Y20949D01*
G01X3374Y20902D01*
G01X3392Y20856D01*
G01X3413Y20812D01*
G01X3437Y20771D01*
G01X3463Y20733D01*
G01X3491Y20695D01*
G01X3522Y20661D01*
G01X3557Y20629D01*
G01X3594Y20598D01*
G01X3633Y20570D01*
G01X3675Y20545D01*
G01X3720Y20521D01*
G01X3767Y20499D01*
G01X3817Y20480D01*
G01X3869Y20463D01*
G01X3924Y20448D01*
G01X3982Y20434D01*
G01X4042Y20423D01*
G01X4105Y20414D01*
G01X4170Y20407D01*
G01X4238Y20402D01*
G01X4308Y20399D01*
G01X4381Y20398D01*
G01X6096Y20398D01*
G01X6096Y20807D01*
G01X4429Y20807D01*
G01X4354Y20808D01*
G01X4282Y20812D01*
G01X4215Y20818D01*
G01X4152Y20827D01*
G01X4093Y20838D01*
G01X4039Y20852D01*
G01X3988Y20868D01*
G01X3942Y20887D01*
G01X3899Y20909D01*
G01X3860Y20934D01*
G01X3825Y20962D01*
G01X3794Y20992D01*
G01X3767Y21025D01*
G01X3744Y21062D01*
G01X3724Y21101D01*
G01X3708Y21143D01*
G01X3696Y21188D01*
G01X3687Y21237D01*
G01X3681Y21288D01*
G01X3680Y21343D01*
G01X3681Y21395D01*
G01X3687Y21446D01*
G01X3696Y21496D01*
G01X3708Y21544D01*
G01X3724Y21592D01*
G01X3742Y21638D01*
G01X3765Y21684D01*
G01X3791Y21730D01*
G01X3820Y21775D01*
G01X3853Y21822D01*
G01X3889Y21868D01*
G01X3928Y21915D01*
G01X3972Y21962D01*
G01X4017Y22011D01*
G01X4119Y22113D01*
G01X6096Y22113D01*
G01X6096Y22517D01*
G37*

%LPD*%
G36*
G01X4820Y19716D02*
G01X4747Y19718D01*
G01X4675Y19716D01*
G01X4604Y19712D01*
G01X4535Y19706D01*
G01X4467Y19697D01*
G01X4401Y19685D01*
G01X4337Y19671D01*
G01X4275Y19655D01*
G01X4214Y19637D01*
G01X4155Y19616D01*
G01X4098Y19594D01*
G01X4042Y19570D01*
G01X3988Y19543D01*
G01X3937Y19515D01*
G01X3887Y19485D01*
G01X3839Y19453D01*
G01X3793Y19419D01*
G01X3749Y19384D01*
G01X3707Y19348D01*
G01X3667Y19310D01*
G01X3629Y19270D01*
G01X3593Y19230D01*
G01X3560Y19188D01*
G01X3528Y19145D01*
G01X3499Y19101D01*
G01X3471Y19056D01*
G01X3446Y19010D01*
G01X3423Y18963D01*
G01X3403Y18915D01*
G01X3385Y18867D01*
G01X3369Y18818D01*
G01X3355Y18768D01*
G01X3344Y18718D01*
G01X3336Y18667D01*
G01X3329Y18616D01*
G01X3325Y18565D01*
G01X3324Y18514D01*
G01X3326Y18451D01*
G01X3330Y18390D01*
G01X3337Y18331D01*
G01X3347Y18274D01*
G01X3359Y18218D01*
G01X3374Y18164D01*
G01X3392Y18112D01*
G01X3412Y18062D01*
G01X3435Y18013D01*
G01X3461Y17967D01*
G01X3488Y17922D01*
G01X3519Y17879D01*
G01X3552Y17838D01*
G01X3587Y17799D01*
G01X3625Y17762D01*
G01X3664Y17727D01*
G01X3706Y17694D01*
G01X3751Y17663D01*
G01X3798Y17633D01*
G01X3847Y17606D01*
G01X3897Y17581D01*
G01X3950Y17558D01*
G01X4006Y17537D01*
G01X4062Y17518D01*
G01X4122Y17502D01*
G01X4183Y17487D01*
G01X4246Y17475D01*
G01X4311Y17465D01*
G01X4378Y17457D01*
G01X4447Y17451D01*
G01X4517Y17448D01*
G01X4589Y17447D01*
G01X4657Y17448D01*
G01X4722Y17451D01*
G01X4782Y17457D01*
G01X4836Y17467D01*
G01X4836Y19314D01*
G01X4899Y19310D01*
G01X4961Y19303D01*
G01X5021Y19294D01*
G01X5080Y19283D01*
G01X5137Y19269D01*
G01X5192Y19253D01*
G01X5245Y19234D01*
G01X5296Y19214D01*
G01X5346Y19190D01*
G01X5393Y19165D01*
G01X5438Y19138D01*
G01X5481Y19108D01*
G01X5522Y19077D01*
G01X5561Y19043D01*
G01X5597Y19008D01*
G01X5631Y18971D01*
G01X5663Y18931D01*
G01X5692Y18890D01*
G01X5719Y18847D01*
G01X5743Y18803D01*
G01X5764Y18756D01*
G01X5783Y18708D01*
G01X5799Y18658D01*
G01X5813Y18607D01*
G01X5823Y18554D01*
G01X5830Y18500D01*
G01X5835Y18444D01*
G01X5836Y18387D01*
G01X5835Y18322D01*
G01X5829Y18258D01*
G01X5821Y18196D01*
G01X5809Y18136D01*
G01X5794Y18077D01*
G01X5776Y18020D01*
G01X5756Y17964D01*
G01X5733Y17910D01*
G01X5707Y17857D01*
G01X5678Y17804D01*
G01X5648Y17753D01*
G01X5615Y17703D01*
G01X5885Y17553D01*
G01X5913Y17598D01*
G01X5940Y17643D01*
G01X5966Y17690D01*
G01X5991Y17737D01*
G01X6015Y17786D01*
G01X6038Y17837D01*
G01X6059Y17889D01*
G01X6079Y17942D01*
G01X6098Y17997D01*
G01X6113Y18054D01*
G01X6128Y18113D01*
G01X6139Y18174D01*
G01X6149Y18236D01*
G01X6156Y18301D01*
G01X6160Y18368D01*
G01X6162Y18437D01*
G01X6161Y18496D01*
G01X6156Y18555D01*
G01X6151Y18612D01*
G01X6142Y18669D01*
G01X6132Y18724D01*
G01X6118Y18779D01*
G01X6103Y18833D01*
G01X6085Y18886D01*
G01X6066Y18937D01*
G01X6043Y18988D01*
G01X6019Y19037D01*
G01X5992Y19086D01*
G01X5963Y19132D01*
G01X5932Y19178D01*
G01X5899Y19221D01*
G01X5864Y19264D01*
G01X5827Y19305D01*
G01X5788Y19344D01*
G01X5746Y19382D01*
G01X5703Y19418D01*
G01X5657Y19452D01*
G01X5609Y19484D01*
G01X5560Y19515D01*
G01X5509Y19544D01*
G01X5455Y19570D01*
G01X5400Y19595D01*
G01X5343Y19617D01*
G01X5284Y19638D01*
G01X5223Y19656D01*
G01X5160Y19672D01*
G01X5096Y19686D01*
G01X5029Y19697D01*
G01X4961Y19706D01*
G01X4892Y19712D01*
G01X4820Y19716D01*
G37*

%LPC*%
G36*
G01X4536Y17807D02*
G01X4536Y19319D01*
G01X4468Y19310D01*
G01X4402Y19299D01*
G01X4338Y19284D01*
G01X4277Y19267D01*
G01X4219Y19247D01*
G01X4164Y19225D01*
G01X4111Y19200D01*
G01X4060Y19172D01*
G01X4013Y19143D01*
G01X3968Y19111D01*
G01X3926Y19078D01*
G01X3887Y19042D01*
G01X3851Y19005D01*
G01X3817Y18966D01*
G01X3787Y18926D01*
G01X3759Y18883D01*
G01X3735Y18840D01*
G01X3714Y18796D01*
G01X3696Y18750D01*
G01X3681Y18703D01*
G01X3670Y18655D01*
G01X3661Y18607D01*
G01X3656Y18558D01*
G01X3655Y18508D01*
G01X3656Y18454D01*
G01X3661Y18402D01*
G01X3669Y18352D01*
G01X3680Y18303D01*
G01X3694Y18257D01*
G01X3711Y18212D01*
G01X3732Y18170D01*
G01X3755Y18131D01*
G01X3782Y18092D01*
G01X3811Y18057D01*
G01X3844Y18023D01*
G01X3879Y17992D01*
G01X3918Y17963D01*
G01X3959Y17937D01*
G01X4004Y17913D01*
G01X4051Y17891D01*
G01X4102Y17871D01*
G01X4155Y17855D01*
G01X4211Y17840D01*
G01X4270Y17829D01*
G01X4333Y17820D01*
G01X4397Y17813D01*
G01X4465Y17809D01*
G01X4536Y17807D01*
G37*

%LPD*%
G36*
G01X6096Y16764D02*
G01X3395Y16764D01*
G01X3395Y16433D01*
G01X3891Y16393D01*
G01X3891Y16377D01*
G01X3828Y16342D01*
G01X3769Y16304D01*
G01X3712Y16264D01*
G01X3659Y16222D01*
G01X3609Y16179D01*
G01X3562Y16135D01*
G01X3519Y16088D01*
G01X3480Y16040D01*
G01X3445Y15990D01*
G01X3414Y15940D01*
G01X3387Y15888D01*
G01X3365Y15835D01*
G01X3347Y15781D01*
G01X3335Y15726D01*
G01X3327Y15670D01*
G01X3324Y15613D01*
G01X3327Y15533D01*
G01X3338Y15461D01*
G01X3356Y15394D01*
G01X3385Y15328D01*
G01X3741Y15407D01*
G01X3721Y15471D01*
G01X3707Y15530D01*
G01X3698Y15592D01*
G01X3695Y15664D01*
G01X3697Y15707D01*
G01X3703Y15752D01*
G01X3714Y15797D01*
G01X3729Y15842D01*
G01X3749Y15888D01*
G01X3774Y15934D01*
G01X3804Y15981D01*
G01X3839Y16026D01*
G01X3880Y16072D01*
G01X3926Y16116D01*
G01X3979Y16160D01*
G01X4037Y16203D01*
G01X4102Y16244D01*
G01X4173Y16283D01*
G01X4250Y16321D01*
G01X4335Y16357D01*
G01X6096Y16357D01*
G01X6096Y16764D01*
G37*

%LPD*%

%LPD*%
G36*
G01X70190Y48895D02*
G01X69527Y48895D01*
G01X69527Y43037D01*
G01X70190Y43037D01*
G01X70190Y48895D01*
G37*

%LPD*%
G36*
G01X63990Y48895D02*
G01X63215Y48895D01*
G01X61950Y43037D01*
G01X62631Y43037D01*
G01X63279Y46294D01*
G01X63290Y46352D01*
G01X63301Y46411D01*
G01X63312Y46469D01*
G01X63334Y46587D01*
G01X63346Y46646D01*
G01X63379Y46822D01*
G01X63390Y46882D01*
G01X63402Y46941D01*
G01X63424Y47059D01*
G01X63447Y47177D01*
G01X63458Y47236D01*
G01X63480Y47355D01*
G01X63492Y47415D01*
G01X63525Y47593D01*
G01X63537Y47652D01*
G01X63559Y47772D01*
G01X63571Y47832D01*
G01X63582Y47891D01*
G01X63593Y47951D01*
G01X63605Y48011D01*
G01X63616Y48071D01*
G01X63628Y48131D01*
G01X63639Y48191D01*
G01X63670Y48191D01*
G01X63682Y48131D01*
G01X63696Y48071D01*
G01X63708Y48011D01*
G01X63735Y47891D01*
G01X63747Y47832D01*
G01X63761Y47772D01*
G01X63787Y47652D01*
G01X63853Y47355D01*
G01X63867Y47296D01*
G01X63880Y47236D01*
G01X63906Y47118D01*
G01X63920Y47059D01*
G01X63947Y46941D01*
G01X63960Y46882D01*
G01X63973Y46822D01*
G01X63987Y46763D01*
G01X64000Y46705D01*
G01X64014Y46646D01*
G01X64027Y46587D01*
G01X64041Y46528D01*
G01X64054Y46469D01*
G01X64067Y46411D01*
G01X64081Y46352D01*
G01X64094Y46294D01*
G01X64927Y43037D01*
G01X65542Y43037D01*
G01X66382Y46294D01*
G01X66396Y46351D01*
G01X66409Y46409D01*
G01X66437Y46526D01*
G01X66450Y46585D01*
G01X66464Y46643D01*
G01X66477Y46701D01*
G01X66504Y46819D01*
G01X66518Y46878D01*
G01X66544Y46996D01*
G01X66558Y47056D01*
G01X66571Y47115D01*
G01X66585Y47174D01*
G01X66612Y47293D01*
G01X66625Y47353D01*
G01X66638Y47412D01*
G01X66652Y47472D01*
G01X66665Y47532D01*
G01X66679Y47591D01*
G01X66692Y47651D01*
G01X66720Y47771D01*
G01X66733Y47831D01*
G01X66747Y47891D01*
G01X66760Y47951D01*
G01X66787Y48071D01*
G01X66800Y48131D01*
G01X66814Y48191D01*
G01X66855Y48191D01*
G01X66866Y48131D01*
G01X66876Y48071D01*
G01X66897Y47951D01*
G01X66907Y47891D01*
G01X66918Y47832D01*
G01X66929Y47772D01*
G01X66949Y47652D01*
G01X66960Y47593D01*
G01X66970Y47534D01*
G01X67023Y47236D01*
G01X67056Y47059D01*
G01X67077Y46941D01*
G01X67088Y46882D01*
G01X67099Y46822D01*
G01X67109Y46763D01*
G01X67121Y46705D01*
G01X67131Y46646D01*
G01X67142Y46587D01*
G01X67154Y46528D01*
G01X67164Y46469D01*
G01X67175Y46411D01*
G01X67187Y46352D01*
G01X67198Y46294D01*
G01X67845Y43037D01*
G01X68478Y43037D01*
G01X67246Y48895D01*
G01X66464Y48895D01*
G01X65526Y45247D01*
G01X65512Y45179D01*
G01X65497Y45111D01*
G01X65469Y44977D01*
G01X65454Y44911D01*
G01X65440Y44844D01*
G01X65425Y44779D01*
G01X65411Y44713D01*
G01X65396Y44647D01*
G01X65382Y44582D01*
G01X65367Y44517D01*
G01X65325Y44319D01*
G01X65311Y44254D01*
G01X65282Y44121D01*
G01X65254Y43987D01*
G01X65239Y43919D01*
G01X65206Y43919D01*
G01X65192Y43987D01*
G01X65162Y44121D01*
G01X65132Y44254D01*
G01X65116Y44319D01*
G01X65101Y44385D01*
G01X65085Y44451D01*
G01X65070Y44517D01*
G01X65038Y44647D01*
G01X65023Y44713D01*
G01X65007Y44779D01*
G01X64991Y44844D01*
G01X64976Y44911D01*
G01X64961Y44977D01*
G01X64931Y45111D01*
G01X64902Y45247D01*
G01X63990Y48895D01*
G37*

%LPD*%
G36*
G01X58925Y48998D02*
G01X58872Y48999D01*
G01X58764Y48997D01*
G01X58711Y48995D01*
G01X58658Y48991D01*
G01X58606Y48987D01*
G01X58554Y48982D01*
G01X58502Y48976D01*
G01X58452Y48969D01*
G01X58401Y48960D01*
G01X58351Y48951D01*
G01X58301Y48941D01*
G01X58252Y48930D01*
G01X58204Y48917D01*
G01X58155Y48904D01*
G01X58108Y48889D01*
G01X58061Y48873D01*
G01X58015Y48856D01*
G01X57969Y48838D01*
G01X57924Y48819D01*
G01X57836Y48777D01*
G01X57793Y48754D01*
G01X57751Y48730D01*
G01X57709Y48705D01*
G01X57668Y48679D01*
G01X57628Y48651D01*
G01X57588Y48622D01*
G01X57550Y48592D01*
G01X57512Y48560D01*
G01X57475Y48527D01*
G01X57439Y48493D01*
G01X57403Y48457D01*
G01X57368Y48421D01*
G01X57334Y48382D01*
G01X57301Y48342D01*
G01X57269Y48301D01*
G01X57238Y48258D01*
G01X57208Y48214D01*
G01X57179Y48169D01*
G01X57151Y48122D01*
G01X57124Y48074D01*
G01X57097Y48024D01*
G01X57047Y47920D01*
G01X57024Y47865D01*
G01X57002Y47809D01*
G01X56981Y47752D01*
G01X56961Y47693D01*
G01X56942Y47632D01*
G01X56924Y47569D01*
G01X56907Y47505D01*
G01X56891Y47440D01*
G01X56877Y47373D01*
G01X56863Y47303D01*
G01X56852Y47233D01*
G01X56841Y47161D01*
G01X56831Y47087D01*
G01X56823Y47011D01*
G01X56815Y46934D01*
G01X56810Y46854D01*
G01X56805Y46773D01*
G01X56802Y46690D01*
G01X56799Y46606D01*
G01X56799Y43037D01*
G01X57462Y43037D01*
G01X57462Y46527D01*
G01X57463Y46616D01*
G01X57465Y46702D01*
G01X57469Y46786D01*
G01X57475Y46867D01*
G01X57482Y46946D01*
G01X57490Y47022D01*
G01X57501Y47096D01*
G01X57512Y47167D01*
G01X57525Y47236D01*
G01X57540Y47303D01*
G01X57556Y47367D01*
G01X57573Y47429D01*
G01X57591Y47490D01*
G01X57611Y47547D01*
G01X57632Y47603D01*
G01X57654Y47657D01*
G01X57678Y47708D01*
G01X57703Y47757D01*
G01X57729Y47804D01*
G01X57756Y47850D01*
G01X57785Y47893D01*
G01X57813Y47934D01*
G01X57844Y47973D01*
G01X57875Y48011D01*
G01X57908Y48047D01*
G01X57941Y48080D01*
G01X57976Y48112D01*
G01X58011Y48142D01*
G01X58047Y48171D01*
G01X58084Y48197D01*
G01X58122Y48222D01*
G01X58161Y48245D01*
G01X58200Y48267D01*
G01X58241Y48287D01*
G01X58282Y48305D01*
G01X58323Y48322D01*
G01X58366Y48337D01*
G01X58409Y48351D01*
G01X58453Y48364D01*
G01X58497Y48375D01*
G01X58542Y48384D01*
G01X58588Y48393D01*
G01X58634Y48399D01*
G01X58681Y48405D01*
G01X58728Y48409D01*
G01X58775Y48412D01*
G01X58823Y48414D01*
G01X58921Y48414D01*
G01X58970Y48412D01*
G01X59018Y48409D01*
G01X59066Y48405D01*
G01X59160Y48393D01*
G01X59206Y48384D01*
G01X59253Y48375D01*
G01X59298Y48364D01*
G01X59342Y48351D01*
G01X59386Y48337D01*
G01X59429Y48322D01*
G01X59472Y48305D01*
G01X59514Y48287D01*
G01X59555Y48267D01*
G01X59596Y48245D01*
G01X59635Y48222D01*
G01X59674Y48197D01*
G01X59711Y48171D01*
G01X59748Y48142D01*
G01X59784Y48112D01*
G01X59820Y48080D01*
G01X59854Y48047D01*
G01X59887Y48011D01*
G01X59919Y47973D01*
G01X59950Y47934D01*
G01X59980Y47893D01*
G01X60009Y47850D01*
G01X60036Y47804D01*
G01X60063Y47757D01*
G01X60088Y47708D01*
G01X60112Y47657D01*
G01X60135Y47603D01*
G01X60156Y47547D01*
G01X60177Y47490D01*
G01X60195Y47429D01*
G01X60213Y47367D01*
G01X60230Y47303D01*
G01X60244Y47236D01*
G01X60257Y47167D01*
G01X60270Y47096D01*
G01X60280Y47022D01*
G01X60289Y46946D01*
G01X60296Y46867D01*
G01X60302Y46786D01*
G01X60306Y46702D01*
G01X60308Y46616D01*
G01X60309Y46527D01*
G01X60309Y43037D01*
G01X60942Y43037D01*
G01X60942Y46520D01*
G01X60941Y46606D01*
G01X60939Y46690D01*
G01X60936Y46773D01*
G01X60931Y46854D01*
G01X60925Y46934D01*
G01X60918Y47011D01*
G01X60910Y47087D01*
G01X60900Y47161D01*
G01X60889Y47233D01*
G01X60877Y47303D01*
G01X60863Y47373D01*
G01X60849Y47440D01*
G01X60834Y47505D01*
G01X60817Y47569D01*
G01X60799Y47632D01*
G01X60780Y47693D01*
G01X60760Y47752D01*
G01X60739Y47809D01*
G01X60717Y47865D01*
G01X60693Y47920D01*
G01X60669Y47972D01*
G01X60644Y48024D01*
G01X60618Y48074D01*
G01X60590Y48122D01*
G01X60562Y48169D01*
G01X60533Y48214D01*
G01X60502Y48258D01*
G01X60471Y48301D01*
G01X60439Y48342D01*
G01X60406Y48382D01*
G01X60373Y48421D01*
G01X60303Y48493D01*
G01X60267Y48527D01*
G01X60230Y48560D01*
G01X60191Y48592D01*
G01X60153Y48622D01*
G01X60113Y48651D01*
G01X60073Y48679D01*
G01X60032Y48705D01*
G01X59991Y48730D01*
G01X59948Y48754D01*
G01X59905Y48777D01*
G01X59862Y48798D01*
G01X59818Y48819D01*
G01X59772Y48838D01*
G01X59727Y48856D01*
G01X59680Y48873D01*
G01X59634Y48889D01*
G01X59586Y48904D01*
G01X59539Y48917D01*
G01X59490Y48930D01*
G01X59441Y48941D01*
G01X59391Y48951D01*
G01X59342Y48960D01*
G01X59291Y48969D01*
G01X59240Y48976D01*
G01X59189Y48982D01*
G01X59137Y48987D01*
G01X59084Y48991D01*
G01X59032Y48995D01*
G01X58979Y48997D01*
G01X58925Y48998D01*
G37*

%LPD*%
M00*
M02*
