G04 Layer: TopPasteMaskLayer*
G04 EasyEDA v6.3.53, 2020-07-07T17:09:39+02:00*
G04 a5cadded52d348ca89a3f83f906f7d41,10*
G04 Gerber Generator version 0.2*
G04 Scale: 100 percent, Rotated: No, Reflected: No *
G04 Dimensions in millimeters *
G04 leading zeros omitted , absolute positions ,3 integer and 3 decimal *
%FSLAX33Y33*%
%MOMM*%
G90*
G71D02*

%ADD13C,0.599999*%
%ADD15R,1.999996X1.999996*%
%ADD16R,1.270000X2.286000*%
%ADD17R,1.778000X1.397000*%
%ADD18R,1.270000X1.397000*%
%ADD19R,0.700024X1.999996*%
%ADD20R,0.990600X1.092200*%
%ADD21R,1.550010X0.999998*%
%ADD22R,0.999998X1.550010*%
%ADD23R,1.199998X1.899996*%
%ADD24R,1.399997X0.999998*%
%ADD25R,1.399997X1.150010*%
%ADD26R,1.299997X0.699999*%
%ADD27R,3.850005X5.499989*%
%ADD28R,1.899996X1.199998*%
%ADD29R,0.699999X1.250010*%
%ADD30R,0.999998X1.099998*%
%ADD31R,1.099998X0.999998*%
%ADD32R,0.399999X1.699997*%
%ADD33R,3.499993X4.199992*%
%ADD34R,0.999998X0.550012*%
%ADD35R,0.999998X0.999998*%
%ADD36R,0.999998X1.399997*%
%ADD37R,2.499995X0.999998*%
%ADD38R,5.999988X2.499995*%
%ADD39R,2.299995X3.799992*%
%ADD40R,1.999996X1.199998*%

%LPD*%
G54D13*
G01X53473Y59944D02*
G01X52553Y59944D01*
G01X53473Y58674D02*
G01X52553Y58674D01*
G01X53473Y57404D02*
G01X52553Y57404D01*
G01X53473Y56134D02*
G01X52553Y56134D01*
G01X58952Y59944D02*
G01X58032Y59944D01*
G01X58952Y58674D02*
G01X58032Y58674D01*
G01X58952Y57404D02*
G01X58032Y57404D01*
G01X58952Y56134D02*
G01X58032Y56134D01*
G01X13335Y35899D02*
G01X13335Y37099D01*
G01X12065Y35899D02*
G01X12065Y37099D01*
G01X10795Y35899D02*
G01X10795Y37099D01*
G01X9525Y35899D02*
G01X9525Y37099D01*
G01X8255Y35899D02*
G01X8255Y37099D01*
G01X6985Y35899D02*
G01X6985Y37099D01*
G01X5715Y35899D02*
G01X5715Y37099D01*
G01X4445Y35899D02*
G01X4445Y37099D01*
G01X13335Y29956D02*
G01X13335Y31156D01*
G01X12065Y29956D02*
G01X12065Y31156D01*
G01X10795Y29956D02*
G01X10795Y31156D01*
G01X9525Y29956D02*
G01X9525Y31156D01*
G01X8255Y29956D02*
G01X8255Y31156D01*
G01X6985Y29956D02*
G01X6985Y31156D01*
G01X5715Y29956D02*
G01X5715Y31156D01*
G01X4445Y29956D02*
G01X4445Y31156D01*
G01X13335Y45551D02*
G01X13335Y46751D01*
G01X12065Y45551D02*
G01X12065Y46751D01*
G01X10795Y45551D02*
G01X10795Y46751D01*
G01X9525Y45551D02*
G01X9525Y46751D01*
G01X8255Y45551D02*
G01X8255Y46751D01*
G01X6985Y45551D02*
G01X6985Y46751D01*
G01X5715Y45551D02*
G01X5715Y46751D01*
G01X4445Y45551D02*
G01X4445Y46751D01*
G01X13335Y39608D02*
G01X13335Y40808D01*
G01X12065Y39608D02*
G01X12065Y40808D01*
G01X10795Y39608D02*
G01X10795Y40808D01*
G01X9525Y39608D02*
G01X9525Y40808D01*
G01X8255Y39608D02*
G01X8255Y40808D01*
G01X6985Y39608D02*
G01X6985Y40808D01*
G01X5715Y39608D02*
G01X5715Y40808D01*
G01X4445Y39608D02*
G01X4445Y40808D01*
G54D15*
G01X72022Y50673D03*
G01X67423Y50673D03*
G54D16*
G01X10160Y5903D03*
G01X25654Y5903D03*
G54D17*
G01X24892Y15555D03*
G54D18*
G01X10160Y15555D03*
G54D19*
G01X11407Y16194D03*
G01X12511Y16194D03*
G01X13609Y16194D03*
G01X14706Y16194D03*
G01X15804Y16194D03*
G01X16903Y16194D03*
G01X18002Y16194D03*
G01X19099Y16192D03*
G01X20198Y16194D03*
G54D20*
G01X76200Y4356D03*
G01X76200Y6057D03*
G54D21*
G01X53594Y43544D03*
G01X53594Y41545D03*
G54D22*
G01X76216Y44323D03*
G01X78215Y44323D03*
G54D23*
G01X51510Y50800D03*
G01X48311Y50800D03*
G01X48311Y47625D03*
G01X51510Y47625D03*
G54D22*
G01X62721Y51435D03*
G01X60722Y51435D03*
G54D24*
G01X61087Y3852D03*
G01X61087Y6053D03*
G54D20*
G01X68707Y4356D03*
G01X68707Y6057D03*
G54D25*
G01X29633Y43776D03*
G36*
G01X32534Y44802D02*
G01X31496Y44801D01*
G01X31134Y45180D01*
G01X31134Y45952D01*
G01X32534Y45952D01*
G01X32534Y44802D01*
G37*
G01X31834Y43776D03*
G01X29633Y45377D03*
G54D26*
G01X44117Y9216D03*
G01X50116Y9216D03*
G01X44117Y5515D03*
G01X50116Y5515D03*
G54D20*
G01X53340Y4356D03*
G01X53340Y6057D03*
G54D27*
G01X81937Y35941D03*
G01X71987Y35941D03*
G54D21*
G01X63627Y46117D03*
G01X63627Y48116D03*
G54D28*
G01X15748Y22021D03*
G01X15748Y25221D03*
G54D23*
G01X8331Y9271D03*
G01X5131Y9271D03*
G36*
G01X3732Y17747D02*
G01X4420Y18730D01*
G01X5977Y17640D01*
G01X5288Y16657D01*
G01X3732Y17747D01*
G37*
G36*
G01X1896Y15125D02*
G01X2585Y16108D01*
G01X4141Y15018D01*
G01X3453Y14035D01*
G01X1896Y15125D01*
G37*
G54D29*
G01X27238Y32745D03*
G01X25339Y32745D03*
G01X26289Y30246D03*
G01X33715Y32618D03*
G01X31816Y32618D03*
G01X32766Y30119D03*
G01X38795Y32618D03*
G01X36896Y32618D03*
G01X37846Y30119D03*
G01X43875Y32618D03*
G01X41976Y32618D03*
G01X42926Y30119D03*
G01X49336Y32618D03*
G01X47437Y32618D03*
G01X48387Y30119D03*
G01X54416Y32618D03*
G01X52517Y32618D03*
G01X53467Y30119D03*
G01X59496Y32618D03*
G01X57597Y32618D03*
G01X58547Y30119D03*
G01X21523Y33253D03*
G01X19624Y33253D03*
G01X20574Y30754D03*
G54D30*
G01X20817Y41656D03*
G01X22617Y41656D03*
G01X42174Y41656D03*
G01X40374Y41656D03*
G54D31*
G01X33655Y34505D03*
G01X33655Y36105D03*
G01X27305Y36360D03*
G01X27305Y34760D03*
G01X38735Y34505D03*
G01X38735Y36105D03*
G01X43942Y34759D03*
G01X43942Y36359D03*
G01X49276Y34632D03*
G01X49276Y36232D03*
G01X54356Y34632D03*
G01X54356Y36232D03*
G01X59436Y34632D03*
G01X59436Y36232D03*
G01X21209Y35013D03*
G01X21209Y36613D03*
G54D30*
G01X54267Y9779D03*
G01X52667Y9779D03*
G01X61633Y9652D03*
G01X60033Y9652D03*
G01X69634Y10160D03*
G01X68034Y10160D03*
G01X76746Y10033D03*
G01X75146Y10033D03*
G54D32*
G01X7956Y21075D03*
G01X8606Y21075D03*
G01X9256Y21075D03*
G01X9906Y21075D03*
G01X10555Y21075D03*
G01X11205Y21075D03*
G01X11855Y21075D03*
G01X11855Y26676D03*
G01X11205Y26676D03*
G01X10555Y26676D03*
G01X9906Y26676D03*
G01X9256Y26676D03*
G01X8606Y26676D03*
G01X7956Y26676D03*
G54D33*
G01X75817Y52959D03*
G01X105792Y52959D03*
G54D30*
G01X28331Y60325D03*
G01X26531Y60325D03*
G01X25029Y47117D03*
G01X23229Y47117D03*
G01X54853Y53213D03*
G01X56653Y53213D03*
G54D34*
G01X61217Y43748D03*
G01X61217Y42799D03*
G01X61217Y41849D03*
G01X58416Y41849D03*
G01X58416Y42799D03*
G01X58416Y43748D03*
G54D35*
G01X82813Y6756D03*
G01X90414Y6756D03*
G01X82813Y8957D03*
G01X90414Y8957D03*
G54D36*
G01X84364Y10007D03*
G01X87364Y10007D03*
G01X88863Y10007D03*
G54D35*
G01X92973Y6756D03*
G01X100574Y6756D03*
G01X92973Y8957D03*
G01X100574Y8957D03*
G54D36*
G01X94524Y10007D03*
G01X97524Y10007D03*
G01X99023Y10007D03*
G54D30*
G01X13169Y60452D03*
G01X14769Y60452D03*
G01X18834Y60452D03*
G01X17234Y60452D03*
G01X16725Y45212D03*
G01X18325Y45212D03*
G01X42456Y2667D03*
G01X40856Y2667D03*
G01X58331Y47625D03*
G01X56731Y47625D03*
G54D37*
G01X61008Y57277D03*
G01X61008Y54737D03*
G54D38*
G01X67007Y56007D03*
G54D39*
G01X21082Y23241D03*
G54D40*
G01X27432Y23241D03*
G01X27432Y25540D03*
G01X27432Y20941D03*
G54D31*
G01X2794Y20436D03*
G01X2794Y22236D03*
G01X2921Y24881D03*
G01X2921Y26681D03*
M00*
M02*
