solid Untitled-5b63e7e5
facet normal -2.747488261138764e-18 -2.976408553791713e-18 -1.0
  outer loop
    vertex -28.083969 24.359528999999995 0.0
    vertex -28.083969 18.203482 1.4099832412739487e-15
    vertex -30.260222999999996 20.203482 0.0
  endloop
endfacet
facet normal -2.747488261138764e-18 -2.976408553791713e-18 -1.0
  outer loop
    vertex -28.083969 18.203482 1.4099832412739487e-15
    vertex -28.083969 24.359528999999995 0.0
    vertex -28.083969 23.363489 0.0
  endloop
endfacet
facet normal -2.747488261138764e-18 -2.976408553791713e-18 -1.0
  outer loop
    vertex -28.083969 18.203482 1.4099832412739487e-15
    vertex -28.083969 23.363489 0.0
    vertex -18.333969 23.363489 0.0
  endloop
endfacet
facet normal -2.747488261138764e-18 -2.976408553791713e-18 -1.0
  outer loop
    vertex -28.083969 18.203482 1.4099832412739487e-15
    vertex -18.333969 23.363489 0.0
    vertex -28.083969 -28.508548733141023 5.287437154777307e-16
  endloop
endfacet
facet normal -2.747488261138764e-18 -2.976408553791713e-18 -1.0
  outer loop
    vertex -28.083969 -28.508548733141023 5.287437154777307e-16
    vertex -18.333969 23.363489 0.0
    vertex -25.142276698676884 -23.96406210011587 1.762479051592436e-14
  endloop
endfacet
facet normal -2.747488261138764e-18 -2.976408553791713e-18 -1.0
  outer loop
    vertex -28.083969 -28.508548733141023 5.287437154777307e-16
    vertex -25.142276698676884 -23.96406210011587 1.762479051592436e-14
    vertex -25.20896100360733 -24.48189082968135 1.762479051592436e-14
  endloop
endfacet
facet normal -2.747488261138764e-18 -2.976408553791713e-18 -1.0
  outer loop
    vertex -28.083969 -28.508548733141023 5.287437154777307e-16
    vertex -25.20896100360733 -24.48189082968135 1.762479051592436e-14
    vertex -25.797159451025205 -29.455776262890684 5.287437154777307e-16
  endloop
endfacet
facet normal -2.747488261138764e-18 -2.976408553791713e-18 -1.0
  outer loop
    vertex -25.142276698676884 -23.96406210011587 1.762479051592436e-14
    vertex -18.333969 23.363489 0.0
    vertex -24.943840669023647 -23.48113712475954 1.762479051592436e-14
  endloop
endfacet
facet normal -2.747488261138764e-18 -2.976408553791713e-18 -1.0
  outer loop
    vertex -24.943840669023647 -23.48113712475954 1.762479051592436e-14
    vertex -18.333969 23.363489 0.0
    vertex -24.627176002137436 -23.066026442611637 1.762479051592436e-14
  endloop
endfacet
facet normal -2.747488261138764e-18 -2.976408553791713e-18 -1.0
  outer loop
    vertex -24.627176002137436 -23.066026442611637 1.762479051592436e-14
    vertex -18.333969 23.363489 0.0
    vertex -24.21386287175344 -22.747019160657704 1.762479051592436e-14
  endloop
endfacet
facet normal -2.747488261138764e-18 -2.976408553791713e-18 -1.0
  outer loop
    vertex -24.21386287175344 -22.747019160657704 1.762479051592436e-14
    vertex -18.333969 23.363489 0.0
    vertex -23.732067884675093 -22.545855097978436 1.762479051592436e-14
  endloop
endfacet
facet normal -2.747488261138764e-18 -2.976408553791713e-18 -1.0
  outer loop
    vertex -23.732067884675093 -22.545855097978436 1.762479051592436e-14
    vertex -18.333969 23.363489 0.0
    vertex -23.21462457306792 -22.4762432530061 1.762479051592436e-14
  endloop
endfacet
facet normal -2.747488261138764e-18 -2.976408553791713e-18 -1.0
  outer loop
    vertex -23.21462457306792 -22.4762432530061 1.762479051592436e-14
    vertex -18.333969 23.363489 0.0
    vertex -22.696795843502443 -22.542927557936544 1.762479051592436e-14
  endloop
endfacet
facet normal -2.747488261138764e-18 -2.976408553791713e-18 -1.0
  outer loop
    vertex -22.696795843502443 -22.542927557936544 1.762479051592436e-14
    vertex -18.333969 23.363489 0.0
    vertex -22.213870868146113 -22.74136358758978 1.762479051592436e-14
  endloop
endfacet
facet normal -2.747488261138764e-18 -2.976408553791713e-18 -1.0
  outer loop
    vertex -22.213870868146113 -22.74136358758978 1.762479051592436e-14
    vertex -18.333969 23.363489 0.0
    vertex -21.79876018599821 -23.058028254475992 1.762479051592436e-14
  endloop
endfacet
facet normal -2.747488261138764e-18 -2.976408553791713e-18 -1.0
  outer loop
    vertex -21.79876018599821 -23.058028254475992 1.762479051592436e-14
    vertex -18.333969 23.363489 0.0
    vertex -21.479752904044272 -23.471341384859983 1.762479051592436e-14
  endloop
endfacet
facet normal -2.747488261138764e-18 -2.976408553791713e-18 -1.0
  outer loop
    vertex -21.479752904044272 -23.471341384859983 1.762479051592436e-14
    vertex -18.333969 23.363489 0.0
    vertex -21.278588841365004 -23.95313637193833 1.762479051592436e-14
  endloop
endfacet
facet normal -2.747488261138764e-18 -2.976408553791713e-18 -1.0
  outer loop
    vertex -21.278588841365004 -23.95313637193833 1.762479051592436e-14
    vertex -18.333969 23.363489 0.0
    vertex -21.208976996392668 -24.470579683545505 1.762479051592436e-14
  endloop
endfacet
facet normal -2.747488261138764e-18 -2.976408553791713e-18 -1.0
  outer loop
    vertex -21.208976996392668 -24.470579683545505 1.762479051592436e-14
    vertex -18.333969 23.363489 0.0
    vertex -20.620778548974783 -29.455776262890684 0.0
  endloop
endfacet
facet normal -2.747488261138764e-18 -2.976408553791713e-18 -1.0
  outer loop
    vertex -20.620778548974783 -29.455776262890684 0.0
    vertex -18.333969 23.363489 0.0
    vertex -18.333969 -28.508548733141023 0.0
  endloop
endfacet
facet normal -2.747488261138764e-18 -2.976408553791713e-18 -1.0
  outer loop
    vertex -18.333969 -28.508548733141023 0.0
    vertex -18.333969 23.363489 0.0
    vertex -18.333969 18.203482 2.114974861910923e-15
  endloop
endfacet
facet normal -2.747488261138764e-18 -2.976408553791713e-18 -1.0
  outer loop
    vertex -16.238384999999997 25.749531 0.0
    vertex -19.234298 24.359528999999995 0.0
    vertex -19.234298 25.749531 0.0
  endloop
endfacet
facet normal -2.747488261138764e-18 -2.976408553791713e-18 -1.0
  outer loop
    vertex -19.234298 24.359528999999995 0.0
    vertex -16.238384999999997 25.749531 0.0
    vertex -18.333969 24.359528999999995 0.0
  endloop
endfacet
facet normal -2.747488261138764e-18 -2.976408553791713e-18 -1.0
  outer loop
    vertex -18.333969 24.359528999999995 0.0
    vertex -16.238384999999997 25.749531 0.0
    vertex -18.333969 23.363489 0.0
  endloop
endfacet
facet normal -2.747488261138764e-18 -2.976408553791713e-18 -1.0
  outer loop
    vertex -18.333969 23.363489 0.0
    vertex -16.238384999999997 25.749531 0.0
    vertex -18.333969 18.203482 2.114974861910923e-15
  endloop
endfacet
facet normal -2.747488261138764e-18 -2.976408553791713e-18 -1.0
  outer loop
    vertex -18.333969 18.203482 2.114974861910923e-15
    vertex -16.238384999999997 25.749531 0.0
    vertex -16.238384999999997 20.203482 0.0
  endloop
endfacet
facet normal -2.747488261138764e-18 -2.976408553791713e-18 -1.0
  outer loop
    vertex -25.797159451025205 -29.455776262890684 5.287437154777307e-16
    vertex -25.139349158634992 -24.999334141288525 1.762479051592436e-14
    vertex -23.208969 -29.796518000000003 5.287437154777307e-16
  endloop
endfacet
facet normal -2.747488261138764e-18 -2.976408553791713e-18 -1.0
  outer loop
    vertex -25.139349158634992 -24.999334141288525 1.762479051592436e-14
    vertex -25.797159451025205 -29.455776262890684 5.287437154777307e-16
    vertex -25.20896100360733 -24.48189082968135 1.762479051592436e-14
  endloop
endfacet
facet normal -2.747488261138764e-18 -2.976408553791713e-18 -1.0
  outer loop
    vertex -23.208969 -29.796518000000003 5.287437154777307e-16
    vertex -25.139349158634992 -24.999334141288525 1.762479051592436e-14
    vertex -24.938185095955728 -25.48112912836687 1.762479051592436e-14
  endloop
endfacet
facet normal -2.747488261138764e-18 -2.976408553791713e-18 -1.0
  outer loop
    vertex -23.208969 -29.796518000000003 5.287437154777307e-16
    vertex -24.938185095955728 -25.48112912836687 1.762479051592436e-14
    vertex -24.619177814001787 -25.894442258750864 1.762479051592436e-14
  endloop
endfacet
facet normal -2.747488261138764e-18 -2.976408553791713e-18 -1.0
  outer loop
    vertex -23.208969 -29.796518000000003 5.287437154777307e-16
    vertex -24.619177814001787 -25.894442258750864 1.762479051592436e-14
    vertex -24.204067131853886 -26.211106925637075 1.762479051592436e-14
  endloop
endfacet
facet normal -2.747488261138764e-18 -2.976408553791713e-18 -1.0
  outer loop
    vertex -23.208969 -29.796518000000003 5.287437154777307e-16
    vertex -24.204067131853886 -26.211106925637075 1.762479051592436e-14
    vertex -23.721142156497557 -26.409542955290313 1.762479051592436e-14
  endloop
endfacet
facet normal -2.747488261138764e-18 -2.976408553791713e-18 -1.0
  outer loop
    vertex -23.208969 -29.796518000000003 5.287437154777307e-16
    vertex -23.721142156497557 -26.409542955290313 1.762479051592436e-14
    vertex -23.20331342693208 -26.476227260220757 1.762479051592436e-14
  endloop
endfacet
facet normal -2.747488261138764e-18 -2.976408553791713e-18 -1.0
  outer loop
    vertex -23.208969 -29.796518000000003 5.287437154777307e-16
    vertex -23.20331342693208 -26.476227260220757 1.762479051592436e-14
    vertex -20.620778548974783 -29.455776262890684 0.0
  endloop
endfacet
facet normal -2.747488261138764e-18 -2.976408553791713e-18 -1.0
  outer loop
    vertex -20.620778548974783 -29.455776262890684 0.0
    vertex -23.20331342693208 -26.476227260220757 1.762479051592436e-14
    vertex -22.685870115324903 -26.40661541524842 1.762479051592436e-14
  endloop
endfacet
facet normal -2.747488261138764e-18 -2.976408553791713e-18 -1.0
  outer loop
    vertex -20.620778548974783 -29.455776262890684 0.0
    vertex -22.685870115324903 -26.40661541524842 1.762479051592436e-14
    vertex -22.204075128246554 -26.205451352569153 1.762479051592436e-14
  endloop
endfacet
facet normal -2.747488261138764e-18 -2.976408553791713e-18 -1.0
  outer loop
    vertex -20.620778548974783 -29.455776262890684 0.0
    vertex -22.204075128246554 -26.205451352569153 1.762479051592436e-14
    vertex -21.79076199786256 -25.88644407061522 1.762479051592436e-14
  endloop
endfacet
facet normal -2.747488261138764e-18 -2.976408553791713e-18 -1.0
  outer loop
    vertex -20.620778548974783 -29.455776262890684 0.0
    vertex -21.79076199786256 -25.88644407061522 1.762479051592436e-14
    vertex -21.474097330976353 -25.471333388467315 1.762479051592436e-14
  endloop
endfacet
facet normal -2.747488261138764e-18 -2.976408553791713e-18 -1.0
  outer loop
    vertex -20.620778548974783 -29.455776262890684 0.0
    vertex -21.474097330976353 -25.471333388467315 1.762479051592436e-14
    vertex -21.275661301323108 -24.988408413110985 1.762479051592436e-14
  endloop
endfacet
facet normal -2.747488261138764e-18 -2.976408553791713e-18 -1.0
  outer loop
    vertex -20.620778548974783 -29.455776262890684 0.0
    vertex -21.275661301323108 -24.988408413110985 1.762479051592436e-14
    vertex -21.208976996392668 -24.470579683545505 1.762479051592436e-14
  endloop
endfacet
facet normal -2.747488261138764e-18 -2.976408553791713e-18 -1.0
  outer loop
    vertex -30.260222999999996 25.749531 0.0
    vertex -28.083969 24.359528999999995 0.0
    vertex -30.260222999999996 20.203482 0.0
  endloop
endfacet
facet normal -2.747488261138764e-18 -2.976408553791713e-18 -1.0
  outer loop
    vertex -28.083969 24.359528999999995 0.0
    vertex -30.260222999999996 25.749531 0.0
    vertex -27.260225 25.749531 0.0
  endloop
endfacet
facet normal -2.747488261138764e-18 -2.976408553791713e-18 -1.0
  outer loop
    vertex -28.083969 24.359528999999995 0.0
    vertex -27.260225 25.749531 0.0
    vertex -27.260225 24.359528999999995 0.0
  endloop
endfacet
facet normal -0.6065155611686565 -0.795071615680166 -4.1585564081972886e-32
  outer loop
    vertex -21.79876018599821 -23.058028254475992 3.0
    vertex -22.213870868146113 -22.74136358758978 1.762479051592436e-14
    vertex -21.79876018599821 -23.058028254475992 1.762479051592436e-14
  endloop
endfacet
facet normal -0.6065155611686565 -0.795071615680166 -4.1585564081972886e-32
  outer loop
    vertex -22.213870868146113 -22.74136358758978 1.762479051592436e-14
    vertex -21.79876018599821 -23.058028254475992 3.0
    vertex -22.213870868146113 -22.74136358758978 3.0
  endloop
endfacet
facet normal -0.795071615680164 0.6065155611686591 -2.0369830057570126e-32
  outer loop
    vertex -21.474097330976353 -25.471333388467315 3.0
    vertex -21.79076199786256 -25.88644407061522 1.762479051592436e-14
    vertex -21.79076199786256 -25.88644407061522 3.0
  endloop
endfacet
facet normal -0.795071615680164 0.6065155611686591 -2.0369830057570126e-32
  outer loop
    vertex -21.79076199786256 -25.88644407061522 1.762479051592436e-14
    vertex -21.474097330976353 -25.471333388467315 3.0
    vertex -21.474097330976353 -25.471333388467315 1.762479051592436e-14
  endloop
endfacet
facet normal -0.9249579857163381 0.3800693682205583 -3.0438880915472177e-32
  outer loop
    vertex -21.275661301323108 -24.988408413110985 3.0
    vertex -21.474097330976353 -25.471333388467315 1.762479051592436e-14
    vertex -21.474097330976353 -25.471333388467315 3.0
  endloop
endfacet
facet normal -0.9249579857163381 0.3800693682205583 -3.0438880915472177e-32
  outer loop
    vertex -21.474097330976353 -25.471333388467315 1.762479051592436e-14
    vertex -21.275661301323108 -24.988408413110985 3.0
    vertex -21.275661301323108 -24.988408413110985 1.762479051592436e-14
  endloop
endfacet
facet normal -0.99180999759129 0.12772207592254942 -3.843357234161409e-32
  outer loop
    vertex -21.208976996392668 -24.470579683545505 3.0
    vertex -21.275661301323108 -24.988408413110985 1.762479051592436e-14
    vertex -21.275661301323108 -24.988408413110985 3.0
  endloop
endfacet
facet normal -0.99180999759129 0.12772207592254942 -3.843357234161409e-32
  outer loop
    vertex -21.275661301323108 -24.988408413110985 1.762479051592436e-14
    vertex -21.208976996392668 -24.470579683545505 3.0
    vertex -21.208976996392668 -24.470579683545505 1.762479051592436e-14
  endloop
endfacet
facet normal -0.9227936916027148 -0.385294436422632 -4.6199069954479347e-32
  outer loop
    vertex -21.479752904044272 -23.471341384859983 3.0
    vertex -21.278588841365004 -23.95313637193833 1.762479051592436e-14
    vertex -21.278588841365004 -23.95313637193833 3.0
  endloop
endfacet
facet normal -0.9227936916027148 -0.385294436422632 -4.6199069954479347e-32
  outer loop
    vertex -21.278588841365004 -23.95313637193833 1.762479051592436e-14
    vertex -21.479752904044272 -23.471341384859983 3.0
    vertex -21.479752904044272 -23.471341384859983 1.762479051592436e-14
  endloop
endfacet
facet normal -0.38006936822055565 -0.9249579857163394 -3.489647038317577e-32
  outer loop
    vertex -22.213870868146113 -22.74136358758978 3.0
    vertex -22.696795843502443 -22.542927557936544 1.762479051592436e-14
    vertex -22.213870868146113 -22.74136358758978 1.762479051592436e-14
  endloop
endfacet
facet normal -0.38006936822055565 -0.9249579857163394 -3.489647038317577e-32
  outer loop
    vertex -22.696795843502443 -22.542927557936544 1.762479051592436e-14
    vertex -22.213870868146113 -22.74136358758978 3.0
    vertex -22.696795843502443 -22.542927557936544 3.0
  endloop
endfacet
facet normal 0.385294436422632 -0.9227936916027148 -3.151991740358845e-33
  outer loop
    vertex -23.732067884675093 -22.545855097978436 3.0
    vertex -24.21386287175344 -22.747019160657704 1.762479051592436e-14
    vertex -23.732067884675093 -22.545855097978436 1.762479051592436e-14
  endloop
endfacet
facet normal 0.385294436422632 -0.9227936916027148 -3.151991740358845e-33
  outer loop
    vertex -24.21386287175344 -22.747019160657704 1.762479051592436e-14
    vertex -23.732067884675093 -22.545855097978436 3.0
    vertex -24.21386287175344 -22.747019160657704 3.0
  endloop
endfacet
facet normal 0.1333292647788626 -0.9910717971739123 -1.5001789396505534e-32
  outer loop
    vertex -23.21462457306792 -22.4762432530061 3.0
    vertex -23.732067884675093 -22.545855097978436 1.762479051592436e-14
    vertex -23.21462457306792 -22.4762432530061 1.762479051592436e-14
  endloop
endfacet
facet normal 0.1333292647788626 -0.9910717971739123 -1.5001789396505534e-32
  outer loop
    vertex -23.732067884675093 -22.545855097978436 1.762479051592436e-14
    vertex -23.21462457306792 -22.4762432530061 3.0
    vertex -23.732067884675093 -22.545855097978436 3.0
  endloop
endfacet
facet normal -0.12772207592254942 -0.99180999759129 -2.582923989690914e-32
  outer loop
    vertex -22.696795843502443 -22.542927557936544 3.0
    vertex -23.21462457306792 -22.4762432530061 1.762479051592436e-14
    vertex -22.696795843502443 -22.542927557936544 1.762479051592436e-14
  endloop
endfacet
facet normal -0.12772207592254942 -0.99180999759129 -2.582923989690914e-32
  outer loop
    vertex -23.21462457306792 -22.4762432530061 1.762479051592436e-14
    vertex -22.696795843502443 -22.542927557936544 3.0
    vertex -23.21462457306792 -22.4762432530061 3.0
  endloop
endfacet
facet normal -0.7916287209374753 -0.6110024289533531 -4.5440670311977684e-32
  outer loop
    vertex -21.79876018599821 -23.058028254475992 3.0
    vertex -21.479752904044272 -23.471341384859983 1.762479051592436e-14
    vertex -21.479752904044272 -23.471341384859983 3.0
  endloop
endfacet
facet normal -0.7916287209374753 -0.6110024289533531 -4.5440670311977684e-32
  outer loop
    vertex -21.479752904044272 -23.471341384859983 1.762479051592436e-14
    vertex -21.79876018599821 -23.058028254475992 3.0
    vertex -21.79876018599821 -23.058028254475992 1.762479051592436e-14
  endloop
endfacet
facet normal -0.9910717971739116 -0.1333292647788679 -4.380907932715624e-32
  outer loop
    vertex -21.278588841365004 -23.95313637193833 3.0
    vertex -21.208976996392668 -24.470579683545505 1.762479051592436e-14
    vertex -21.208976996392668 -24.470579683545505 3.0
  endloop
endfacet
facet normal -0.9910717971739116 -0.1333292647788679 -4.380907932715624e-32
  outer loop
    vertex -21.208976996392668 -24.470579683545505 1.762479051592436e-14
    vertex -21.278588841365004 -23.95313637193833 3.0
    vertex -21.278588841365004 -23.95313637193833 1.762479051592436e-14
  endloop
endfacet
facet normal -1.0 0.0 0.0
  outer loop
    vertex -18.333969 24.359528999999995 7.999999999999999
    vertex -18.333969 20.203482 3.0
    vertex -18.333969 20.203482 7.999999999999999
  endloop
endfacet
facet normal -1.0 0.0 0.0
  outer loop
    vertex -18.333969 20.203482 3.0
    vertex -18.333969 24.359528999999995 7.999999999999999
    vertex -18.333969 23.363489 3.0
  endloop
endfacet
facet normal -1.0 0.0 0.0
  outer loop
    vertex -18.333969 23.363489 3.0
    vertex -18.333969 24.359528999999995 7.999999999999999
    vertex -18.333969 23.363489 0.0
  endloop
endfacet
facet normal -1.0 0.0 0.0
  outer loop
    vertex -18.333969 23.363489 0.0
    vertex -18.333969 24.359528999999995 7.999999999999999
    vertex -18.333969 24.359528999999995 0.0
  endloop
endfacet
facet normal -1.0 0.0 0.0
  outer loop
    vertex -19.234298 25.749531 7.999999999999999
    vertex -19.234298 24.359528999999995 0.0
    vertex -19.234298 24.359528999999995 7.999999999999999
  endloop
endfacet
facet normal -1.0 0.0 0.0
  outer loop
    vertex -19.234298 24.359528999999995 0.0
    vertex -19.234298 25.749531 7.999999999999999
    vertex -19.234298 25.749531 0.0
  endloop
endfacet
facet normal 0.0 -1.0 0.0
  outer loop
    vertex -18.333969 24.359528999999995 7.999999999999999
    vertex -19.234298 24.359528999999995 0.0
    vertex -18.333969 24.359528999999995 0.0
  endloop
endfacet
facet normal 0.0 -1.0 0.0
  outer loop
    vertex -19.234298 24.359528999999995 0.0
    vertex -18.333969 24.359528999999995 7.999999999999999
    vertex -19.234298 24.359528999999995 7.999999999999999
  endloop
endfacet
facet normal -0.0 1.0 -0.0
  outer loop
    vertex -19.234298 25.749531 7.999999999999999
    vertex -16.238384999999997 25.749531 0.0
    vertex -19.234298 25.749531 0.0
  endloop
endfacet
facet normal -0.0 1.0 -0.0
  outer loop
    vertex -16.238384999999997 25.749531 0.0
    vertex -19.234298 25.749531 7.999999999999999
    vertex -16.238384999999997 25.749531 7.999999999999999
  endloop
endfacet
facet normal 1.0 -0.0 -0.0
  outer loop
    vertex -28.083969 24.359528999999995 0.0
    vertex -28.083969 23.363489 3.0
    vertex -28.083969 23.363489 0.0
  endloop
endfacet
facet normal 1.0 -0.0 -0.0
  outer loop
    vertex -16.238384999999997 25.749531 0.0
    vertex -16.238384999999997 20.203482 3.000000000000001
    vertex -16.238384999999997 20.203482 0.0
  endloop
endfacet
facet normal 1.0 -0.0 -0.0
  outer loop
    vertex -16.238384999999997 20.203482 3.000000000000001
    vertex -16.238384999999997 25.749531 0.0
    vertex -16.238384999999997 20.203482 7.999999999999999
  endloop
endfacet
facet normal 1.0 -0.0 -0.0
  outer loop
    vertex -16.238384999999997 20.203482 7.999999999999999
    vertex -16.238384999999997 25.749531 0.0
    vertex -16.238384999999997 25.749531 7.999999999999999
  endloop
endfacet
facet normal 0.0 -1.0 0.0
  outer loop
    vertex -27.260225 24.359528999999995 7.999999999999999
    vertex -28.083969 24.359528999999995 0.0
    vertex -27.260225 24.359528999999995 0.0
  endloop
endfacet
facet normal 0.0 -1.0 0.0
  outer loop
    vertex -28.083969 24.359528999999995 0.0
    vertex -27.260225 24.359528999999995 7.999999999999999
    vertex -28.083969 24.359528999999995 7.999999999999999
  endloop
endfacet
facet normal -0.0 1.0 -0.0
  outer loop
    vertex -30.260222999999996 25.749531 7.999999999999999
    vertex -27.260225 25.749531 0.0
    vertex -30.260222999999996 25.749531 0.0
  endloop
endfacet
facet normal -0.0 1.0 -0.0
  outer loop
    vertex -27.260225 25.749531 0.0
    vertex -30.260222999999996 25.749531 7.999999999999999
    vertex -27.260225 25.749531 7.999999999999999
  endloop
endfacet
facet normal 0.0 -1.0 0.0
  outer loop
    vertex -28.083969 20.203482 7.999999999999999
    vertex -30.260222999999996 20.203482 3.000000000000001
    vertex -28.083969 20.203482 3.0
  endloop
endfacet
facet normal 0.0 -1.0 0.0
  outer loop
    vertex -30.260222999999996 20.203482 3.000000000000001
    vertex -28.083969 20.203482 7.999999999999999
    vertex -30.260222999999996 20.203482 7.999999999999999
  endloop
endfacet
facet normal 1.0 -0.0 -0.0
  outer loop
    vertex -28.083969 23.363489 3.0
    vertex -28.083969 20.203482 7.999999999999999
    vertex -28.083969 20.203482 3.0
  endloop
endfacet
facet normal 1.0 -0.0 -0.0
  outer loop
    vertex -28.083969 20.203482 7.999999999999999
    vertex -28.083969 23.363489 3.0
    vertex -28.083969 24.359528999999995 7.999999999999999
  endloop
endfacet
facet normal 1.0 -0.0 -0.0
  outer loop
    vertex -28.083969 24.359528999999995 7.999999999999999
    vertex -28.083969 23.363489 3.0
    vertex -28.083969 24.359528999999995 0.0
  endloop
endfacet
facet normal -0.0 -0.0 1.0
  outer loop
    vertex -16.238384999999997 20.203482 7.999999999999999
    vertex -18.333969 24.359528999999995 7.999999999999999
    vertex -18.333969 20.203482 7.999999999999999
  endloop
endfacet
facet normal -0.0 -0.0 1.0
  outer loop
    vertex -18.333969 24.359528999999995 7.999999999999999
    vertex -19.234298 25.749531 7.999999999999999
    vertex -19.234298 24.359528999999995 7.999999999999999
  endloop
endfacet
facet normal -0.0 -0.0 1.0
  outer loop
    vertex -19.234298 25.749531 7.999999999999999
    vertex -18.333969 24.359528999999995 7.999999999999999
    vertex -16.238384999999997 25.749531 7.999999999999999
  endloop
endfacet
facet normal -0.0 -0.0 1.0
  outer loop
    vertex -16.238384999999997 25.749531 7.999999999999999
    vertex -18.333969 24.359528999999995 7.999999999999999
    vertex -16.238384999999997 20.203482 7.999999999999999
  endloop
endfacet
facet normal 1.0 -0.0 -0.0
  outer loop
    vertex -27.260225 25.749531 0.0
    vertex -27.260225 24.359528999999995 7.999999999999999
    vertex -27.260225 24.359528999999995 0.0
  endloop
endfacet
facet normal 1.0 -0.0 -0.0
  outer loop
    vertex -27.260225 24.359528999999995 7.999999999999999
    vertex -27.260225 25.749531 0.0
    vertex -27.260225 25.749531 7.999999999999999
  endloop
endfacet
facet normal -1.0 0.0 0.0
  outer loop
    vertex -30.260222999999996 25.749531 7.999999999999999
    vertex -30.260222999999996 20.203482 3.000000000000001
    vertex -30.260222999999996 20.203482 7.999999999999999
  endloop
endfacet
facet normal -1.0 0.0 0.0
  outer loop
    vertex -30.260222999999996 20.203482 3.000000000000001
    vertex -30.260222999999996 25.749531 7.999999999999999
    vertex -30.260222999999996 20.203482 0.0
  endloop
endfacet
facet normal -1.0 0.0 0.0
  outer loop
    vertex -30.260222999999996 20.203482 0.0
    vertex -30.260222999999996 25.749531 7.999999999999999
    vertex -30.260222999999996 25.749531 0.0
  endloop
endfacet
facet normal 0.0 -1.0 0.0
  outer loop
    vertex -16.238384999999997 20.203482 3.000000000000001
    vertex -18.333969 20.203482 7.999999999999999
    vertex -18.333969 20.203482 3.0
  endloop
endfacet
facet normal 0.0 -1.0 0.0
  outer loop
    vertex -18.333969 20.203482 7.999999999999999
    vertex -16.238384999999997 20.203482 3.000000000000001
    vertex -16.238384999999997 20.203482 7.999999999999999
  endloop
endfacet
facet normal -0.0 -0.0 1.0
  outer loop
    vertex -28.083969 20.203482 7.999999999999999
    vertex -30.260222999999996 25.749531 7.999999999999999
    vertex -30.260222999999996 20.203482 7.999999999999999
  endloop
endfacet
facet normal -0.0 -0.0 1.0
  outer loop
    vertex -30.260222999999996 25.749531 7.999999999999999
    vertex -28.083969 20.203482 7.999999999999999
    vertex -28.083969 24.359528999999995 7.999999999999999
  endloop
endfacet
facet normal -0.0 -0.0 1.0
  outer loop
    vertex -30.260222999999996 25.749531 7.999999999999999
    vertex -28.083969 24.359528999999995 7.999999999999999
    vertex -27.260225 25.749531 7.999999999999999
  endloop
endfacet
facet normal -0.0 -0.0 1.0
  outer loop
    vertex -27.260225 25.749531 7.999999999999999
    vertex -28.083969 24.359528999999995 7.999999999999999
    vertex -27.260225 24.359528999999995 7.999999999999999
  endloop
endfacet
facet normal 0.3826834323650924 -0.9238795325112857 0.0
  outer loop
    vertex -18.333969 -28.508548733141023 3.0
    vertex -20.620778548974783 -29.455776262890684 0.0
    vertex -18.333969 -28.508548733141023 0.0
  endloop
endfacet
facet normal 0.3826834323650924 -0.9238795325112857 0.0
  outer loop
    vertex -20.620778548974783 -29.455776262890684 0.0
    vertex -18.333969 -28.508548733141023 3.0
    vertex -20.620778548974783 -29.455776262890684 3.0
  endloop
endfacet
facet normal 0.795071615680164 -0.6065155611686591 2.0369830057570126e-32
  outer loop
    vertex -24.627176002137436 -23.066026442611637 1.762479051592436e-14
    vertex -24.943840669023647 -23.48113712475954 3.0
    vertex -24.943840669023647 -23.48113712475954 1.762479051592436e-14
  endloop
endfacet
facet normal 0.795071615680164 -0.6065155611686591 2.0369830057570126e-32
  outer loop
    vertex -24.943840669023647 -23.48113712475954 3.0
    vertex -24.627176002137436 -23.066026442611637 1.762479051592436e-14
    vertex -24.627176002137436 -23.066026442611637 3.0
  endloop
endfacet
facet normal 0.6110024289533531 -0.7916287209374753 8.912608943980274e-33
  outer loop
    vertex -24.21386287175344 -22.747019160657704 3.0
    vertex -24.627176002137436 -23.066026442611637 1.762479051592436e-14
    vertex -24.21386287175344 -22.747019160657704 1.762479051592436e-14
  endloop
endfacet
facet normal 0.6110024289533531 -0.7916287209374753 8.912608943980274e-33
  outer loop
    vertex -24.627176002137436 -23.066026442611637 1.762479051592436e-14
    vertex -24.21386287175344 -22.747019160657704 3.0
    vertex -24.627176002137436 -23.066026442611637 3.0
  endloop
endfacet
facet normal 0.9249579857163401 -0.38006936822055376 3.043888091547236e-32
  outer loop
    vertex -24.943840669023647 -23.48113712475954 1.762479051592436e-14
    vertex -25.142276698676884 -23.96406210011587 3.0
    vertex -25.142276698676884 -23.96406210011587 1.762479051592436e-14
  endloop
endfacet
facet normal 0.9249579857163401 -0.38006936822055376 3.043888091547236e-32
  outer loop
    vertex -25.142276698676884 -23.96406210011587 3.0
    vertex -24.943840669023647 -23.48113712475954 1.762479051592436e-14
    vertex -24.943840669023647 -23.48113712475954 3.0
  endloop
endfacet
facet normal 0.9910717971739116 0.1333292647788679 4.380907932715624e-32
  outer loop
    vertex -25.20896100360733 -24.48189082968135 1.762479051592436e-14
    vertex -25.139349158634992 -24.999334141288525 3.0
    vertex -25.139349158634992 -24.999334141288525 1.762479051592436e-14
  endloop
endfacet
facet normal 0.9910717971739116 0.1333292647788679 4.380907932715624e-32
  outer loop
    vertex -25.139349158634992 -24.999334141288525 3.0
    vertex -25.20896100360733 -24.48189082968135 1.762479051592436e-14
    vertex -25.20896100360733 -24.48189082968135 3.0
  endloop
endfacet
facet normal 0.9918099975912894 -0.12772207592255475 3.8433572341613963e-32
  outer loop
    vertex -25.142276698676884 -23.96406210011587 1.762479051592436e-14
    vertex -25.20896100360733 -24.48189082968135 3.0
    vertex -25.20896100360733 -24.48189082968135 1.762479051592436e-14
  endloop
endfacet
facet normal 0.9918099975912894 -0.12772207592255475 3.8433572341613963e-32
  outer loop
    vertex -25.20896100360733 -24.48189082968135 3.0
    vertex -25.142276698676884 -23.96406210011587 1.762479051592436e-14
    vertex -25.142276698676884 -23.96406210011587 3.0
  endloop
endfacet
facet normal 1.8278292011438094e-19 1.9347701680523355e-18 1.0
  outer loop
    vertex -25.797159451025205 -29.455776262890684 3.0
    vertex -25.139349158634992 -24.999334141288525 3.0
    vertex -25.20896100360733 -24.48189082968135 3.0
  endloop
endfacet
facet normal 1.8278292011438094e-19 1.9347701680523355e-18 1.0
  outer loop
    vertex -25.139349158634992 -24.999334141288525 3.0
    vertex -25.797159451025205 -29.455776262890684 3.0
    vertex -23.208969 -29.796518000000003 3.0
  endloop
endfacet
facet normal 1.8278292011438094e-19 1.9347701680523355e-18 1.0
  outer loop
    vertex -25.139349158634992 -24.999334141288525 3.0
    vertex -23.208969 -29.796518000000003 3.0
    vertex -24.938185095955728 -25.48112912836687 3.0
  endloop
endfacet
facet normal 1.8278292011438094e-19 1.9347701680523355e-18 1.0
  outer loop
    vertex -24.938185095955728 -25.48112912836687 3.0
    vertex -23.208969 -29.796518000000003 3.0
    vertex -24.619177814001787 -25.894442258750864 3.0
  endloop
endfacet
facet normal 1.8278292011438094e-19 1.9347701680523355e-18 1.0
  outer loop
    vertex -24.619177814001787 -25.894442258750864 3.0
    vertex -23.208969 -29.796518000000003 3.0
    vertex -24.204067131853886 -26.211106925637075 3.0
  endloop
endfacet
facet normal 1.8278292011438094e-19 1.9347701680523355e-18 1.0
  outer loop
    vertex -24.204067131853886 -26.211106925637075 3.0
    vertex -23.208969 -29.796518000000003 3.0
    vertex -23.721142156497557 -26.409542955290313 3.0
  endloop
endfacet
facet normal 1.8278292011438094e-19 1.9347701680523355e-18 1.0
  outer loop
    vertex -23.721142156497557 -26.409542955290313 3.0
    vertex -23.208969 -29.796518000000003 3.0
    vertex -23.20331342693208 -26.476227260220757 3.0
  endloop
endfacet
facet normal 1.8278292011438094e-19 1.9347701680523355e-18 1.0
  outer loop
    vertex -23.20331342693208 -26.476227260220757 3.0
    vertex -23.208969 -29.796518000000003 3.0
    vertex -20.620778548974783 -29.455776262890684 3.0
  endloop
endfacet
facet normal 1.8278292011438094e-19 1.9347701680523355e-18 1.0
  outer loop
    vertex -23.20331342693208 -26.476227260220757 3.0
    vertex -20.620778548974783 -29.455776262890684 3.0
    vertex -22.685870115324903 -26.40661541524842 3.0
  endloop
endfacet
facet normal 1.8278292011438094e-19 1.9347701680523355e-18 1.0
  outer loop
    vertex -22.685870115324903 -26.40661541524842 3.0
    vertex -20.620778548974783 -29.455776262890684 3.0
    vertex -22.204075128246554 -26.205451352569153 3.0
  endloop
endfacet
facet normal 1.8278292011438094e-19 1.9347701680523355e-18 1.0
  outer loop
    vertex -22.204075128246554 -26.205451352569153 3.0
    vertex -20.620778548974783 -29.455776262890684 3.0
    vertex -21.79076199786256 -25.88644407061522 3.0
  endloop
endfacet
facet normal 1.8278292011438094e-19 1.9347701680523355e-18 1.0
  outer loop
    vertex -21.79076199786256 -25.88644407061522 3.0
    vertex -20.620778548974783 -29.455776262890684 3.0
    vertex -21.474097330976353 -25.471333388467315 3.0
  endloop
endfacet
facet normal 1.8278292011438094e-19 1.9347701680523355e-18 1.0
  outer loop
    vertex -21.474097330976353 -25.471333388467315 3.0
    vertex -20.620778548974783 -29.455776262890684 3.0
    vertex -21.275661301323108 -24.988408413110985 3.0
  endloop
endfacet
facet normal 1.8278292011438094e-19 1.9347701680523355e-18 1.0
  outer loop
    vertex -21.275661301323108 -24.988408413110985 3.0
    vertex -20.620778548974783 -29.455776262890684 3.0
    vertex -21.208976996392668 -24.470579683545505 3.0
  endloop
endfacet
facet normal 1.8278292011438094e-19 1.9347701680523355e-18 1.0
  outer loop
    vertex -16.238384999999997 20.203482 3.000000000000001
    vertex -18.333969 20.203482 3.0
    vertex -18.333969 18.203482 3.0
  endloop
endfacet
facet normal 1.8278292011438094e-19 1.9347701680523355e-18 1.0
  outer loop
    vertex -25.797159451025205 -29.455776262890684 3.0
    vertex -28.083969 18.203482 3.0
    vertex -28.083969 -28.508548733141023 3.0
  endloop
endfacet
facet normal 1.8278292011438094e-19 1.9347701680523355e-18 1.0
  outer loop
    vertex -28.083969 18.203482 3.0
    vertex -25.797159451025205 -29.455776262890684 3.0
    vertex -28.083969 20.203482 3.0
  endloop
endfacet
facet normal 1.8278292011438094e-19 1.9347701680523355e-18 1.0
  outer loop
    vertex -28.083969 20.203482 3.0
    vertex -25.797159451025205 -29.455776262890684 3.0
    vertex -28.083969 23.363489 3.0
  endloop
endfacet
facet normal 1.8278292011438094e-19 1.9347701680523355e-18 1.0
  outer loop
    vertex -28.083969 23.363489 3.0
    vertex -25.797159451025205 -29.455776262890684 3.0
    vertex -25.20896100360733 -24.48189082968135 3.0
  endloop
endfacet
facet normal 1.8278292011438094e-19 1.9347701680523355e-18 1.0
  outer loop
    vertex -28.083969 23.363489 3.0
    vertex -25.20896100360733 -24.48189082968135 3.0
    vertex -25.142276698676884 -23.96406210011587 3.0
  endloop
endfacet
facet normal 1.8278292011438094e-19 1.9347701680523355e-18 1.0
  outer loop
    vertex -28.083969 23.363489 3.0
    vertex -25.142276698676884 -23.96406210011587 3.0
    vertex -18.333969 23.363489 3.0
  endloop
endfacet
facet normal 1.8278292011438094e-19 1.9347701680523355e-18 1.0
  outer loop
    vertex -18.333969 23.363489 3.0
    vertex -25.142276698676884 -23.96406210011587 3.0
    vertex -24.943840669023647 -23.48113712475954 3.0
  endloop
endfacet
facet normal 1.8278292011438094e-19 1.9347701680523355e-18 1.0
  outer loop
    vertex -18.333969 23.363489 3.0
    vertex -24.943840669023647 -23.48113712475954 3.0
    vertex -24.627176002137436 -23.066026442611637 3.0
  endloop
endfacet
facet normal 1.8278292011438094e-19 1.9347701680523355e-18 1.0
  outer loop
    vertex -18.333969 23.363489 3.0
    vertex -24.627176002137436 -23.066026442611637 3.0
    vertex -24.21386287175344 -22.747019160657704 3.0
  endloop
endfacet
facet normal 1.8278292011438094e-19 1.9347701680523355e-18 1.0
  outer loop
    vertex -18.333969 23.363489 3.0
    vertex -24.21386287175344 -22.747019160657704 3.0
    vertex -23.732067884675093 -22.545855097978436 3.0
  endloop
endfacet
facet normal 1.8278292011438094e-19 1.9347701680523355e-18 1.0
  outer loop
    vertex -18.333969 23.363489 3.0
    vertex -23.732067884675093 -22.545855097978436 3.0
    vertex -23.21462457306792 -22.4762432530061 3.0
  endloop
endfacet
facet normal 1.8278292011438094e-19 1.9347701680523355e-18 1.0
  outer loop
    vertex -18.333969 23.363489 3.0
    vertex -23.21462457306792 -22.4762432530061 3.0
    vertex -22.696795843502443 -22.542927557936544 3.0
  endloop
endfacet
facet normal 1.8278292011438094e-19 1.9347701680523355e-18 1.0
  outer loop
    vertex -18.333969 23.363489 3.0
    vertex -22.696795843502443 -22.542927557936544 3.0
    vertex -22.213870868146113 -22.74136358758978 3.0
  endloop
endfacet
facet normal 1.8278292011438094e-19 1.9347701680523355e-18 1.0
  outer loop
    vertex -18.333969 23.363489 3.0
    vertex -22.213870868146113 -22.74136358758978 3.0
    vertex -21.79876018599821 -23.058028254475992 3.0
  endloop
endfacet
facet normal 1.8278292011438094e-19 1.9347701680523355e-18 1.0
  outer loop
    vertex -18.333969 23.363489 3.0
    vertex -21.79876018599821 -23.058028254475992 3.0
    vertex -21.479752904044272 -23.471341384859983 3.0
  endloop
endfacet
facet normal 1.8278292011438094e-19 1.9347701680523355e-18 1.0
  outer loop
    vertex -18.333969 23.363489 3.0
    vertex -21.479752904044272 -23.471341384859983 3.0
    vertex -21.278588841365004 -23.95313637193833 3.0
  endloop
endfacet
facet normal 1.8278292011438094e-19 1.9347701680523355e-18 1.0
  outer loop
    vertex -18.333969 23.363489 3.0
    vertex -21.278588841365004 -23.95313637193833 3.0
    vertex -21.208976996392668 -24.470579683545505 3.0
  endloop
endfacet
facet normal 1.8278292011438094e-19 1.9347701680523355e-18 1.0
  outer loop
    vertex -18.333969 23.363489 3.0
    vertex -21.208976996392668 -24.470579683545505 3.0
    vertex -20.620778548974783 -29.455776262890684 3.0
  endloop
endfacet
facet normal 1.8278292011438094e-19 1.9347701680523355e-18 1.0
  outer loop
    vertex -18.333969 23.363489 3.0
    vertex -20.620778548974783 -29.455776262890684 3.0
    vertex -18.333969 -28.508548733141023 3.0
  endloop
endfacet
facet normal 1.8278292011438094e-19 1.9347701680523355e-18 1.0
  outer loop
    vertex -18.333969 23.363489 3.0
    vertex -18.333969 -28.508548733141023 3.0
    vertex -18.333969 18.203482 3.0
  endloop
endfacet
facet normal 1.8278292011438094e-19 1.9347701680523355e-18 1.0
  outer loop
    vertex -18.333969 23.363489 3.0
    vertex -18.333969 18.203482 3.0
    vertex -18.333969 20.203482 3.0
  endloop
endfacet
facet normal 1.8278292011438094e-19 1.9347701680523355e-18 1.0
  outer loop
    vertex -28.083969 20.203482 3.0
    vertex -30.260222999999996 20.203482 3.000000000000001
    vertex -28.083969 18.203482 3.0
  endloop
endfacet
facet normal 0.13052619222005132 -0.9914448613738105 -3.4426867313273986e-18
  outer loop
    vertex -20.620778548974783 -29.455776262890684 3.0
    vertex -23.208969 -29.796518000000003 5.287437154777307e-16
    vertex -20.620778548974783 -29.455776262890684 0.0
  endloop
endfacet
facet normal 0.13052619222005132 -0.9914448613738105 -3.4426867313273986e-18
  outer loop
    vertex -23.208969 -29.796518000000003 5.287437154777307e-16
    vertex -20.620778548974783 -29.455776262890684 3.0
    vertex -23.208969 -29.796518000000003 3.0
  endloop
endfacet
facet normal 0.7916287209374726 0.6110024289533564 4.5440670311977645e-32
  outer loop
    vertex -24.938185095955728 -25.48112912836687 1.762479051592436e-14
    vertex -24.619177814001787 -25.894442258750864 3.0
    vertex -24.619177814001787 -25.894442258750864 1.762479051592436e-14
  endloop
endfacet
facet normal 0.7916287209374726 0.6110024289533564 4.5440670311977645e-32
  outer loop
    vertex -24.619177814001787 -25.894442258750864 3.0
    vertex -24.938185095955728 -25.48112912836687 1.762479051592436e-14
    vertex -24.938185095955728 -25.48112912836687 3.0
  endloop
endfacet
facet normal 0.6065155611686626 0.7950716156801615 4.158556408197304e-32
  outer loop
    vertex -24.619177814001787 -25.894442258750864 3.0
    vertex -24.204067131853886 -26.211106925637075 1.762479051592436e-14
    vertex -24.619177814001787 -25.894442258750864 1.762479051592436e-14
  endloop
endfacet
facet normal 0.6065155611686626 0.7950716156801615 4.158556408197304e-32
  outer loop
    vertex -24.204067131853886 -26.211106925637075 1.762479051592436e-14
    vertex -24.619177814001787 -25.894442258750864 3.0
    vertex -24.204067131853886 -26.211106925637075 3.0
  endloop
endfacet
facet normal 0.38006936822055565 0.9249579857163394 3.489647038317577e-32
  outer loop
    vertex -24.204067131853886 -26.211106925637075 3.0
    vertex -23.721142156497557 -26.409542955290313 1.762479051592436e-14
    vertex -24.204067131853886 -26.211106925637075 1.762479051592436e-14
  endloop
endfacet
facet normal 0.38006936822055565 0.9249579857163394 3.489647038317577e-32
  outer loop
    vertex -23.721142156497557 -26.409542955290313 1.762479051592436e-14
    vertex -24.204067131853886 -26.211106925637075 3.0
    vertex -23.721142156497557 -26.409542955290313 3.0
  endloop
endfacet
facet normal 0.12772207592254942 0.99180999759129 2.582923989690914e-32
  outer loop
    vertex -23.721142156497557 -26.409542955290313 3.0
    vertex -23.20331342693208 -26.476227260220757 1.762479051592436e-14
    vertex -23.721142156497557 -26.409542955290313 1.762479051592436e-14
  endloop
endfacet
facet normal 0.12772207592254942 0.99180999759129 2.582923989690914e-32
  outer loop
    vertex -23.20331342693208 -26.476227260220757 1.762479051592436e-14
    vertex -23.721142156497557 -26.409542955290313 3.0
    vertex -23.20331342693208 -26.476227260220757 3.0
  endloop
endfacet
facet normal -0.13332926477886187 0.9910717971739123 1.5001789396505564e-32
  outer loop
    vertex -23.20331342693208 -26.476227260220757 3.0
    vertex -22.685870115324903 -26.40661541524842 1.762479051592436e-14
    vertex -23.20331342693208 -26.476227260220757 1.762479051592436e-14
  endloop
endfacet
facet normal -0.13332926477886187 0.9910717971739123 1.5001789396505564e-32
  outer loop
    vertex -22.685870115324903 -26.40661541524842 1.762479051592436e-14
    vertex -23.20331342693208 -26.476227260220757 3.0
    vertex -22.685870115324903 -26.40661541524842 3.0
  endloop
endfacet
facet normal 0.9227936916027161 0.38529443642262934 4.619906995447934e-32
  outer loop
    vertex -25.139349158634992 -24.999334141288525 1.762479051592436e-14
    vertex -24.938185095955728 -25.48112912836687 3.0
    vertex -24.938185095955728 -25.48112912836687 1.762479051592436e-14
  endloop
endfacet
facet normal 0.9227936916027161 0.38529443642262934 4.619906995447934e-32
  outer loop
    vertex -24.938185095955728 -25.48112912836687 3.0
    vertex -25.139349158634992 -24.999334141288525 1.762479051592436e-14
    vertex -25.139349158634992 -24.999334141288525 3.0
  endloop
endfacet
facet normal -0.385294436422632 0.9227936916027148 3.151991740358845e-33
  outer loop
    vertex -22.685870115324903 -26.40661541524842 3.0
    vertex -22.204075128246554 -26.205451352569153 1.762479051592436e-14
    vertex -22.685870115324903 -26.40661541524842 1.762479051592436e-14
  endloop
endfacet
facet normal -0.385294436422632 0.9227936916027148 3.151991740358845e-33
  outer loop
    vertex -22.204075128246554 -26.205451352569153 1.762479051592436e-14
    vertex -22.685870115324903 -26.40661541524842 3.0
    vertex -22.204075128246554 -26.205451352569153 3.0
  endloop
endfacet
facet normal -0.6110024289533531 0.7916287209374753 -8.912608943980274e-33
  outer loop
    vertex -22.204075128246554 -26.205451352569153 3.0
    vertex -21.79076199786256 -25.88644407061522 1.762479051592436e-14
    vertex -22.204075128246554 -26.205451352569153 1.762479051592436e-14
  endloop
endfacet
facet normal -0.6110024289533531 0.7916287209374753 -8.912608943980274e-33
  outer loop
    vertex -21.79076199786256 -25.88644407061522 1.762479051592436e-14
    vertex -22.204075128246554 -26.205451352569153 3.0
    vertex -21.79076199786256 -25.88644407061522 3.0
  endloop
endfacet
facet normal -0.1305261922200517 -0.9914448613738105 -7.208137615909325e-33
  outer loop
    vertex -23.208969 -29.796518000000003 3.0
    vertex -25.797159451025205 -29.455776262890684 5.287437154777307e-16
    vertex -23.208969 -29.796518000000003 5.287437154777307e-16
  endloop
endfacet
facet normal -0.1305261922200517 -0.9914448613738105 -7.208137615909325e-33
  outer loop
    vertex -25.797159451025205 -29.455776262890684 5.287437154777307e-16
    vertex -23.208969 -29.796518000000003 3.0
    vertex -25.797159451025205 -29.455776262890684 3.0
  endloop
endfacet
facet normal -0.3826834323650911 -0.9238795325112862 0.0
  outer loop
    vertex -25.797159451025205 -29.455776262890684 3.0
    vertex -28.083969 -28.508548733141023 5.287437154777307e-16
    vertex -25.797159451025205 -29.455776262890684 5.287437154777307e-16
  endloop
endfacet
facet normal -0.3826834323650911 -0.9238795325112862 0.0
  outer loop
    vertex -28.083969 -28.508548733141023 5.287437154777307e-16
    vertex -25.797159451025205 -29.455776262890684 3.0
    vertex -28.083969 -28.508548733141023 3.0
  endloop
endfacet
facet normal -0.0 1.0 -0.0
  outer loop
    vertex -28.083969 23.363489 3.0
    vertex -18.333969 23.363489 0.0
    vertex -28.083969 23.363489 0.0
  endloop
endfacet
facet normal -0.0 1.0 -0.0
  outer loop
    vertex -18.333969 23.363489 0.0
    vertex -28.083969 23.363489 3.0
    vertex -18.333969 23.363489 3.0
  endloop
endfacet
facet normal 1.0 -0.0 -0.0
  outer loop
    vertex -18.333969 18.203482 2.114974861910923e-15
    vertex -18.333969 -28.508548733141023 3.0
    vertex -18.333969 -28.508548733141023 0.0
  endloop
endfacet
facet normal 1.0 -0.0 -0.0
  outer loop
    vertex -18.333969 -28.508548733141023 3.0
    vertex -18.333969 18.203482 2.114974861910923e-15
    vertex -18.333969 18.203482 3.0
  endloop
endfacet
facet normal -1.0 0.0 0.0
  outer loop
    vertex -28.083969 18.203482 3.0
    vertex -28.083969 -28.508548733141023 5.287437154777307e-16
    vertex -28.083969 -28.508548733141023 3.0
  endloop
endfacet
facet normal -1.0 0.0 0.0
  outer loop
    vertex -28.083969 -28.508548733141023 5.287437154777307e-16
    vertex -28.083969 18.203482 3.0
    vertex -28.083969 18.203482 1.4099832412739487e-15
  endloop
endfacet
facet normal -0.6766617971618925 -0.7362939713603786 -1.8538552977597455e-18
  outer loop
    vertex -28.083969 18.203482 1.4099832412739487e-15
    vertex -30.260222999999996 20.203482 3.000000000000001
    vertex -30.260222999999996 20.203482 0.0
  endloop
endfacet
facet normal -0.6766617971618925 -0.7362939713603786 -1.8538552977597455e-18
  outer loop
    vertex -30.260222999999996 20.203482 3.000000000000001
    vertex -28.083969 18.203482 1.4099832412739487e-15
    vertex -28.083969 18.203482 3.0
  endloop
endfacet
facet normal -0.6904161043265427 0.7234124707845176 2.6592758318868478e-17
  outer loop
    vertex -18.333969 18.203482 2.114974861910923e-15
    vertex -16.238384999999997 20.203482 3.000000000000001
    vertex -16.238384999999997 20.203482 0.0
  endloop
endfacet
facet normal -0.6904161043265427 0.7234124707845176 2.6592758318868478e-17
  outer loop
    vertex -16.238384999999997 20.203482 3.000000000000001
    vertex -18.333969 18.203482 2.114974861910923e-15
    vertex -18.333969 18.203482 3.0
  endloop
endfacet
endsolid Untitled-5b63e7e5
