solid OpenSCAD_Model
  facet normal 3.12435e-16 -2.29042e-16 -1
    outer loop
      vertex -21.8176 24.3595 0
      vertex -21.8176 18.2035 1.40998e-15
      vertex -24.8643 20.2035 0
    endloop
  endfacet
  facet normal -1 0 0
    outer loop
      vertex -21.8176 18.2035 1.40998e-15
      vertex -21.8176 24.3595 0
      vertex -21.8176 23.3635 0
    endloop
  endfacet
  facet normal 0 -2.73252e-16 -1
    outer loop
      vertex -21.8176 18.2035 1.40998e-15
      vertex -21.8176 23.3635 0
      vertex -8.16756 23.3635 0
    endloop
  endfacet
  facet normal -1.10426e-16 1.88653e-17 -1
    outer loop
      vertex -21.8176 18.2035 1.40998e-15
      vertex -8.16756 23.3635 0
      vertex -21.8176 -28.5085 5.28744e-16
    endloop
  endfacet
  facet normal 5.86556e-15 -1.55371e-15 -1
    outer loop
      vertex -21.8176 -28.5085 5.28744e-16
      vertex -8.16756 23.3635 0
      vertex -17.6992 -23.9641 1.76248e-14
    endloop
  endfacet
  facet normal 5.18131e-15 -9.33596e-16 -1
    outer loop
      vertex -21.8176 -28.5085 5.28744e-16
      vertex -17.6992 -23.9641 1.76248e-14
      vertex -17.7925 -24.4819 1.76248e-14
    endloop
  endfacet
  facet normal 9.69503e-16 3.27664e-15 -1
    outer loop
      vertex -21.8176 -28.5085 5.28744e-16
      vertex -17.7925 -24.4819 1.76248e-14
      vertex -18.616 -29.4558 5.28744e-16
    endloop
  endfacet
  facet normal 9.96366e-16 -5.73065e-16 -1
    outer loop
      vertex -17.6992 -23.9641 1.76248e-14
      vertex -8.16756 23.3635 0
      vertex -17.4214 -23.4811 1.76248e-14
    endloop
  endfacet
  facet normal 4.32145e-16 -4.61607e-16 -1
    outer loop
      vertex -17.4214 -23.4811 1.76248e-14
      vertex -8.16756 23.3635 0
      vertex -16.978 -23.066 1.76248e-14
    endloop
  endfacet
  facet normal 2.33741e-16 -4.23958e-16 -1
    outer loop
      vertex -16.978 -23.066 1.76248e-14
      vertex -8.16756 23.3635 0
      vertex -16.3994 -22.747 1.76248e-14
    endloop
  endfacet
  facet normal 1.20367e-16 -4.03718e-16 -1
    outer loop
      vertex -16.3994 -22.747 1.76248e-14
      vertex -8.16756 23.3635 0
      vertex -15.7249 -22.5459 1.76248e-14
    endloop
  endfacet
  facet normal 3.75328e-17 -3.90082e-16 -1
    outer loop
      vertex -15.7249 -22.5459 1.76248e-14
      vertex -8.16756 23.3635 0
      vertex -15.0005 -22.4762 1.76248e-14
    endloop
  endfacet
  facet normal -3.48943e-17 -3.79286e-16 -1
    outer loop
      vertex -15.0005 -22.4762 1.76248e-14
      vertex -8.16756 23.3635 0
      vertex -14.2755 -22.5429 1.76248e-14
    endloop
  endfacet
  facet normal -1.08482e-16 -3.69495e-16 -1
    outer loop
      vertex -14.2755 -22.5429 1.76248e-14
      vertex -8.16756 23.3635 0
      vertex -13.5994 -22.7414 1.76248e-14
    endloop
  endfacet
  facet normal -1.95712e-16 -3.59218e-16 -1
    outer loop
      vertex -13.5994 -22.7414 1.76248e-14
      vertex -8.16756 23.3635 0
      vertex -13.0183 -23.058 1.76248e-14
    endloop
  endfacet
  facet normal -3.20378e-16 -3.46191e-16 -1
    outer loop
      vertex -13.0183 -23.058 1.76248e-14
      vertex -8.16756 23.3635 0
      vertex -12.5717 -23.4713 1.76248e-14
    endloop
  endfacet
  facet normal -5.54455e-16 -3.2418e-16 -1
    outer loop
      vertex -12.5717 -23.4713 1.76248e-14
      vertex -8.16756 23.3635 0
      vertex -12.29 -23.9531 1.76248e-14
    endloop
  endfacet
  facet normal -1.35284e-15 -2.54621e-16 -1
    outer loop
      vertex -12.29 -23.9531 1.76248e-14
      vertex -8.16756 23.3635 0
      vertex -12.1926 -24.4706 1.76248e-14
    endloop
  endfacet
  facet normal -1.56572e-14 9.4903e-16 -1
    outer loop
      vertex -12.1926 -24.4706 1.76248e-14
      vertex -8.16756 23.3635 0
      vertex -11.3691 -29.4558 0
    endloop
  endfacet
  facet normal 0 0 -1
    outer loop
      vertex -11.3691 -29.4558 0
      vertex -8.16756 23.3635 0
      vertex -8.16756 -28.5085 0
    endloop
  endfacet
  facet normal 1 0 0
    outer loop
      vertex -8.16756 -28.5085 0
      vertex -8.16756 23.3635 0
      vertex -8.16756 18.2035 2.11497e-15
    endloop
  endfacet
  facet normal -0 0 -1
    outer loop
      vertex -5.23374 25.7495 0
      vertex -9.42802 24.3595 0
      vertex -9.42802 25.7495 0
    endloop
  endfacet
  facet normal 0 0 -1
    outer loop
      vertex -9.42802 24.3595 0
      vertex -5.23374 25.7495 0
      vertex -8.16756 24.3595 0
    endloop
  endfacet
  facet normal 0 0 -1
    outer loop
      vertex -8.16756 24.3595 0
      vertex -5.23374 25.7495 0
      vertex -8.16756 23.3635 0
    endloop
  endfacet
  facet normal 3.33343e-16 -4.09878e-16 -1
    outer loop
      vertex -8.16756 23.3635 0
      vertex -5.23374 25.7495 0
      vertex -8.16756 18.2035 2.11497e-15
    endloop
  endfacet
  facet normal -7.20893e-16 0 -1
    outer loop
      vertex -8.16756 18.2035 2.11497e-15
      vertex -5.23374 25.7495 0
      vertex -5.23374 20.2035 0
    endloop
  endfacet
  facet normal 3.53835e-16 3.76309e-15 -1
    outer loop
      vertex -18.616 -29.4558 5.28744e-16
      vertex -17.6951 -24.9993 1.76248e-14
      vertex -14.9926 -29.7965 5.28744e-16
    endloop
  endfacet
  facet normal 9.7146e-15 1.82876e-15 -1
    outer loop
      vertex -17.6951 -24.9993 1.76248e-14
      vertex -18.616 -29.4558 5.28744e-16
      vertex -17.7925 -24.4819 1.76248e-14
    endloop
  endfacet
  facet normal 1.68695e-13 9.85981e-14 -1
    outer loop
      vertex -14.9926 -29.7965 5.28744e-16
      vertex -17.6951 -24.9993 1.76248e-14
      vertex -17.4135 -25.4811 1.76248e-14
    endloop
  endfacet
  facet normal 7.62114e-15 8.23703e-15 -1
    outer loop
      vertex -14.9926 -29.7965 5.28744e-16
      vertex -17.4135 -25.4811 1.76248e-14
      vertex -16.9668 -25.8944 1.76248e-14
    endloop
  endfacet
  facet normal 3.29683e-15 6.04922e-15 -1
    outer loop
      vertex -14.9926 -29.7965 5.28744e-16
      vertex -16.9668 -25.8944 1.76248e-14
      vertex -16.3857 -26.2111 1.76248e-14
    endloop
  endfacet
  facet normal 1.5793e-15 5.38188e-15 -1
    outer loop
      vertex -14.9926 -29.7965 5.28744e-16
      vertex -16.3857 -26.2111 1.76248e-14
      vertex -15.7096 -26.4095 1.76248e-14
    endloop
  endfacet
  facet normal 4.73598e-16 5.14781e-15 -1
    outer loop
      vertex -14.9926 -29.7965 5.28744e-16
      vertex -15.7096 -26.4095 1.76248e-14
      vertex -14.9846 -26.4762 1.76248e-14
    endloop
  endfacet
  facet normal -6.30194e-16 5.15047e-15 -1
    outer loop
      vertex -14.9926 -29.7965 5.28744e-16
      vertex -14.9846 -26.4762 1.76248e-14
      vertex -11.3691 -29.4558 0
    endloop
  endfacet
  facet normal -5.08985e-16 5.29754e-15 -1
    outer loop
      vertex -11.3691 -29.4558 0
      vertex -14.9846 -26.4762 1.76248e-14
      vertex -14.2602 -26.4066 1.76248e-14
    endloop
  endfacet
  facet normal -1.34353e-15 4.50627e-15 -1
    outer loop
      vertex -11.3691 -29.4558 0
      vertex -14.2602 -26.4066 1.76248e-14
      vertex -13.5857 -26.2055 1.76248e-14
    endloop
  endfacet
  facet normal -2.17318e-15 3.94047e-15 -1
    outer loop
      vertex -11.3691 -29.4558 0
      vertex -13.5857 -26.2055 1.76248e-14
      vertex -13.0071 -25.8864 1.76248e-14
    endloop
  endfacet
  facet normal -3.23346e-15 3.45391e-15 -1
    outer loop
      vertex -11.3691 -29.4558 0
      vertex -13.0071 -25.8864 1.76248e-14
      vertex -12.5637 -25.4713 1.76248e-14
    endloop
  endfacet
  facet normal -5.05475e-15 2.90787e-15 -1
    outer loop
      vertex -11.3691 -29.4558 0
      vertex -12.5637 -25.4713 1.76248e-14
      vertex -12.2859 -24.9884 1.76248e-14
    endloop
  endfacet
  facet normal -1.02365e-14 1.84447e-15 -1
    outer loop
      vertex -11.3691 -29.4558 0
      vertex -12.2859 -24.9884 1.76248e-14
      vertex -12.1926 -24.4706 1.76248e-14
    endloop
  endfacet
  facet normal 0 0 -1
    outer loop
      vertex -24.8643 25.7495 0
      vertex -21.8176 24.3595 0
      vertex -24.8643 20.2035 0
    endloop
  endfacet
  facet normal 0 0 -1
    outer loop
      vertex -21.8176 24.3595 0
      vertex -24.8643 25.7495 0
      vertex -20.6643 25.7495 0
    endloop
  endfacet
  facet normal 0 0 -1
    outer loop
      vertex -21.8176 24.3595 0
      vertex -20.6643 25.7495 0
      vertex -20.6643 24.3595 0
    endloop
  endfacet
  facet normal -0.478429 -0.878126 -0
    outer loop
      vertex -13.0183 -23.058 3
      vertex -13.5994 -22.7414 1.76248e-14
      vertex -13.0183 -23.058 1.76248e-14
    endloop
  endfacet
  facet normal -0.478429 -0.878126 0
    outer loop
      vertex -13.5994 -22.7414 1.76248e-14
      vertex -13.0183 -23.058 3
      vertex -13.5994 -22.7414 3
    endloop
  endfacet
  facet normal -0.683426 0.73002 0
    outer loop
      vertex -12.5637 -25.4713 3
      vertex -13.0071 -25.8864 1.76248e-14
      vertex -13.0071 -25.8864 3
    endloop
  endfacet
  facet normal -0.683426 0.73002 0
    outer loop
      vertex -13.0071 -25.8864 1.76248e-14
      vertex -12.5637 -25.4713 3
      vertex -12.5637 -25.4713 1.76248e-14
    endloop
  endfacet
  facet normal -0.866804 0.49865 0
    outer loop
      vertex -12.2859 -24.9884 3
      vertex -12.5637 -25.4713 1.76248e-14
      vertex -12.5637 -25.4713 3
    endloop
  endfacet
  facet normal -0.866804 0.49865 0
    outer loop
      vertex -12.5637 -25.4713 1.76248e-14
      vertex -12.2859 -24.9884 3
      vertex -12.2859 -24.9884 1.76248e-14
    endloop
  endfacet
  facet normal -0.984151 0.17733 0
    outer loop
      vertex -12.1926 -24.4706 3
      vertex -12.2859 -24.9884 1.76248e-14
      vertex -12.2859 -24.9884 3
    endloop
  endfacet
  facet normal -0.984151 0.17733 0
    outer loop
      vertex -12.2859 -24.9884 1.76248e-14
      vertex -12.1926 -24.4706 3
      vertex -12.1926 -24.4706 1.76248e-14
    endloop
  endfacet
  facet normal -0.863272 -0.50474 0
    outer loop
      vertex -12.5717 -23.4713 3
      vertex -12.29 -23.9531 1.76248e-14
      vertex -12.29 -23.9531 3
    endloop
  endfacet
  facet normal -0.863272 -0.50474 0
    outer loop
      vertex -12.29 -23.9531 1.76248e-14
      vertex -12.5717 -23.4713 3
      vertex -12.5717 -23.4713 1.76248e-14
    endloop
  endfacet
  facet normal -0.281705 -0.959501 -0
    outer loop
      vertex -13.5994 -22.7414 3
      vertex -14.2755 -22.5429 1.76248e-14
      vertex -13.5994 -22.7414 1.76248e-14
    endloop
  endfacet
  facet normal -0.281705 -0.959501 0
    outer loop
      vertex -14.2755 -22.5429 1.76248e-14
      vertex -13.5994 -22.7414 3
      vertex -14.2755 -22.5429 3
    endloop
  endfacet
  facet normal 0.285718 -0.958314 0
    outer loop
      vertex -15.7249 -22.5459 3
      vertex -16.3994 -22.747 1.76248e-14
      vertex -15.7249 -22.5459 1.76248e-14
    endloop
  endfacet
  facet normal 0.285718 -0.958314 0
    outer loop
      vertex -16.3994 -22.747 1.76248e-14
      vertex -15.7249 -22.5459 3
      vertex -16.3994 -22.747 3
    endloop
  endfacet
  facet normal 0.0957752 -0.995403 0
    outer loop
      vertex -15.0005 -22.4762 3
      vertex -15.7249 -22.5459 1.76248e-14
      vertex -15.0005 -22.4762 1.76248e-14
    endloop
  endfacet
  facet normal 0.0957752 -0.995403 0
    outer loop
      vertex -15.7249 -22.5459 1.76248e-14
      vertex -15.0005 -22.4762 3
      vertex -15.7249 -22.5459 3
    endloop
  endfacet
  facet normal -0.0916131 -0.995795 -0
    outer loop
      vertex -14.2755 -22.5429 3
      vertex -15.0005 -22.4762 1.76248e-14
      vertex -14.2755 -22.5429 1.76248e-14
    endloop
  endfacet
  facet normal -0.0916131 -0.995795 0
    outer loop
      vertex -15.0005 -22.4762 1.76248e-14
      vertex -14.2755 -22.5429 3
      vertex -15.0005 -22.4762 3
    endloop
  endfacet
  facet normal -0.679215 -0.73394 0
    outer loop
      vertex -13.0183 -23.058 3
      vertex -12.5717 -23.4713 1.76248e-14
      vertex -12.5717 -23.4713 3
    endloop
  endfacet
  facet normal -0.679215 -0.73394 0
    outer loop
      vertex -12.5717 -23.4713 1.76248e-14
      vertex -13.0183 -23.058 3
      vertex -13.0183 -23.058 1.76248e-14
    endloop
  endfacet
  facet normal -0.982745 -0.184965 0
    outer loop
      vertex -12.29 -23.9531 3
      vertex -12.1926 -24.4706 1.76248e-14
      vertex -12.1926 -24.4706 3
    endloop
  endfacet
  facet normal -0.982745 -0.184965 0
    outer loop
      vertex -12.1926 -24.4706 1.76248e-14
      vertex -12.29 -23.9531 3
      vertex -12.29 -23.9531 1.76248e-14
    endloop
  endfacet
  facet normal -1 -0 0
    outer loop
      vertex -8.16756 24.3595 8
      vertex -8.16756 20.2035 3
      vertex -8.16756 20.2035 8
    endloop
  endfacet
  facet normal -1 0 0
    outer loop
      vertex -8.16756 20.2035 3
      vertex -8.16756 24.3595 8
      vertex -8.16756 23.3635 3
    endloop
  endfacet
  facet normal -1 0 0
    outer loop
      vertex -8.16756 23.3635 3
      vertex -8.16756 24.3595 8
      vertex -8.16756 23.3635 0
    endloop
  endfacet
  facet normal -1 0 0
    outer loop
      vertex -8.16756 23.3635 0
      vertex -8.16756 24.3595 8
      vertex -8.16756 24.3595 0
    endloop
  endfacet
  facet normal -1 -0 0
    outer loop
      vertex -9.42802 25.7495 8
      vertex -9.42802 24.3595 0
      vertex -9.42802 24.3595 8
    endloop
  endfacet
  facet normal -1 0 0
    outer loop
      vertex -9.42802 24.3595 0
      vertex -9.42802 25.7495 8
      vertex -9.42802 25.7495 0
    endloop
  endfacet
  facet normal 0 -1 -0
    outer loop
      vertex -8.16756 24.3595 8
      vertex -9.42802 24.3595 0
      vertex -8.16756 24.3595 0
    endloop
  endfacet
  facet normal 0 -1 0
    outer loop
      vertex -9.42802 24.3595 0
      vertex -8.16756 24.3595 8
      vertex -9.42802 24.3595 8
    endloop
  endfacet
  facet normal 0 1 0
    outer loop
      vertex -9.42802 25.7495 8
      vertex -5.23374 25.7495 0
      vertex -9.42802 25.7495 0
    endloop
  endfacet
  facet normal 0 1 -0
    outer loop
      vertex -5.23374 25.7495 0
      vertex -9.42802 25.7495 8
      vertex -5.23374 25.7495 8
    endloop
  endfacet
  facet normal 1 0 0
    outer loop
      vertex -21.8176 24.3595 0
      vertex -21.8176 23.3635 3
      vertex -21.8176 23.3635 0
    endloop
  endfacet
  facet normal 1 0 0
    outer loop
      vertex -5.23374 25.7495 0
      vertex -5.23374 20.2035 3
      vertex -5.23374 20.2035 0
    endloop
  endfacet
  facet normal 1 -0 0
    outer loop
      vertex -5.23374 20.2035 3
      vertex -5.23374 25.7495 0
      vertex -5.23374 20.2035 8
    endloop
  endfacet
  facet normal 1 -0 0
    outer loop
      vertex -5.23374 20.2035 8
      vertex -5.23374 25.7495 0
      vertex -5.23374 25.7495 8
    endloop
  endfacet
  facet normal 0 -1 -0
    outer loop
      vertex -20.6643 24.3595 8
      vertex -21.8176 24.3595 0
      vertex -20.6643 24.3595 0
    endloop
  endfacet
  facet normal 0 -1 0
    outer loop
      vertex -21.8176 24.3595 0
      vertex -20.6643 24.3595 8
      vertex -21.8176 24.3595 8
    endloop
  endfacet
  facet normal 0 1 0
    outer loop
      vertex -24.8643 25.7495 8
      vertex -20.6643 25.7495 0
      vertex -24.8643 25.7495 0
    endloop
  endfacet
  facet normal 0 1 -0
    outer loop
      vertex -20.6643 25.7495 0
      vertex -24.8643 25.7495 8
      vertex -20.6643 25.7495 8
    endloop
  endfacet
  facet normal 0 -1 -0
    outer loop
      vertex -21.8176 20.2035 8
      vertex -24.8643 20.2035 3
      vertex -21.8176 20.2035 3
    endloop
  endfacet
  facet normal 0 -1 0
    outer loop
      vertex -24.8643 20.2035 3
      vertex -21.8176 20.2035 8
      vertex -24.8643 20.2035 8
    endloop
  endfacet
  facet normal 1 0 0
    outer loop
      vertex -21.8176 23.3635 3
      vertex -21.8176 20.2035 8
      vertex -21.8176 20.2035 3
    endloop
  endfacet
  facet normal 1 -0 0
    outer loop
      vertex -21.8176 20.2035 8
      vertex -21.8176 23.3635 3
      vertex -21.8176 24.3595 8
    endloop
  endfacet
  facet normal 1 0 0
    outer loop
      vertex -21.8176 24.3595 8
      vertex -21.8176 23.3635 3
      vertex -21.8176 24.3595 0
    endloop
  endfacet
  facet normal 0 0 1
    outer loop
      vertex -5.23374 20.2035 8
      vertex -8.16756 24.3595 8
      vertex -8.16756 20.2035 8
    endloop
  endfacet
  facet normal 0 0 1
    outer loop
      vertex -8.16756 24.3595 8
      vertex -9.42802 25.7495 8
      vertex -9.42802 24.3595 8
    endloop
  endfacet
  facet normal -0 0 1
    outer loop
      vertex -9.42802 25.7495 8
      vertex -8.16756 24.3595 8
      vertex -5.23374 25.7495 8
    endloop
  endfacet
  facet normal 0 0 1
    outer loop
      vertex -5.23374 25.7495 8
      vertex -8.16756 24.3595 8
      vertex -5.23374 20.2035 8
    endloop
  endfacet
  facet normal 1 0 0
    outer loop
      vertex -20.6643 25.7495 0
      vertex -20.6643 24.3595 8
      vertex -20.6643 24.3595 0
    endloop
  endfacet
  facet normal 1 -0 0
    outer loop
      vertex -20.6643 24.3595 8
      vertex -20.6643 25.7495 0
      vertex -20.6643 25.7495 8
    endloop
  endfacet
  facet normal -1 -0 0
    outer loop
      vertex -24.8643 25.7495 8
      vertex -24.8643 20.2035 3
      vertex -24.8643 20.2035 8
    endloop
  endfacet
  facet normal -1 0 0
    outer loop
      vertex -24.8643 20.2035 3
      vertex -24.8643 25.7495 8
      vertex -24.8643 20.2035 0
    endloop
  endfacet
  facet normal -1 0 0
    outer loop
      vertex -24.8643 20.2035 0
      vertex -24.8643 25.7495 8
      vertex -24.8643 25.7495 0
    endloop
  endfacet
  facet normal 0 -1 0
    outer loop
      vertex -5.23374 20.2035 3
      vertex -8.16756 20.2035 8
      vertex -8.16756 20.2035 3
    endloop
  endfacet
  facet normal 0 -1 0
    outer loop
      vertex -8.16756 20.2035 8
      vertex -5.23374 20.2035 3
      vertex -5.23374 20.2035 8
    endloop
  endfacet
  facet normal 0 0 1
    outer loop
      vertex -21.8176 20.2035 8
      vertex -24.8643 25.7495 8
      vertex -24.8643 20.2035 8
    endloop
  endfacet
  facet normal 0 0 1
    outer loop
      vertex -24.8643 25.7495 8
      vertex -21.8176 20.2035 8
      vertex -21.8176 24.3595 8
    endloop
  endfacet
  facet normal -0 0 1
    outer loop
      vertex -24.8643 25.7495 8
      vertex -21.8176 24.3595 8
      vertex -20.6643 25.7495 8
    endloop
  endfacet
  facet normal 0 0 1
    outer loop
      vertex -20.6643 25.7495 8
      vertex -21.8176 24.3595 8
      vertex -20.6643 24.3595 8
    endloop
  endfacet
  facet normal 0.283729 -0.958904 0
    outer loop
      vertex -8.16756 -28.5085 3
      vertex -11.3691 -29.4558 0
      vertex -8.16756 -28.5085 0
    endloop
  endfacet
  facet normal 0.283729 -0.958904 0
    outer loop
      vertex -11.3691 -29.4558 0
      vertex -8.16756 -28.5085 3
      vertex -11.3691 -29.4558 3
    endloop
  endfacet
  facet normal 0.683426 -0.73002 0
    outer loop
      vertex -16.978 -23.066 1.76248e-14
      vertex -17.4214 -23.4811 3
      vertex -17.4214 -23.4811 1.76248e-14
    endloop
  endfacet
  facet normal 0.683426 -0.73002 0
    outer loop
      vertex -17.4214 -23.4811 3
      vertex -16.978 -23.066 1.76248e-14
      vertex -16.978 -23.066 3
    endloop
  endfacet
  facet normal 0.482813 -0.875723 0
    outer loop
      vertex -16.3994 -22.747 3
      vertex -16.978 -23.066 1.76248e-14
      vertex -16.3994 -22.747 1.76248e-14
    endloop
  endfacet
  facet normal 0.482813 -0.875723 0
    outer loop
      vertex -16.978 -23.066 1.76248e-14
      vertex -16.3994 -22.747 3
      vertex -16.978 -23.066 3
    endloop
  endfacet
  facet normal 0.866848 -0.498572 0
    outer loop
      vertex -17.4214 -23.4811 1.76248e-14
      vertex -17.6992 -23.9641 3
      vertex -17.6992 -23.9641 1.76248e-14
    endloop
  endfacet
  facet normal 0.866848 -0.498572 0
    outer loop
      vertex -17.6992 -23.9641 3
      vertex -17.4214 -23.4811 1.76248e-14
      vertex -17.4214 -23.4811 3
    endloop
  endfacet
  facet normal 0.982739 0.184999 0
    outer loop
      vertex -17.7925 -24.4819 1.76248e-14
      vertex -17.6951 -24.9993 3
      vertex -17.6951 -24.9993 1.76248e-14
    endloop
  endfacet
  facet normal 0.982739 0.184999 0
    outer loop
      vertex -17.6951 -24.9993 3
      vertex -17.7925 -24.4819 1.76248e-14
      vertex -17.7925 -24.4819 3
    endloop
  endfacet
  facet normal 0.984151 -0.17733 0
    outer loop
      vertex -17.6992 -23.9641 1.76248e-14
      vertex -17.7925 -24.4819 3
      vertex -17.7925 -24.4819 1.76248e-14
    endloop
  endfacet
  facet normal 0.984151 -0.17733 0
    outer loop
      vertex -17.7925 -24.4819 3
      vertex -17.6992 -23.9641 1.76248e-14
      vertex -17.6992 -23.9641 3
    endloop
  endfacet
  facet normal 0 0 1
    outer loop
      vertex -18.616 -29.4558 3
      vertex -17.6951 -24.9993 3
      vertex -17.7925 -24.4819 3
    endloop
  endfacet
  facet normal 0 0 1
    outer loop
      vertex -17.6951 -24.9993 3
      vertex -18.616 -29.4558 3
      vertex -14.9926 -29.7965 3
    endloop
  endfacet
  facet normal 0 0 1
    outer loop
      vertex -17.6951 -24.9993 3
      vertex -14.9926 -29.7965 3
      vertex -17.4135 -25.4811 3
    endloop
  endfacet
  facet normal 0 0 1
    outer loop
      vertex -17.4135 -25.4811 3
      vertex -14.9926 -29.7965 3
      vertex -16.9668 -25.8944 3
    endloop
  endfacet
  facet normal 0 0 1
    outer loop
      vertex -16.9668 -25.8944 3
      vertex -14.9926 -29.7965 3
      vertex -16.3857 -26.2111 3
    endloop
  endfacet
  facet normal 0 0 1
    outer loop
      vertex -16.3857 -26.2111 3
      vertex -14.9926 -29.7965 3
      vertex -15.7096 -26.4095 3
    endloop
  endfacet
  facet normal 0 0 1
    outer loop
      vertex -15.7096 -26.4095 3
      vertex -14.9926 -29.7965 3
      vertex -14.9846 -26.4762 3
    endloop
  endfacet
  facet normal 0 0 1
    outer loop
      vertex -14.9846 -26.4762 3
      vertex -14.9926 -29.7965 3
      vertex -11.3691 -29.4558 3
    endloop
  endfacet
  facet normal -0 0 1
    outer loop
      vertex -14.9846 -26.4762 3
      vertex -11.3691 -29.4558 3
      vertex -14.2602 -26.4066 3
    endloop
  endfacet
  facet normal -0 0 1
    outer loop
      vertex -14.2602 -26.4066 3
      vertex -11.3691 -29.4558 3
      vertex -13.5857 -26.2055 3
    endloop
  endfacet
  facet normal -0 0 1
    outer loop
      vertex -13.5857 -26.2055 3
      vertex -11.3691 -29.4558 3
      vertex -13.0071 -25.8864 3
    endloop
  endfacet
  facet normal -0 0 1
    outer loop
      vertex -13.0071 -25.8864 3
      vertex -11.3691 -29.4558 3
      vertex -12.5637 -25.4713 3
    endloop
  endfacet
  facet normal -0 0 1
    outer loop
      vertex -12.5637 -25.4713 3
      vertex -11.3691 -29.4558 3
      vertex -12.2859 -24.9884 3
    endloop
  endfacet
  facet normal -0 0 1
    outer loop
      vertex -12.2859 -24.9884 3
      vertex -11.3691 -29.4558 3
      vertex -12.1926 -24.4706 3
    endloop
  endfacet
  facet normal 0 0 1
    outer loop
      vertex -5.23374 20.2035 3
      vertex -8.16756 20.2035 3
      vertex -8.16756 18.2035 3
    endloop
  endfacet
  facet normal 0 0 1
    outer loop
      vertex -18.616 -29.4558 3
      vertex -21.8176 18.2035 3
      vertex -21.8176 -28.5085 3
    endloop
  endfacet
  facet normal -0 0 1
    outer loop
      vertex -21.8176 18.2035 3
      vertex -18.616 -29.4558 3
      vertex -21.8176 20.2035 3
    endloop
  endfacet
  facet normal -0 0 1
    outer loop
      vertex -21.8176 20.2035 3
      vertex -18.616 -29.4558 3
      vertex -21.8176 23.3635 3
    endloop
  endfacet
  facet normal 0 0 1
    outer loop
      vertex -21.8176 23.3635 3
      vertex -18.616 -29.4558 3
      vertex -17.7925 -24.4819 3
    endloop
  endfacet
  facet normal 0 0 1
    outer loop
      vertex -21.8176 23.3635 3
      vertex -17.7925 -24.4819 3
      vertex -17.6992 -23.9641 3
    endloop
  endfacet
  facet normal -0 0 1
    outer loop
      vertex -21.8176 23.3635 3
      vertex -17.6992 -23.9641 3
      vertex -8.16756 23.3635 3
    endloop
  endfacet
  facet normal 0 0 1
    outer loop
      vertex -8.16756 23.3635 3
      vertex -17.6992 -23.9641 3
      vertex -17.4214 -23.4811 3
    endloop
  endfacet
  facet normal 0 0 1
    outer loop
      vertex -8.16756 23.3635 3
      vertex -17.4214 -23.4811 3
      vertex -16.978 -23.066 3
    endloop
  endfacet
  facet normal 0 0 1
    outer loop
      vertex -8.16756 23.3635 3
      vertex -16.978 -23.066 3
      vertex -16.3994 -22.747 3
    endloop
  endfacet
  facet normal 0 0 1
    outer loop
      vertex -8.16756 23.3635 3
      vertex -16.3994 -22.747 3
      vertex -15.7249 -22.5459 3
    endloop
  endfacet
  facet normal 0 0 1
    outer loop
      vertex -8.16756 23.3635 3
      vertex -15.7249 -22.5459 3
      vertex -15.0005 -22.4762 3
    endloop
  endfacet
  facet normal 0 0 1
    outer loop
      vertex -8.16756 23.3635 3
      vertex -15.0005 -22.4762 3
      vertex -14.2755 -22.5429 3
    endloop
  endfacet
  facet normal 0 0 1
    outer loop
      vertex -8.16756 23.3635 3
      vertex -14.2755 -22.5429 3
      vertex -13.5994 -22.7414 3
    endloop
  endfacet
  facet normal 0 0 1
    outer loop
      vertex -8.16756 23.3635 3
      vertex -13.5994 -22.7414 3
      vertex -13.0183 -23.058 3
    endloop
  endfacet
  facet normal 0 0 1
    outer loop
      vertex -8.16756 23.3635 3
      vertex -13.0183 -23.058 3
      vertex -12.5717 -23.4713 3
    endloop
  endfacet
  facet normal 0 0 1
    outer loop
      vertex -8.16756 23.3635 3
      vertex -12.5717 -23.4713 3
      vertex -12.29 -23.9531 3
    endloop
  endfacet
  facet normal 0 0 1
    outer loop
      vertex -8.16756 23.3635 3
      vertex -12.29 -23.9531 3
      vertex -12.1926 -24.4706 3
    endloop
  endfacet
  facet normal 0 0 1
    outer loop
      vertex -8.16756 23.3635 3
      vertex -12.1926 -24.4706 3
      vertex -11.3691 -29.4558 3
    endloop
  endfacet
  facet normal 0 0 1
    outer loop
      vertex -8.16756 23.3635 3
      vertex -11.3691 -29.4558 3
      vertex -8.16756 -28.5085 3
    endloop
  endfacet
  facet normal 0 0 0
    outer loop
      vertex -8.16756 23.3635 3
      vertex -8.16756 -28.5085 3
      vertex -8.16756 18.2035 3
    endloop
  endfacet
  facet normal 0 0 0
    outer loop
      vertex -8.16756 23.3635 3
      vertex -8.16756 18.2035 3
      vertex -8.16756 20.2035 3
    endloop
  endfacet
  facet normal 0 0 1
    outer loop
      vertex -21.8176 20.2035 3
      vertex -24.8643 20.2035 3
      vertex -21.8176 18.2035 3
    endloop
  endfacet
  facet normal 0.0936122 -0.995609 0
    outer loop
      vertex -11.3691 -29.4558 3
      vertex -14.9926 -29.7965 5.28744e-16
      vertex -11.3691 -29.4558 0
    endloop
  endfacet
  facet normal 0.0936122 -0.995609 0
    outer loop
      vertex -14.9926 -29.7965 5.28744e-16
      vertex -11.3691 -29.4558 3
      vertex -14.9926 -29.7965 3
    endloop
  endfacet
  facet normal 0.679133 0.734015 0
    outer loop
      vertex -17.4135 -25.4811 1.76248e-14
      vertex -16.9668 -25.8944 3
      vertex -16.9668 -25.8944 1.76248e-14
    endloop
  endfacet
  facet normal 0.679133 0.734015 0
    outer loop
      vertex -16.9668 -25.8944 3
      vertex -17.4135 -25.4811 1.76248e-14
      vertex -17.4135 -25.4811 3
    endloop
  endfacet
  facet normal 0.478545 0.878063 0
    outer loop
      vertex -16.9668 -25.8944 3
      vertex -16.3857 -26.2111 1.76248e-14
      vertex -16.9668 -25.8944 1.76248e-14
    endloop
  endfacet
  facet normal 0.478545 0.878063 -0
    outer loop
      vertex -16.3857 -26.2111 1.76248e-14
      vertex -16.9668 -25.8944 3
      vertex -16.3857 -26.2111 3
    endloop
  endfacet
  facet normal 0.281575 0.959539 0
    outer loop
      vertex -16.3857 -26.2111 3
      vertex -15.7096 -26.4095 1.76248e-14
      vertex -16.3857 -26.2111 1.76248e-14
    endloop
  endfacet
  facet normal 0.281575 0.959539 -0
    outer loop
      vertex -15.7096 -26.4095 1.76248e-14
      vertex -16.3857 -26.2111 3
      vertex -15.7096 -26.4095 3
    endloop
  endfacet
  facet normal 0.0916131 0.995795 0
    outer loop
      vertex -15.7096 -26.4095 3
      vertex -14.9846 -26.4762 1.76248e-14
      vertex -15.7096 -26.4095 1.76248e-14
    endloop
  endfacet
  facet normal 0.0916131 0.995795 -0
    outer loop
      vertex -14.9846 -26.4762 1.76248e-14
      vertex -15.7096 -26.4095 3
      vertex -14.9846 -26.4762 3
    endloop
  endfacet
  facet normal -0.0956391 0.995416 0
    outer loop
      vertex -14.9846 -26.4762 3
      vertex -14.2602 -26.4066 1.76248e-14
      vertex -14.9846 -26.4762 1.76248e-14
    endloop
  endfacet
  facet normal -0.0956391 0.995416 0
    outer loop
      vertex -14.2602 -26.4066 1.76248e-14
      vertex -14.9846 -26.4762 3
      vertex -14.2602 -26.4066 3
    endloop
  endfacet
  facet normal 0.86335 0.504606 0
    outer loop
      vertex -17.6951 -24.9993 1.76248e-14
      vertex -17.4135 -25.4811 3
      vertex -17.4135 -25.4811 1.76248e-14
    endloop
  endfacet
  facet normal 0.86335 0.504606 0
    outer loop
      vertex -17.4135 -25.4811 3
      vertex -17.6951 -24.9993 1.76248e-14
      vertex -17.6951 -24.9993 3
    endloop
  endfacet
  facet normal -0.285718 0.958314 0
    outer loop
      vertex -14.2602 -26.4066 3
      vertex -13.5857 -26.2055 1.76248e-14
      vertex -14.2602 -26.4066 1.76248e-14
    endloop
  endfacet
  facet normal -0.285718 0.958314 0
    outer loop
      vertex -13.5857 -26.2055 1.76248e-14
      vertex -14.2602 -26.4066 3
      vertex -13.5857 -26.2055 3
    endloop
  endfacet
  facet normal -0.482929 0.875659 0
    outer loop
      vertex -13.5857 -26.2055 3
      vertex -13.0071 -25.8864 1.76248e-14
      vertex -13.5857 -26.2055 1.76248e-14
    endloop
  endfacet
  facet normal -0.482929 0.875659 0
    outer loop
      vertex -13.0071 -25.8864 1.76248e-14
      vertex -13.5857 -26.2055 3
      vertex -13.0071 -25.8864 3
    endloop
  endfacet
  facet normal -0.0936148 -0.995608 -0
    outer loop
      vertex -14.9926 -29.7965 3
      vertex -18.616 -29.4558 5.28744e-16
      vertex -14.9926 -29.7965 5.28744e-16
    endloop
  endfacet
  facet normal -0.0936148 -0.995608 0
    outer loop
      vertex -18.616 -29.4558 5.28744e-16
      vertex -14.9926 -29.7965 3
      vertex -18.616 -29.4558 3
    endloop
  endfacet
  facet normal -0.283724 -0.958906 -0
    outer loop
      vertex -18.616 -29.4558 3
      vertex -21.8176 -28.5085 5.28744e-16
      vertex -18.616 -29.4558 5.28744e-16
    endloop
  endfacet
  facet normal -0.283724 -0.958906 0
    outer loop
      vertex -21.8176 -28.5085 5.28744e-16
      vertex -18.616 -29.4558 3
      vertex -21.8176 -28.5085 3
    endloop
  endfacet
  facet normal 0 1 0
    outer loop
      vertex -21.8176 23.3635 3
      vertex -8.16756 23.3635 0
      vertex -21.8176 23.3635 0
    endloop
  endfacet
  facet normal 0 1 -0
    outer loop
      vertex -8.16756 23.3635 0
      vertex -21.8176 23.3635 3
      vertex -8.16756 23.3635 3
    endloop
  endfacet
  facet normal 1 0 0
    outer loop
      vertex -8.16756 18.2035 2.11497e-15
      vertex -8.16756 -28.5085 3
      vertex -8.16756 -28.5085 0
    endloop
  endfacet
  facet normal 1 -0 0
    outer loop
      vertex -8.16756 -28.5085 3
      vertex -8.16756 18.2035 2.11497e-15
      vertex -8.16756 18.2035 3
    endloop
  endfacet
  facet normal -1 -0 0
    outer loop
      vertex -21.8176 18.2035 3
      vertex -21.8176 -28.5085 5.28744e-16
      vertex -21.8176 -28.5085 3
    endloop
  endfacet
  facet normal -1 0 0
    outer loop
      vertex -21.8176 -28.5085 5.28744e-16
      vertex -21.8176 18.2035 3
      vertex -21.8176 18.2035 1.40998e-15
    endloop
  endfacet
  facet normal -0.548772 -0.835972 0
    outer loop
      vertex -21.8176 18.2035 1.40998e-15
      vertex -24.8643 20.2035 3
      vertex -24.8643 20.2035 0
    endloop
  endfacet
  facet normal -0.548772 -0.835972 0
    outer loop
      vertex -24.8643 20.2035 3
      vertex -21.8176 18.2035 1.40998e-15
      vertex -21.8176 18.2035 3
    endloop
  endfacet
  facet normal -0.563273 0.826271 0
    outer loop
      vertex -8.16756 18.2035 2.11497e-15
      vertex -5.23374 20.2035 3
      vertex -5.23374 20.2035 0
    endloop
  endfacet
  facet normal -0.563273 0.826271 0
    outer loop
      vertex -5.23374 20.2035 3
      vertex -8.16756 18.2035 2.11497e-15
      vertex -8.16756 18.2035 3
    endloop
  endfacet
endsolid OpenSCAD_Model
