solid OpenSCAD_Model
  facet normal 2.16208e-16 -2.29042e-16 -1
    outer loop
      vertex -13.0138 24.3595 0
      vertex -13.0138 18.2035 1.40998e-15
      vertex -17.4165 20.2035 0
    endloop
  endfacet
  facet normal -1 0 0
    outer loop
      vertex -13.0138 18.2035 1.40998e-15
      vertex -13.0138 24.3595 0
      vertex -13.0138 23.3635 0
    endloop
  endfacet
  facet normal 0 -2.73252e-16 -1
    outer loop
      vertex -13.0138 18.2035 1.40998e-15
      vertex -13.0138 23.3635 0
      vertex 6.71044 23.3635 0
    endloop
  endfacet
  facet normal -7.64199e-17 1.88653e-17 -1
    outer loop
      vertex -13.0138 18.2035 1.40998e-15
      vertex 6.71044 23.3635 0
      vertex -13.0138 -28.5085 5.28744e-16
    endloop
  endfacet
  facet normal 4.05935e-15 -1.55375e-15 -1
    outer loop
      vertex -13.0138 -28.5085 5.28744e-16
      vertex 6.71044 23.3635 0
      vertex -7.06286 -23.9641 1.76248e-14
    endloop
  endfacet
  facet normal 3.58587e-15 -9.33724e-16 -1
    outer loop
      vertex -13.0138 -28.5085 5.28744e-16
      vertex -7.06286 -23.9641 1.76248e-14
      vertex -7.19769 -24.4819 1.76248e-14
    endloop
  endfacet
  facet normal 6.70963e-16 3.27663e-15 -1
    outer loop
      vertex -13.0138 -28.5085 5.28744e-16
      vertex -7.19769 -24.4819 1.76248e-14
      vertex -8.38769 -29.4558 5.28744e-16
    endloop
  endfacet
  facet normal 6.89294e-16 -5.72999e-16 -1
    outer loop
      vertex -7.06286 -23.9641 1.76248e-14
      vertex 6.71044 23.3635 0
      vertex -6.66135 -23.4811 1.76248e-14
    endloop
  endfacet
  facet normal 2.99144e-16 -4.6163e-16 -1
    outer loop
      vertex -6.66135 -23.4811 1.76248e-14
      vertex 6.71044 23.3635 0
      vertex -6.02078 -23.066 1.76248e-14
    endloop
  endfacet
  facet normal 1.61756e-16 -4.23958e-16 -1
    outer loop
      vertex -6.02078 -23.066 1.76248e-14
      vertex 6.71044 23.3635 0
      vertex -5.18469 -22.747 1.76248e-14
    endloop
  endfacet
  facet normal 8.32913e-17 -4.03716e-16 -1
    outer loop
      vertex -5.18469 -22.747 1.76248e-14
      vertex 6.71044 23.3635 0
      vertex -4.20995 -22.5459 1.76248e-14
    endloop
  endfacet
  facet normal 2.59752e-17 -3.90083e-16 -1
    outer loop
      vertex -4.20995 -22.5459 1.76248e-14
      vertex 6.71044 23.3635 0
      vertex -3.16323 -22.4762 1.76248e-14
    endloop
  endfacet
  facet normal -2.41498e-17 -3.79286e-16 -1
    outer loop
      vertex -3.16323 -22.4762 1.76248e-14
      vertex 6.71044 23.3635 0
      vertex -2.11567 -22.5429 1.76248e-14
    endloop
  endfacet
  facet normal -7.50723e-17 -3.69495e-16 -1
    outer loop
      vertex -2.11567 -22.5429 1.76248e-14
      vertex 6.71044 23.3635 0
      vertex -1.13868 -22.7414 1.76248e-14
    endloop
  endfacet
  facet normal -1.35427e-16 -3.5922e-16 -1
    outer loop
      vertex -1.13868 -22.7414 1.76248e-14
      vertex 6.71044 23.3635 0
      vertex -0.2989 -23.058 1.76248e-14
    endloop
  endfacet
  facet normal -2.21715e-16 -3.46191e-16 -1
    outer loop
      vertex -0.2989 -23.058 1.76248e-14
      vertex 6.71044 23.3635 0
      vertex 0.346436 -23.4713 1.76248e-14
    endloop
  endfacet
  facet normal -3.83767e-16 -3.24171e-16 -1
    outer loop
      vertex 0.346436 -23.4713 1.76248e-14
      vertex 6.71044 23.3635 0
      vertex 0.753417 -23.9531 1.76248e-14
    endloop
  endfacet
  facet normal -9.36065e-16 -2.54639e-16 -1
    outer loop
      vertex 0.753417 -23.9531 1.76248e-14
      vertex 6.71044 23.3635 0
      vertex 0.894193 -24.4706 1.76248e-14
    endloop
  endfacet
  facet normal -1.08351e-14 9.49011e-16 -1
    outer loop
      vertex 0.894193 -24.4706 1.76248e-14
      vertex 6.71044 23.3635 0
      vertex 2.08419 -29.4558 0
    endloop
  endfacet
  facet normal 0 0 -1
    outer loop
      vertex 2.08419 -29.4558 0
      vertex 6.71044 23.3635 0
      vertex 6.71044 -28.5085 0
    endloop
  endfacet
  facet normal 1 0 0
    outer loop
      vertex 6.71044 -28.5085 0
      vertex 6.71044 23.3635 0
      vertex 6.71044 18.2035 2.11497e-15
    endloop
  endfacet
  facet normal -0 0 -1
    outer loop
      vertex 10.9498 25.7495 0
      vertex 4.88902 24.3595 0
      vertex 4.88902 25.7495 0
    endloop
  endfacet
  facet normal 0 0 -1
    outer loop
      vertex 4.88902 24.3595 0
      vertex 10.9498 25.7495 0
      vertex 6.71044 24.3595 0
    endloop
  endfacet
  facet normal 0 0 -1
    outer loop
      vertex 6.71044 24.3595 0
      vertex 10.9498 25.7495 0
      vertex 6.71044 23.3635 0
    endloop
  endfacet
  facet normal 2.30688e-16 -4.09878e-16 -1
    outer loop
      vertex 6.71044 23.3635 0
      vertex 10.9498 25.7495 0
      vertex 6.71044 18.2035 2.11497e-15
    endloop
  endfacet
  facet normal -4.98889e-16 0 -1
    outer loop
      vertex 6.71044 18.2035 2.11497e-15
      vertex 10.9498 25.7495 0
      vertex 10.9498 20.2035 0
    endloop
  endfacet
  facet normal 2.44859e-16 3.76309e-15 -1
    outer loop
      vertex -8.38769 -29.4558 5.28744e-16
      vertex -7.05691 -24.9993 1.76248e-14
      vertex -3.15169 -29.7965 5.28744e-16
    endloop
  endfacet
  facet normal 6.72185e-15 1.82896e-15 -1
    outer loop
      vertex -7.05691 -24.9993 1.76248e-14
      vertex -8.38769 -29.4558 5.28744e-16
      vertex -7.19769 -24.4819 1.76248e-14
    endloop
  endfacet
  facet normal 1.16292e-13 9.82325e-14 -1
    outer loop
      vertex -3.15169 -29.7965 5.28744e-16
      vertex -7.05691 -24.9993 1.76248e-14
      vertex -6.64993 -25.4811 1.76248e-14
    endloop
  endfacet
  facet normal 5.27662e-15 8.23908e-15 -1
    outer loop
      vertex -3.15169 -29.7965 5.28744e-16
      vertex -6.64993 -25.4811 1.76248e-14
      vertex -6.00459 -25.8944 1.76248e-14
    endloop
  endfacet
  facet normal 2.28126e-15 6.04912e-15 -1
    outer loop
      vertex -3.15169 -29.7965 5.28744e-16
      vertex -6.00459 -25.8944 1.76248e-14
      vertex -5.16481 -26.2111 1.76248e-14
    endloop
  endfacet
  facet normal 1.09291e-15 5.38189e-15 -1
    outer loop
      vertex -3.15169 -29.7965 5.28744e-16
      vertex -5.16481 -26.2111 1.76248e-14
      vertex -4.18782 -26.4095 1.76248e-14
    endloop
  endfacet
  facet normal 3.27771e-16 5.14782e-15 -1
    outer loop
      vertex -3.15169 -29.7965 5.28744e-16
      vertex -4.18782 -26.4095 1.76248e-14
      vertex -3.14026 -26.4762 1.76248e-14
    endloop
  endfacet
  facet normal -4.36126e-16 5.15045e-15 -1
    outer loop
      vertex -3.15169 -29.7965 5.28744e-16
      vertex -3.14026 -26.4762 1.76248e-14
      vertex 2.08419 -29.4558 0
    endloop
  endfacet
  facet normal -3.5225e-16 5.29752e-15 -1
    outer loop
      vertex 2.08419 -29.4558 0
      vertex -3.14026 -26.4762 1.76248e-14
      vertex -2.09354 -26.4066 1.76248e-14
    endloop
  endfacet
  facet normal -9.29717e-16 4.50633e-15 -1
    outer loop
      vertex 2.08419 -29.4558 0
      vertex -2.09354 -26.4066 1.76248e-14
      vertex -1.11881 -26.2055 1.76248e-14
    endloop
  endfacet
  facet normal -1.50391e-15 3.94049e-15 -1
    outer loop
      vertex 2.08419 -29.4558 0
      vertex -1.11881 -26.2055 1.76248e-14
      vertex -0.282717 -25.8864 1.76248e-14
    endloop
  endfacet
  facet normal -2.23803e-15 3.45369e-15 -1
    outer loop
      vertex 2.08419 -29.4558 0
      vertex -0.282717 -25.8864 1.76248e-14
      vertex 0.357859 -25.4713 1.76248e-14
    endloop
  endfacet
  facet normal -3.49751e-15 2.908e-15 -1
    outer loop
      vertex 2.08419 -29.4558 0
      vertex 0.357859 -25.4713 1.76248e-14
      vertex 0.759366 -24.9884 1.76248e-14
    endloop
  endfacet
  facet normal -7.08374e-15 1.84449e-15 -1
    outer loop
      vertex 2.08419 -29.4558 0
      vertex 0.759366 -24.9884 1.76248e-14
      vertex 0.894193 -24.4706 1.76248e-14
    endloop
  endfacet
  facet normal 0 0 -1
    outer loop
      vertex -17.4165 25.7495 0
      vertex -13.0138 24.3595 0
      vertex -17.4165 20.2035 0
    endloop
  endfacet
  facet normal 0 0 -1
    outer loop
      vertex -13.0138 24.3595 0
      vertex -17.4165 25.7495 0
      vertex -11.3475 25.7495 0
    endloop
  endfacet
  facet normal 0 0 -1
    outer loop
      vertex -13.0138 24.3595 0
      vertex -11.3475 25.7495 0
      vertex -11.3475 24.3595 0
    endloop
  endfacet
  facet normal -0.352766 -0.935711 -0
    outer loop
      vertex -0.2989 -23.058 3
      vertex -1.13868 -22.7414 1.76248e-14
      vertex -0.2989 -23.058 1.76248e-14
    endloop
  endfacet
  facet normal -0.352766 -0.935711 0
    outer loop
      vertex -1.13868 -22.7414 1.76248e-14
      vertex -0.2989 -23.058 3
      vertex -1.13868 -22.7414 3
    endloop
  endfacet
  facet normal -0.543814 0.839206 0
    outer loop
      vertex 0.357859 -25.4713 3
      vertex -0.282717 -25.8864 1.76248e-14
      vertex -0.282717 -25.8864 3
    endloop
  endfacet
  facet normal -0.543814 0.839206 0
    outer loop
      vertex -0.282717 -25.8864 1.76248e-14
      vertex 0.357859 -25.4713 3
      vertex 0.357859 -25.4713 1.76248e-14
    endloop
  endfacet
  facet normal -0.768933 0.639329 0
    outer loop
      vertex 0.759366 -24.9884 3
      vertex 0.357859 -25.4713 1.76248e-14
      vertex 0.357859 -25.4713 3
    endloop
  endfacet
  facet normal -0.768933 0.639329 0
    outer loop
      vertex 0.357859 -25.4713 1.76248e-14
      vertex 0.759366 -24.9884 3
      vertex 0.759366 -24.9884 1.76248e-14
    endloop
  endfacet
  facet normal -0.967732 0.251982 0
    outer loop
      vertex 0.894193 -24.4706 3
      vertex 0.759366 -24.9884 1.76248e-14
      vertex 0.759366 -24.9884 3
    endloop
  endfacet
  facet normal -0.967732 0.251982 0
    outer loop
      vertex 0.759366 -24.9884 1.76248e-14
      vertex 0.894193 -24.4706 3
      vertex 0.894193 -24.4706 1.76248e-14
    endloop
  endfacet
  facet normal -0.76393 -0.645299 0
    outer loop
      vertex 0.346436 -23.4713 3
      vertex 0.753417 -23.9531 1.76248e-14
      vertex 0.753417 -23.9531 3
    endloop
  endfacet
  facet normal -0.76393 -0.645299 0
    outer loop
      vertex 0.753417 -23.9531 1.76248e-14
      vertex 0.346436 -23.4713 3
      vertex 0.346436 -23.4713 1.76248e-14
    endloop
  endfacet
  facet normal -0.199107 -0.979978 -0
    outer loop
      vertex -1.13868 -22.7414 3
      vertex -2.11567 -22.5429 1.76248e-14
      vertex -1.13868 -22.7414 1.76248e-14
    endloop
  endfacet
  facet normal -0.199107 -0.979978 0
    outer loop
      vertex -2.11567 -22.5429 1.76248e-14
      vertex -1.13868 -22.7414 3
      vertex -2.11567 -22.5429 3
    endloop
  endfacet
  facet normal 0.202056 -0.979374 0
    outer loop
      vertex -4.20995 -22.5459 3
      vertex -5.18469 -22.747 1.76248e-14
      vertex -4.20995 -22.5459 1.76248e-14
    endloop
  endfacet
  facet normal 0.202056 -0.979374 0
    outer loop
      vertex -5.18469 -22.747 1.76248e-14
      vertex -4.20995 -22.5459 3
      vertex -5.18469 -22.747 3
    endloop
  endfacet
  facet normal 0.0664418 -0.99779 0
    outer loop
      vertex -3.16323 -22.4762 3
      vertex -4.20995 -22.5459 1.76248e-14
      vertex -3.16323 -22.4762 1.76248e-14
    endloop
  endfacet
  facet normal 0.0664418 -0.99779 0
    outer loop
      vertex -4.20995 -22.5459 1.76248e-14
      vertex -3.16323 -22.4762 3
      vertex -4.20995 -22.5459 3
    endloop
  endfacet
  facet normal -0.0635431 -0.997979 -0
    outer loop
      vertex -2.11567 -22.5429 3
      vertex -3.16323 -22.4762 1.76248e-14
      vertex -2.11567 -22.5429 1.76248e-14
    endloop
  endfacet
  facet normal -0.0635431 -0.997979 0
    outer loop
      vertex -3.16323 -22.4762 1.76248e-14
      vertex -2.11567 -22.5429 3
      vertex -3.16323 -22.4762 3
    endloop
  endfacet
  facet normal -0.539317 -0.842103 0
    outer loop
      vertex -0.2989 -23.058 3
      vertex 0.346436 -23.4713 1.76248e-14
      vertex 0.346436 -23.4713 3
    endloop
  endfacet
  facet normal -0.539317 -0.842103 0
    outer loop
      vertex 0.346436 -23.4713 1.76248e-14
      vertex -0.2989 -23.058 3
      vertex -0.2989 -23.058 1.76248e-14
    endloop
  endfacet
  facet normal -0.964934 -0.262492 0
    outer loop
      vertex 0.753417 -23.9531 3
      vertex 0.894193 -24.4706 1.76248e-14
      vertex 0.894193 -24.4706 3
    endloop
  endfacet
  facet normal -0.964934 -0.262492 0
    outer loop
      vertex 0.894193 -24.4706 1.76248e-14
      vertex 0.753417 -23.9531 3
      vertex 0.753417 -23.9531 1.76248e-14
    endloop
  endfacet
  facet normal -1 -0 0
    outer loop
      vertex 6.71044 24.3595 8
      vertex 6.71044 20.2035 3
      vertex 6.71044 20.2035 8
    endloop
  endfacet
  facet normal -1 0 0
    outer loop
      vertex 6.71044 20.2035 3
      vertex 6.71044 24.3595 8
      vertex 6.71044 23.3635 3
    endloop
  endfacet
  facet normal -1 0 0
    outer loop
      vertex 6.71044 23.3635 3
      vertex 6.71044 24.3595 8
      vertex 6.71044 23.3635 0
    endloop
  endfacet
  facet normal -1 0 0
    outer loop
      vertex 6.71044 23.3635 0
      vertex 6.71044 24.3595 8
      vertex 6.71044 24.3595 0
    endloop
  endfacet
  facet normal -1 -0 0
    outer loop
      vertex 4.88902 25.7495 8
      vertex 4.88902 24.3595 0
      vertex 4.88902 24.3595 8
    endloop
  endfacet
  facet normal -1 0 0
    outer loop
      vertex 4.88902 24.3595 0
      vertex 4.88902 25.7495 8
      vertex 4.88902 25.7495 0
    endloop
  endfacet
  facet normal 0 -1 -0
    outer loop
      vertex 6.71044 24.3595 8
      vertex 4.88902 24.3595 0
      vertex 6.71044 24.3595 0
    endloop
  endfacet
  facet normal 0 -1 0
    outer loop
      vertex 4.88902 24.3595 0
      vertex 6.71044 24.3595 8
      vertex 4.88902 24.3595 8
    endloop
  endfacet
  facet normal 0 1 0
    outer loop
      vertex 4.88902 25.7495 8
      vertex 10.9498 25.7495 0
      vertex 4.88902 25.7495 0
    endloop
  endfacet
  facet normal 0 1 -0
    outer loop
      vertex 10.9498 25.7495 0
      vertex 4.88902 25.7495 8
      vertex 10.9498 25.7495 8
    endloop
  endfacet
  facet normal 1 0 0
    outer loop
      vertex -13.0138 24.3595 0
      vertex -13.0138 23.3635 3
      vertex -13.0138 23.3635 0
    endloop
  endfacet
  facet normal 1 0 0
    outer loop
      vertex 10.9498 25.7495 0
      vertex 10.9498 20.2035 3
      vertex 10.9498 20.2035 0
    endloop
  endfacet
  facet normal 1 -0 0
    outer loop
      vertex 10.9498 20.2035 3
      vertex 10.9498 25.7495 0
      vertex 10.9498 20.2035 8
    endloop
  endfacet
  facet normal 1 -0 0
    outer loop
      vertex 10.9498 20.2035 8
      vertex 10.9498 25.7495 0
      vertex 10.9498 25.7495 8
    endloop
  endfacet
  facet normal 0 -1 -0
    outer loop
      vertex -11.3475 24.3595 8
      vertex -13.0138 24.3595 0
      vertex -11.3475 24.3595 0
    endloop
  endfacet
  facet normal 0 -1 0
    outer loop
      vertex -13.0138 24.3595 0
      vertex -11.3475 24.3595 8
      vertex -13.0138 24.3595 8
    endloop
  endfacet
  facet normal 0 1 0
    outer loop
      vertex -17.4165 25.7495 8
      vertex -11.3475 25.7495 0
      vertex -17.4165 25.7495 0
    endloop
  endfacet
  facet normal 0 1 -0
    outer loop
      vertex -11.3475 25.7495 0
      vertex -17.4165 25.7495 8
      vertex -11.3475 25.7495 8
    endloop
  endfacet
  facet normal 0 -1 -0
    outer loop
      vertex -13.0138 20.2035 8
      vertex -17.4165 20.2035 3
      vertex -13.0138 20.2035 3
    endloop
  endfacet
  facet normal 0 -1 0
    outer loop
      vertex -17.4165 20.2035 3
      vertex -13.0138 20.2035 8
      vertex -17.4165 20.2035 8
    endloop
  endfacet
  facet normal 1 0 0
    outer loop
      vertex -13.0138 23.3635 3
      vertex -13.0138 20.2035 8
      vertex -13.0138 20.2035 3
    endloop
  endfacet
  facet normal 1 -0 0
    outer loop
      vertex -13.0138 20.2035 8
      vertex -13.0138 23.3635 3
      vertex -13.0138 24.3595 8
    endloop
  endfacet
  facet normal 1 0 0
    outer loop
      vertex -13.0138 24.3595 8
      vertex -13.0138 23.3635 3
      vertex -13.0138 24.3595 0
    endloop
  endfacet
  facet normal 0 0 1
    outer loop
      vertex 10.9498 20.2035 8
      vertex 6.71044 24.3595 8
      vertex 6.71044 20.2035 8
    endloop
  endfacet
  facet normal 0 0 1
    outer loop
      vertex 6.71044 24.3595 8
      vertex 4.88902 25.7495 8
      vertex 4.88902 24.3595 8
    endloop
  endfacet
  facet normal -0 0 1
    outer loop
      vertex 4.88902 25.7495 8
      vertex 6.71044 24.3595 8
      vertex 10.9498 25.7495 8
    endloop
  endfacet
  facet normal 0 0 1
    outer loop
      vertex 10.9498 25.7495 8
      vertex 6.71044 24.3595 8
      vertex 10.9498 20.2035 8
    endloop
  endfacet
  facet normal 1 0 0
    outer loop
      vertex -11.3475 25.7495 0
      vertex -11.3475 24.3595 8
      vertex -11.3475 24.3595 0
    endloop
  endfacet
  facet normal 1 -0 0
    outer loop
      vertex -11.3475 24.3595 8
      vertex -11.3475 25.7495 0
      vertex -11.3475 25.7495 8
    endloop
  endfacet
  facet normal -1 -0 0
    outer loop
      vertex -17.4165 25.7495 8
      vertex -17.4165 20.2035 3
      vertex -17.4165 20.2035 8
    endloop
  endfacet
  facet normal -1 0 0
    outer loop
      vertex -17.4165 20.2035 3
      vertex -17.4165 25.7495 8
      vertex -17.4165 20.2035 0
    endloop
  endfacet
  facet normal -1 0 0
    outer loop
      vertex -17.4165 20.2035 0
      vertex -17.4165 25.7495 8
      vertex -17.4165 25.7495 0
    endloop
  endfacet
  facet normal 0 -1 0
    outer loop
      vertex 10.9498 20.2035 3
      vertex 6.71044 20.2035 8
      vertex 6.71044 20.2035 3
    endloop
  endfacet
  facet normal 0 -1 0
    outer loop
      vertex 6.71044 20.2035 8
      vertex 10.9498 20.2035 3
      vertex 10.9498 20.2035 8
    endloop
  endfacet
  facet normal 0 0 1
    outer loop
      vertex -13.0138 20.2035 8
      vertex -17.4165 25.7495 8
      vertex -17.4165 20.2035 8
    endloop
  endfacet
  facet normal 0 0 1
    outer loop
      vertex -17.4165 25.7495 8
      vertex -13.0138 20.2035 8
      vertex -13.0138 24.3595 8
    endloop
  endfacet
  facet normal -0 0 1
    outer loop
      vertex -17.4165 25.7495 8
      vertex -13.0138 24.3595 8
      vertex -11.3475 25.7495 8
    endloop
  endfacet
  facet normal 0 0 1
    outer loop
      vertex -11.3475 25.7495 8
      vertex -13.0138 24.3595 8
      vertex -11.3475 24.3595 8
    endloop
  endfacet
  facet normal 0.200604 -0.979672 0
    outer loop
      vertex 6.71044 -28.5085 3
      vertex 2.08419 -29.4558 0
      vertex 6.71044 -28.5085 0
    endloop
  endfacet
  facet normal 0.200604 -0.979672 0
    outer loop
      vertex 2.08419 -29.4558 0
      vertex 6.71044 -28.5085 3
      vertex 2.08419 -29.4558 3
    endloop
  endfacet
  facet normal 0.543818 -0.839203 0
    outer loop
      vertex -6.02078 -23.066 1.76248e-14
      vertex -6.66135 -23.4811 3
      vertex -6.66135 -23.4811 1.76248e-14
    endloop
  endfacet
  facet normal 0.543818 -0.839203 0
    outer loop
      vertex -6.66135 -23.4811 3
      vertex -6.02078 -23.066 1.76248e-14
      vertex -6.02078 -23.066 3
    endloop
  endfacet
  facet normal 0.356473 -0.934306 0
    outer loop
      vertex -5.18469 -22.747 3
      vertex -6.02078 -23.066 1.76248e-14
      vertex -5.18469 -22.747 1.76248e-14
    endloop
  endfacet
  facet normal 0.356473 -0.934306 0
    outer loop
      vertex -6.02078 -23.066 1.76248e-14
      vertex -5.18469 -22.747 3
      vertex -6.02078 -23.066 3
    endloop
  endfacet
  facet normal 0.768996 -0.639254 0
    outer loop
      vertex -6.66135 -23.4811 1.76248e-14
      vertex -7.06286 -23.9641 3
      vertex -7.06286 -23.9641 1.76248e-14
    endloop
  endfacet
  facet normal 0.768996 -0.639254 0
    outer loop
      vertex -7.06286 -23.9641 3
      vertex -6.66135 -23.4811 1.76248e-14
      vertex -6.66135 -23.4811 3
    endloop
  endfacet
  facet normal 0.964919 0.262546 0
    outer loop
      vertex -7.19769 -24.4819 1.76248e-14
      vertex -7.05691 -24.9993 3
      vertex -7.05691 -24.9993 1.76248e-14
    endloop
  endfacet
  facet normal 0.964919 0.262546 0
    outer loop
      vertex -7.05691 -24.9993 3
      vertex -7.19769 -24.4819 1.76248e-14
      vertex -7.19769 -24.4819 3
    endloop
  endfacet
  facet normal 0.967731 -0.251987 0
    outer loop
      vertex -7.06286 -23.9641 1.76248e-14
      vertex -7.19769 -24.4819 3
      vertex -7.19769 -24.4819 1.76248e-14
    endloop
  endfacet
  facet normal 0.967731 -0.251987 0
    outer loop
      vertex -7.19769 -24.4819 3
      vertex -7.06286 -23.9641 1.76248e-14
      vertex -7.06286 -23.9641 3
    endloop
  endfacet
  facet normal 0 0 1
    outer loop
      vertex -8.38769 -29.4558 3
      vertex -7.05691 -24.9993 3
      vertex -7.19769 -24.4819 3
    endloop
  endfacet
  facet normal 0 0 1
    outer loop
      vertex -7.05691 -24.9993 3
      vertex -8.38769 -29.4558 3
      vertex -3.15169 -29.7965 3
    endloop
  endfacet
  facet normal 0 0 1
    outer loop
      vertex -7.05691 -24.9993 3
      vertex -3.15169 -29.7965 3
      vertex -6.64993 -25.4811 3
    endloop
  endfacet
  facet normal 0 0 1
    outer loop
      vertex -6.64993 -25.4811 3
      vertex -3.15169 -29.7965 3
      vertex -6.00459 -25.8944 3
    endloop
  endfacet
  facet normal 0 0 1
    outer loop
      vertex -6.00459 -25.8944 3
      vertex -3.15169 -29.7965 3
      vertex -5.16481 -26.2111 3
    endloop
  endfacet
  facet normal 0 0 1
    outer loop
      vertex -5.16481 -26.2111 3
      vertex -3.15169 -29.7965 3
      vertex -4.18782 -26.4095 3
    endloop
  endfacet
  facet normal 0 0 1
    outer loop
      vertex -4.18782 -26.4095 3
      vertex -3.15169 -29.7965 3
      vertex -3.14026 -26.4762 3
    endloop
  endfacet
  facet normal 0 0 1
    outer loop
      vertex -3.14026 -26.4762 3
      vertex -3.15169 -29.7965 3
      vertex 2.08419 -29.4558 3
    endloop
  endfacet
  facet normal -0 0 1
    outer loop
      vertex -3.14026 -26.4762 3
      vertex 2.08419 -29.4558 3
      vertex -2.09354 -26.4066 3
    endloop
  endfacet
  facet normal -0 0 1
    outer loop
      vertex -2.09354 -26.4066 3
      vertex 2.08419 -29.4558 3
      vertex -1.11881 -26.2055 3
    endloop
  endfacet
  facet normal -0 0 1
    outer loop
      vertex -1.11881 -26.2055 3
      vertex 2.08419 -29.4558 3
      vertex -0.282717 -25.8864 3
    endloop
  endfacet
  facet normal -0 0 1
    outer loop
      vertex -0.282717 -25.8864 3
      vertex 2.08419 -29.4558 3
      vertex 0.357859 -25.4713 3
    endloop
  endfacet
  facet normal -0 0 1
    outer loop
      vertex 0.357859 -25.4713 3
      vertex 2.08419 -29.4558 3
      vertex 0.759366 -24.9884 3
    endloop
  endfacet
  facet normal -0 0 1
    outer loop
      vertex 0.759366 -24.9884 3
      vertex 2.08419 -29.4558 3
      vertex 0.894193 -24.4706 3
    endloop
  endfacet
  facet normal 0 0 1
    outer loop
      vertex 10.9498 20.2035 3
      vertex 6.71044 20.2035 3
      vertex 6.71044 18.2035 3
    endloop
  endfacet
  facet normal 0 0 1
    outer loop
      vertex -8.38769 -29.4558 3
      vertex -13.0138 18.2035 3
      vertex -13.0138 -28.5085 3
    endloop
  endfacet
  facet normal -0 0 1
    outer loop
      vertex -13.0138 18.2035 3
      vertex -8.38769 -29.4558 3
      vertex -13.0138 20.2035 3
    endloop
  endfacet
  facet normal -0 0 1
    outer loop
      vertex -13.0138 20.2035 3
      vertex -8.38769 -29.4558 3
      vertex -13.0138 23.3635 3
    endloop
  endfacet
  facet normal 0 0 1
    outer loop
      vertex -13.0138 23.3635 3
      vertex -8.38769 -29.4558 3
      vertex -7.19769 -24.4819 3
    endloop
  endfacet
  facet normal 0 0 1
    outer loop
      vertex -13.0138 23.3635 3
      vertex -7.19769 -24.4819 3
      vertex -7.06286 -23.9641 3
    endloop
  endfacet
  facet normal -0 0 1
    outer loop
      vertex -13.0138 23.3635 3
      vertex -7.06286 -23.9641 3
      vertex 6.71044 23.3635 3
    endloop
  endfacet
  facet normal 0 0 1
    outer loop
      vertex 6.71044 23.3635 3
      vertex -7.06286 -23.9641 3
      vertex -6.66135 -23.4811 3
    endloop
  endfacet
  facet normal 0 0 1
    outer loop
      vertex 6.71044 23.3635 3
      vertex -6.66135 -23.4811 3
      vertex -6.02078 -23.066 3
    endloop
  endfacet
  facet normal 0 0 1
    outer loop
      vertex 6.71044 23.3635 3
      vertex -6.02078 -23.066 3
      vertex -5.18469 -22.747 3
    endloop
  endfacet
  facet normal 0 0 1
    outer loop
      vertex 6.71044 23.3635 3
      vertex -5.18469 -22.747 3
      vertex -4.20995 -22.5459 3
    endloop
  endfacet
  facet normal 0 0 1
    outer loop
      vertex 6.71044 23.3635 3
      vertex -4.20995 -22.5459 3
      vertex -3.16323 -22.4762 3
    endloop
  endfacet
  facet normal 0 0 1
    outer loop
      vertex 6.71044 23.3635 3
      vertex -3.16323 -22.4762 3
      vertex -2.11567 -22.5429 3
    endloop
  endfacet
  facet normal 0 0 1
    outer loop
      vertex 6.71044 23.3635 3
      vertex -2.11567 -22.5429 3
      vertex -1.13868 -22.7414 3
    endloop
  endfacet
  facet normal 0 0 1
    outer loop
      vertex 6.71044 23.3635 3
      vertex -1.13868 -22.7414 3
      vertex -0.2989 -23.058 3
    endloop
  endfacet
  facet normal 0 0 1
    outer loop
      vertex 6.71044 23.3635 3
      vertex -0.2989 -23.058 3
      vertex 0.346436 -23.4713 3
    endloop
  endfacet
  facet normal 0 0 1
    outer loop
      vertex 6.71044 23.3635 3
      vertex 0.346436 -23.4713 3
      vertex 0.753417 -23.9531 3
    endloop
  endfacet
  facet normal 0 0 1
    outer loop
      vertex 6.71044 23.3635 3
      vertex 0.753417 -23.9531 3
      vertex 0.894193 -24.4706 3
    endloop
  endfacet
  facet normal 0 0 1
    outer loop
      vertex 6.71044 23.3635 3
      vertex 0.894193 -24.4706 3
      vertex 2.08419 -29.4558 3
    endloop
  endfacet
  facet normal 0 0 1
    outer loop
      vertex 6.71044 23.3635 3
      vertex 2.08419 -29.4558 3
      vertex 6.71044 -28.5085 3
    endloop
  endfacet
  facet normal 0 0 0
    outer loop
      vertex 6.71044 23.3635 3
      vertex 6.71044 -28.5085 3
      vertex 6.71044 18.2035 3
    endloop
  endfacet
  facet normal 0 0 0
    outer loop
      vertex 6.71044 23.3635 3
      vertex 6.71044 18.2035 3
      vertex 6.71044 20.2035 3
    endloop
  endfacet
  facet normal 0 0 1
    outer loop
      vertex -13.0138 20.2035 3
      vertex -17.4165 20.2035 3
      vertex -13.0138 18.2035 3
    endloop
  endfacet
  facet normal 0.0649329 -0.99789 0
    outer loop
      vertex 2.08419 -29.4558 3
      vertex -3.15169 -29.7965 5.28744e-16
      vertex 2.08419 -29.4558 0
    endloop
  endfacet
  facet normal 0.0649329 -0.99789 0
    outer loop
      vertex -3.15169 -29.7965 5.28744e-16
      vertex 2.08419 -29.4558 3
      vertex -3.15169 -29.7965 3
    endloop
  endfacet
  facet normal 0.539315 0.842104 0
    outer loop
      vertex -6.64993 -25.4811 1.76248e-14
      vertex -6.00459 -25.8944 3
      vertex -6.00459 -25.8944 1.76248e-14
    endloop
  endfacet
  facet normal 0.539315 0.842104 0
    outer loop
      vertex -6.00459 -25.8944 3
      vertex -6.64993 -25.4811 1.76248e-14
      vertex -6.64993 -25.4811 3
    endloop
  endfacet
  facet normal 0.352864 0.935675 0
    outer loop
      vertex -6.00459 -25.8944 3
      vertex -5.16481 -26.2111 1.76248e-14
      vertex -6.00459 -25.8944 1.76248e-14
    endloop
  endfacet
  facet normal 0.352864 0.935675 -0
    outer loop
      vertex -5.16481 -26.2111 1.76248e-14
      vertex -6.00459 -25.8944 3
      vertex -5.16481 -26.2111 3
    endloop
  endfacet
  facet normal 0.199011 0.979997 0
    outer loop
      vertex -5.16481 -26.2111 3
      vertex -4.18782 -26.4095 1.76248e-14
      vertex -5.16481 -26.2111 1.76248e-14
    endloop
  endfacet
  facet normal 0.199011 0.979997 -0
    outer loop
      vertex -4.18782 -26.4095 1.76248e-14
      vertex -5.16481 -26.2111 3
      vertex -4.18782 -26.4095 3
    endloop
  endfacet
  facet normal 0.0635431 0.997979 0
    outer loop
      vertex -4.18782 -26.4095 3
      vertex -3.14026 -26.4762 1.76248e-14
      vertex -4.18782 -26.4095 1.76248e-14
    endloop
  endfacet
  facet normal 0.0635431 0.997979 -0
    outer loop
      vertex -3.14026 -26.4762 1.76248e-14
      vertex -4.18782 -26.4095 3
      vertex -3.14026 -26.4762 3
    endloop
  endfacet
  facet normal -0.0663469 0.997797 0
    outer loop
      vertex -3.14026 -26.4762 3
      vertex -2.09354 -26.4066 1.76248e-14
      vertex -3.14026 -26.4762 1.76248e-14
    endloop
  endfacet
  facet normal -0.0663469 0.997797 0
    outer loop
      vertex -2.09354 -26.4066 1.76248e-14
      vertex -3.14026 -26.4762 3
      vertex -2.09354 -26.4066 3
    endloop
  endfacet
  facet normal 0.763931 0.645298 0
    outer loop
      vertex -7.05691 -24.9993 1.76248e-14
      vertex -6.64993 -25.4811 3
      vertex -6.64993 -25.4811 1.76248e-14
    endloop
  endfacet
  facet normal 0.763931 0.645298 0
    outer loop
      vertex -6.64993 -25.4811 3
      vertex -7.05691 -24.9993 1.76248e-14
      vertex -7.05691 -24.9993 3
    endloop
  endfacet
  facet normal -0.202058 0.979374 0
    outer loop
      vertex -2.09354 -26.4066 3
      vertex -1.11881 -26.2055 1.76248e-14
      vertex -2.09354 -26.4066 1.76248e-14
    endloop
  endfacet
  facet normal -0.202058 0.979374 0
    outer loop
      vertex -1.11881 -26.2055 1.76248e-14
      vertex -2.09354 -26.4066 3
      vertex -1.11881 -26.2055 3
    endloop
  endfacet
  facet normal -0.356569 0.934269 0
    outer loop
      vertex -1.11881 -26.2055 3
      vertex -0.282717 -25.8864 1.76248e-14
      vertex -1.11881 -26.2055 1.76248e-14
    endloop
  endfacet
  facet normal -0.356569 0.934269 0
    outer loop
      vertex -0.282717 -25.8864 1.76248e-14
      vertex -1.11881 -26.2055 3
      vertex -0.282717 -25.8864 3
    endloop
  endfacet
  facet normal -0.0649314 -0.99789 -0
    outer loop
      vertex -3.15169 -29.7965 3
      vertex -8.38769 -29.4558 5.28744e-16
      vertex -3.15169 -29.7965 5.28744e-16
    endloop
  endfacet
  facet normal -0.0649314 -0.99789 0
    outer loop
      vertex -8.38769 -29.4558 5.28744e-16
      vertex -3.15169 -29.7965 3
      vertex -8.38769 -29.4558 3
    endloop
  endfacet
  facet normal -0.20061 -0.979671 -0
    outer loop
      vertex -8.38769 -29.4558 3
      vertex -13.0138 -28.5085 5.28744e-16
      vertex -8.38769 -29.4558 5.28744e-16
    endloop
  endfacet
  facet normal -0.20061 -0.979671 0
    outer loop
      vertex -13.0138 -28.5085 5.28744e-16
      vertex -8.38769 -29.4558 3
      vertex -13.0138 -28.5085 3
    endloop
  endfacet
  facet normal 0 1 0
    outer loop
      vertex -13.0138 23.3635 3
      vertex 6.71044 23.3635 0
      vertex -13.0138 23.3635 0
    endloop
  endfacet
  facet normal 0 1 -0
    outer loop
      vertex 6.71044 23.3635 0
      vertex -13.0138 23.3635 3
      vertex 6.71044 23.3635 3
    endloop
  endfacet
  facet normal 1 0 0
    outer loop
      vertex 6.71044 18.2035 2.11497e-15
      vertex 6.71044 -28.5085 3
      vertex 6.71044 -28.5085 0
    endloop
  endfacet
  facet normal 1 -0 0
    outer loop
      vertex 6.71044 -28.5085 3
      vertex 6.71044 18.2035 2.11497e-15
      vertex 6.71044 18.2035 3
    endloop
  endfacet
  facet normal -1 -0 0
    outer loop
      vertex -13.0138 18.2035 3
      vertex -13.0138 -28.5085 5.28744e-16
      vertex -13.0138 -28.5085 3
    endloop
  endfacet
  facet normal -1 0 0
    outer loop
      vertex -13.0138 -28.5085 5.28744e-16
      vertex -13.0138 18.2035 3
      vertex -13.0138 18.2035 1.40998e-15
    endloop
  endfacet
  facet normal -0.413593 -0.910462 0
    outer loop
      vertex -13.0138 18.2035 1.40998e-15
      vertex -17.4165 20.2035 3
      vertex -17.4165 20.2035 0
    endloop
  endfacet
  facet normal -0.413593 -0.910462 0
    outer loop
      vertex -17.4165 20.2035 3
      vertex -13.0138 18.2035 1.40998e-15
      vertex -13.0138 18.2035 3
    endloop
  endfacet
  facet normal -0.426671 0.904407 0
    outer loop
      vertex 6.71044 18.2035 2.11497e-15
      vertex 10.9498 20.2035 3
      vertex 10.9498 20.2035 0
    endloop
  endfacet
  facet normal -0.426671 0.904407 0
    outer loop
      vertex 10.9498 20.2035 3
      vertex 6.71044 18.2035 2.11497e-15
      vertex 6.71044 18.2035 3
    endloop
  endfacet
endsolid OpenSCAD_Model
