solid OpenSCAD_Model
  facet normal -0.998026 0.0627962 0
    outer loop
      vertex -14.9528 0.75 6
      vertex -14.8817 1.88 -7
      vertex -14.9528 0.75 -7
    endloop
  endfacet
  facet normal -0.998026 0.0627962 0
    outer loop
      vertex -14.8817 1.88 -7
      vertex -14.9528 0.75 6
      vertex -14.8817 1.88 7.5
    endloop
  endfacet
  facet normal -0.998026 0.0628091 0
    outer loop
      vertex -15 0 7.5
      vertex -14.9528 0.75 6
      vertex -15 0 6
    endloop
  endfacet
  facet normal -0.998026 0.0628013 -3.89301e-06
    outer loop
      vertex -14.9528 0.75 6
      vertex -15 0 7.5
      vertex -14.8817 1.88 7.5
    endloop
  endfacet
  facet normal -0.904853 0.425724 0
    outer loop
      vertex -13.9466 5.52187 -7
      vertex -13.4864 6.5 7.5
      vertex -13.4864 6.5 -7
    endloop
  endfacet
  facet normal -0.904853 0.425724 0
    outer loop
      vertex -13.4864 6.5 7.5
      vertex -13.9466 5.52187 -7
      vertex -13.9466 5.52187 7.5
    endloop
  endfacet
  facet normal -0.904792 0.425854 0
    outer loop
      vertex -13.3527 6.78417 -7
      vertex -13.1446 7.22631 7.5
      vertex -13.1446 7.22631 -7
    endloop
  endfacet
  facet normal -0.904792 0.425854 0
    outer loop
      vertex -13.1446 7.22631 7.5
      vertex -13.3527 6.78417 -7
      vertex -13.3527 6.78417 7.5
    endloop
  endfacet
  facet normal -0.951057 0.309017 0
    outer loop
      vertex -14.5287 3.73035 -7
      vertex -13.9466 5.52187 7.5
      vertex -13.9466 5.52187 -7
    endloop
  endfacet
  facet normal -0.951057 0.309017 0
    outer loop
      vertex -13.9466 5.52187 7.5
      vertex -14.5287 3.73035 -7
      vertex -14.5287 3.73035 7.5
    endloop
  endfacet
  facet normal -0.844316 0.535846 0
    outer loop
      vertex -13.1446 7.22631 -7
      vertex -13.0287 7.40893 7.5
      vertex -13.0287 7.40893 -7
    endloop
  endfacet
  facet normal -0.844316 0.535846 0
    outer loop
      vertex -13.0287 7.40893 7.5
      vertex -13.1446 7.22631 -7
      vertex -13.1446 7.22631 7.5
    endloop
  endfacet
  facet normal -0.982285 0.187395 0
    outer loop
      vertex -14.8817 1.88 -7
      vertex -14.5287 3.73035 7.5
      vertex -14.5287 3.73035 -7
    endloop
  endfacet
  facet normal -0.982285 0.187395 0
    outer loop
      vertex -14.5287 3.73035 7.5
      vertex -14.8817 1.88 -7
      vertex -14.8817 1.88 7.5
    endloop
  endfacet
  facet normal 0 0 1
    outer loop
      vertex -19.5 6.5 7.5
      vertex -19.6473 6.78415 7.5
      vertex -19.5136 6.5 7.5
    endloop
  endfacet
  facet normal 0 0 1
    outer loop
      vertex -28 -4.5 7.5
      vertex -18 0 7.5
      vertex -18.1183 1.88 7.5
    endloop
  endfacet
  facet normal 0 0 1
    outer loop
      vertex -28 -4.5 7.5
      vertex -18.1183 1.88 7.5
      vertex -18.4713 3.73035 7.5
    endloop
  endfacet
  facet normal 0 0 1
    outer loop
      vertex -18 0 7.5
      vertex -28 -4.5 7.5
      vertex -18.1183 -1.88 7.5
    endloop
  endfacet
  facet normal 0 0 1
    outer loop
      vertex -18.1183 -1.88 7.5
      vertex -28 -4.5 7.5
      vertex -18.4713 -3.73035 7.5
    endloop
  endfacet
  facet normal 0 0 1
    outer loop
      vertex -28 -4.5 7.5
      vertex -18.4713 3.73035 7.5
      vertex -19.0534 5.52187 7.5
    endloop
  endfacet
  facet normal 0 0 1
    outer loop
      vertex -28 -4.5 7.5
      vertex -19.0534 5.52187 7.5
      vertex -19.5136 6.5 7.5
    endloop
  endfacet
  facet normal 0 0 1
    outer loop
      vertex -28 -4.5 7.5
      vertex -19.5136 6.5 7.5
      vertex -19.6473 6.78415 7.5
    endloop
  endfacet
  facet normal 0 0 1
    outer loop
      vertex -19.9713 7.40893 7.5
      vertex -19.6473 6.78415 7.5
      vertex -19.8554 7.22631 7.5
    endloop
  endfacet
  facet normal 0 0 1
    outer loop
      vertex -19.6473 6.78415 7.5
      vertex -19.9713 7.40893 7.5
      vertex -28 -4.5 7.5
    endloop
  endfacet
  facet normal -0 0 1
    outer loop
      vertex -28 20 7.5
      vertex -19.9713 7.40893 7.5
      vertex -26.5 20 7.5
    endloop
  endfacet
  facet normal 0 0 1
    outer loop
      vertex -19.9713 7.40893 7.5
      vertex -28 20 7.5
      vertex -28 -4.5 7.5
    endloop
  endfacet
  facet normal 0 0 1
    outer loop
      vertex -18.4713 -3.73035 7.5
      vertex -28 -4.5 7.5
      vertex -18.7213 -4.5 7.5
    endloop
  endfacet
  facet normal 0 0 1
    outer loop
      vertex -13.3527 6.78417 7.5
      vertex -13.5 6.5 7.5
      vertex -13.4864 6.5 7.5
    endloop
  endfacet
  facet normal 0 0 1
    outer loop
      vertex -13.0287 7.40893 7.5
      vertex -5 20 7.5
      vertex -6.5 20 7.5
    endloop
  endfacet
  facet normal 0 0 1
    outer loop
      vertex -5 20 7.5
      vertex -13.0287 7.40893 7.5
      vertex -5 -4.5 7.5
    endloop
  endfacet
  facet normal 0 0 1
    outer loop
      vertex -13.3527 6.78417 7.5
      vertex -13.0287 7.40893 7.5
      vertex -13.1446 7.22631 7.5
    endloop
  endfacet
  facet normal 0 0 1
    outer loop
      vertex -13.0287 7.40893 7.5
      vertex -13.3527 6.78417 7.5
      vertex -5 -4.5 7.5
    endloop
  endfacet
  facet normal -0 0 1
    outer loop
      vertex -13.4864 6.5 7.5
      vertex -5 -4.5 7.5
      vertex -13.3527 6.78417 7.5
    endloop
  endfacet
  facet normal -0 0 1
    outer loop
      vertex -13.9466 5.52187 7.5
      vertex -5 -4.5 7.5
      vertex -13.4864 6.5 7.5
    endloop
  endfacet
  facet normal -0 0 1
    outer loop
      vertex -14.5287 3.73035 7.5
      vertex -5 -4.5 7.5
      vertex -13.9466 5.52187 7.5
    endloop
  endfacet
  facet normal -0 0 1
    outer loop
      vertex -14.8817 1.88 7.5
      vertex -5 -4.5 7.5
      vertex -14.5287 3.73035 7.5
    endloop
  endfacet
  facet normal -0 0 1
    outer loop
      vertex -15 0 7.5
      vertex -5 -4.5 7.5
      vertex -14.8817 1.88 7.5
    endloop
  endfacet
  facet normal -0 -0 1
    outer loop
      vertex -14.5287 -3.73035 7.5
      vertex -5 -4.5 7.5
      vertex -14.8817 -1.88 7.5
    endloop
  endfacet
  facet normal 0 0 1
    outer loop
      vertex -5 -4.5 7.5
      vertex -14.5287 -3.73035 7.5
      vertex -14.2787 -4.5 7.5
    endloop
  endfacet
  facet normal 0 0 1
    outer loop
      vertex -5 -4.5 7.5
      vertex -15 0 7.5
      vertex -14.8817 -1.88 7.5
    endloop
  endfacet
  facet normal -0.951084 -0.308934 0
    outer loop
      vertex -14.2787 -4.5 -7
      vertex -14.5287 -3.73035 7.5
      vertex -14.5287 -3.73035 -7
    endloop
  endfacet
  facet normal -0.951084 -0.308934 0
    outer loop
      vertex -14.5287 -3.73035 7.5
      vertex -14.2787 -4.5 -7
      vertex -14.2787 -4.5 7.5
    endloop
  endfacet
  facet normal -0.982285 -0.187395 0
    outer loop
      vertex -14.5287 -3.73035 -7
      vertex -14.8817 -1.88 7.5
      vertex -14.8817 -1.88 -7
    endloop
  endfacet
  facet normal -0.982285 -0.187395 0
    outer loop
      vertex -14.8817 -1.88 7.5
      vertex -14.5287 -3.73035 -7
      vertex -14.5287 -3.73035 7.5
    endloop
  endfacet
  facet normal -0.99802 -0.0628911 0
    outer loop
      vertex -14.9214 -1.25 -7
      vertex -14.8817 -1.88 -7
      vertex -14.9214 -1.25 6
    endloop
  endfacet
  facet normal -0.998029 -0.0627561 0
    outer loop
      vertex -14.9214 -1.25 6
      vertex -15 0 7.5
      vertex -15 0 6
    endloop
  endfacet
  facet normal -0.998026 -0.0628013 3.78684e-05
    outer loop
      vertex -14.9214 -1.25 6
      vertex -14.8817 -1.88 7.5
      vertex -15 0 7.5
    endloop
  endfacet
  facet normal -0.99802 -0.0628911 -0
    outer loop
      vertex -14.8817 -1.88 7.5
      vertex -14.9214 -1.25 6
      vertex -14.8817 -1.88 -7
    endloop
  endfacet
  facet normal 0.998026 0.0627962 0
    outer loop
      vertex -18.1183 1.88 7.5
      vertex -18.0472 0.75 6
      vertex -18.1183 1.88 -7
    endloop
  endfacet
  facet normal 0.998026 0.0628013 -3.89301e-06
    outer loop
      vertex -18 0 7.5
      vertex -18.0472 0.75 6
      vertex -18.1183 1.88 7.5
    endloop
  endfacet
  facet normal 0.998026 0.0628091 0
    outer loop
      vertex -18.0472 0.75 6
      vertex -18 0 7.5
      vertex -18 0 6
    endloop
  endfacet
  facet normal 0.998026 0.0627962 0
    outer loop
      vertex -18.1183 1.88 -7
      vertex -18.0472 0.75 6
      vertex -18.0472 0.75 -7
    endloop
  endfacet
  facet normal 0.904853 0.425724 0
    outer loop
      vertex -19.0534 5.52187 7.5
      vertex -19.5136 6.5 -7
      vertex -19.5136 6.5 7.5
    endloop
  endfacet
  facet normal 0.904853 0.425724 0
    outer loop
      vertex -19.5136 6.5 -7
      vertex -19.0534 5.52187 7.5
      vertex -19.0534 5.52187 -7
    endloop
  endfacet
  facet normal 0.904799 0.425838 0
    outer loop
      vertex -19.6473 6.78415 7.5
      vertex -19.8554 7.22631 -7
      vertex -19.8554 7.22631 7.5
    endloop
  endfacet
  facet normal 0.904799 0.425838 0
    outer loop
      vertex -19.8554 7.22631 -7
      vertex -19.6473 6.78415 7.5
      vertex -19.6473 6.78415 -7
    endloop
  endfacet
  facet normal 0.844316 0.535846 0
    outer loop
      vertex -19.8554 7.22631 7.5
      vertex -19.9713 7.40893 -7
      vertex -19.9713 7.40893 7.5
    endloop
  endfacet
  facet normal 0.844316 0.535846 0
    outer loop
      vertex -19.9713 7.40893 -7
      vertex -19.8554 7.22631 7.5
      vertex -19.8554 7.22631 -7
    endloop
  endfacet
  facet normal 0.951084 -0.308934 0
    outer loop
      vertex -18.7213 -4.5 7.5
      vertex -18.4713 -3.73035 -7
      vertex -18.4713 -3.73035 7.5
    endloop
  endfacet
  facet normal 0.951084 -0.308934 0
    outer loop
      vertex -18.4713 -3.73035 -7
      vertex -18.7213 -4.5 7.5
      vertex -18.7213 -4.5 -7
    endloop
  endfacet
  facet normal 0.951057 0.309017 0
    outer loop
      vertex -18.4713 3.73035 7.5
      vertex -19.0534 5.52187 -7
      vertex -19.0534 5.52187 7.5
    endloop
  endfacet
  facet normal 0.951057 0.309017 0
    outer loop
      vertex -19.0534 5.52187 -7
      vertex -18.4713 3.73035 7.5
      vertex -18.4713 3.73035 -7
    endloop
  endfacet
  facet normal 0.982285 0.187395 0
    outer loop
      vertex -18.1183 1.88 7.5
      vertex -18.4713 3.73035 -7
      vertex -18.4713 3.73035 7.5
    endloop
  endfacet
  facet normal 0.982285 0.187395 0
    outer loop
      vertex -18.4713 3.73035 -7
      vertex -18.1183 1.88 7.5
      vertex -18.1183 1.88 -7
    endloop
  endfacet
  facet normal 0.982285 -0.187395 0
    outer loop
      vertex -18.4713 -3.73035 7.5
      vertex -18.1183 -1.88 -7
      vertex -18.1183 -1.88 7.5
    endloop
  endfacet
  facet normal 0.982285 -0.187395 0
    outer loop
      vertex -18.1183 -1.88 -7
      vertex -18.4713 -3.73035 7.5
      vertex -18.4713 -3.73035 -7
    endloop
  endfacet
  facet normal 0.998029 -0.0627561 0
    outer loop
      vertex -18 0 7.5
      vertex -18.0786 -1.25 6
      vertex -18 0 6
    endloop
  endfacet
  facet normal 0.998026 -0.0628013 3.78684e-05
    outer loop
      vertex -18.1183 -1.88 7.5
      vertex -18.0786 -1.25 6
      vertex -18 0 7.5
    endloop
  endfacet
  facet normal 0.99802 -0.0628911 0
    outer loop
      vertex -18.1183 -1.88 -7
      vertex -18.0786 -1.25 6
      vertex -18.1183 -1.88 7.5
    endloop
  endfacet
  facet normal 0.99802 -0.0628911 0
    outer loop
      vertex -18.0786 -1.25 6
      vertex -18.1183 -1.88 -7
      vertex -18.0786 -1.25 -7
    endloop
  endfacet
  facet normal 0 -1 0
    outer loop
      vertex -13.5 6.5 -7
      vertex -13.4864 6.5 7.5
      vertex -13.5 6.5 7.5
    endloop
  endfacet
  facet normal 0 -1 -0
    outer loop
      vertex -13.4864 6.5 7.5
      vertex -13.5 6.5 -7
      vertex -13.4864 6.5 -7
    endloop
  endfacet
  facet normal -0.887815 0.4602 0
    outer loop
      vertex -13.5 6.5 -7
      vertex -13.3527 6.78417 7.5
      vertex -13.3527 6.78417 -7
    endloop
  endfacet
  facet normal -0.887815 0.4602 0
    outer loop
      vertex -13.3527 6.78417 7.5
      vertex -13.5 6.5 -7
      vertex -13.5 6.5 7.5
    endloop
  endfacet
  facet normal -0.887755 0.460317 0
    outer loop
      vertex -13.0287 7.40893 -7
      vertex -6.5 20 7.5
      vertex -6.5 20 -7
    endloop
  endfacet
  facet normal -0.887755 0.460317 0
    outer loop
      vertex -6.5 20 7.5
      vertex -13.0287 7.40893 -7
      vertex -13.0287 7.40893 7.5
    endloop
  endfacet
  facet normal 0 -1 0
    outer loop
      vertex -19.5136 6.5 -7
      vertex -19.5 6.5 7.5
      vertex -19.5136 6.5 7.5
    endloop
  endfacet
  facet normal 0 -1 -0
    outer loop
      vertex -19.5 6.5 7.5
      vertex -19.5136 6.5 -7
      vertex -19.5 6.5 -7
    endloop
  endfacet
  facet normal 0.887802 0.460226 0
    outer loop
      vertex -19.5 6.5 7.5
      vertex -19.6473 6.78415 -7
      vertex -19.6473 6.78415 7.5
    endloop
  endfacet
  facet normal 0.887802 0.460226 0
    outer loop
      vertex -19.6473 6.78415 -7
      vertex -19.5 6.5 7.5
      vertex -19.5 6.5 -7
    endloop
  endfacet
  facet normal 0.887755 0.460317 0
    outer loop
      vertex -19.9713 7.40893 7.5
      vertex -26.5 20 -7
      vertex -26.5 20 7.5
    endloop
  endfacet
  facet normal 0.887755 0.460317 0
    outer loop
      vertex -26.5 20 -7
      vertex -19.9713 7.40893 7.5
      vertex -19.9713 7.40893 -7
    endloop
  endfacet
  facet normal 1 -0 0
    outer loop
      vertex -5 -4.5 7.5
      vertex -5 20 -7
      vertex -5 20 7.5
    endloop
  endfacet
  facet normal 1 0 0
    outer loop
      vertex -5 20 -7
      vertex -5 -4.5 7.5
      vertex -5 -4.5 -7
    endloop
  endfacet
  facet normal -1 0 0
    outer loop
      vertex -28 -4.5 -7
      vertex -28 20 7.5
      vertex -28 20 -7
    endloop
  endfacet
  facet normal -1 -0 0
    outer loop
      vertex -28 20 7.5
      vertex -28 -4.5 -7
      vertex -28 -4.5 7.5
    endloop
  endfacet
  facet normal 0 -1 0
    outer loop
      vertex -28 -4.5 -7
      vertex -18.7213 -4.5 7.5
      vertex -28 -4.5 7.5
    endloop
  endfacet
  facet normal 0 -1 -0
    outer loop
      vertex -18.7213 -4.5 7.5
      vertex -28 -4.5 -7
      vertex -18.7213 -4.5 -7
    endloop
  endfacet
  facet normal 0 -1 0
    outer loop
      vertex -14.2787 -4.5 -7
      vertex -5 -4.5 7.5
      vertex -14.2787 -4.5 7.5
    endloop
  endfacet
  facet normal 0 -1 -0
    outer loop
      vertex -5 -4.5 7.5
      vertex -14.2787 -4.5 -7
      vertex -5 -4.5 -7
    endloop
  endfacet
  facet normal 0 1 -0
    outer loop
      vertex -0.75 20 -9
      vertex -5 20 -7
      vertex -0.75 20 -7
    endloop
  endfacet
  facet normal 0 1 0
    outer loop
      vertex -5 20 -7
      vertex -0.75 20 -9
      vertex -6.5 20 -7
    endloop
  endfacet
  facet normal 0 1 0
    outer loop
      vertex -31.75 20 -9
      vertex -6.5 20 -7
      vertex -0.75 20 -9
    endloop
  endfacet
  facet normal 0 1 0
    outer loop
      vertex -6.5 20 -7
      vertex -31.75 20 -9
      vertex -26.5 20 -7
    endloop
  endfacet
  facet normal 0 1 0
    outer loop
      vertex -26.5 20 -7
      vertex -31.75 20 -9
      vertex -28 20 -7
    endloop
  endfacet
  facet normal 0 1 0
    outer loop
      vertex -28 20 -7
      vertex -31.75 20 -9
      vertex -31.75 20 -7
    endloop
  endfacet
  facet normal 0 1 -0
    outer loop
      vertex -26.5 20 -7
      vertex -28 20 7.5
      vertex -26.5 20 7.5
    endloop
  endfacet
  facet normal 0 1 0
    outer loop
      vertex -28 20 7.5
      vertex -26.5 20 -7
      vertex -28 20 -7
    endloop
  endfacet
  facet normal 0 1 -0
    outer loop
      vertex -5 20 -7
      vertex -6.5 20 7.5
      vertex -5 20 7.5
    endloop
  endfacet
  facet normal 0 1 0
    outer loop
      vertex -6.5 20 7.5
      vertex -5 20 -7
      vertex -6.5 20 -7
    endloop
  endfacet
  facet normal 1 -0 0
    outer loop
      vertex -13.65 -3 6
      vertex -13.65 -1.25 -9
      vertex -13.65 -1.25 6
    endloop
  endfacet
  facet normal 1 0 0
    outer loop
      vertex -13.65 -1.25 -9
      vertex -13.65 -3 6
      vertex -13.65 -3 -9
    endloop
  endfacet
  facet normal 1 -0 0
    outer loop
      vertex -13.65 0.75 6
      vertex -13.65 2.5 -9
      vertex -13.65 2.5 6
    endloop
  endfacet
  facet normal 1 0 0
    outer loop
      vertex -13.65 2.5 -9
      vertex -13.65 0.75 6
      vertex -13.65 0.75 -9
    endloop
  endfacet
  facet normal 0 0 -1
    outer loop
      vertex -15 0 6
      vertex -13.65 -1.25 6
      vertex -14.9214 -1.25 6
    endloop
  endfacet
  facet normal 0 0 -1
    outer loop
      vertex -13.65 -1.25 6
      vertex -15 0 6
      vertex -13.65 0.75 6
    endloop
  endfacet
  facet normal -0 0 -1
    outer loop
      vertex -13.65 0.75 6
      vertex -15 0 6
      vertex -14.9528 0.75 6
    endloop
  endfacet
  facet normal 0 0 -1
    outer loop
      vertex -13.65 -1.25 6
      vertex -11.35 -3 6
      vertex -13.65 -3 6
    endloop
  endfacet
  facet normal 0 0 -1
    outer loop
      vertex -11.35 -3 6
      vertex -13.65 -1.25 6
      vertex -11.35 2.5 6
    endloop
  endfacet
  facet normal 0 0 -1
    outer loop
      vertex -13.65 0.75 6
      vertex -11.35 2.5 6
      vertex -13.65 -1.25 6
    endloop
  endfacet
  facet normal -0 0 -1
    outer loop
      vertex -11.35 2.5 6
      vertex -13.65 0.75 6
      vertex -13.65 2.5 6
    endloop
  endfacet
  facet normal -1 0 0
    outer loop
      vertex -11.35 -3 -9
      vertex -11.35 2.5 6
      vertex -11.35 2.5 -9
    endloop
  endfacet
  facet normal -1 -0 0
    outer loop
      vertex -11.35 2.5 6
      vertex -11.35 -3 -9
      vertex -11.35 -3 6
    endloop
  endfacet
  facet normal 0 -1 0
    outer loop
      vertex -13.65 2.5 -9
      vertex -11.35 2.5 6
      vertex -13.65 2.5 6
    endloop
  endfacet
  facet normal 0 -1 -0
    outer loop
      vertex -11.35 2.5 6
      vertex -13.65 2.5 -9
      vertex -11.35 2.5 -9
    endloop
  endfacet
  facet normal 0 1 -0
    outer loop
      vertex -11.35 -3 -9
      vertex -13.65 -3 6
      vertex -11.35 -3 6
    endloop
  endfacet
  facet normal 0 1 0
    outer loop
      vertex -13.65 -3 6
      vertex -11.35 -3 -9
      vertex -13.65 -3 -9
    endloop
  endfacet
  facet normal 1 -0 0
    outer loop
      vertex -15.05 -1.25 -7
      vertex -15.05 0.75 -9
      vertex -15.05 0.75 -7
    endloop
  endfacet
  facet normal 1 0 0
    outer loop
      vertex -15.05 0.75 -9
      vertex -15.05 -1.25 -7
      vertex -15.05 -1.25 -9
    endloop
  endfacet
  facet normal 0 1 0
    outer loop
      vertex -13.65 -1.25 6
      vertex -14.9214 -1.25 -7
      vertex -14.9214 -1.25 6
    endloop
  endfacet
  facet normal 0 1 -0
    outer loop
      vertex -13.65 -1.25 -9
      vertex -14.9214 -1.25 -7
      vertex -13.65 -1.25 6
    endloop
  endfacet
  facet normal 0 1 0
    outer loop
      vertex -15.05 -1.25 -9
      vertex -14.9214 -1.25 -7
      vertex -13.65 -1.25 -9
    endloop
  endfacet
  facet normal 0 1 0
    outer loop
      vertex -14.9214 -1.25 -7
      vertex -15.05 -1.25 -9
      vertex -15.05 -1.25 -7
    endloop
  endfacet
  facet normal 0 -1 0
    outer loop
      vertex -15.05 0.75 -7
      vertex -15.05 0.75 -9
      vertex -14.9528 0.75 -7
    endloop
  endfacet
  facet normal 0 -1 0
    outer loop
      vertex -14.9528 0.75 -7
      vertex -13.65 0.75 6
      vertex -14.9528 0.75 6
    endloop
  endfacet
  facet normal 0 -1 0
    outer loop
      vertex -13.65 0.75 -9
      vertex -14.9528 0.75 -7
      vertex -15.05 0.75 -9
    endloop
  endfacet
  facet normal 0 -1 0
    outer loop
      vertex -14.9528 0.75 -7
      vertex -13.65 0.75 -9
      vertex -13.65 0.75 6
    endloop
  endfacet
  facet normal -1 0 0
    outer loop
      vertex -19.35 0.75 -9
      vertex -19.35 2.5 6
      vertex -19.35 2.5 -9
    endloop
  endfacet
  facet normal -1 -0 0
    outer loop
      vertex -19.35 2.5 6
      vertex -19.35 0.75 -9
      vertex -19.35 0.75 6
    endloop
  endfacet
  facet normal -1 0 0
    outer loop
      vertex -19.35 -3 -9
      vertex -19.35 -1.25 6
      vertex -19.35 -1.25 -9
    endloop
  endfacet
  facet normal -1 -0 0
    outer loop
      vertex -19.35 -1.25 6
      vertex -19.35 -3 -9
      vertex -19.35 -3 6
    endloop
  endfacet
  facet normal 0 0 -1
    outer loop
      vertex -21.65 -3 6
      vertex -19.35 -1.25 6
      vertex -19.35 -3 6
    endloop
  endfacet
  facet normal -0 0 -1
    outer loop
      vertex -19.35 -1.25 6
      vertex -21.65 -3 6
      vertex -19.35 0.75 6
    endloop
  endfacet
  facet normal 0 0 -1
    outer loop
      vertex -21.65 2.5 6
      vertex -19.35 0.75 6
      vertex -21.65 -3 6
    endloop
  endfacet
  facet normal 0 0 -1
    outer loop
      vertex -19.35 0.75 6
      vertex -21.65 2.5 6
      vertex -19.35 2.5 6
    endloop
  endfacet
  facet normal 0 0 -1
    outer loop
      vertex -19.35 -1.25 6
      vertex -18 0 6
      vertex -18.0786 -1.25 6
    endloop
  endfacet
  facet normal -0 0 -1
    outer loop
      vertex -18 0 6
      vertex -19.35 -1.25 6
      vertex -19.35 0.75 6
    endloop
  endfacet
  facet normal 0 0 -1
    outer loop
      vertex -18 0 6
      vertex -19.35 0.75 6
      vertex -18.0472 0.75 6
    endloop
  endfacet
  facet normal 1 -0 0
    outer loop
      vertex -21.65 -3 6
      vertex -21.65 2.5 -9
      vertex -21.65 2.5 6
    endloop
  endfacet
  facet normal 1 0 0
    outer loop
      vertex -21.65 2.5 -9
      vertex -21.65 -3 6
      vertex -21.65 -3 -9
    endloop
  endfacet
  facet normal 0 1 -0
    outer loop
      vertex -19.35 -3 -9
      vertex -21.65 -3 6
      vertex -19.35 -3 6
    endloop
  endfacet
  facet normal 0 1 0
    outer loop
      vertex -21.65 -3 6
      vertex -19.35 -3 -9
      vertex -21.65 -3 -9
    endloop
  endfacet
  facet normal 0 -1 0
    outer loop
      vertex -21.65 2.5 -9
      vertex -19.35 2.5 6
      vertex -21.65 2.5 6
    endloop
  endfacet
  facet normal 0 -1 -0
    outer loop
      vertex -19.35 2.5 6
      vertex -21.65 2.5 -9
      vertex -19.35 2.5 -9
    endloop
  endfacet
  facet normal -1 0 0
    outer loop
      vertex -17.95 -1.25 -9
      vertex -17.95 0.75 -7
      vertex -17.95 0.75 -9
    endloop
  endfacet
  facet normal -1 -0 0
    outer loop
      vertex -17.95 0.75 -7
      vertex -17.95 -1.25 -9
      vertex -17.95 -1.25 -7
    endloop
  endfacet
  facet normal 0 -1 0
    outer loop
      vertex -19.35 0.75 6
      vertex -18.0472 0.75 -7
      vertex -18.0472 0.75 6
    endloop
  endfacet
  facet normal 0 -1 0
    outer loop
      vertex -19.35 0.75 -9
      vertex -18.0472 0.75 -7
      vertex -19.35 0.75 6
    endloop
  endfacet
  facet normal 0 -1 0
    outer loop
      vertex -17.95 0.75 -9
      vertex -18.0472 0.75 -7
      vertex -19.35 0.75 -9
    endloop
  endfacet
  facet normal 0 -1 0
    outer loop
      vertex -18.0472 0.75 -7
      vertex -17.95 0.75 -9
      vertex -17.95 0.75 -7
    endloop
  endfacet
  facet normal 0 1 0
    outer loop
      vertex -17.95 -1.25 -7
      vertex -17.95 -1.25 -9
      vertex -18.0786 -1.25 -7
    endloop
  endfacet
  facet normal 0 1 -0
    outer loop
      vertex -18.0786 -1.25 -7
      vertex -19.35 -1.25 6
      vertex -18.0786 -1.25 6
    endloop
  endfacet
  facet normal 0 1 0
    outer loop
      vertex -19.35 -1.25 -9
      vertex -18.0786 -1.25 -7
      vertex -17.95 -1.25 -9
    endloop
  endfacet
  facet normal 0 1 0
    outer loop
      vertex -18.0786 -1.25 -7
      vertex -19.35 -1.25 -9
      vertex -19.35 -1.25 6
    endloop
  endfacet
  facet normal -1 0 0
    outer loop
      vertex -31.75 -31 -9
      vertex -31.75 20 -7
      vertex -31.75 20 -9
    endloop
  endfacet
  facet normal -1 -0 0
    outer loop
      vertex -31.75 20 -7
      vertex -31.75 -31 -9
      vertex -31.75 -31 -7
    endloop
  endfacet
  facet normal 0 0 1
    outer loop
      vertex -28 20 -7
      vertex -31.75 20 -7
      vertex -28 -4.5 -7
    endloop
  endfacet
  facet normal 0 0 1
    outer loop
      vertex -19.9713 7.40893 -7
      vertex -13.0287 7.40893 -7
      vertex -6.5 20 -7
    endloop
  endfacet
  facet normal 0 0 1
    outer loop
      vertex -19.6473 6.78415 -7
      vertex -13.3527 6.78417 -7
      vertex -13.1446 7.22631 -7
    endloop
  endfacet
  facet normal 0 0 1
    outer loop
      vertex -14.8817 1.88 -7
      vertex -15.05 0.75 -7
      vertex -14.9528 0.75 -7
    endloop
  endfacet
  facet normal 0 0 1
    outer loop
      vertex -15.05 0.75 -7
      vertex -17.95 0.75 -7
      vertex -15.05 -1.25 -7
    endloop
  endfacet
  facet normal 0 0 1
    outer loop
      vertex -14.8817 1.88 -7
      vertex -17.95 0.75 -7
      vertex -15.05 0.75 -7
    endloop
  endfacet
  facet normal 0 0 1
    outer loop
      vertex -18.1183 1.88 -7
      vertex -14.8817 1.88 -7
      vertex -14.5287 3.73035 -7
    endloop
  endfacet
  facet normal 0 0 1
    outer loop
      vertex -18.4713 3.73035 -7
      vertex -14.5287 3.73035 -7
      vertex -13.9466 5.52187 -7
    endloop
  endfacet
  facet normal 0 0 1
    outer loop
      vertex -19.0534 5.52187 -7
      vertex -13.9466 5.52187 -7
      vertex -13.5 6.5 -7
    endloop
  endfacet
  facet normal 0 0 1
    outer loop
      vertex -13.3527 6.78417 -7
      vertex -19.6473 6.78415 -7
      vertex -13.5 6.5 -7
    endloop
  endfacet
  facet normal 0 0 1
    outer loop
      vertex -13.0287 7.40893 -7
      vertex -19.9713 7.40893 -7
      vertex -13.1446 7.22631 -7
    endloop
  endfacet
  facet normal 0 0 1
    outer loop
      vertex -14.8817 1.88 -7
      vertex -18.1183 1.88 -7
      vertex -17.95 0.75 -7
    endloop
  endfacet
  facet normal 0 0 1
    outer loop
      vertex -17.95 0.75 -7
      vertex -18.1183 1.88 -7
      vertex -18.0472 0.75 -7
    endloop
  endfacet
  facet normal 0 0 1
    outer loop
      vertex -14.5287 3.73035 -7
      vertex -18.4713 3.73035 -7
      vertex -18.1183 1.88 -7
    endloop
  endfacet
  facet normal 0 0 1
    outer loop
      vertex -13.9466 5.52187 -7
      vertex -19.0534 5.52187 -7
      vertex -18.4713 3.73035 -7
    endloop
  endfacet
  facet normal 0 0 1
    outer loop
      vertex -13.5 6.5 -7
      vertex -19.5 6.5 -7
      vertex -19.0534 5.52187 -7
    endloop
  endfacet
  facet normal 0 0 1
    outer loop
      vertex -13.5 6.5 -7
      vertex -19.6473 6.78415 -7
      vertex -19.5 6.5 -7
    endloop
  endfacet
  facet normal 0 0 1
    outer loop
      vertex -13.1446 7.22631 -7
      vertex -19.8554 7.22631 -7
      vertex -19.6473 6.78415 -7
    endloop
  endfacet
  facet normal 0 0 1
    outer loop
      vertex -13.1446 7.22631 -7
      vertex -19.9713 7.40893 -7
      vertex -19.8554 7.22631 -7
    endloop
  endfacet
  facet normal 0 -0 1
    outer loop
      vertex -19.9713 7.40893 -7
      vertex -6.5 20 -7
      vertex -26.5 20 -7
    endloop
  endfacet
  facet normal 0 0 1
    outer loop
      vertex -13.4864 6.5 -7
      vertex -13.5 6.5 -7
      vertex -13.9466 5.52187 -7
    endloop
  endfacet
  facet normal 0 0 1
    outer loop
      vertex -5 -4.5 -7
      vertex -0.75 20 -7
      vertex -5 20 -7
    endloop
  endfacet
  facet normal 0 0 1
    outer loop
      vertex -0.75 20 -7
      vertex -5 -4.5 -7
      vertex -0.75 -31 -7
    endloop
  endfacet
  facet normal -0 0 1
    outer loop
      vertex -14.2787 -4.5 -7
      vertex -0.75 -31 -7
      vertex -5 -4.5 -7
    endloop
  endfacet
  facet normal -0 0 1
    outer loop
      vertex -15.05 -1.25 -7
      vertex -14.8817 -1.88 -7
      vertex -14.9214 -1.25 -7
    endloop
  endfacet
  facet normal 0 0 1
    outer loop
      vertex -18.1183 -1.88 -7
      vertex -14.8817 -1.88 -7
      vertex -15.05 -1.25 -7
    endloop
  endfacet
  facet normal 0 0 1
    outer loop
      vertex -17.95 -1.25 -7
      vertex -15.05 -1.25 -7
      vertex -17.95 0.75 -7
    endloop
  endfacet
  facet normal 0 0 1
    outer loop
      vertex -18.1183 -1.88 -7
      vertex -15.05 -1.25 -7
      vertex -17.95 -1.25 -7
    endloop
  endfacet
  facet normal 0 0 1
    outer loop
      vertex -14.8817 -1.88 -7
      vertex -18.1183 -1.88 -7
      vertex -14.5287 -3.73035 -7
    endloop
  endfacet
  facet normal 0 0 1
    outer loop
      vertex -18.4713 -3.73035 -7
      vertex -14.5287 -3.73035 -7
      vertex -18.1183 -1.88 -7
    endloop
  endfacet
  facet normal 0 0 1
    outer loop
      vertex -18.1183 -1.88 -7
      vertex -17.95 -1.25 -7
      vertex -18.0786 -1.25 -7
    endloop
  endfacet
  facet normal 0 0 1
    outer loop
      vertex -14.5287 -3.73035 -7
      vertex -18.4713 -3.73035 -7
      vertex -14.2787 -4.5 -7
    endloop
  endfacet
  facet normal 0 0 1
    outer loop
      vertex -18.7213 -4.5 -7
      vertex -14.2787 -4.5 -7
      vertex -18.4713 -3.73035 -7
    endloop
  endfacet
  facet normal 0 0 1
    outer loop
      vertex -31.75 -31 -7
      vertex -14.2787 -4.5 -7
      vertex -18.7213 -4.5 -7
    endloop
  endfacet
  facet normal 0 0 1
    outer loop
      vertex -31.75 -31 -7
      vertex -18.7213 -4.5 -7
      vertex -28 -4.5 -7
    endloop
  endfacet
  facet normal 0 0 1
    outer loop
      vertex -14.2787 -4.5 -7
      vertex -31.75 -31 -7
      vertex -0.75 -31 -7
    endloop
  endfacet
  facet normal 0 0 1
    outer loop
      vertex -31.75 -31 -7
      vertex -28 -4.5 -7
      vertex -31.75 20 -7
    endloop
  endfacet
  facet normal 0 0 1
    outer loop
      vertex -19.0534 5.52187 -7
      vertex -19.5 6.5 -7
      vertex -19.5136 6.5 -7
    endloop
  endfacet
  facet normal 1 -0 0
    outer loop
      vertex -0.75 -31 -7
      vertex -0.75 20 -9
      vertex -0.75 20 -7
    endloop
  endfacet
  facet normal 1 0 0
    outer loop
      vertex -0.75 20 -9
      vertex -0.75 -31 -7
      vertex -0.75 -31 -9
    endloop
  endfacet
  facet normal 0 0 -1
    outer loop
      vertex -13.65 0.75 -9
      vertex -15.05 0.75 -9
      vertex -13.65 2.5 -9
    endloop
  endfacet
  facet normal 0 0 -1
    outer loop
      vertex -0.75 -31 -9
      vertex -11.35 -3 -9
      vertex -0.75 20 -9
    endloop
  endfacet
  facet normal 0 0 -1
    outer loop
      vertex -0.75 -31 -9
      vertex -13.65 -3 -9
      vertex -11.35 -3 -9
    endloop
  endfacet
  facet normal 0 0 -1
    outer loop
      vertex -13.65 -3 -9
      vertex -15.05 -1.25 -9
      vertex -13.65 -1.25 -9
    endloop
  endfacet
  facet normal 0 0 -1
    outer loop
      vertex -31.75 -31 -9
      vertex -13.65 -3 -9
      vertex -0.75 -31 -9
    endloop
  endfacet
  facet normal 0 0 -1
    outer loop
      vertex -15.05 -1.25 -9
      vertex -17.95 -1.25 -9
      vertex -15.05 0.75 -9
    endloop
  endfacet
  facet normal 0 0 -1
    outer loop
      vertex -13.65 -3 -9
      vertex -19.35 -3 -9
      vertex -15.05 -1.25 -9
    endloop
  endfacet
  facet normal -0 0 -1
    outer loop
      vertex -15.05 -1.25 -9
      vertex -19.35 -3 -9
      vertex -17.95 -1.25 -9
    endloop
  endfacet
  facet normal -0 0 -1
    outer loop
      vertex -13.65 -3 -9
      vertex -31.75 -31 -9
      vertex -19.35 -3 -9
    endloop
  endfacet
  facet normal 0 0 -1
    outer loop
      vertex -31.75 20 -9
      vertex -21.65 -3 -9
      vertex -31.75 -31 -9
    endloop
  endfacet
  facet normal -0 0 -1
    outer loop
      vertex -19.35 -3 -9
      vertex -31.75 -31 -9
      vertex -21.65 -3 -9
    endloop
  endfacet
  facet normal 0 0 -1
    outer loop
      vertex -11.35 2.5 -9
      vertex -0.75 20 -9
      vertex -11.35 -3 -9
    endloop
  endfacet
  facet normal 0 0 -1
    outer loop
      vertex -13.65 2.5 -9
      vertex -0.75 20 -9
      vertex -11.35 2.5 -9
    endloop
  endfacet
  facet normal 0 0 -1
    outer loop
      vertex -19.35 2.5 -9
      vertex -13.65 2.5 -9
      vertex -15.05 0.75 -9
    endloop
  endfacet
  facet normal 0 0 -1
    outer loop
      vertex -17.95 0.75 -9
      vertex -15.05 0.75 -9
      vertex -17.95 -1.25 -9
    endloop
  endfacet
  facet normal 0 0 -1
    outer loop
      vertex -19.35 2.5 -9
      vertex -15.05 0.75 -9
      vertex -17.95 0.75 -9
    endloop
  endfacet
  facet normal 0 0 -1
    outer loop
      vertex -19.35 2.5 -9
      vertex -17.95 0.75 -9
      vertex -19.35 0.75 -9
    endloop
  endfacet
  facet normal 0 0 -1
    outer loop
      vertex -31.75 20 -9
      vertex -13.65 2.5 -9
      vertex -19.35 2.5 -9
    endloop
  endfacet
  facet normal 0 0 -1
    outer loop
      vertex -31.75 20 -9
      vertex -19.35 2.5 -9
      vertex -21.65 2.5 -9
    endloop
  endfacet
  facet normal 0 0 -1
    outer loop
      vertex -13.65 2.5 -9
      vertex -31.75 20 -9
      vertex -0.75 20 -9
    endloop
  endfacet
  facet normal 0 0 -1
    outer loop
      vertex -21.65 -3 -9
      vertex -31.75 20 -9
      vertex -21.65 2.5 -9
    endloop
  endfacet
  facet normal -0 0 -1
    outer loop
      vertex -17.95 -1.25 -9
      vertex -19.35 -3 -9
      vertex -19.35 -1.25 -9
    endloop
  endfacet
  facet normal 0 -1 0
    outer loop
      vertex -31.75 -31 -9
      vertex -0.75 -31 -7
      vertex -31.75 -31 -7
    endloop
  endfacet
  facet normal 0 -1 -0
    outer loop
      vertex -0.75 -31 -7
      vertex -31.75 -31 -9
      vertex -0.75 -31 -9
    endloop
  endfacet
endsolid OpenSCAD_Model
